%TF.GenerationSoftware,KiCad,Pcbnew,9.0.7*%
%TF.CreationDate,2026-07-14T13:27:33+03:00*%
%TF.ProjectId,Raiden S0-1,52616964-656e-4205-9330-2d312e6b6963,A*%
%TF.SameCoordinates,Original*%
%TF.FileFunction,Legend,Bot*%
%TF.FilePolarity,Positive*%
%FSLAX46Y46*%
G04 Gerber Fmt 4.6, Leading zero omitted, Abs format (unit mm)*
G04 Created by KiCad (PCBNEW 9.0.7) date 2026-07-14 13:27:33*
%MOMM*%
%LPD*%
G01*
G04 APERTURE LIST*
%ADD10C,0.000000*%
%ADD11C,0.130000*%
G04 APERTURE END LIST*
D10*
G36*
X112317000Y-128125000D02*
G01*
X111885000Y-128125000D01*
X111885000Y-127981000D01*
X112317000Y-127981000D01*
X112317000Y-128125000D01*
G37*
G36*
X123135000Y-125817000D02*
G01*
X122558000Y-125817000D01*
X122558000Y-125673000D01*
X123135000Y-125673000D01*
X123135000Y-125817000D01*
G37*
G36*
X127308300Y-135225000D02*
G01*
X127216700Y-135225000D01*
X127216700Y-134583300D01*
X127308300Y-134583300D01*
X127308300Y-135225000D01*
G37*
G36*
X126758300Y-126058300D02*
G01*
X126666700Y-126058300D01*
X126666700Y-125325000D01*
X126758300Y-125325000D01*
X126758300Y-126058300D01*
G37*
G36*
X127125000Y-129541700D02*
G01*
X127033300Y-129541700D01*
X127033300Y-128991700D01*
X127125000Y-128991700D01*
X127125000Y-129541700D01*
G37*
G36*
X118375000Y-133462000D02*
G01*
X118087000Y-133462000D01*
X118087000Y-133173000D01*
X118375000Y-133173000D01*
X118375000Y-133462000D01*
G37*
G36*
X117077000Y-125673000D02*
G01*
X114913000Y-125673000D01*
X114913000Y-125529000D01*
X117077000Y-125529000D01*
X117077000Y-125673000D01*
G37*
G36*
X120538000Y-125385000D02*
G01*
X120106000Y-125385000D01*
X120106000Y-125240000D01*
X120538000Y-125240000D01*
X120538000Y-125385000D01*
G37*
G36*
X127308300Y-126333300D02*
G01*
X127216700Y-126333300D01*
X127216700Y-125600000D01*
X127308300Y-125600000D01*
X127308300Y-126333300D01*
G37*
G36*
X121115000Y-132885000D02*
G01*
X118952000Y-132885000D01*
X118952000Y-132740000D01*
X121115000Y-132740000D01*
X121115000Y-132885000D01*
G37*
G36*
X113038000Y-133462000D02*
G01*
X112029000Y-133462000D01*
X112029000Y-133317000D01*
X113038000Y-133317000D01*
X113038000Y-133462000D01*
G37*
G36*
X119096000Y-130865000D02*
G01*
X117510000Y-130865000D01*
X117510000Y-130721000D01*
X119096000Y-130721000D01*
X119096000Y-130865000D01*
G37*
G36*
X110731000Y-134471000D02*
G01*
X110587000Y-134471000D01*
X110587000Y-134327000D01*
X110731000Y-134327000D01*
X110731000Y-134471000D01*
G37*
G36*
X122125000Y-127981000D02*
G01*
X114337000Y-127981000D01*
X114337000Y-127837000D01*
X122125000Y-127837000D01*
X122125000Y-127981000D01*
G37*
G36*
X115058000Y-130865000D02*
G01*
X114337000Y-130865000D01*
X114337000Y-130721000D01*
X115058000Y-130721000D01*
X115058000Y-130865000D01*
G37*
G36*
X111452000Y-128413000D02*
G01*
X111019000Y-128413000D01*
X111019000Y-128269000D01*
X111452000Y-128269000D01*
X111452000Y-128413000D01*
G37*
G36*
X121548000Y-127260000D02*
G01*
X119096000Y-127260000D01*
X119096000Y-127115000D01*
X121548000Y-127115000D01*
X121548000Y-127260000D01*
G37*
G36*
X116067000Y-134760000D02*
G01*
X115779000Y-134760000D01*
X115779000Y-134615000D01*
X116067000Y-134615000D01*
X116067000Y-134760000D01*
G37*
G36*
X113904000Y-130865000D02*
G01*
X110875000Y-130865000D01*
X110875000Y-130721000D01*
X113904000Y-130721000D01*
X113904000Y-130865000D01*
G37*
G36*
X127400000Y-136600000D02*
G01*
X127308300Y-136600000D01*
X127308300Y-136050000D01*
X127400000Y-136050000D01*
X127400000Y-136600000D01*
G37*
G36*
X117942000Y-132885000D02*
G01*
X112317000Y-132885000D01*
X112317000Y-132740000D01*
X117942000Y-132740000D01*
X117942000Y-132885000D01*
G37*
G36*
X122269000Y-128269000D02*
G01*
X121837000Y-128269000D01*
X121837000Y-128125000D01*
X122269000Y-128125000D01*
X122269000Y-128269000D01*
G37*
G36*
X127400000Y-126333300D02*
G01*
X127308300Y-126333300D01*
X127308300Y-125691700D01*
X127400000Y-125691700D01*
X127400000Y-126333300D01*
G37*
G36*
X121548000Y-129279000D02*
G01*
X120683000Y-129279000D01*
X120683000Y-129135000D01*
X121548000Y-129135000D01*
X121548000Y-129279000D01*
G37*
G36*
X115490000Y-124375000D02*
G01*
X114481000Y-124375000D01*
X114481000Y-124231000D01*
X115490000Y-124231000D01*
X115490000Y-124375000D01*
G37*
G36*
X125933300Y-134491700D02*
G01*
X125841700Y-134491700D01*
X125841700Y-133666700D01*
X125933300Y-133666700D01*
X125933300Y-134491700D01*
G37*
G36*
X122125000Y-128125000D02*
G01*
X121837000Y-128125000D01*
X121837000Y-127981000D01*
X122125000Y-127981000D01*
X122125000Y-128125000D01*
G37*
G36*
X126758300Y-129633300D02*
G01*
X126666700Y-129633300D01*
X126666700Y-128991700D01*
X126758300Y-128991700D01*
X126758300Y-129633300D01*
G37*
G36*
X116500000Y-134038000D02*
G01*
X114048000Y-134038000D01*
X114048000Y-133894000D01*
X116500000Y-133894000D01*
X116500000Y-134038000D01*
G37*
G36*
X114481000Y-127404000D02*
G01*
X112894000Y-127404000D01*
X112894000Y-127260000D01*
X114481000Y-127260000D01*
X114481000Y-127404000D01*
G37*
G36*
X112894000Y-128846000D02*
G01*
X112029000Y-128846000D01*
X112029000Y-128702000D01*
X112894000Y-128702000D01*
X112894000Y-128846000D01*
G37*
G36*
X114048000Y-127260000D02*
G01*
X112894000Y-127260000D01*
X112894000Y-127115000D01*
X114048000Y-127115000D01*
X114048000Y-127260000D01*
G37*
G36*
X126025000Y-136875000D02*
G01*
X125933300Y-136875000D01*
X125933300Y-136141700D01*
X126025000Y-136141700D01*
X126025000Y-136875000D01*
G37*
G36*
X126666700Y-127341700D02*
G01*
X126575000Y-127341700D01*
X126575000Y-126700000D01*
X126666700Y-126700000D01*
X126666700Y-127341700D01*
G37*
G36*
X111596000Y-129567000D02*
G01*
X110442000Y-129567000D01*
X110442000Y-129423000D01*
X111596000Y-129423000D01*
X111596000Y-129567000D01*
G37*
G36*
X127400000Y-135133300D02*
G01*
X127308300Y-135133300D01*
X127308300Y-134583300D01*
X127400000Y-134583300D01*
X127400000Y-135133300D01*
G37*
G36*
X125750000Y-126608300D02*
G01*
X125658300Y-126608300D01*
X125658300Y-125966700D01*
X125750000Y-125966700D01*
X125750000Y-126608300D01*
G37*
G36*
X112750000Y-133750000D02*
G01*
X112029000Y-133750000D01*
X112029000Y-133606000D01*
X112750000Y-133606000D01*
X112750000Y-133750000D01*
G37*
G36*
X112317000Y-126394000D02*
G01*
X112029000Y-126394000D01*
X112029000Y-126250000D01*
X112317000Y-126250000D01*
X112317000Y-126394000D01*
G37*
G36*
X118952000Y-135481000D02*
G01*
X117798000Y-135481000D01*
X117798000Y-135337000D01*
X118952000Y-135337000D01*
X118952000Y-135481000D01*
G37*
G36*
X120971000Y-128990000D02*
G01*
X113327000Y-128990000D01*
X113327000Y-128846000D01*
X120971000Y-128846000D01*
X120971000Y-128990000D01*
G37*
G36*
X125658300Y-129816700D02*
G01*
X125566700Y-129816700D01*
X125566700Y-129266700D01*
X125658300Y-129266700D01*
X125658300Y-129816700D01*
G37*
G36*
X119962000Y-131442000D02*
G01*
X116788000Y-131442000D01*
X116788000Y-131298000D01*
X119962000Y-131298000D01*
X119962000Y-131442000D01*
G37*
G36*
X126300000Y-129725000D02*
G01*
X126208300Y-129725000D01*
X126208300Y-129083300D01*
X126300000Y-129083300D01*
X126300000Y-129725000D01*
G37*
G36*
X116212000Y-126394000D02*
G01*
X115923000Y-126394000D01*
X115923000Y-126250000D01*
X116212000Y-126250000D01*
X116212000Y-126394000D01*
G37*
G36*
X126850000Y-130641700D02*
G01*
X126758300Y-130641700D01*
X126758300Y-129908300D01*
X126850000Y-129908300D01*
X126850000Y-130641700D01*
G37*
G36*
X113327000Y-128702000D02*
G01*
X112029000Y-128702000D01*
X112029000Y-128558000D01*
X113327000Y-128558000D01*
X113327000Y-128702000D01*
G37*
G36*
X126300000Y-128808300D02*
G01*
X126208300Y-128808300D01*
X126208300Y-126975000D01*
X126300000Y-126975000D01*
X126300000Y-128808300D01*
G37*
G36*
X120250000Y-124519000D02*
G01*
X118375000Y-124519000D01*
X118375000Y-124375000D01*
X120250000Y-124375000D01*
X120250000Y-124519000D01*
G37*
G36*
X117221000Y-124375000D02*
G01*
X116788000Y-124375000D01*
X116788000Y-124231000D01*
X117221000Y-124231000D01*
X117221000Y-124375000D01*
G37*
G36*
X112173000Y-129135000D02*
G01*
X111596000Y-129135000D01*
X111596000Y-128990000D01*
X112173000Y-128990000D01*
X112173000Y-129135000D01*
G37*
G36*
X113183000Y-134327000D02*
G01*
X112750000Y-134327000D01*
X112750000Y-134183000D01*
X113183000Y-134183000D01*
X113183000Y-134327000D01*
G37*
G36*
X126666700Y-133025000D02*
G01*
X126575000Y-133025000D01*
X126575000Y-132383300D01*
X126666700Y-132383300D01*
X126666700Y-133025000D01*
G37*
G36*
X119817000Y-130000000D02*
G01*
X119529000Y-130000000D01*
X119529000Y-129856000D01*
X119817000Y-129856000D01*
X119817000Y-130000000D01*
G37*
G36*
X112029000Y-127692000D02*
G01*
X111740000Y-127692000D01*
X111740000Y-127548000D01*
X112029000Y-127548000D01*
X112029000Y-127692000D01*
G37*
G36*
X120106000Y-124375000D02*
G01*
X119673000Y-124375000D01*
X119673000Y-124231000D01*
X120106000Y-124231000D01*
X120106000Y-124375000D01*
G37*
G36*
X126116700Y-133116700D02*
G01*
X126025000Y-133116700D01*
X126025000Y-132475000D01*
X126116700Y-132475000D01*
X126116700Y-133116700D01*
G37*
G36*
X115923000Y-125240000D02*
G01*
X115635000Y-125240000D01*
X115635000Y-125096000D01*
X115923000Y-125096000D01*
X115923000Y-125240000D01*
G37*
G36*
X126300000Y-126333300D02*
G01*
X126208300Y-126333300D01*
X126208300Y-124041700D01*
X126300000Y-124041700D01*
X126300000Y-126333300D01*
G37*
G36*
X125566700Y-129816700D02*
G01*
X125475000Y-129816700D01*
X125475000Y-129266700D01*
X125566700Y-129266700D01*
X125566700Y-129816700D01*
G37*
G36*
X117798000Y-133029000D02*
G01*
X112462000Y-133029000D01*
X112462000Y-132885000D01*
X117798000Y-132885000D01*
X117798000Y-133029000D01*
G37*
G36*
X125841700Y-134491700D02*
G01*
X125750000Y-134491700D01*
X125750000Y-132658300D01*
X125841700Y-132658300D01*
X125841700Y-134491700D01*
G37*
G36*
X122413000Y-131010000D02*
G01*
X122125000Y-131010000D01*
X122125000Y-130721000D01*
X122413000Y-130721000D01*
X122413000Y-131010000D01*
G37*
G36*
X126208300Y-128808300D02*
G01*
X126116700Y-128808300D01*
X126116700Y-128166700D01*
X126208300Y-128166700D01*
X126208300Y-128808300D01*
G37*
G36*
X110875000Y-134327000D02*
G01*
X110442000Y-134327000D01*
X110442000Y-134183000D01*
X110875000Y-134183000D01*
X110875000Y-134327000D01*
G37*
G36*
X116500000Y-124519000D02*
G01*
X116067000Y-124519000D01*
X116067000Y-124375000D01*
X116500000Y-124375000D01*
X116500000Y-124519000D01*
G37*
G36*
X125933300Y-126516700D02*
G01*
X125841700Y-126516700D01*
X125841700Y-125875000D01*
X125933300Y-125875000D01*
X125933300Y-126516700D01*
G37*
G36*
X120394000Y-129279000D02*
G01*
X112894000Y-129279000D01*
X112894000Y-129135000D01*
X120394000Y-129135000D01*
X120394000Y-129279000D01*
G37*
G36*
X126116700Y-132200000D02*
G01*
X126025000Y-132200000D01*
X126025000Y-131466700D01*
X126116700Y-131466700D01*
X126116700Y-132200000D01*
G37*
G36*
X114625000Y-130577000D02*
G01*
X110875000Y-130577000D01*
X110875000Y-130433000D01*
X114625000Y-130433000D01*
X114625000Y-130577000D01*
G37*
G36*
X116212000Y-124952000D02*
G01*
X115779000Y-124952000D01*
X115779000Y-124808000D01*
X116212000Y-124808000D01*
X116212000Y-124952000D01*
G37*
G36*
X116644000Y-135481000D02*
G01*
X116212000Y-135481000D01*
X116212000Y-135337000D01*
X116644000Y-135337000D01*
X116644000Y-135481000D01*
G37*
G36*
X126391700Y-135408300D02*
G01*
X126300000Y-135408300D01*
X126300000Y-134766700D01*
X126391700Y-134766700D01*
X126391700Y-135408300D01*
G37*
G36*
X126025000Y-128808300D02*
G01*
X125933300Y-128808300D01*
X125933300Y-128166700D01*
X126025000Y-128166700D01*
X126025000Y-128808300D01*
G37*
G36*
X121981000Y-129423000D02*
G01*
X121115000Y-129423000D01*
X121115000Y-129279000D01*
X121981000Y-129279000D01*
X121981000Y-129423000D01*
G37*
G36*
X121260000Y-131298000D02*
G01*
X120538000Y-131298000D01*
X120538000Y-131154000D01*
X121260000Y-131154000D01*
X121260000Y-131298000D01*
G37*
G36*
X122269000Y-126538000D02*
G01*
X120971000Y-126538000D01*
X120971000Y-126394000D01*
X122269000Y-126394000D01*
X122269000Y-126538000D01*
G37*
G36*
X122990000Y-130288000D02*
G01*
X121548000Y-130288000D01*
X121548000Y-130144000D01*
X122990000Y-130144000D01*
X122990000Y-130288000D01*
G37*
G36*
X117798000Y-134904000D02*
G01*
X117365000Y-134904000D01*
X117365000Y-134760000D01*
X117798000Y-134760000D01*
X117798000Y-134904000D01*
G37*
G36*
X121548000Y-127115000D02*
G01*
X119817000Y-127115000D01*
X119817000Y-126971000D01*
X121548000Y-126971000D01*
X121548000Y-127115000D01*
G37*
G36*
X112029000Y-132452000D02*
G01*
X111163000Y-132452000D01*
X111163000Y-132308000D01*
X112029000Y-132308000D01*
X112029000Y-132452000D01*
G37*
G36*
X116212000Y-124808000D02*
G01*
X115923000Y-124808000D01*
X115923000Y-124663000D01*
X116212000Y-124663000D01*
X116212000Y-124808000D01*
G37*
G36*
X127400000Y-131925000D02*
G01*
X127308300Y-131925000D01*
X127308300Y-131466700D01*
X127400000Y-131466700D01*
X127400000Y-131925000D01*
G37*
G36*
X118375000Y-127548000D02*
G01*
X117942000Y-127548000D01*
X117942000Y-127404000D01*
X118375000Y-127404000D01*
X118375000Y-127548000D01*
G37*
G36*
X114769000Y-135192000D02*
G01*
X113183000Y-135192000D01*
X113183000Y-135048000D01*
X114769000Y-135048000D01*
X114769000Y-135192000D01*
G37*
G36*
X121115000Y-128125000D02*
G01*
X114048000Y-128125000D01*
X114048000Y-127981000D01*
X121115000Y-127981000D01*
X121115000Y-128125000D01*
G37*
G36*
X113327000Y-131154000D02*
G01*
X110875000Y-131154000D01*
X110875000Y-131010000D01*
X113327000Y-131010000D01*
X113327000Y-131154000D01*
G37*
G36*
X121115000Y-132596000D02*
G01*
X118519000Y-132596000D01*
X118519000Y-132452000D01*
X121115000Y-132452000D01*
X121115000Y-132596000D01*
G37*
G36*
X126208300Y-126425000D02*
G01*
X126116700Y-126425000D01*
X126116700Y-124133300D01*
X126208300Y-124133300D01*
X126208300Y-126425000D01*
G37*
G36*
X120394000Y-129423000D02*
G01*
X112750000Y-129423000D01*
X112750000Y-129279000D01*
X120394000Y-129279000D01*
X120394000Y-129423000D01*
G37*
G36*
X126483300Y-129725000D02*
G01*
X126391700Y-129725000D01*
X126391700Y-129083300D01*
X126483300Y-129083300D01*
X126483300Y-129725000D01*
G37*
G36*
X111885000Y-132308000D02*
G01*
X111308000Y-132308000D01*
X111308000Y-132163000D01*
X111885000Y-132163000D01*
X111885000Y-132308000D01*
G37*
G36*
X126116700Y-126425000D02*
G01*
X126025000Y-126425000D01*
X126025000Y-124133300D01*
X126116700Y-124133300D01*
X126116700Y-126425000D01*
G37*
G36*
X112029000Y-131731000D02*
G01*
X110442000Y-131731000D01*
X110442000Y-131587000D01*
X112029000Y-131587000D01*
X112029000Y-131731000D01*
G37*
G36*
X118663000Y-125385000D02*
G01*
X117077000Y-125385000D01*
X117077000Y-125240000D01*
X118663000Y-125240000D01*
X118663000Y-125385000D01*
G37*
G36*
X112462000Y-126250000D02*
G01*
X112173000Y-126250000D01*
X112173000Y-126106000D01*
X112462000Y-126106000D01*
X112462000Y-126250000D01*
G37*
G36*
X126116700Y-130733300D02*
G01*
X126025000Y-130733300D01*
X126025000Y-130091700D01*
X126116700Y-130091700D01*
X126116700Y-130733300D01*
G37*
G36*
X117221000Y-135625000D02*
G01*
X116212000Y-135625000D01*
X116212000Y-135481000D01*
X117221000Y-135481000D01*
X117221000Y-135625000D01*
G37*
G36*
X125658300Y-128625000D02*
G01*
X125566700Y-128625000D01*
X125566700Y-126975000D01*
X125658300Y-126975000D01*
X125658300Y-128625000D01*
G37*
G36*
X127308300Y-128625000D02*
G01*
X127216700Y-128625000D01*
X127216700Y-128075000D01*
X127308300Y-128075000D01*
X127308300Y-128625000D01*
G37*
G36*
X122269000Y-132596000D02*
G01*
X121404000Y-132596000D01*
X121404000Y-132308000D01*
X122269000Y-132308000D01*
X122269000Y-132596000D01*
G37*
G36*
X113183000Y-133317000D02*
G01*
X112462000Y-133317000D01*
X112462000Y-133173000D01*
X113183000Y-133173000D01*
X113183000Y-133317000D01*
G37*
G36*
X126025000Y-133208300D02*
G01*
X125933300Y-133208300D01*
X125933300Y-132475000D01*
X126025000Y-132475000D01*
X126025000Y-133208300D01*
G37*
G36*
X121115000Y-133894000D02*
G01*
X120394000Y-133894000D01*
X120394000Y-133750000D01*
X121115000Y-133750000D01*
X121115000Y-133894000D01*
G37*
G36*
X113760000Y-125385000D02*
G01*
X113327000Y-125385000D01*
X113327000Y-125240000D01*
X113760000Y-125240000D01*
X113760000Y-125385000D01*
G37*
G36*
X118519000Y-127260000D02*
G01*
X118087000Y-127260000D01*
X118087000Y-127115000D01*
X118519000Y-127115000D01*
X118519000Y-127260000D01*
G37*
G36*
X126483300Y-134400000D02*
G01*
X126391700Y-134400000D01*
X126391700Y-132383300D01*
X126483300Y-132383300D01*
X126483300Y-134400000D01*
G37*
G36*
X120394000Y-129567000D02*
G01*
X119962000Y-129567000D01*
X119962000Y-129423000D01*
X120394000Y-129423000D01*
X120394000Y-129567000D01*
G37*
G36*
X117510000Y-127115000D02*
G01*
X116067000Y-127115000D01*
X116067000Y-126971000D01*
X117510000Y-126971000D01*
X117510000Y-127115000D01*
G37*
G36*
X120971000Y-132163000D02*
G01*
X116500000Y-132163000D01*
X116500000Y-132019000D01*
X120971000Y-132019000D01*
X120971000Y-132163000D01*
G37*
G36*
X116212000Y-135048000D02*
G01*
X115923000Y-135048000D01*
X115923000Y-134904000D01*
X116212000Y-134904000D01*
X116212000Y-135048000D01*
G37*
G36*
X120394000Y-126250000D02*
G01*
X120106000Y-126250000D01*
X120106000Y-126106000D01*
X120394000Y-126106000D01*
X120394000Y-126250000D01*
G37*
G36*
X120394000Y-134760000D02*
G01*
X119240000Y-134760000D01*
X119240000Y-134615000D01*
X120394000Y-134615000D01*
X120394000Y-134760000D01*
G37*
G36*
X126758300Y-132108300D02*
G01*
X126666700Y-132108300D01*
X126666700Y-131466700D01*
X126758300Y-131466700D01*
X126758300Y-132108300D01*
G37*
G36*
X111308000Y-129856000D02*
G01*
X110298000Y-129856000D01*
X110298000Y-129712000D01*
X111308000Y-129712000D01*
X111308000Y-129856000D01*
G37*
G36*
X122125000Y-132740000D02*
G01*
X121404000Y-132740000D01*
X121404000Y-132596000D01*
X122125000Y-132596000D01*
X122125000Y-132740000D01*
G37*
G36*
X120827000Y-125817000D02*
G01*
X120394000Y-125817000D01*
X120394000Y-125673000D01*
X120827000Y-125673000D01*
X120827000Y-125817000D01*
G37*
G36*
X117654000Y-135048000D02*
G01*
X117221000Y-135048000D01*
X117221000Y-134904000D01*
X117654000Y-134904000D01*
X117654000Y-135048000D01*
G37*
G36*
X116356000Y-135192000D02*
G01*
X116067000Y-135192000D01*
X116067000Y-135048000D01*
X116356000Y-135048000D01*
X116356000Y-135192000D01*
G37*
G36*
X125841700Y-136875000D02*
G01*
X125750000Y-136875000D01*
X125750000Y-134858300D01*
X125841700Y-134858300D01*
X125841700Y-136875000D01*
G37*
G36*
X114913000Y-130577000D02*
G01*
X114769000Y-130577000D01*
X114769000Y-130433000D01*
X114913000Y-130433000D01*
X114913000Y-130577000D01*
G37*
G36*
X119096000Y-124375000D02*
G01*
X117942000Y-124375000D01*
X117942000Y-124231000D01*
X119096000Y-124231000D01*
X119096000Y-124375000D01*
G37*
G36*
X117510000Y-123942000D02*
G01*
X115923000Y-123942000D01*
X115923000Y-123798000D01*
X117510000Y-123798000D01*
X117510000Y-123942000D01*
G37*
G36*
X121404000Y-131731000D02*
G01*
X121115000Y-131731000D01*
X121115000Y-131587000D01*
X121404000Y-131587000D01*
X121404000Y-131731000D01*
G37*
G36*
X126941700Y-124591700D02*
G01*
X126850000Y-124591700D01*
X126850000Y-123950000D01*
X126941700Y-123950000D01*
X126941700Y-124591700D01*
G37*
G36*
X121115000Y-133606000D02*
G01*
X119962000Y-133606000D01*
X119962000Y-133462000D01*
X121115000Y-133462000D01*
X121115000Y-133606000D01*
G37*
G36*
X115923000Y-134615000D02*
G01*
X115635000Y-134615000D01*
X115635000Y-134471000D01*
X115923000Y-134471000D01*
X115923000Y-134615000D01*
G37*
G36*
X112317000Y-126538000D02*
G01*
X111885000Y-126538000D01*
X111885000Y-126394000D01*
X112317000Y-126394000D01*
X112317000Y-126538000D01*
G37*
G36*
X115202000Y-132163000D02*
G01*
X112894000Y-132163000D01*
X112894000Y-132019000D01*
X115202000Y-132019000D01*
X115202000Y-132163000D01*
G37*
G36*
X126758300Y-124591700D02*
G01*
X126666700Y-124591700D01*
X126666700Y-123950000D01*
X126758300Y-123950000D01*
X126758300Y-124591700D01*
G37*
G36*
X127308300Y-127891700D02*
G01*
X127216700Y-127891700D01*
X127216700Y-126791700D01*
X127308300Y-126791700D01*
X127308300Y-127891700D01*
G37*
G36*
X127125000Y-126241700D02*
G01*
X127033300Y-126241700D01*
X127033300Y-125508300D01*
X127125000Y-125508300D01*
X127125000Y-126241700D01*
G37*
G36*
X127033300Y-129633300D02*
G01*
X126941700Y-129633300D01*
X126941700Y-128991700D01*
X127033300Y-128991700D01*
X127033300Y-129633300D01*
G37*
G36*
X120250000Y-135337000D02*
G01*
X118375000Y-135337000D01*
X118375000Y-135192000D01*
X120250000Y-135192000D01*
X120250000Y-135337000D01*
G37*
G36*
X116788000Y-126106000D02*
G01*
X116500000Y-126106000D01*
X116500000Y-125962000D01*
X116788000Y-125962000D01*
X116788000Y-126106000D01*
G37*
G36*
X118087000Y-132740000D02*
G01*
X111019000Y-132740000D01*
X111019000Y-132596000D01*
X118087000Y-132596000D01*
X118087000Y-132740000D01*
G37*
G36*
X118663000Y-127115000D02*
G01*
X118231000Y-127115000D01*
X118231000Y-126971000D01*
X118663000Y-126971000D01*
X118663000Y-127115000D01*
G37*
G36*
X120394000Y-124952000D02*
G01*
X118952000Y-124952000D01*
X118952000Y-124808000D01*
X120394000Y-124808000D01*
X120394000Y-124952000D01*
G37*
G36*
X125200000Y-129908300D02*
G01*
X125108300Y-129908300D01*
X125108300Y-129266700D01*
X125200000Y-129266700D01*
X125200000Y-129908300D01*
G37*
G36*
X119385000Y-126106000D02*
G01*
X118375000Y-126106000D01*
X118375000Y-125962000D01*
X119385000Y-125962000D01*
X119385000Y-126106000D01*
G37*
G36*
X120250000Y-126538000D02*
G01*
X119962000Y-126538000D01*
X119962000Y-126394000D01*
X120250000Y-126394000D01*
X120250000Y-126538000D01*
G37*
G36*
X120827000Y-128413000D02*
G01*
X113183000Y-128413000D01*
X113183000Y-128269000D01*
X120827000Y-128269000D01*
X120827000Y-128413000D01*
G37*
G36*
X114337000Y-134327000D02*
G01*
X113904000Y-134327000D01*
X113904000Y-134183000D01*
X114337000Y-134183000D01*
X114337000Y-134327000D01*
G37*
G36*
X125933300Y-128808300D02*
G01*
X125841700Y-128808300D01*
X125841700Y-126975000D01*
X125933300Y-126975000D01*
X125933300Y-128808300D01*
G37*
G36*
X127033300Y-124591700D02*
G01*
X126941700Y-124591700D01*
X126941700Y-123950000D01*
X127033300Y-123950000D01*
X127033300Y-124591700D01*
G37*
G36*
X117510000Y-126394000D02*
G01*
X117077000Y-126394000D01*
X117077000Y-126250000D01*
X117510000Y-126250000D01*
X117510000Y-126394000D01*
G37*
G36*
X111019000Y-134183000D02*
G01*
X110587000Y-134183000D01*
X110587000Y-134038000D01*
X111019000Y-134038000D01*
X111019000Y-134183000D01*
G37*
G36*
X125841700Y-129816700D02*
G01*
X125750000Y-129816700D01*
X125750000Y-129175000D01*
X125841700Y-129175000D01*
X125841700Y-129816700D01*
G37*
G36*
X118952000Y-134183000D02*
G01*
X117942000Y-134183000D01*
X117942000Y-134038000D01*
X118952000Y-134038000D01*
X118952000Y-134183000D01*
G37*
G36*
X120683000Y-125529000D02*
G01*
X120106000Y-125529000D01*
X120106000Y-125385000D01*
X120683000Y-125385000D01*
X120683000Y-125529000D01*
G37*
G36*
X121115000Y-128846000D02*
G01*
X113471000Y-128846000D01*
X113471000Y-128702000D01*
X121115000Y-128702000D01*
X121115000Y-128846000D01*
G37*
G36*
X117365000Y-135337000D02*
G01*
X117077000Y-135337000D01*
X117077000Y-135192000D01*
X117365000Y-135192000D01*
X117365000Y-135337000D01*
G37*
G36*
X126941700Y-136783300D02*
G01*
X126850000Y-136783300D01*
X126850000Y-136141700D01*
X126941700Y-136141700D01*
X126941700Y-136783300D01*
G37*
G36*
X117654000Y-127548000D02*
G01*
X114048000Y-127548000D01*
X114048000Y-127404000D01*
X117654000Y-127404000D01*
X117654000Y-127548000D01*
G37*
G36*
X116067000Y-125817000D02*
G01*
X114913000Y-125817000D01*
X114913000Y-125673000D01*
X116067000Y-125673000D01*
X116067000Y-125817000D01*
G37*
G36*
X120394000Y-124808000D02*
G01*
X119240000Y-124808000D01*
X119240000Y-124663000D01*
X120394000Y-124663000D01*
X120394000Y-124808000D01*
G37*
G36*
X117510000Y-126538000D02*
G01*
X116933000Y-126538000D01*
X116933000Y-126394000D01*
X117510000Y-126394000D01*
X117510000Y-126538000D01*
G37*
G36*
X119096000Y-133462000D02*
G01*
X118808000Y-133462000D01*
X118808000Y-133317000D01*
X119096000Y-133317000D01*
X119096000Y-133462000D01*
G37*
G36*
X126758300Y-128716700D02*
G01*
X126666700Y-128716700D01*
X126666700Y-128075000D01*
X126758300Y-128075000D01*
X126758300Y-128716700D01*
G37*
G36*
X126025000Y-129816700D02*
G01*
X125933300Y-129816700D01*
X125933300Y-129175000D01*
X126025000Y-129175000D01*
X126025000Y-129816700D01*
G37*
G36*
X117510000Y-135192000D02*
G01*
X117077000Y-135192000D01*
X117077000Y-135048000D01*
X117510000Y-135048000D01*
X117510000Y-135192000D01*
G37*
G36*
X127308300Y-129541700D02*
G01*
X127216700Y-129541700D01*
X127216700Y-128900000D01*
X127308300Y-128900000D01*
X127308300Y-129541700D01*
G37*
G36*
X120683000Y-128558000D02*
G01*
X112029000Y-128558000D01*
X112029000Y-128413000D01*
X120683000Y-128413000D01*
X120683000Y-128558000D01*
G37*
G36*
X117942000Y-130288000D02*
G01*
X110587000Y-130288000D01*
X110587000Y-130144000D01*
X117942000Y-130144000D01*
X117942000Y-130288000D01*
G37*
G36*
X120683000Y-132019000D02*
G01*
X116644000Y-132019000D01*
X116644000Y-131875000D01*
X120683000Y-131875000D01*
X120683000Y-132019000D01*
G37*
G36*
X126391700Y-132108300D02*
G01*
X126300000Y-132108300D01*
X126300000Y-131558300D01*
X126391700Y-131558300D01*
X126391700Y-132108300D01*
G37*
G36*
X127400000Y-124500000D02*
G01*
X127308300Y-124500000D01*
X127308300Y-123950000D01*
X127400000Y-123950000D01*
X127400000Y-124500000D01*
G37*
G36*
X115058000Y-131442000D02*
G01*
X113327000Y-131442000D01*
X113327000Y-131154000D01*
X115058000Y-131154000D01*
X115058000Y-131442000D01*
G37*
G36*
X117942000Y-134615000D02*
G01*
X117654000Y-134615000D01*
X117654000Y-134471000D01*
X117942000Y-134471000D01*
X117942000Y-134615000D01*
G37*
G36*
X112894000Y-133606000D02*
G01*
X112029000Y-133606000D01*
X112029000Y-133462000D01*
X112894000Y-133462000D01*
X112894000Y-133606000D01*
G37*
G36*
X126025000Y-126516700D02*
G01*
X125933300Y-126516700D01*
X125933300Y-125783300D01*
X126025000Y-125783300D01*
X126025000Y-126516700D01*
G37*
G36*
X117221000Y-134471000D02*
G01*
X116933000Y-134471000D01*
X116933000Y-134327000D01*
X117221000Y-134327000D01*
X117221000Y-134471000D01*
G37*
G36*
X118663000Y-130577000D02*
G01*
X117798000Y-130577000D01*
X117798000Y-130433000D01*
X118663000Y-130433000D01*
X118663000Y-130577000D01*
G37*
G36*
X125108300Y-126333300D02*
G01*
X125016700Y-126333300D01*
X125016700Y-124316700D01*
X125108300Y-124316700D01*
X125108300Y-126333300D01*
G37*
G36*
X122269000Y-131442000D02*
G01*
X121981000Y-131442000D01*
X121981000Y-131154000D01*
X122269000Y-131154000D01*
X122269000Y-131442000D01*
G37*
G36*
X112750000Y-128413000D02*
G01*
X112029000Y-128413000D01*
X112029000Y-128269000D01*
X112750000Y-128269000D01*
X112750000Y-128413000D01*
G37*
G36*
X112894000Y-131875000D02*
G01*
X112462000Y-131875000D01*
X112462000Y-131731000D01*
X112894000Y-131731000D01*
X112894000Y-131875000D01*
G37*
G36*
X126666700Y-135316700D02*
G01*
X126575000Y-135316700D01*
X126575000Y-134675000D01*
X126666700Y-134675000D01*
X126666700Y-135316700D01*
G37*
G36*
X122125000Y-132019000D02*
G01*
X121260000Y-132019000D01*
X121260000Y-131875000D01*
X122125000Y-131875000D01*
X122125000Y-132019000D01*
G37*
G36*
X114769000Y-125240000D02*
G01*
X114048000Y-125240000D01*
X114048000Y-125096000D01*
X114769000Y-125096000D01*
X114769000Y-125240000D01*
G37*
G36*
X123135000Y-130000000D02*
G01*
X122125000Y-130000000D01*
X122125000Y-129712000D01*
X123135000Y-129712000D01*
X123135000Y-130000000D01*
G37*
G36*
X126575000Y-125966700D02*
G01*
X126483300Y-125966700D01*
X126483300Y-124041700D01*
X126575000Y-124041700D01*
X126575000Y-125966700D01*
G37*
G36*
X117654000Y-127404000D02*
G01*
X115490000Y-127404000D01*
X115490000Y-127260000D01*
X117654000Y-127260000D01*
X117654000Y-127404000D01*
G37*
G36*
X115202000Y-132308000D02*
G01*
X112750000Y-132308000D01*
X112750000Y-132163000D01*
X115202000Y-132163000D01*
X115202000Y-132308000D01*
G37*
G36*
X125658300Y-136783300D02*
G01*
X125566700Y-136783300D01*
X125566700Y-135591700D01*
X125658300Y-135591700D01*
X125658300Y-136783300D01*
G37*
G36*
X127308300Y-136691700D02*
G01*
X127216700Y-136691700D01*
X127216700Y-136050000D01*
X127308300Y-136050000D01*
X127308300Y-136691700D01*
G37*
G36*
X122269000Y-128558000D02*
G01*
X121981000Y-128558000D01*
X121981000Y-128269000D01*
X122269000Y-128269000D01*
X122269000Y-128558000D01*
G37*
G36*
X111308000Y-132019000D02*
G01*
X110154000Y-132019000D01*
X110154000Y-131875000D01*
X111308000Y-131875000D01*
X111308000Y-132019000D01*
G37*
G36*
X117654000Y-133317000D02*
G01*
X113327000Y-133317000D01*
X113327000Y-133173000D01*
X117654000Y-133173000D01*
X117654000Y-133317000D01*
G37*
G36*
X120683000Y-130288000D02*
G01*
X120394000Y-130288000D01*
X120394000Y-130144000D01*
X120683000Y-130144000D01*
X120683000Y-130288000D01*
G37*
G36*
X127125000Y-134308300D02*
G01*
X127033300Y-134308300D01*
X127033300Y-132475000D01*
X127125000Y-132475000D01*
X127125000Y-134308300D01*
G37*
G36*
X112750000Y-125962000D02*
G01*
X112317000Y-125962000D01*
X112317000Y-125817000D01*
X112750000Y-125817000D01*
X112750000Y-125962000D01*
G37*
G36*
X114481000Y-125096000D02*
G01*
X113038000Y-125096000D01*
X113038000Y-124952000D01*
X114481000Y-124952000D01*
X114481000Y-125096000D01*
G37*
G36*
X125016700Y-126241700D02*
G01*
X124925000Y-126241700D01*
X124925000Y-124316700D01*
X125016700Y-124316700D01*
X125016700Y-126241700D01*
G37*
G36*
X122558000Y-130577000D02*
G01*
X122269000Y-130577000D01*
X122269000Y-130433000D01*
X122558000Y-130433000D01*
X122558000Y-130577000D01*
G37*
G36*
X118519000Y-127404000D02*
G01*
X117942000Y-127404000D01*
X117942000Y-127260000D01*
X118519000Y-127260000D01*
X118519000Y-127404000D01*
G37*
G36*
X120971000Y-126106000D02*
G01*
X120250000Y-126106000D01*
X120250000Y-125962000D01*
X120971000Y-125962000D01*
X120971000Y-126106000D01*
G37*
G36*
X126666700Y-130550000D02*
G01*
X126575000Y-130550000D01*
X126575000Y-130000000D01*
X126666700Y-130000000D01*
X126666700Y-130550000D01*
G37*
G36*
X114481000Y-124663000D02*
G01*
X113038000Y-124663000D01*
X113038000Y-124519000D01*
X114481000Y-124519000D01*
X114481000Y-124663000D01*
G37*
G36*
X125658300Y-132291700D02*
G01*
X125566700Y-132291700D01*
X125566700Y-130366700D01*
X125658300Y-130366700D01*
X125658300Y-132291700D01*
G37*
G36*
X117510000Y-126971000D02*
G01*
X116212000Y-126971000D01*
X116212000Y-126827000D01*
X117510000Y-126827000D01*
X117510000Y-126971000D01*
G37*
G36*
X113038000Y-134183000D02*
G01*
X112606000Y-134183000D01*
X112606000Y-134038000D01*
X113038000Y-134038000D01*
X113038000Y-134183000D01*
G37*
G36*
X114769000Y-126394000D02*
G01*
X114192000Y-126394000D01*
X114192000Y-126250000D01*
X114769000Y-126250000D01*
X114769000Y-126394000D01*
G37*
G36*
X117221000Y-134327000D02*
G01*
X117077000Y-134327000D01*
X117077000Y-134183000D01*
X117221000Y-134183000D01*
X117221000Y-134327000D01*
G37*
G36*
X125108300Y-130000000D02*
G01*
X125016700Y-130000000D01*
X125016700Y-129266700D01*
X125108300Y-129266700D01*
X125108300Y-130000000D01*
G37*
G36*
X126116700Y-135500000D02*
G01*
X126025000Y-135500000D01*
X126025000Y-134858300D01*
X126116700Y-134858300D01*
X126116700Y-135500000D01*
G37*
G36*
X127125000Y-132016700D02*
G01*
X127033300Y-132016700D01*
X127033300Y-130000000D01*
X127125000Y-130000000D01*
X127125000Y-132016700D01*
G37*
G36*
X121115000Y-133317000D02*
G01*
X119529000Y-133317000D01*
X119529000Y-133173000D01*
X121115000Y-133173000D01*
X121115000Y-133317000D01*
G37*
G36*
X125933300Y-133483300D02*
G01*
X125841700Y-133483300D01*
X125841700Y-132566700D01*
X125933300Y-132566700D01*
X125933300Y-133483300D01*
G37*
G36*
X120538000Y-130000000D02*
G01*
X120250000Y-130000000D01*
X120250000Y-129856000D01*
X120538000Y-129856000D01*
X120538000Y-130000000D01*
G37*
G36*
X125841700Y-132200000D02*
G01*
X125750000Y-132200000D01*
X125750000Y-130183300D01*
X125841700Y-130183300D01*
X125841700Y-132200000D01*
G37*
G36*
X125566700Y-136600000D02*
G01*
X125475000Y-136600000D01*
X125475000Y-135775000D01*
X125566700Y-135775000D01*
X125566700Y-136600000D01*
G37*
G36*
X127216700Y-132016700D02*
G01*
X127125000Y-132016700D01*
X127125000Y-130091700D01*
X127216700Y-130091700D01*
X127216700Y-132016700D01*
G37*
G36*
X115923000Y-125385000D02*
G01*
X114481000Y-125385000D01*
X114481000Y-125240000D01*
X115923000Y-125240000D01*
X115923000Y-125385000D01*
G37*
G36*
X125933300Y-124775000D02*
G01*
X125841700Y-124775000D01*
X125841700Y-124133300D01*
X125933300Y-124133300D01*
X125933300Y-124775000D01*
G37*
G36*
X126391700Y-128808300D02*
G01*
X126300000Y-128808300D01*
X126300000Y-126883300D01*
X126391700Y-126883300D01*
X126391700Y-128808300D01*
G37*
G36*
X123279000Y-125673000D02*
G01*
X122990000Y-125673000D01*
X122990000Y-125529000D01*
X123279000Y-125529000D01*
X123279000Y-125673000D01*
G37*
G36*
X111019000Y-134038000D02*
G01*
X110875000Y-134038000D01*
X110875000Y-133894000D01*
X111019000Y-133894000D01*
X111019000Y-134038000D01*
G37*
G36*
X117221000Y-123798000D02*
G01*
X116212000Y-123798000D01*
X116212000Y-123510000D01*
X117221000Y-123510000D01*
X117221000Y-123798000D01*
G37*
G36*
X112317000Y-128269000D02*
G01*
X112029000Y-128269000D01*
X112029000Y-128125000D01*
X112317000Y-128125000D01*
X112317000Y-128269000D01*
G37*
G36*
X115346000Y-127404000D02*
G01*
X115058000Y-127404000D01*
X115058000Y-126971000D01*
X115346000Y-126971000D01*
X115346000Y-127404000D01*
G37*
G36*
X118808000Y-129856000D02*
G01*
X111885000Y-129856000D01*
X111885000Y-129712000D01*
X118808000Y-129712000D01*
X118808000Y-129856000D01*
G37*
G36*
X119529000Y-125817000D02*
G01*
X119096000Y-125817000D01*
X119096000Y-125673000D01*
X119529000Y-125673000D01*
X119529000Y-125817000D01*
G37*
G36*
X126391700Y-126241700D02*
G01*
X126300000Y-126241700D01*
X126300000Y-124041700D01*
X126391700Y-124041700D01*
X126391700Y-126241700D01*
G37*
G36*
X111596000Y-127837000D02*
G01*
X111308000Y-127837000D01*
X111308000Y-127548000D01*
X111596000Y-127548000D01*
X111596000Y-127837000D01*
G37*
G36*
X125566700Y-126608300D02*
G01*
X125475000Y-126608300D01*
X125475000Y-125875000D01*
X125566700Y-125875000D01*
X125566700Y-126608300D01*
G37*
G36*
X116356000Y-124663000D02*
G01*
X116067000Y-124663000D01*
X116067000Y-124519000D01*
X116356000Y-124519000D01*
X116356000Y-124663000D01*
G37*
G36*
X117510000Y-126683000D02*
G01*
X116644000Y-126683000D01*
X116644000Y-126538000D01*
X117510000Y-126538000D01*
X117510000Y-126683000D01*
G37*
G36*
X126116700Y-128808300D02*
G01*
X126025000Y-128808300D01*
X126025000Y-128166700D01*
X126116700Y-128166700D01*
X126116700Y-128808300D01*
G37*
G36*
X121260000Y-129135000D02*
G01*
X112606000Y-129135000D01*
X112606000Y-128990000D01*
X121260000Y-128990000D01*
X121260000Y-129135000D01*
G37*
G36*
X116356000Y-126538000D02*
G01*
X116067000Y-126538000D01*
X116067000Y-126394000D01*
X116356000Y-126394000D01*
X116356000Y-126538000D01*
G37*
G36*
X125750000Y-124775000D02*
G01*
X125658300Y-124775000D01*
X125658300Y-124316700D01*
X125750000Y-124316700D01*
X125750000Y-124775000D01*
G37*
G36*
X120394000Y-124663000D02*
G01*
X118952000Y-124663000D01*
X118952000Y-124519000D01*
X120394000Y-124519000D01*
X120394000Y-124663000D01*
G37*
G36*
X120394000Y-135048000D02*
G01*
X119240000Y-135048000D01*
X119240000Y-134904000D01*
X120394000Y-134904000D01*
X120394000Y-135048000D01*
G37*
G36*
X116067000Y-124231000D02*
G01*
X114913000Y-124231000D01*
X114913000Y-124087000D01*
X116067000Y-124087000D01*
X116067000Y-124231000D01*
G37*
G36*
X120971000Y-132308000D02*
G01*
X116212000Y-132308000D01*
X116212000Y-132163000D01*
X120971000Y-132163000D01*
X120971000Y-132308000D01*
G37*
G36*
X121115000Y-127548000D02*
G01*
X118519000Y-127548000D01*
X118519000Y-127404000D01*
X121115000Y-127404000D01*
X121115000Y-127548000D01*
G37*
G36*
X117510000Y-133462000D02*
G01*
X113327000Y-133462000D01*
X113327000Y-133317000D01*
X117510000Y-133317000D01*
X117510000Y-133462000D01*
G37*
G36*
X126025000Y-130825000D02*
G01*
X125933300Y-130825000D01*
X125933300Y-130091700D01*
X126025000Y-130091700D01*
X126025000Y-130825000D01*
G37*
G36*
X126575000Y-128716700D02*
G01*
X126483300Y-128716700D01*
X126483300Y-126700000D01*
X126575000Y-126700000D01*
X126575000Y-128716700D01*
G37*
G36*
X116067000Y-135625000D02*
G01*
X115058000Y-135625000D01*
X115058000Y-135481000D01*
X116067000Y-135481000D01*
X116067000Y-135625000D01*
G37*
G36*
X126941700Y-128625000D02*
G01*
X126850000Y-128625000D01*
X126850000Y-127983300D01*
X126941700Y-127983300D01*
X126941700Y-128625000D01*
G37*
G36*
X119817000Y-123798000D02*
G01*
X119673000Y-123798000D01*
X119673000Y-123510000D01*
X119817000Y-123510000D01*
X119817000Y-123798000D01*
G37*
G36*
X125200000Y-126425000D02*
G01*
X125108300Y-126425000D01*
X125108300Y-124316700D01*
X125200000Y-124316700D01*
X125200000Y-126425000D01*
G37*
G36*
X125750000Y-132291700D02*
G01*
X125658300Y-132291700D01*
X125658300Y-130275000D01*
X125750000Y-130275000D01*
X125750000Y-132291700D01*
G37*
G36*
X112029000Y-126827000D02*
G01*
X111163000Y-126827000D01*
X111163000Y-126683000D01*
X112029000Y-126683000D01*
X112029000Y-126827000D01*
G37*
G36*
X126391700Y-130641700D02*
G01*
X126300000Y-130641700D01*
X126300000Y-130000000D01*
X126391700Y-130000000D01*
X126391700Y-130641700D01*
G37*
G36*
X114048000Y-124808000D02*
G01*
X113038000Y-124808000D01*
X113038000Y-124663000D01*
X114048000Y-124663000D01*
X114048000Y-124808000D01*
G37*
G36*
X113183000Y-127837000D02*
G01*
X112750000Y-127837000D01*
X112750000Y-127692000D01*
X113183000Y-127692000D01*
X113183000Y-127837000D01*
G37*
G36*
X126666700Y-125966700D02*
G01*
X126575000Y-125966700D01*
X126575000Y-125325000D01*
X126666700Y-125325000D01*
X126666700Y-125966700D01*
G37*
G36*
X120971000Y-127837000D02*
G01*
X114481000Y-127837000D01*
X114481000Y-127692000D01*
X120971000Y-127692000D01*
X120971000Y-127837000D01*
G37*
G36*
X115058000Y-124519000D02*
G01*
X113183000Y-124519000D01*
X113183000Y-124375000D01*
X115058000Y-124375000D01*
X115058000Y-124519000D01*
G37*
G36*
X120394000Y-129712000D02*
G01*
X120106000Y-129712000D01*
X120106000Y-129567000D01*
X120394000Y-129567000D01*
X120394000Y-129712000D01*
G37*
G36*
X125566700Y-134216700D02*
G01*
X125475000Y-134216700D01*
X125475000Y-133025000D01*
X125566700Y-133025000D01*
X125566700Y-134216700D01*
G37*
G36*
X120394000Y-134471000D02*
G01*
X120106000Y-134471000D01*
X120106000Y-134183000D01*
X120394000Y-134183000D01*
X120394000Y-134471000D01*
G37*
G36*
X117798000Y-125096000D02*
G01*
X117510000Y-125096000D01*
X117510000Y-124952000D01*
X117798000Y-124952000D01*
X117798000Y-125096000D01*
G37*
G36*
X112173000Y-132885000D02*
G01*
X111163000Y-132885000D01*
X111163000Y-132740000D01*
X112173000Y-132740000D01*
X112173000Y-132885000D01*
G37*
G36*
X120394000Y-134615000D02*
G01*
X119096000Y-134615000D01*
X119096000Y-134471000D01*
X120394000Y-134471000D01*
X120394000Y-134615000D01*
G37*
G36*
X122846000Y-126106000D02*
G01*
X121837000Y-126106000D01*
X121837000Y-125962000D01*
X122846000Y-125962000D01*
X122846000Y-126106000D01*
G37*
G36*
X120394000Y-125240000D02*
G01*
X119385000Y-125240000D01*
X119385000Y-125096000D01*
X120394000Y-125096000D01*
X120394000Y-125240000D01*
G37*
G36*
X126391700Y-129725000D02*
G01*
X126300000Y-129725000D01*
X126300000Y-129083300D01*
X126391700Y-129083300D01*
X126391700Y-129725000D01*
G37*
G36*
X126850000Y-128716700D02*
G01*
X126758300Y-128716700D01*
X126758300Y-128075000D01*
X126850000Y-128075000D01*
X126850000Y-128716700D01*
G37*
G36*
X120250000Y-126394000D02*
G01*
X120106000Y-126394000D01*
X120106000Y-126250000D01*
X120250000Y-126250000D01*
X120250000Y-126394000D01*
G37*
G36*
X126116700Y-134491700D02*
G01*
X126025000Y-134491700D01*
X126025000Y-133941700D01*
X126116700Y-133941700D01*
X126116700Y-134491700D01*
G37*
G36*
X118375000Y-125529000D02*
G01*
X114769000Y-125529000D01*
X114769000Y-125385000D01*
X118375000Y-125385000D01*
X118375000Y-125529000D01*
G37*
G36*
X113038000Y-125673000D02*
G01*
X112606000Y-125673000D01*
X112606000Y-125529000D01*
X113038000Y-125529000D01*
X113038000Y-125673000D01*
G37*
G36*
X120394000Y-125096000D02*
G01*
X118519000Y-125096000D01*
X118519000Y-124952000D01*
X120394000Y-124952000D01*
X120394000Y-125096000D01*
G37*
G36*
X119096000Y-126971000D02*
G01*
X118375000Y-126971000D01*
X118375000Y-126827000D01*
X119096000Y-126827000D01*
X119096000Y-126971000D01*
G37*
G36*
X127125000Y-128625000D02*
G01*
X127033300Y-128625000D01*
X127033300Y-126608300D01*
X127125000Y-126608300D01*
X127125000Y-128625000D01*
G37*
G36*
X114048000Y-134904000D02*
G01*
X113038000Y-134904000D01*
X113038000Y-134471000D01*
X114048000Y-134471000D01*
X114048000Y-134904000D01*
G37*
G36*
X126025000Y-134491700D02*
G01*
X125933300Y-134491700D01*
X125933300Y-133941700D01*
X126025000Y-133941700D01*
X126025000Y-134491700D01*
G37*
G36*
X127308300Y-134216700D02*
G01*
X127216700Y-134216700D01*
X127216700Y-132658300D01*
X127308300Y-132658300D01*
X127308300Y-134216700D01*
G37*
G36*
X113183000Y-125385000D02*
G01*
X112894000Y-125385000D01*
X112894000Y-125240000D01*
X113183000Y-125240000D01*
X113183000Y-125385000D01*
G37*
G36*
X126391700Y-136875000D02*
G01*
X126300000Y-136875000D01*
X126300000Y-136233300D01*
X126391700Y-136233300D01*
X126391700Y-136875000D01*
G37*
G36*
X126666700Y-136783300D02*
G01*
X126575000Y-136783300D01*
X126575000Y-136141700D01*
X126666700Y-136141700D01*
X126666700Y-136783300D01*
G37*
G36*
X118952000Y-130721000D02*
G01*
X117654000Y-130721000D01*
X117654000Y-130577000D01*
X118952000Y-130577000D01*
X118952000Y-130721000D01*
G37*
G36*
X126025000Y-135683300D02*
G01*
X125933300Y-135683300D01*
X125933300Y-134858300D01*
X126025000Y-134858300D01*
X126025000Y-135683300D01*
G37*
G36*
X113038000Y-131731000D02*
G01*
X112606000Y-131731000D01*
X112606000Y-131587000D01*
X113038000Y-131587000D01*
X113038000Y-131731000D01*
G37*
G36*
X112606000Y-131442000D02*
G01*
X110731000Y-131442000D01*
X110731000Y-131298000D01*
X112606000Y-131298000D01*
X112606000Y-131442000D01*
G37*
G36*
X127308300Y-131283300D02*
G01*
X127216700Y-131283300D01*
X127216700Y-130183300D01*
X127308300Y-130183300D01*
X127308300Y-131283300D01*
G37*
G36*
X117365000Y-124519000D02*
G01*
X117077000Y-124519000D01*
X117077000Y-124375000D01*
X117365000Y-124375000D01*
X117365000Y-124519000D01*
G37*
G36*
X116933000Y-136346000D02*
G01*
X116356000Y-136346000D01*
X116356000Y-136202000D01*
X116933000Y-136202000D01*
X116933000Y-136346000D01*
G37*
G36*
X126300000Y-136875000D02*
G01*
X126208300Y-136875000D01*
X126208300Y-136233300D01*
X126300000Y-136233300D01*
X126300000Y-136875000D01*
G37*
G36*
X118375000Y-133173000D02*
G01*
X118231000Y-133173000D01*
X118231000Y-133029000D01*
X118375000Y-133029000D01*
X118375000Y-133173000D01*
G37*
G36*
X121981000Y-132885000D02*
G01*
X121404000Y-132885000D01*
X121404000Y-132740000D01*
X121981000Y-132740000D01*
X121981000Y-132885000D01*
G37*
G36*
X120250000Y-131731000D02*
G01*
X116644000Y-131731000D01*
X116644000Y-131587000D01*
X120250000Y-131587000D01*
X120250000Y-131731000D01*
G37*
G36*
X126300000Y-135408300D02*
G01*
X126208300Y-135408300D01*
X126208300Y-134766700D01*
X126300000Y-134766700D01*
X126300000Y-135408300D01*
G37*
G36*
X122125000Y-132308000D02*
G01*
X121404000Y-132308000D01*
X121404000Y-132019000D01*
X122125000Y-132019000D01*
X122125000Y-132308000D01*
G37*
G36*
X127216700Y-134216700D02*
G01*
X127125000Y-134216700D01*
X127125000Y-132475000D01*
X127216700Y-132475000D01*
X127216700Y-134216700D01*
G37*
G36*
X113904000Y-127115000D02*
G01*
X111163000Y-127115000D01*
X111163000Y-126827000D01*
X113904000Y-126827000D01*
X113904000Y-127115000D01*
G37*
G36*
X125841700Y-124775000D02*
G01*
X125750000Y-124775000D01*
X125750000Y-124225000D01*
X125841700Y-124225000D01*
X125841700Y-124775000D01*
G37*
G36*
X119962000Y-135481000D02*
G01*
X119817000Y-135481000D01*
X119817000Y-135337000D01*
X119962000Y-135337000D01*
X119962000Y-135481000D01*
G37*
G36*
X116933000Y-131010000D02*
G01*
X115202000Y-131010000D01*
X115202000Y-130865000D01*
X116933000Y-130865000D01*
X116933000Y-131010000D01*
G37*
G36*
X121115000Y-133173000D02*
G01*
X119385000Y-133173000D01*
X119385000Y-133029000D01*
X121115000Y-133029000D01*
X121115000Y-133173000D01*
G37*
G36*
X125108300Y-132383300D02*
G01*
X125016700Y-132383300D01*
X125016700Y-131741700D01*
X125108300Y-131741700D01*
X125108300Y-132383300D01*
G37*
G36*
X125750000Y-136783300D02*
G01*
X125658300Y-136783300D01*
X125658300Y-134858300D01*
X125750000Y-134858300D01*
X125750000Y-136783300D01*
G37*
G36*
X115635000Y-126250000D02*
G01*
X115202000Y-126250000D01*
X115202000Y-126106000D01*
X115635000Y-126106000D01*
X115635000Y-126250000D01*
G37*
G36*
X117365000Y-135913000D02*
G01*
X115923000Y-135913000D01*
X115923000Y-135769000D01*
X117365000Y-135769000D01*
X117365000Y-135913000D01*
G37*
G36*
X117077000Y-123510000D02*
G01*
X116356000Y-123510000D01*
X116356000Y-123365000D01*
X117077000Y-123365000D01*
X117077000Y-123510000D01*
G37*
G36*
X120250000Y-135192000D02*
G01*
X118808000Y-135192000D01*
X118808000Y-135048000D01*
X120250000Y-135048000D01*
X120250000Y-135192000D01*
G37*
G36*
X111163000Y-129279000D02*
G01*
X110875000Y-129279000D01*
X110875000Y-128990000D01*
X111163000Y-128990000D01*
X111163000Y-129279000D01*
G37*
G36*
X122558000Y-129279000D02*
G01*
X122269000Y-129279000D01*
X122269000Y-128990000D01*
X122558000Y-128990000D01*
X122558000Y-129279000D01*
G37*
G36*
X118519000Y-125817000D02*
G01*
X118087000Y-125817000D01*
X118087000Y-125673000D01*
X118519000Y-125673000D01*
X118519000Y-125817000D01*
G37*
G36*
X122846000Y-127692000D02*
G01*
X122558000Y-127692000D01*
X122558000Y-127548000D01*
X122846000Y-127548000D01*
X122846000Y-127692000D01*
G37*
G36*
X119096000Y-134327000D02*
G01*
X117942000Y-134327000D01*
X117942000Y-134183000D01*
X119096000Y-134183000D01*
X119096000Y-134327000D01*
G37*
G36*
X127400000Y-127708300D02*
G01*
X127308300Y-127708300D01*
X127308300Y-126975000D01*
X127400000Y-126975000D01*
X127400000Y-127708300D01*
G37*
G36*
X126208300Y-134491700D02*
G01*
X126116700Y-134491700D01*
X126116700Y-133941700D01*
X126208300Y-133941700D01*
X126208300Y-134491700D01*
G37*
G36*
X127308300Y-132016700D02*
G01*
X127216700Y-132016700D01*
X127216700Y-131375000D01*
X127308300Y-131375000D01*
X127308300Y-132016700D01*
G37*
G36*
X126116700Y-129725000D02*
G01*
X126025000Y-129725000D01*
X126025000Y-129175000D01*
X126116700Y-129175000D01*
X126116700Y-129725000D01*
G37*
G36*
X125566700Y-132291700D02*
G01*
X125475000Y-132291700D01*
X125475000Y-131650000D01*
X125566700Y-131650000D01*
X125566700Y-132291700D01*
G37*
G36*
X121260000Y-131442000D02*
G01*
X120971000Y-131442000D01*
X120971000Y-131298000D01*
X121260000Y-131298000D01*
X121260000Y-131442000D01*
G37*
G36*
X121981000Y-127404000D02*
G01*
X121692000Y-127404000D01*
X121692000Y-127260000D01*
X121981000Y-127260000D01*
X121981000Y-127404000D01*
G37*
G36*
X112894000Y-134038000D02*
G01*
X111885000Y-134038000D01*
X111885000Y-133750000D01*
X112894000Y-133750000D01*
X112894000Y-134038000D01*
G37*
G36*
X126575000Y-135316700D02*
G01*
X126483300Y-135316700D01*
X126483300Y-134766700D01*
X126575000Y-134766700D01*
X126575000Y-135316700D01*
G37*
G36*
X120683000Y-130144000D02*
G01*
X120250000Y-130144000D01*
X120250000Y-130000000D01*
X120683000Y-130000000D01*
X120683000Y-130144000D01*
G37*
G36*
X114192000Y-135048000D02*
G01*
X113038000Y-135048000D01*
X113038000Y-134904000D01*
X114192000Y-134904000D01*
X114192000Y-135048000D01*
G37*
G36*
X119240000Y-129712000D02*
G01*
X112029000Y-129712000D01*
X112029000Y-129567000D01*
X119240000Y-129567000D01*
X119240000Y-129712000D01*
G37*
G36*
X126483300Y-136875000D02*
G01*
X126391700Y-136875000D01*
X126391700Y-136233300D01*
X126483300Y-136233300D01*
X126483300Y-136875000D01*
G37*
G36*
X126666700Y-124683300D02*
G01*
X126575000Y-124683300D01*
X126575000Y-124041700D01*
X126666700Y-124041700D01*
X126666700Y-124683300D01*
G37*
G36*
X123135000Y-129712000D02*
G01*
X121837000Y-129712000D01*
X121837000Y-129567000D01*
X123135000Y-129567000D01*
X123135000Y-129712000D01*
G37*
G36*
X126116700Y-136875000D02*
G01*
X126025000Y-136875000D01*
X126025000Y-136233300D01*
X126116700Y-136233300D01*
X126116700Y-136875000D01*
G37*
G36*
X126208300Y-133025000D02*
G01*
X126116700Y-133025000D01*
X126116700Y-132475000D01*
X126208300Y-132475000D01*
X126208300Y-133025000D01*
G37*
G36*
X119817000Y-130577000D02*
G01*
X119240000Y-130577000D01*
X119240000Y-130433000D01*
X119817000Y-130433000D01*
X119817000Y-130577000D01*
G37*
G36*
X126941700Y-130825000D02*
G01*
X126850000Y-130825000D01*
X126850000Y-130000000D01*
X126941700Y-130000000D01*
X126941700Y-130825000D01*
G37*
G36*
X117221000Y-124231000D02*
G01*
X116212000Y-124231000D01*
X116212000Y-124087000D01*
X117221000Y-124087000D01*
X117221000Y-124231000D01*
G37*
G36*
X126758300Y-135316700D02*
G01*
X126666700Y-135316700D01*
X126666700Y-134675000D01*
X126758300Y-134675000D01*
X126758300Y-135316700D01*
G37*
G36*
X121981000Y-130433000D02*
G01*
X121404000Y-130433000D01*
X121404000Y-130288000D01*
X121981000Y-130288000D01*
X121981000Y-130433000D01*
G37*
G36*
X117942000Y-135769000D02*
G01*
X115490000Y-135769000D01*
X115490000Y-135625000D01*
X117942000Y-135625000D01*
X117942000Y-135769000D01*
G37*
G36*
X126941700Y-129633300D02*
G01*
X126850000Y-129633300D01*
X126850000Y-128991700D01*
X126941700Y-128991700D01*
X126941700Y-129633300D01*
G37*
G36*
X126666700Y-132108300D02*
G01*
X126575000Y-132108300D01*
X126575000Y-131466700D01*
X126666700Y-131466700D01*
X126666700Y-132108300D01*
G37*
G36*
X117077000Y-136202000D02*
G01*
X116212000Y-136202000D01*
X116212000Y-136058000D01*
X117077000Y-136058000D01*
X117077000Y-136202000D01*
G37*
G36*
X119817000Y-126827000D02*
G01*
X118519000Y-126827000D01*
X118519000Y-126538000D01*
X119817000Y-126538000D01*
X119817000Y-126827000D01*
G37*
G36*
X116500000Y-135337000D02*
G01*
X116067000Y-135337000D01*
X116067000Y-135192000D01*
X116500000Y-135192000D01*
X116500000Y-135337000D01*
G37*
G36*
X118519000Y-124231000D02*
G01*
X117365000Y-124231000D01*
X117365000Y-124087000D01*
X118519000Y-124087000D01*
X118519000Y-124231000D01*
G37*
G36*
X111308000Y-128846000D02*
G01*
X111019000Y-128846000D01*
X111019000Y-128413000D01*
X111308000Y-128413000D01*
X111308000Y-128846000D01*
G37*
G36*
X118519000Y-125962000D02*
G01*
X118231000Y-125962000D01*
X118231000Y-125817000D01*
X118519000Y-125817000D01*
X118519000Y-125962000D01*
G37*
G36*
X126483300Y-130641700D02*
G01*
X126391700Y-130641700D01*
X126391700Y-130000000D01*
X126483300Y-130000000D01*
X126483300Y-130641700D01*
G37*
G36*
X115058000Y-130721000D02*
G01*
X114625000Y-130721000D01*
X114625000Y-130577000D01*
X115058000Y-130577000D01*
X115058000Y-130721000D01*
G37*
G36*
X121115000Y-132452000D02*
G01*
X118375000Y-132452000D01*
X118375000Y-132308000D01*
X121115000Y-132308000D01*
X121115000Y-132452000D01*
G37*
G36*
X117077000Y-130865000D02*
G01*
X115202000Y-130865000D01*
X115202000Y-130721000D01*
X117077000Y-130721000D01*
X117077000Y-130865000D01*
G37*
G36*
X127216700Y-126333300D02*
G01*
X127125000Y-126333300D01*
X127125000Y-125600000D01*
X127216700Y-125600000D01*
X127216700Y-126333300D01*
G37*
G36*
X112029000Y-133029000D02*
G01*
X111308000Y-133029000D01*
X111308000Y-132885000D01*
X112029000Y-132885000D01*
X112029000Y-133029000D01*
G37*
G36*
X115058000Y-135337000D02*
G01*
X113183000Y-135337000D01*
X113183000Y-135192000D01*
X115058000Y-135192000D01*
X115058000Y-135337000D01*
G37*
G36*
X126300000Y-134491700D02*
G01*
X126208300Y-134491700D01*
X126208300Y-132475000D01*
X126300000Y-132475000D01*
X126300000Y-134491700D01*
G37*
G36*
X127400000Y-128533300D02*
G01*
X127308300Y-128533300D01*
X127308300Y-128075000D01*
X127400000Y-128075000D01*
X127400000Y-128533300D01*
G37*
G36*
X110154000Y-132452000D02*
G01*
X109721000Y-132452000D01*
X109721000Y-132308000D01*
X110154000Y-132308000D01*
X110154000Y-132452000D01*
G37*
G36*
X121115000Y-133462000D02*
G01*
X119817000Y-133462000D01*
X119817000Y-133317000D01*
X121115000Y-133317000D01*
X121115000Y-133462000D01*
G37*
G36*
X120394000Y-134904000D02*
G01*
X119385000Y-134904000D01*
X119385000Y-134760000D01*
X120394000Y-134760000D01*
X120394000Y-134904000D01*
G37*
G36*
X113327000Y-127548000D02*
G01*
X112894000Y-127548000D01*
X112894000Y-127404000D01*
X113327000Y-127404000D01*
X113327000Y-127548000D01*
G37*
G36*
X122846000Y-127548000D02*
G01*
X122702000Y-127548000D01*
X122702000Y-127404000D01*
X122846000Y-127404000D01*
X122846000Y-127548000D01*
G37*
G36*
X113760000Y-124375000D02*
G01*
X113327000Y-124375000D01*
X113327000Y-124231000D01*
X113760000Y-124231000D01*
X113760000Y-124375000D01*
G37*
G36*
X117077000Y-133750000D02*
G01*
X113327000Y-133750000D01*
X113327000Y-133606000D01*
X117077000Y-133606000D01*
X117077000Y-133750000D01*
G37*
G36*
X122125000Y-131875000D02*
G01*
X121837000Y-131875000D01*
X121837000Y-131587000D01*
X122125000Y-131587000D01*
X122125000Y-131875000D01*
G37*
G36*
X111019000Y-132163000D02*
G01*
X110010000Y-132163000D01*
X110010000Y-132019000D01*
X111019000Y-132019000D01*
X111019000Y-132163000D01*
G37*
G36*
X117221000Y-136058000D02*
G01*
X116212000Y-136058000D01*
X116212000Y-135913000D01*
X117221000Y-135913000D01*
X117221000Y-136058000D01*
G37*
G36*
X120106000Y-131587000D02*
G01*
X116788000Y-131587000D01*
X116788000Y-131442000D01*
X120106000Y-131442000D01*
X120106000Y-131587000D01*
G37*
G36*
X116067000Y-125096000D02*
G01*
X115779000Y-125096000D01*
X115779000Y-124952000D01*
X116067000Y-124952000D01*
X116067000Y-125096000D01*
G37*
G36*
X125933300Y-136875000D02*
G01*
X125841700Y-136875000D01*
X125841700Y-134858300D01*
X125933300Y-134858300D01*
X125933300Y-136875000D01*
G37*
G36*
X113615000Y-135481000D02*
G01*
X113471000Y-135481000D01*
X113471000Y-135337000D01*
X113615000Y-135337000D01*
X113615000Y-135481000D01*
G37*
G36*
X119673000Y-125529000D02*
G01*
X119385000Y-125529000D01*
X119385000Y-125385000D01*
X119673000Y-125385000D01*
X119673000Y-125529000D01*
G37*
G36*
X122558000Y-126394000D02*
G01*
X121260000Y-126394000D01*
X121260000Y-126250000D01*
X122558000Y-126250000D01*
X122558000Y-126394000D01*
G37*
G36*
X117798000Y-124952000D02*
G01*
X117365000Y-124952000D01*
X117365000Y-124808000D01*
X117798000Y-124808000D01*
X117798000Y-124952000D01*
G37*
G36*
X125841700Y-128808300D02*
G01*
X125750000Y-128808300D01*
X125750000Y-126975000D01*
X125841700Y-126975000D01*
X125841700Y-128808300D01*
G37*
G36*
X125933300Y-129816700D02*
G01*
X125841700Y-129816700D01*
X125841700Y-129175000D01*
X125933300Y-129175000D01*
X125933300Y-129816700D01*
G37*
G36*
X126666700Y-128716700D02*
G01*
X126575000Y-128716700D01*
X126575000Y-128075000D01*
X126666700Y-128075000D01*
X126666700Y-128716700D01*
G37*
G36*
X126941700Y-132016700D02*
G01*
X126850000Y-132016700D01*
X126850000Y-131100000D01*
X126941700Y-131100000D01*
X126941700Y-132016700D01*
G37*
G36*
X113183000Y-127692000D02*
G01*
X112894000Y-127692000D01*
X112894000Y-127548000D01*
X113183000Y-127548000D01*
X113183000Y-127692000D01*
G37*
G36*
X127033300Y-136691700D02*
G01*
X126941700Y-136691700D01*
X126941700Y-136141700D01*
X127033300Y-136141700D01*
X127033300Y-136691700D01*
G37*
G36*
X118087000Y-132596000D02*
G01*
X111163000Y-132596000D01*
X111163000Y-132452000D01*
X118087000Y-132452000D01*
X118087000Y-132596000D01*
G37*
G36*
X125383300Y-126516700D02*
G01*
X125291700Y-126516700D01*
X125291700Y-123491700D01*
X125383300Y-123491700D01*
X125383300Y-126516700D01*
G37*
G36*
X127400000Y-129450000D02*
G01*
X127308300Y-129450000D01*
X127308300Y-128900000D01*
X127400000Y-128900000D01*
X127400000Y-129450000D01*
G37*
G36*
X122413000Y-131154000D02*
G01*
X121981000Y-131154000D01*
X121981000Y-131010000D01*
X122413000Y-131010000D01*
X122413000Y-131154000D01*
G37*
G36*
X121981000Y-127692000D02*
G01*
X121548000Y-127692000D01*
X121548000Y-127404000D01*
X121981000Y-127404000D01*
X121981000Y-127692000D01*
G37*
G36*
X117654000Y-124808000D02*
G01*
X117221000Y-124808000D01*
X117221000Y-124663000D01*
X117654000Y-124663000D01*
X117654000Y-124808000D01*
G37*
G36*
X122702000Y-130433000D02*
G01*
X122269000Y-130433000D01*
X122269000Y-130288000D01*
X122702000Y-130288000D01*
X122702000Y-130433000D01*
G37*
G36*
X117654000Y-133173000D02*
G01*
X112462000Y-133173000D01*
X112462000Y-133029000D01*
X117654000Y-133029000D01*
X117654000Y-133173000D01*
G37*
G36*
X121115000Y-133029000D02*
G01*
X119096000Y-133029000D01*
X119096000Y-132885000D01*
X121115000Y-132885000D01*
X121115000Y-133029000D01*
G37*
G36*
X116933000Y-133894000D02*
G01*
X113904000Y-133894000D01*
X113904000Y-133750000D01*
X116933000Y-133750000D01*
X116933000Y-133894000D01*
G37*
G36*
X126483300Y-135408300D02*
G01*
X126391700Y-135408300D01*
X126391700Y-134766700D01*
X126483300Y-134766700D01*
X126483300Y-135408300D01*
G37*
G36*
X112317000Y-133317000D02*
G01*
X111885000Y-133317000D01*
X111885000Y-133173000D01*
X112317000Y-133173000D01*
X112317000Y-133317000D01*
G37*
G36*
X119240000Y-131010000D02*
G01*
X117365000Y-131010000D01*
X117365000Y-130865000D01*
X119240000Y-130865000D01*
X119240000Y-131010000D01*
G37*
G36*
X117221000Y-133606000D02*
G01*
X113327000Y-133606000D01*
X113327000Y-133462000D01*
X117221000Y-133462000D01*
X117221000Y-133606000D01*
G37*
G36*
X125475000Y-126608300D02*
G01*
X125383300Y-126608300D01*
X125383300Y-125783300D01*
X125475000Y-125783300D01*
X125475000Y-126608300D01*
G37*
G36*
X116067000Y-126250000D02*
G01*
X115779000Y-126250000D01*
X115779000Y-126106000D01*
X116067000Y-126106000D01*
X116067000Y-126250000D01*
G37*
G36*
X126025000Y-132200000D02*
G01*
X125933300Y-132200000D01*
X125933300Y-131375000D01*
X126025000Y-131375000D01*
X126025000Y-132200000D01*
G37*
G36*
X119385000Y-126538000D02*
G01*
X118519000Y-126538000D01*
X118519000Y-126106000D01*
X119385000Y-126106000D01*
X119385000Y-126538000D01*
G37*
G36*
X126575000Y-132108300D02*
G01*
X126483300Y-132108300D01*
X126483300Y-131466700D01*
X126575000Y-131466700D01*
X126575000Y-132108300D01*
G37*
G36*
X124833300Y-132383300D02*
G01*
X124741700Y-132383300D01*
X124741700Y-131925000D01*
X124833300Y-131925000D01*
X124833300Y-132383300D01*
G37*
G36*
X114481000Y-126538000D02*
G01*
X113904000Y-126538000D01*
X113904000Y-126394000D01*
X114481000Y-126394000D01*
X114481000Y-126538000D01*
G37*
G36*
X126300000Y-132200000D02*
G01*
X126208300Y-132200000D01*
X126208300Y-131558300D01*
X126300000Y-131558300D01*
X126300000Y-132200000D01*
G37*
G36*
X126483300Y-132108300D02*
G01*
X126391700Y-132108300D01*
X126391700Y-131466700D01*
X126483300Y-131466700D01*
X126483300Y-132108300D01*
G37*
G36*
X121837000Y-126971000D02*
G01*
X119962000Y-126971000D01*
X119962000Y-126827000D01*
X121837000Y-126827000D01*
X121837000Y-126971000D01*
G37*
G36*
X126208300Y-135408300D02*
G01*
X126116700Y-135408300D01*
X126116700Y-134766700D01*
X126208300Y-134766700D01*
X126208300Y-135408300D01*
G37*
G36*
X112894000Y-125817000D02*
G01*
X112462000Y-125817000D01*
X112462000Y-125673000D01*
X112894000Y-125673000D01*
X112894000Y-125817000D01*
G37*
G36*
X116644000Y-131298000D02*
G01*
X115202000Y-131298000D01*
X115202000Y-131154000D01*
X116644000Y-131154000D01*
X116644000Y-131298000D01*
G37*
G36*
X116788000Y-123365000D02*
G01*
X116644000Y-123365000D01*
X116644000Y-123221000D01*
X116788000Y-123221000D01*
X116788000Y-123365000D01*
G37*
G36*
X119817000Y-125385000D02*
G01*
X119385000Y-125385000D01*
X119385000Y-125240000D01*
X119817000Y-125240000D01*
X119817000Y-125385000D01*
G37*
G36*
X122702000Y-129423000D02*
G01*
X122269000Y-129423000D01*
X122269000Y-129279000D01*
X122702000Y-129279000D01*
X122702000Y-129423000D01*
G37*
G36*
X118087000Y-134471000D02*
G01*
X117798000Y-134471000D01*
X117798000Y-134327000D01*
X118087000Y-134327000D01*
X118087000Y-134471000D01*
G37*
G36*
X122558000Y-130721000D02*
G01*
X122125000Y-130721000D01*
X122125000Y-130577000D01*
X122558000Y-130577000D01*
X122558000Y-130721000D01*
G37*
G36*
X126758300Y-136783300D02*
G01*
X126666700Y-136783300D01*
X126666700Y-136141700D01*
X126758300Y-136141700D01*
X126758300Y-136783300D01*
G37*
G36*
X126208300Y-129725000D02*
G01*
X126116700Y-129725000D01*
X126116700Y-129175000D01*
X126208300Y-129175000D01*
X126208300Y-129725000D01*
G37*
G36*
X126391700Y-134491700D02*
G01*
X126300000Y-134491700D01*
X126300000Y-132383300D01*
X126391700Y-132383300D01*
X126391700Y-134491700D01*
G37*
G36*
X117510000Y-126827000D02*
G01*
X116500000Y-126827000D01*
X116500000Y-126683000D01*
X117510000Y-126683000D01*
X117510000Y-126827000D01*
G37*
G36*
X125750000Y-129816700D02*
G01*
X125658300Y-129816700D01*
X125658300Y-129175000D01*
X125750000Y-129175000D01*
X125750000Y-129816700D01*
G37*
G36*
X122990000Y-125962000D02*
G01*
X122269000Y-125962000D01*
X122269000Y-125817000D01*
X122990000Y-125817000D01*
X122990000Y-125962000D01*
G37*
G36*
X121115000Y-134038000D02*
G01*
X120538000Y-134038000D01*
X120538000Y-133894000D01*
X121115000Y-133894000D01*
X121115000Y-134038000D01*
G37*
G36*
X113038000Y-128990000D02*
G01*
X111885000Y-128990000D01*
X111885000Y-128846000D01*
X113038000Y-128846000D01*
X113038000Y-128990000D01*
G37*
G36*
X124925000Y-132383300D02*
G01*
X124833300Y-132383300D01*
X124833300Y-131833300D01*
X124925000Y-131833300D01*
X124925000Y-132383300D01*
G37*
G36*
X126575000Y-129633300D02*
G01*
X126483300Y-129633300D01*
X126483300Y-129083300D01*
X126575000Y-129083300D01*
X126575000Y-129633300D01*
G37*
G36*
X127033300Y-135316700D02*
G01*
X126941700Y-135316700D01*
X126941700Y-134675000D01*
X127033300Y-134675000D01*
X127033300Y-135316700D01*
G37*
G36*
X126850000Y-129633300D02*
G01*
X126758300Y-129633300D01*
X126758300Y-128991700D01*
X126850000Y-128991700D01*
X126850000Y-129633300D01*
G37*
G36*
X113038000Y-127981000D02*
G01*
X112750000Y-127981000D01*
X112750000Y-127837000D01*
X113038000Y-127837000D01*
X113038000Y-127981000D01*
G37*
G36*
X116212000Y-126683000D02*
G01*
X116067000Y-126683000D01*
X116067000Y-126538000D01*
X116212000Y-126538000D01*
X116212000Y-126683000D01*
G37*
G36*
X118375000Y-135625000D02*
G01*
X117365000Y-135625000D01*
X117365000Y-135481000D01*
X118375000Y-135481000D01*
X118375000Y-135625000D01*
G37*
G36*
X121260000Y-131010000D02*
G01*
X120250000Y-131010000D01*
X120250000Y-130865000D01*
X121260000Y-130865000D01*
X121260000Y-131010000D01*
G37*
G36*
X112462000Y-129135000D02*
G01*
X112317000Y-129135000D01*
X112317000Y-128990000D01*
X112462000Y-128990000D01*
X112462000Y-129135000D01*
G37*
G36*
X126758300Y-132933300D02*
G01*
X126666700Y-132933300D01*
X126666700Y-132383300D01*
X126758300Y-132383300D01*
X126758300Y-132933300D01*
G37*
G36*
X113183000Y-125529000D02*
G01*
X112750000Y-125529000D01*
X112750000Y-125385000D01*
X113183000Y-125385000D01*
X113183000Y-125529000D01*
G37*
G36*
X125750000Y-128716700D02*
G01*
X125658300Y-128716700D01*
X125658300Y-126975000D01*
X125750000Y-126975000D01*
X125750000Y-128716700D01*
G37*
G36*
X125016700Y-132383300D02*
G01*
X124925000Y-132383300D01*
X124925000Y-131741700D01*
X125016700Y-131741700D01*
X125016700Y-132383300D01*
G37*
G36*
X111596000Y-131875000D02*
G01*
X110298000Y-131875000D01*
X110298000Y-131731000D01*
X111596000Y-131731000D01*
X111596000Y-131875000D01*
G37*
G36*
X114913000Y-126250000D02*
G01*
X114481000Y-126250000D01*
X114481000Y-126106000D01*
X114913000Y-126106000D01*
X114913000Y-126250000D01*
G37*
G36*
X115058000Y-132019000D02*
G01*
X113038000Y-132019000D01*
X113038000Y-131875000D01*
X115058000Y-131875000D01*
X115058000Y-132019000D01*
G37*
G36*
X118808000Y-134038000D02*
G01*
X117942000Y-134038000D01*
X117942000Y-133606000D01*
X118808000Y-133606000D01*
X118808000Y-134038000D01*
G37*
G36*
X122413000Y-128702000D02*
G01*
X121981000Y-128702000D01*
X121981000Y-128558000D01*
X122413000Y-128558000D01*
X122413000Y-128702000D01*
G37*
G36*
X118952000Y-133606000D02*
G01*
X118087000Y-133606000D01*
X118087000Y-133462000D01*
X118952000Y-133462000D01*
X118952000Y-133606000D01*
G37*
G36*
X125200000Y-132383300D02*
G01*
X125108300Y-132383300D01*
X125108300Y-131741700D01*
X125200000Y-131741700D01*
X125200000Y-132383300D01*
G37*
G36*
X114192000Y-126683000D02*
G01*
X113760000Y-126683000D01*
X113760000Y-126538000D01*
X114192000Y-126538000D01*
X114192000Y-126683000D01*
G37*
G36*
X117510000Y-127260000D02*
G01*
X115779000Y-127260000D01*
X115779000Y-127115000D01*
X117510000Y-127115000D01*
X117510000Y-127260000D01*
G37*
G36*
X127125000Y-136691700D02*
G01*
X127033300Y-136691700D01*
X127033300Y-136050000D01*
X127125000Y-136050000D01*
X127125000Y-136691700D01*
G37*
G36*
X112173000Y-127981000D02*
G01*
X111885000Y-127981000D01*
X111885000Y-127837000D01*
X112173000Y-127837000D01*
X112173000Y-127981000D01*
G37*
G36*
X112894000Y-128269000D02*
G01*
X112606000Y-128269000D01*
X112606000Y-127981000D01*
X112894000Y-127981000D01*
X112894000Y-128269000D01*
G37*
G36*
X124925000Y-130000000D02*
G01*
X124833300Y-130000000D01*
X124833300Y-129358300D01*
X124925000Y-129358300D01*
X124925000Y-130000000D01*
G37*
G36*
X125841700Y-126516700D02*
G01*
X125750000Y-126516700D01*
X125750000Y-125875000D01*
X125841700Y-125875000D01*
X125841700Y-126516700D01*
G37*
G36*
X113615000Y-126683000D02*
G01*
X113183000Y-126683000D01*
X113183000Y-126106000D01*
X113615000Y-126106000D01*
X113615000Y-126683000D01*
G37*
G36*
X127216700Y-129541700D02*
G01*
X127125000Y-129541700D01*
X127125000Y-128991700D01*
X127216700Y-128991700D01*
X127216700Y-129541700D01*
G37*
G36*
X122125000Y-126683000D02*
G01*
X120683000Y-126683000D01*
X120683000Y-126538000D01*
X122125000Y-126538000D01*
X122125000Y-126683000D01*
G37*
G36*
X126575000Y-134308300D02*
G01*
X126483300Y-134308300D01*
X126483300Y-132383300D01*
X126575000Y-132383300D01*
X126575000Y-134308300D01*
G37*
G36*
X121115000Y-133750000D02*
G01*
X120250000Y-133750000D01*
X120250000Y-133606000D01*
X121115000Y-133606000D01*
X121115000Y-133750000D01*
G37*
G36*
X121404000Y-131587000D02*
G01*
X120971000Y-131587000D01*
X120971000Y-131442000D01*
X121404000Y-131442000D01*
X121404000Y-131587000D01*
G37*
G36*
X115490000Y-126971000D02*
G01*
X115058000Y-126971000D01*
X115058000Y-126538000D01*
X115490000Y-126538000D01*
X115490000Y-126971000D01*
G37*
G36*
X115058000Y-131875000D02*
G01*
X113183000Y-131875000D01*
X113183000Y-131442000D01*
X115058000Y-131442000D01*
X115058000Y-131875000D01*
G37*
G36*
X121260000Y-130865000D02*
G01*
X119673000Y-130865000D01*
X119673000Y-130721000D01*
X121260000Y-130721000D01*
X121260000Y-130865000D01*
G37*
G36*
X112173000Y-126683000D02*
G01*
X111308000Y-126683000D01*
X111308000Y-126538000D01*
X112173000Y-126538000D01*
X112173000Y-126683000D01*
G37*
G36*
X115923000Y-131731000D02*
G01*
X115346000Y-131731000D01*
X115346000Y-131587000D01*
X115923000Y-131587000D01*
X115923000Y-131731000D01*
G37*
G36*
X120538000Y-129856000D02*
G01*
X120106000Y-129856000D01*
X120106000Y-129712000D01*
X120538000Y-129712000D01*
X120538000Y-129856000D01*
G37*
G36*
X118375000Y-125673000D02*
G01*
X117942000Y-125673000D01*
X117942000Y-125529000D01*
X118375000Y-125529000D01*
X118375000Y-125673000D01*
G37*
G36*
X116212000Y-134904000D02*
G01*
X115779000Y-134904000D01*
X115779000Y-134760000D01*
X116212000Y-134760000D01*
X116212000Y-134904000D01*
G37*
G36*
X118231000Y-130144000D02*
G01*
X110442000Y-130144000D01*
X110442000Y-130000000D01*
X118231000Y-130000000D01*
X118231000Y-130144000D01*
G37*
G36*
X127400000Y-134033300D02*
G01*
X127308300Y-134033300D01*
X127308300Y-132841700D01*
X127400000Y-132841700D01*
X127400000Y-134033300D01*
G37*
G36*
X121981000Y-126827000D02*
G01*
X119962000Y-126827000D01*
X119962000Y-126683000D01*
X121981000Y-126683000D01*
X121981000Y-126827000D01*
G37*
G36*
X111596000Y-127981000D02*
G01*
X111163000Y-127981000D01*
X111163000Y-127837000D01*
X111596000Y-127837000D01*
X111596000Y-127981000D01*
G37*
G36*
X124833300Y-130000000D02*
G01*
X124741700Y-130000000D01*
X124741700Y-129450000D01*
X124833300Y-129450000D01*
X124833300Y-130000000D01*
G37*
G36*
X112173000Y-127837000D02*
G01*
X111740000Y-127837000D01*
X111740000Y-127692000D01*
X112173000Y-127692000D01*
X112173000Y-127837000D01*
G37*
G36*
X127308300Y-124500000D02*
G01*
X127216700Y-124500000D01*
X127216700Y-123858300D01*
X127308300Y-123858300D01*
X127308300Y-124500000D01*
G37*
G36*
X118231000Y-132452000D02*
G01*
X112606000Y-132452000D01*
X112606000Y-132308000D01*
X118231000Y-132308000D01*
X118231000Y-132452000D01*
G37*
G36*
X115635000Y-135481000D02*
G01*
X114481000Y-135481000D01*
X114481000Y-135337000D01*
X115635000Y-135337000D01*
X115635000Y-135481000D01*
G37*
G36*
X118519000Y-130433000D02*
G01*
X118087000Y-130433000D01*
X118087000Y-130288000D01*
X118519000Y-130288000D01*
X118519000Y-130433000D01*
G37*
G36*
X121115000Y-126250000D02*
G01*
X120683000Y-126250000D01*
X120683000Y-126106000D01*
X121115000Y-126106000D01*
X121115000Y-126250000D01*
G37*
G36*
X126483300Y-126058300D02*
G01*
X126391700Y-126058300D01*
X126391700Y-124041700D01*
X126483300Y-124041700D01*
X126483300Y-126058300D01*
G37*
G36*
X119529000Y-131154000D02*
G01*
X117077000Y-131154000D01*
X117077000Y-131010000D01*
X119529000Y-131010000D01*
X119529000Y-131154000D01*
G37*
G36*
X126850000Y-127250000D02*
G01*
X126758300Y-127250000D01*
X126758300Y-126608300D01*
X126850000Y-126608300D01*
X126850000Y-127250000D01*
G37*
G36*
X111308000Y-128990000D02*
G01*
X110875000Y-128990000D01*
X110875000Y-128846000D01*
X111308000Y-128846000D01*
X111308000Y-128990000D01*
G37*
G36*
X125658300Y-135500000D02*
G01*
X125566700Y-135500000D01*
X125566700Y-134950000D01*
X125658300Y-134950000D01*
X125658300Y-135500000D01*
G37*
G36*
X126850000Y-133025000D02*
G01*
X126758300Y-133025000D01*
X126758300Y-132383300D01*
X126850000Y-132383300D01*
X126850000Y-133025000D01*
G37*
G36*
X127125000Y-135225000D02*
G01*
X127033300Y-135225000D01*
X127033300Y-134675000D01*
X127125000Y-134675000D01*
X127125000Y-135225000D01*
G37*
G36*
X125291700Y-129908300D02*
G01*
X125200000Y-129908300D01*
X125200000Y-129358300D01*
X125291700Y-129358300D01*
X125291700Y-129908300D01*
G37*
G36*
X115058000Y-131154000D02*
G01*
X113615000Y-131154000D01*
X113615000Y-131010000D01*
X115058000Y-131010000D01*
X115058000Y-131154000D01*
G37*
G36*
X125750000Y-134491700D02*
G01*
X125658300Y-134491700D01*
X125658300Y-132658300D01*
X125750000Y-132658300D01*
X125750000Y-134491700D01*
G37*
G36*
X118375000Y-134471000D02*
G01*
X118231000Y-134471000D01*
X118231000Y-134327000D01*
X118375000Y-134327000D01*
X118375000Y-134471000D01*
G37*
G36*
X125566700Y-135500000D02*
G01*
X125475000Y-135500000D01*
X125475000Y-134950000D01*
X125566700Y-134950000D01*
X125566700Y-135500000D01*
G37*
G36*
X126758300Y-127250000D02*
G01*
X126666700Y-127250000D01*
X126666700Y-126608300D01*
X126758300Y-126608300D01*
X126758300Y-127250000D01*
G37*
G36*
X126208300Y-136875000D02*
G01*
X126116700Y-136875000D01*
X126116700Y-136233300D01*
X126208300Y-136233300D01*
X126208300Y-136875000D01*
G37*
G36*
X125383300Y-132291700D02*
G01*
X125291700Y-132291700D01*
X125291700Y-131741700D01*
X125383300Y-131741700D01*
X125383300Y-132291700D01*
G37*
G36*
X126850000Y-132016700D02*
G01*
X126758300Y-132016700D01*
X126758300Y-131375000D01*
X126850000Y-131375000D01*
X126850000Y-132016700D01*
G37*
G36*
X126758300Y-130550000D02*
G01*
X126666700Y-130550000D01*
X126666700Y-129908300D01*
X126758300Y-129908300D01*
X126758300Y-130550000D01*
G37*
G36*
X126208300Y-132200000D02*
G01*
X126116700Y-132200000D01*
X126116700Y-131558300D01*
X126208300Y-131558300D01*
X126208300Y-132200000D01*
G37*
G36*
X121692000Y-130577000D02*
G01*
X120394000Y-130577000D01*
X120394000Y-130433000D01*
X121692000Y-130433000D01*
X121692000Y-130577000D01*
G37*
G36*
X112894000Y-131298000D02*
G01*
X110875000Y-131298000D01*
X110875000Y-131154000D01*
X112894000Y-131154000D01*
X112894000Y-131298000D01*
G37*
G36*
X126850000Y-136783300D02*
G01*
X126758300Y-136783300D01*
X126758300Y-136141700D01*
X126850000Y-136141700D01*
X126850000Y-136783300D01*
G37*
G36*
X127033300Y-126241700D02*
G01*
X126941700Y-126241700D01*
X126941700Y-125508300D01*
X127033300Y-125508300D01*
X127033300Y-126241700D01*
G37*
G36*
X121115000Y-132740000D02*
G01*
X118663000Y-132740000D01*
X118663000Y-132596000D01*
X121115000Y-132596000D01*
X121115000Y-132740000D01*
G37*
G36*
X109721000Y-132596000D02*
G01*
X109433000Y-132596000D01*
X109433000Y-132452000D01*
X109721000Y-132452000D01*
X109721000Y-132596000D01*
G37*
G36*
X122702000Y-126250000D02*
G01*
X121692000Y-126250000D01*
X121692000Y-126106000D01*
X122702000Y-126106000D01*
X122702000Y-126250000D01*
G37*
G36*
X126941700Y-134308300D02*
G01*
X126850000Y-134308300D01*
X126850000Y-133941700D01*
X126941700Y-133941700D01*
X126941700Y-134308300D01*
G37*
G36*
X126941700Y-127250000D02*
G01*
X126850000Y-127250000D01*
X126850000Y-126608300D01*
X126941700Y-126608300D01*
X126941700Y-127250000D01*
G37*
G36*
X116356000Y-131442000D02*
G01*
X115346000Y-131442000D01*
X115346000Y-131298000D01*
X116356000Y-131298000D01*
X116356000Y-131442000D01*
G37*
G36*
X122125000Y-127837000D02*
G01*
X121115000Y-127837000D01*
X121115000Y-127692000D01*
X122125000Y-127692000D01*
X122125000Y-127837000D01*
G37*
G36*
X116788000Y-131154000D02*
G01*
X115202000Y-131154000D01*
X115202000Y-131010000D01*
X116788000Y-131010000D01*
X116788000Y-131154000D01*
G37*
G36*
X126300000Y-130641700D02*
G01*
X126208300Y-130641700D01*
X126208300Y-130000000D01*
X126300000Y-130000000D01*
X126300000Y-130641700D01*
G37*
G36*
X120683000Y-125673000D02*
G01*
X120250000Y-125673000D01*
X120250000Y-125529000D01*
X120683000Y-125529000D01*
X120683000Y-125673000D01*
G37*
G36*
X117510000Y-124663000D02*
G01*
X117221000Y-124663000D01*
X117221000Y-124519000D01*
X117510000Y-124519000D01*
X117510000Y-124663000D01*
G37*
G36*
X127216700Y-128625000D02*
G01*
X127125000Y-128625000D01*
X127125000Y-126700000D01*
X127216700Y-126700000D01*
X127216700Y-128625000D01*
G37*
G36*
X126208300Y-130641700D02*
G01*
X126116700Y-130641700D01*
X126116700Y-130000000D01*
X126208300Y-130000000D01*
X126208300Y-130641700D01*
G37*
G36*
X127216700Y-124500000D02*
G01*
X127125000Y-124500000D01*
X127125000Y-123950000D01*
X127216700Y-123950000D01*
X127216700Y-124500000D01*
G37*
G36*
X114048000Y-126827000D02*
G01*
X113038000Y-126827000D01*
X113038000Y-126683000D01*
X114048000Y-126683000D01*
X114048000Y-126827000D01*
G37*
G36*
X126575000Y-130550000D02*
G01*
X126483300Y-130550000D01*
X126483300Y-130000000D01*
X126575000Y-130000000D01*
X126575000Y-130550000D01*
G37*
G36*
X115490000Y-126538000D02*
G01*
X115202000Y-126538000D01*
X115202000Y-126250000D01*
X115490000Y-126250000D01*
X115490000Y-126538000D01*
G37*
G36*
X122990000Y-130144000D02*
G01*
X121837000Y-130144000D01*
X121837000Y-130000000D01*
X122990000Y-130000000D01*
X122990000Y-130144000D01*
G37*
G36*
X127033300Y-132016700D02*
G01*
X126941700Y-132016700D01*
X126941700Y-130000000D01*
X127033300Y-130000000D01*
X127033300Y-132016700D01*
G37*
G36*
X112029000Y-127260000D02*
G01*
X111163000Y-127260000D01*
X111163000Y-127115000D01*
X112029000Y-127115000D01*
X112029000Y-127260000D01*
G37*
G36*
X125658300Y-134400000D02*
G01*
X125566700Y-134400000D01*
X125566700Y-132841700D01*
X125658300Y-132841700D01*
X125658300Y-134400000D01*
G37*
G36*
X125658300Y-124866700D02*
G01*
X125566700Y-124866700D01*
X125566700Y-124591700D01*
X125658300Y-124591700D01*
X125658300Y-124866700D01*
G37*
G36*
X113760000Y-134327000D02*
G01*
X113327000Y-134327000D01*
X113327000Y-133750000D01*
X113760000Y-133750000D01*
X113760000Y-134327000D01*
G37*
G36*
X126941700Y-126150000D02*
G01*
X126850000Y-126150000D01*
X126850000Y-125416700D01*
X126941700Y-125416700D01*
X126941700Y-126150000D01*
G37*
G36*
X117798000Y-134760000D02*
G01*
X117510000Y-134760000D01*
X117510000Y-134615000D01*
X117798000Y-134615000D01*
X117798000Y-134760000D01*
G37*
G36*
X111740000Y-129423000D02*
G01*
X110731000Y-129423000D01*
X110731000Y-129279000D01*
X111740000Y-129279000D01*
X111740000Y-129423000D01*
G37*
G36*
X119817000Y-129567000D02*
G01*
X112606000Y-129567000D01*
X112606000Y-129423000D01*
X119817000Y-129423000D01*
X119817000Y-129567000D01*
G37*
G36*
X120971000Y-127692000D02*
G01*
X114337000Y-127692000D01*
X114337000Y-127548000D01*
X120971000Y-127548000D01*
X120971000Y-127692000D01*
G37*
G36*
X126850000Y-135316700D02*
G01*
X126758300Y-135316700D01*
X126758300Y-134675000D01*
X126850000Y-134675000D01*
X126850000Y-135316700D01*
G37*
G36*
X121260000Y-127404000D02*
G01*
X118808000Y-127404000D01*
X118808000Y-127260000D01*
X121260000Y-127260000D01*
X121260000Y-127404000D01*
G37*
G36*
X116067000Y-134183000D02*
G01*
X114048000Y-134183000D01*
X114048000Y-134038000D01*
X116067000Y-134038000D01*
X116067000Y-134183000D01*
G37*
G36*
X111452000Y-130000000D02*
G01*
X110298000Y-130000000D01*
X110298000Y-129856000D01*
X111452000Y-129856000D01*
X111452000Y-130000000D01*
G37*
G36*
X119529000Y-125673000D02*
G01*
X119240000Y-125673000D01*
X119240000Y-125529000D01*
X119529000Y-125529000D01*
X119529000Y-125673000D01*
G37*
G36*
X114192000Y-134471000D02*
G01*
X112894000Y-134471000D01*
X112894000Y-134327000D01*
X114192000Y-134327000D01*
X114192000Y-134471000D01*
G37*
G36*
X127216700Y-136691700D02*
G01*
X127125000Y-136691700D01*
X127125000Y-136050000D01*
X127216700Y-136050000D01*
X127216700Y-136691700D01*
G37*
G36*
X125016700Y-130000000D02*
G01*
X124925000Y-130000000D01*
X124925000Y-129358300D01*
X125016700Y-129358300D01*
X125016700Y-130000000D01*
G37*
G36*
X120827000Y-130433000D02*
G01*
X120394000Y-130433000D01*
X120394000Y-130288000D01*
X120827000Y-130288000D01*
X120827000Y-130433000D01*
G37*
G36*
X115923000Y-125962000D02*
G01*
X114913000Y-125962000D01*
X114913000Y-125817000D01*
X115923000Y-125817000D01*
X115923000Y-125962000D01*
G37*
G36*
X125933300Y-132200000D02*
G01*
X125841700Y-132200000D01*
X125841700Y-130183300D01*
X125933300Y-130183300D01*
X125933300Y-132200000D01*
G37*
G36*
X114192000Y-130721000D02*
G01*
X110875000Y-130721000D01*
X110875000Y-130577000D01*
X114192000Y-130577000D01*
X114192000Y-130721000D01*
G37*
G36*
X115635000Y-131875000D02*
G01*
X115490000Y-131875000D01*
X115490000Y-131731000D01*
X115635000Y-131731000D01*
X115635000Y-131875000D01*
G37*
G36*
X115058000Y-131010000D02*
G01*
X114048000Y-131010000D01*
X114048000Y-130865000D01*
X115058000Y-130865000D01*
X115058000Y-131010000D01*
G37*
G36*
X118952000Y-125240000D02*
G01*
X117654000Y-125240000D01*
X117654000Y-125096000D01*
X118952000Y-125096000D01*
X118952000Y-125240000D01*
G37*
G36*
X114192000Y-124952000D02*
G01*
X113038000Y-124952000D01*
X113038000Y-124808000D01*
X114192000Y-124808000D01*
X114192000Y-124952000D01*
G37*
G36*
X112029000Y-129279000D02*
G01*
X111452000Y-129279000D01*
X111452000Y-129135000D01*
X112029000Y-129135000D01*
X112029000Y-129279000D01*
G37*
G36*
X117798000Y-130433000D02*
G01*
X110731000Y-130433000D01*
X110731000Y-130288000D01*
X117798000Y-130288000D01*
X117798000Y-130433000D01*
G37*
G36*
X116212000Y-131587000D02*
G01*
X115346000Y-131587000D01*
X115346000Y-131442000D01*
X116212000Y-131442000D01*
X116212000Y-131587000D01*
G37*
G36*
X120394000Y-126683000D02*
G01*
X119962000Y-126683000D01*
X119962000Y-126538000D01*
X120394000Y-126538000D01*
X120394000Y-126683000D01*
G37*
G36*
X119673000Y-131298000D02*
G01*
X116933000Y-131298000D01*
X116933000Y-131154000D01*
X119673000Y-131154000D01*
X119673000Y-131298000D01*
G37*
G36*
X125658300Y-126608300D02*
G01*
X125566700Y-126608300D01*
X125566700Y-125966700D01*
X125658300Y-125966700D01*
X125658300Y-126608300D01*
G37*
G36*
X121404000Y-130721000D02*
G01*
X119385000Y-130721000D01*
X119385000Y-130577000D01*
X121404000Y-130577000D01*
X121404000Y-130721000D01*
G37*
G36*
X112173000Y-133173000D02*
G01*
X111452000Y-133173000D01*
X111452000Y-133029000D01*
X112173000Y-133029000D01*
X112173000Y-133173000D01*
G37*
G36*
X127400000Y-131100000D02*
G01*
X127308300Y-131100000D01*
X127308300Y-130366700D01*
X127400000Y-130366700D01*
X127400000Y-131100000D01*
G37*
G36*
X112029000Y-127548000D02*
G01*
X111308000Y-127548000D01*
X111308000Y-127260000D01*
X112029000Y-127260000D01*
X112029000Y-127548000D01*
G37*
G36*
X116067000Y-126106000D02*
G01*
X114625000Y-126106000D01*
X114625000Y-125962000D01*
X116067000Y-125962000D01*
X116067000Y-126106000D01*
G37*
G36*
X121548000Y-131875000D02*
G01*
X121260000Y-131875000D01*
X121260000Y-131731000D01*
X121548000Y-131731000D01*
X121548000Y-131875000D01*
G37*
G36*
X117654000Y-130577000D02*
G01*
X115202000Y-130577000D01*
X115202000Y-130433000D01*
X117654000Y-130433000D01*
X117654000Y-130577000D01*
G37*
G36*
X118087000Y-124087000D02*
G01*
X115346000Y-124087000D01*
X115346000Y-123942000D01*
X118087000Y-123942000D01*
X118087000Y-124087000D01*
G37*
G36*
X120971000Y-125962000D02*
G01*
X120394000Y-125962000D01*
X120394000Y-125817000D01*
X120971000Y-125817000D01*
X120971000Y-125962000D01*
G37*
G36*
X120538000Y-128702000D02*
G01*
X113615000Y-128702000D01*
X113615000Y-128558000D01*
X120538000Y-128558000D01*
X120538000Y-128702000D01*
G37*
G36*
X112317000Y-131587000D02*
G01*
X110587000Y-131587000D01*
X110587000Y-131442000D01*
X112317000Y-131442000D01*
X112317000Y-131587000D01*
G37*
G36*
X126025000Y-124775000D02*
G01*
X125933300Y-124775000D01*
X125933300Y-124133300D01*
X126025000Y-124133300D01*
X126025000Y-124775000D01*
G37*
G36*
X127033300Y-128625000D02*
G01*
X126941700Y-128625000D01*
X126941700Y-126608300D01*
X127033300Y-126608300D01*
X127033300Y-128625000D01*
G37*
G36*
X122269000Y-131587000D02*
G01*
X121837000Y-131587000D01*
X121837000Y-131442000D01*
X122269000Y-131442000D01*
X122269000Y-131587000D01*
G37*
G36*
X125475000Y-132291700D02*
G01*
X125383300Y-132291700D01*
X125383300Y-131741700D01*
X125475000Y-131741700D01*
X125475000Y-132291700D01*
G37*
G36*
X120971000Y-134183000D02*
G01*
X120827000Y-134183000D01*
X120827000Y-134038000D01*
X120971000Y-134038000D01*
X120971000Y-134183000D01*
G37*
G36*
X116644000Y-124375000D02*
G01*
X116212000Y-124375000D01*
X116212000Y-124231000D01*
X116644000Y-124231000D01*
X116644000Y-124375000D01*
G37*
G36*
X117221000Y-135481000D02*
G01*
X116788000Y-135481000D01*
X116788000Y-135337000D01*
X117221000Y-135337000D01*
X117221000Y-135481000D01*
G37*
G36*
X126850000Y-124591700D02*
G01*
X126758300Y-124591700D01*
X126758300Y-123950000D01*
X126850000Y-123950000D01*
X126850000Y-124591700D01*
G37*
G36*
X119385000Y-134471000D02*
G01*
X118808000Y-134471000D01*
X118808000Y-134327000D01*
X119385000Y-134327000D01*
X119385000Y-134471000D01*
G37*
G36*
X125291700Y-132383300D02*
G01*
X125200000Y-132383300D01*
X125200000Y-131741700D01*
X125291700Y-131741700D01*
X125291700Y-132383300D01*
G37*
G36*
X120538000Y-131875000D02*
G01*
X116644000Y-131875000D01*
X116644000Y-131731000D01*
X120538000Y-131731000D01*
X120538000Y-131875000D01*
G37*
G36*
X125566700Y-131466700D02*
G01*
X125475000Y-131466700D01*
X125475000Y-130550000D01*
X125566700Y-130550000D01*
X125566700Y-131466700D01*
G37*
G36*
X117365000Y-130721000D02*
G01*
X115202000Y-130721000D01*
X115202000Y-130577000D01*
X117365000Y-130577000D01*
X117365000Y-130721000D01*
G37*
G36*
X126666700Y-129633300D02*
G01*
X126575000Y-129633300D01*
X126575000Y-129083300D01*
X126666700Y-129083300D01*
X126666700Y-129633300D01*
G37*
G36*
X112606000Y-126106000D02*
G01*
X112317000Y-126106000D01*
X112317000Y-125962000D01*
X112606000Y-125962000D01*
X112606000Y-126106000D01*
G37*
G36*
X125291700Y-126516700D02*
G01*
X125200000Y-126516700D01*
X125200000Y-123950000D01*
X125291700Y-123950000D01*
X125291700Y-126516700D01*
G37*
G36*
X113615000Y-131010000D02*
G01*
X111019000Y-131010000D01*
X111019000Y-130865000D01*
X113615000Y-130865000D01*
X113615000Y-131010000D01*
G37*
G36*
X122990000Y-129567000D02*
G01*
X121404000Y-129567000D01*
X121404000Y-129423000D01*
X122990000Y-129423000D01*
X122990000Y-129567000D01*
G37*
G36*
X127125000Y-124591700D02*
G01*
X127033300Y-124591700D01*
X127033300Y-123950000D01*
X127125000Y-123950000D01*
X127125000Y-124591700D01*
G37*
G36*
X122413000Y-128990000D02*
G01*
X122125000Y-128990000D01*
X122125000Y-128702000D01*
X122413000Y-128702000D01*
X122413000Y-128990000D01*
G37*
G36*
X125566700Y-128533300D02*
G01*
X125475000Y-128533300D01*
X125475000Y-127066700D01*
X125566700Y-127066700D01*
X125566700Y-128533300D01*
G37*
G36*
X126941700Y-133116700D02*
G01*
X126850000Y-133116700D01*
X126850000Y-132383300D01*
X126941700Y-132383300D01*
X126941700Y-133116700D01*
G37*
G36*
X127216700Y-135225000D02*
G01*
X127125000Y-135225000D01*
X127125000Y-134583300D01*
X127216700Y-134583300D01*
X127216700Y-135225000D01*
G37*
G36*
X111452000Y-128269000D02*
G01*
X111163000Y-128269000D01*
X111163000Y-127981000D01*
X111452000Y-127981000D01*
X111452000Y-128269000D01*
G37*
G36*
X118519000Y-130000000D02*
G01*
X111740000Y-130000000D01*
X111740000Y-129856000D01*
X118519000Y-129856000D01*
X118519000Y-130000000D01*
G37*
G36*
X121260000Y-131154000D02*
G01*
X120394000Y-131154000D01*
X120394000Y-131010000D01*
X121260000Y-131010000D01*
X121260000Y-131154000D01*
G37*
G36*
X126941700Y-135316700D02*
G01*
X126850000Y-135316700D01*
X126850000Y-134675000D01*
X126941700Y-134675000D01*
X126941700Y-135316700D01*
G37*
G36*
X120971000Y-128269000D02*
G01*
X113615000Y-128269000D01*
X113615000Y-128125000D01*
X120971000Y-128125000D01*
X120971000Y-128269000D01*
G37*
G36*
X126850000Y-126058300D02*
G01*
X126758300Y-126058300D01*
X126758300Y-125416700D01*
X126850000Y-125416700D01*
X126850000Y-126058300D01*
G37*
G36*
X113760000Y-125240000D02*
G01*
X113038000Y-125240000D01*
X113038000Y-125096000D01*
X113760000Y-125096000D01*
X113760000Y-125240000D01*
G37*
G36*
X126575000Y-136783300D02*
G01*
X126483300Y-136783300D01*
X126483300Y-136233300D01*
X126575000Y-136233300D01*
X126575000Y-136783300D01*
G37*
G36*
X127033300Y-134308300D02*
G01*
X126941700Y-134308300D01*
X126941700Y-132383300D01*
X127033300Y-132383300D01*
X127033300Y-134308300D01*
G37*
G36*
X112894000Y-131587000D02*
G01*
X112750000Y-131587000D01*
X112750000Y-131442000D01*
X112894000Y-131442000D01*
X112894000Y-131587000D01*
G37*
G36*
X111452000Y-129712000D02*
G01*
X110442000Y-129712000D01*
X110442000Y-129567000D01*
X111452000Y-129567000D01*
X111452000Y-129712000D01*
G37*
G36*
X113615000Y-126106000D02*
G01*
X113327000Y-126106000D01*
X113327000Y-125385000D01*
X113615000Y-125385000D01*
X113615000Y-126106000D01*
G37*
G36*
X119385000Y-125962000D02*
G01*
X119096000Y-125962000D01*
X119096000Y-125817000D01*
X119385000Y-125817000D01*
X119385000Y-125962000D01*
G37*
G36*
X126483300Y-128716700D02*
G01*
X126391700Y-128716700D01*
X126391700Y-126791700D01*
X126483300Y-126791700D01*
X126483300Y-128716700D01*
G37*
G36*
X110587000Y-132308000D02*
G01*
X109865000Y-132308000D01*
X109865000Y-132163000D01*
X110587000Y-132163000D01*
X110587000Y-132308000D01*
G37*
D11*
X107819046Y-141843335D02*
X107819046Y-141043335D01*
X107285713Y-141043335D02*
X107133332Y-141043335D01*
X107133332Y-141043335D02*
X107057142Y-141081430D01*
X107057142Y-141081430D02*
X106980951Y-141157620D01*
X106980951Y-141157620D02*
X106942856Y-141310001D01*
X106942856Y-141310001D02*
X106942856Y-141576668D01*
X106942856Y-141576668D02*
X106980951Y-141729049D01*
X106980951Y-141729049D02*
X107057142Y-141805240D01*
X107057142Y-141805240D02*
X107133332Y-141843335D01*
X107133332Y-141843335D02*
X107285713Y-141843335D01*
X107285713Y-141843335D02*
X107361904Y-141805240D01*
X107361904Y-141805240D02*
X107438094Y-141729049D01*
X107438094Y-141729049D02*
X107476190Y-141576668D01*
X107476190Y-141576668D02*
X107476190Y-141310001D01*
X107476190Y-141310001D02*
X107438094Y-141157620D01*
X107438094Y-141157620D02*
X107361904Y-141081430D01*
X107361904Y-141081430D02*
X107285713Y-141043335D01*
X106180952Y-141843335D02*
X106638095Y-141843335D01*
X106409523Y-141843335D02*
X106409523Y-141043335D01*
X106409523Y-141043335D02*
X106485714Y-141157620D01*
X106485714Y-141157620D02*
X106561904Y-141233811D01*
X106561904Y-141233811D02*
X106638095Y-141271906D01*
X105914285Y-141043335D02*
X105419047Y-141043335D01*
X105419047Y-141043335D02*
X105685713Y-141348097D01*
X105685713Y-141348097D02*
X105571428Y-141348097D01*
X105571428Y-141348097D02*
X105495237Y-141386192D01*
X105495237Y-141386192D02*
X105457142Y-141424287D01*
X105457142Y-141424287D02*
X105419047Y-141500478D01*
X105419047Y-141500478D02*
X105419047Y-141690954D01*
X105419047Y-141690954D02*
X105457142Y-141767144D01*
X105457142Y-141767144D02*
X105495237Y-141805240D01*
X105495237Y-141805240D02*
X105571428Y-141843335D01*
X105571428Y-141843335D02*
X105799999Y-141843335D01*
X105799999Y-141843335D02*
X105876190Y-141805240D01*
X105876190Y-141805240D02*
X105914285Y-141767144D01*
X105076189Y-141538573D02*
X104466666Y-141538573D01*
X104123809Y-141614763D02*
X103742856Y-141614763D01*
X104199999Y-141843335D02*
X103933332Y-141043335D01*
X103933332Y-141043335D02*
X103666666Y-141843335D01*
X107438094Y-131683335D02*
X107438094Y-130883335D01*
X106904761Y-130883335D02*
X106752380Y-130883335D01*
X106752380Y-130883335D02*
X106676190Y-130921430D01*
X106676190Y-130921430D02*
X106599999Y-130997620D01*
X106599999Y-130997620D02*
X106561904Y-131150001D01*
X106561904Y-131150001D02*
X106561904Y-131416668D01*
X106561904Y-131416668D02*
X106599999Y-131569049D01*
X106599999Y-131569049D02*
X106676190Y-131645240D01*
X106676190Y-131645240D02*
X106752380Y-131683335D01*
X106752380Y-131683335D02*
X106904761Y-131683335D01*
X106904761Y-131683335D02*
X106980952Y-131645240D01*
X106980952Y-131645240D02*
X107057142Y-131569049D01*
X107057142Y-131569049D02*
X107095238Y-131416668D01*
X107095238Y-131416668D02*
X107095238Y-131150001D01*
X107095238Y-131150001D02*
X107057142Y-130997620D01*
X107057142Y-130997620D02*
X106980952Y-130921430D01*
X106980952Y-130921430D02*
X106904761Y-130883335D01*
X106180952Y-131683335D02*
X106028571Y-131683335D01*
X106028571Y-131683335D02*
X105952381Y-131645240D01*
X105952381Y-131645240D02*
X105914285Y-131607144D01*
X105914285Y-131607144D02*
X105838095Y-131492859D01*
X105838095Y-131492859D02*
X105800000Y-131340478D01*
X105800000Y-131340478D02*
X105800000Y-131035716D01*
X105800000Y-131035716D02*
X105838095Y-130959525D01*
X105838095Y-130959525D02*
X105876190Y-130921430D01*
X105876190Y-130921430D02*
X105952381Y-130883335D01*
X105952381Y-130883335D02*
X106104762Y-130883335D01*
X106104762Y-130883335D02*
X106180952Y-130921430D01*
X106180952Y-130921430D02*
X106219047Y-130959525D01*
X106219047Y-130959525D02*
X106257143Y-131035716D01*
X106257143Y-131035716D02*
X106257143Y-131226192D01*
X106257143Y-131226192D02*
X106219047Y-131302382D01*
X106219047Y-131302382D02*
X106180952Y-131340478D01*
X106180952Y-131340478D02*
X106104762Y-131378573D01*
X106104762Y-131378573D02*
X105952381Y-131378573D01*
X105952381Y-131378573D02*
X105876190Y-131340478D01*
X105876190Y-131340478D02*
X105838095Y-131302382D01*
X105838095Y-131302382D02*
X105800000Y-131226192D01*
X105457142Y-131378573D02*
X104847619Y-131378573D01*
X104504762Y-131454763D02*
X104123809Y-131454763D01*
X104580952Y-131683335D02*
X104314285Y-130883335D01*
X104314285Y-130883335D02*
X104047619Y-131683335D01*
X107438094Y-124063335D02*
X107438094Y-123263335D01*
X106904761Y-123263335D02*
X106752380Y-123263335D01*
X106752380Y-123263335D02*
X106676190Y-123301430D01*
X106676190Y-123301430D02*
X106599999Y-123377620D01*
X106599999Y-123377620D02*
X106561904Y-123530001D01*
X106561904Y-123530001D02*
X106561904Y-123796668D01*
X106561904Y-123796668D02*
X106599999Y-123949049D01*
X106599999Y-123949049D02*
X106676190Y-124025240D01*
X106676190Y-124025240D02*
X106752380Y-124063335D01*
X106752380Y-124063335D02*
X106904761Y-124063335D01*
X106904761Y-124063335D02*
X106980952Y-124025240D01*
X106980952Y-124025240D02*
X107057142Y-123949049D01*
X107057142Y-123949049D02*
X107095238Y-123796668D01*
X107095238Y-123796668D02*
X107095238Y-123530001D01*
X107095238Y-123530001D02*
X107057142Y-123377620D01*
X107057142Y-123377620D02*
X106980952Y-123301430D01*
X106980952Y-123301430D02*
X106904761Y-123263335D01*
X105876190Y-123263335D02*
X106028571Y-123263335D01*
X106028571Y-123263335D02*
X106104762Y-123301430D01*
X106104762Y-123301430D02*
X106142857Y-123339525D01*
X106142857Y-123339525D02*
X106219047Y-123453811D01*
X106219047Y-123453811D02*
X106257143Y-123606192D01*
X106257143Y-123606192D02*
X106257143Y-123910954D01*
X106257143Y-123910954D02*
X106219047Y-123987144D01*
X106219047Y-123987144D02*
X106180952Y-124025240D01*
X106180952Y-124025240D02*
X106104762Y-124063335D01*
X106104762Y-124063335D02*
X105952381Y-124063335D01*
X105952381Y-124063335D02*
X105876190Y-124025240D01*
X105876190Y-124025240D02*
X105838095Y-123987144D01*
X105838095Y-123987144D02*
X105800000Y-123910954D01*
X105800000Y-123910954D02*
X105800000Y-123720478D01*
X105800000Y-123720478D02*
X105838095Y-123644287D01*
X105838095Y-123644287D02*
X105876190Y-123606192D01*
X105876190Y-123606192D02*
X105952381Y-123568097D01*
X105952381Y-123568097D02*
X106104762Y-123568097D01*
X106104762Y-123568097D02*
X106180952Y-123606192D01*
X106180952Y-123606192D02*
X106219047Y-123644287D01*
X106219047Y-123644287D02*
X106257143Y-123720478D01*
X105457142Y-123758573D02*
X104847619Y-123758573D01*
X104504762Y-123834763D02*
X104123809Y-123834763D01*
X104580952Y-124063335D02*
X104314285Y-123263335D01*
X104314285Y-123263335D02*
X104047619Y-124063335D01*
X107438094Y-126603335D02*
X107438094Y-125803335D01*
X106904761Y-125803335D02*
X106752380Y-125803335D01*
X106752380Y-125803335D02*
X106676190Y-125841430D01*
X106676190Y-125841430D02*
X106599999Y-125917620D01*
X106599999Y-125917620D02*
X106561904Y-126070001D01*
X106561904Y-126070001D02*
X106561904Y-126336668D01*
X106561904Y-126336668D02*
X106599999Y-126489049D01*
X106599999Y-126489049D02*
X106676190Y-126565240D01*
X106676190Y-126565240D02*
X106752380Y-126603335D01*
X106752380Y-126603335D02*
X106904761Y-126603335D01*
X106904761Y-126603335D02*
X106980952Y-126565240D01*
X106980952Y-126565240D02*
X107057142Y-126489049D01*
X107057142Y-126489049D02*
X107095238Y-126336668D01*
X107095238Y-126336668D02*
X107095238Y-126070001D01*
X107095238Y-126070001D02*
X107057142Y-125917620D01*
X107057142Y-125917620D02*
X106980952Y-125841430D01*
X106980952Y-125841430D02*
X106904761Y-125803335D01*
X106295238Y-125803335D02*
X105761904Y-125803335D01*
X105761904Y-125803335D02*
X106104762Y-126603335D01*
X105457142Y-126298573D02*
X104847619Y-126298573D01*
X104504762Y-126374763D02*
X104123809Y-126374763D01*
X104580952Y-126603335D02*
X104314285Y-125803335D01*
X104314285Y-125803335D02*
X104047619Y-126603335D01*
X130780951Y-118983335D02*
X130780951Y-118183335D01*
X130247618Y-118183335D02*
X130095237Y-118183335D01*
X130095237Y-118183335D02*
X130019047Y-118221430D01*
X130019047Y-118221430D02*
X129942856Y-118297620D01*
X129942856Y-118297620D02*
X129904761Y-118450001D01*
X129904761Y-118450001D02*
X129904761Y-118716668D01*
X129904761Y-118716668D02*
X129942856Y-118869049D01*
X129942856Y-118869049D02*
X130019047Y-118945240D01*
X130019047Y-118945240D02*
X130095237Y-118983335D01*
X130095237Y-118983335D02*
X130247618Y-118983335D01*
X130247618Y-118983335D02*
X130323809Y-118945240D01*
X130323809Y-118945240D02*
X130399999Y-118869049D01*
X130399999Y-118869049D02*
X130438095Y-118716668D01*
X130438095Y-118716668D02*
X130438095Y-118450001D01*
X130438095Y-118450001D02*
X130399999Y-118297620D01*
X130399999Y-118297620D02*
X130323809Y-118221430D01*
X130323809Y-118221430D02*
X130247618Y-118183335D01*
X129638095Y-118183335D02*
X129142857Y-118183335D01*
X129142857Y-118183335D02*
X129409523Y-118488097D01*
X129409523Y-118488097D02*
X129295238Y-118488097D01*
X129295238Y-118488097D02*
X129219047Y-118526192D01*
X129219047Y-118526192D02*
X129180952Y-118564287D01*
X129180952Y-118564287D02*
X129142857Y-118640478D01*
X129142857Y-118640478D02*
X129142857Y-118830954D01*
X129142857Y-118830954D02*
X129180952Y-118907144D01*
X129180952Y-118907144D02*
X129219047Y-118945240D01*
X129219047Y-118945240D02*
X129295238Y-118983335D01*
X129295238Y-118983335D02*
X129523809Y-118983335D01*
X129523809Y-118983335D02*
X129600000Y-118945240D01*
X129600000Y-118945240D02*
X129638095Y-118907144D01*
X128457142Y-118450001D02*
X128457142Y-118983335D01*
X128647618Y-118145240D02*
X128838095Y-118716668D01*
X128838095Y-118716668D02*
X128342856Y-118716668D01*
X107819046Y-139303335D02*
X107819046Y-138503335D01*
X107285713Y-138503335D02*
X107133332Y-138503335D01*
X107133332Y-138503335D02*
X107057142Y-138541430D01*
X107057142Y-138541430D02*
X106980951Y-138617620D01*
X106980951Y-138617620D02*
X106942856Y-138770001D01*
X106942856Y-138770001D02*
X106942856Y-139036668D01*
X106942856Y-139036668D02*
X106980951Y-139189049D01*
X106980951Y-139189049D02*
X107057142Y-139265240D01*
X107057142Y-139265240D02*
X107133332Y-139303335D01*
X107133332Y-139303335D02*
X107285713Y-139303335D01*
X107285713Y-139303335D02*
X107361904Y-139265240D01*
X107361904Y-139265240D02*
X107438094Y-139189049D01*
X107438094Y-139189049D02*
X107476190Y-139036668D01*
X107476190Y-139036668D02*
X107476190Y-138770001D01*
X107476190Y-138770001D02*
X107438094Y-138617620D01*
X107438094Y-138617620D02*
X107361904Y-138541430D01*
X107361904Y-138541430D02*
X107285713Y-138503335D01*
X106180952Y-139303335D02*
X106638095Y-139303335D01*
X106409523Y-139303335D02*
X106409523Y-138503335D01*
X106409523Y-138503335D02*
X106485714Y-138617620D01*
X106485714Y-138617620D02*
X106561904Y-138693811D01*
X106561904Y-138693811D02*
X106638095Y-138731906D01*
X105876190Y-138579525D02*
X105838094Y-138541430D01*
X105838094Y-138541430D02*
X105761904Y-138503335D01*
X105761904Y-138503335D02*
X105571428Y-138503335D01*
X105571428Y-138503335D02*
X105495237Y-138541430D01*
X105495237Y-138541430D02*
X105457142Y-138579525D01*
X105457142Y-138579525D02*
X105419047Y-138655716D01*
X105419047Y-138655716D02*
X105419047Y-138731906D01*
X105419047Y-138731906D02*
X105457142Y-138846192D01*
X105457142Y-138846192D02*
X105914285Y-139303335D01*
X105914285Y-139303335D02*
X105419047Y-139303335D01*
X105076189Y-138998573D02*
X104466666Y-138998573D01*
X104123809Y-139074763D02*
X103742856Y-139074763D01*
X104199999Y-139303335D02*
X103933332Y-138503335D01*
X103933332Y-138503335D02*
X103666666Y-139303335D01*
X107438094Y-129143335D02*
X107438094Y-128343335D01*
X106904761Y-128343335D02*
X106752380Y-128343335D01*
X106752380Y-128343335D02*
X106676190Y-128381430D01*
X106676190Y-128381430D02*
X106599999Y-128457620D01*
X106599999Y-128457620D02*
X106561904Y-128610001D01*
X106561904Y-128610001D02*
X106561904Y-128876668D01*
X106561904Y-128876668D02*
X106599999Y-129029049D01*
X106599999Y-129029049D02*
X106676190Y-129105240D01*
X106676190Y-129105240D02*
X106752380Y-129143335D01*
X106752380Y-129143335D02*
X106904761Y-129143335D01*
X106904761Y-129143335D02*
X106980952Y-129105240D01*
X106980952Y-129105240D02*
X107057142Y-129029049D01*
X107057142Y-129029049D02*
X107095238Y-128876668D01*
X107095238Y-128876668D02*
X107095238Y-128610001D01*
X107095238Y-128610001D02*
X107057142Y-128457620D01*
X107057142Y-128457620D02*
X106980952Y-128381430D01*
X106980952Y-128381430D02*
X106904761Y-128343335D01*
X106104762Y-128686192D02*
X106180952Y-128648097D01*
X106180952Y-128648097D02*
X106219047Y-128610001D01*
X106219047Y-128610001D02*
X106257143Y-128533811D01*
X106257143Y-128533811D02*
X106257143Y-128495716D01*
X106257143Y-128495716D02*
X106219047Y-128419525D01*
X106219047Y-128419525D02*
X106180952Y-128381430D01*
X106180952Y-128381430D02*
X106104762Y-128343335D01*
X106104762Y-128343335D02*
X105952381Y-128343335D01*
X105952381Y-128343335D02*
X105876190Y-128381430D01*
X105876190Y-128381430D02*
X105838095Y-128419525D01*
X105838095Y-128419525D02*
X105800000Y-128495716D01*
X105800000Y-128495716D02*
X105800000Y-128533811D01*
X105800000Y-128533811D02*
X105838095Y-128610001D01*
X105838095Y-128610001D02*
X105876190Y-128648097D01*
X105876190Y-128648097D02*
X105952381Y-128686192D01*
X105952381Y-128686192D02*
X106104762Y-128686192D01*
X106104762Y-128686192D02*
X106180952Y-128724287D01*
X106180952Y-128724287D02*
X106219047Y-128762382D01*
X106219047Y-128762382D02*
X106257143Y-128838573D01*
X106257143Y-128838573D02*
X106257143Y-128990954D01*
X106257143Y-128990954D02*
X106219047Y-129067144D01*
X106219047Y-129067144D02*
X106180952Y-129105240D01*
X106180952Y-129105240D02*
X106104762Y-129143335D01*
X106104762Y-129143335D02*
X105952381Y-129143335D01*
X105952381Y-129143335D02*
X105876190Y-129105240D01*
X105876190Y-129105240D02*
X105838095Y-129067144D01*
X105838095Y-129067144D02*
X105800000Y-128990954D01*
X105800000Y-128990954D02*
X105800000Y-128838573D01*
X105800000Y-128838573D02*
X105838095Y-128762382D01*
X105838095Y-128762382D02*
X105876190Y-128724287D01*
X105876190Y-128724287D02*
X105952381Y-128686192D01*
X105457142Y-128838573D02*
X104847619Y-128838573D01*
X104504762Y-128914763D02*
X104123809Y-128914763D01*
X104580952Y-129143335D02*
X104314285Y-128343335D01*
X104314285Y-128343335D02*
X104047619Y-129143335D01*
X130780951Y-139303335D02*
X130780951Y-138503335D01*
X130247618Y-138503335D02*
X130095237Y-138503335D01*
X130095237Y-138503335D02*
X130019047Y-138541430D01*
X130019047Y-138541430D02*
X129942856Y-138617620D01*
X129942856Y-138617620D02*
X129904761Y-138770001D01*
X129904761Y-138770001D02*
X129904761Y-139036668D01*
X129904761Y-139036668D02*
X129942856Y-139189049D01*
X129942856Y-139189049D02*
X130019047Y-139265240D01*
X130019047Y-139265240D02*
X130095237Y-139303335D01*
X130095237Y-139303335D02*
X130247618Y-139303335D01*
X130247618Y-139303335D02*
X130323809Y-139265240D01*
X130323809Y-139265240D02*
X130399999Y-139189049D01*
X130399999Y-139189049D02*
X130438095Y-139036668D01*
X130438095Y-139036668D02*
X130438095Y-138770001D01*
X130438095Y-138770001D02*
X130399999Y-138617620D01*
X130399999Y-138617620D02*
X130323809Y-138541430D01*
X130323809Y-138541430D02*
X130247618Y-138503335D01*
X129219047Y-138770001D02*
X129219047Y-139303335D01*
X129409523Y-138465240D02*
X129600000Y-139036668D01*
X129600000Y-139036668D02*
X129104761Y-139036668D01*
X128838095Y-138579525D02*
X128799999Y-138541430D01*
X128799999Y-138541430D02*
X128723809Y-138503335D01*
X128723809Y-138503335D02*
X128533333Y-138503335D01*
X128533333Y-138503335D02*
X128457142Y-138541430D01*
X128457142Y-138541430D02*
X128419047Y-138579525D01*
X128419047Y-138579525D02*
X128380952Y-138655716D01*
X128380952Y-138655716D02*
X128380952Y-138731906D01*
X128380952Y-138731906D02*
X128419047Y-138846192D01*
X128419047Y-138846192D02*
X128876190Y-139303335D01*
X128876190Y-139303335D02*
X128380952Y-139303335D01*
X107819046Y-136763335D02*
X107819046Y-135963335D01*
X107285713Y-135963335D02*
X107133332Y-135963335D01*
X107133332Y-135963335D02*
X107057142Y-136001430D01*
X107057142Y-136001430D02*
X106980951Y-136077620D01*
X106980951Y-136077620D02*
X106942856Y-136230001D01*
X106942856Y-136230001D02*
X106942856Y-136496668D01*
X106942856Y-136496668D02*
X106980951Y-136649049D01*
X106980951Y-136649049D02*
X107057142Y-136725240D01*
X107057142Y-136725240D02*
X107133332Y-136763335D01*
X107133332Y-136763335D02*
X107285713Y-136763335D01*
X107285713Y-136763335D02*
X107361904Y-136725240D01*
X107361904Y-136725240D02*
X107438094Y-136649049D01*
X107438094Y-136649049D02*
X107476190Y-136496668D01*
X107476190Y-136496668D02*
X107476190Y-136230001D01*
X107476190Y-136230001D02*
X107438094Y-136077620D01*
X107438094Y-136077620D02*
X107361904Y-136001430D01*
X107361904Y-136001430D02*
X107285713Y-135963335D01*
X106180952Y-136763335D02*
X106638095Y-136763335D01*
X106409523Y-136763335D02*
X106409523Y-135963335D01*
X106409523Y-135963335D02*
X106485714Y-136077620D01*
X106485714Y-136077620D02*
X106561904Y-136153811D01*
X106561904Y-136153811D02*
X106638095Y-136191906D01*
X105419047Y-136763335D02*
X105876190Y-136763335D01*
X105647618Y-136763335D02*
X105647618Y-135963335D01*
X105647618Y-135963335D02*
X105723809Y-136077620D01*
X105723809Y-136077620D02*
X105799999Y-136153811D01*
X105799999Y-136153811D02*
X105876190Y-136191906D01*
X105076189Y-136458573D02*
X104466666Y-136458573D01*
X104123809Y-136534763D02*
X103742856Y-136534763D01*
X104199999Y-136763335D02*
X103933332Y-135963335D01*
X103933332Y-135963335D02*
X103666666Y-136763335D01*
X130780951Y-121523335D02*
X130780951Y-120723335D01*
X130247618Y-120723335D02*
X130095237Y-120723335D01*
X130095237Y-120723335D02*
X130019047Y-120761430D01*
X130019047Y-120761430D02*
X129942856Y-120837620D01*
X129942856Y-120837620D02*
X129904761Y-120990001D01*
X129904761Y-120990001D02*
X129904761Y-121256668D01*
X129904761Y-121256668D02*
X129942856Y-121409049D01*
X129942856Y-121409049D02*
X130019047Y-121485240D01*
X130019047Y-121485240D02*
X130095237Y-121523335D01*
X130095237Y-121523335D02*
X130247618Y-121523335D01*
X130247618Y-121523335D02*
X130323809Y-121485240D01*
X130323809Y-121485240D02*
X130399999Y-121409049D01*
X130399999Y-121409049D02*
X130438095Y-121256668D01*
X130438095Y-121256668D02*
X130438095Y-120990001D01*
X130438095Y-120990001D02*
X130399999Y-120837620D01*
X130399999Y-120837620D02*
X130323809Y-120761430D01*
X130323809Y-120761430D02*
X130247618Y-120723335D01*
X129638095Y-120723335D02*
X129142857Y-120723335D01*
X129142857Y-120723335D02*
X129409523Y-121028097D01*
X129409523Y-121028097D02*
X129295238Y-121028097D01*
X129295238Y-121028097D02*
X129219047Y-121066192D01*
X129219047Y-121066192D02*
X129180952Y-121104287D01*
X129180952Y-121104287D02*
X129142857Y-121180478D01*
X129142857Y-121180478D02*
X129142857Y-121370954D01*
X129142857Y-121370954D02*
X129180952Y-121447144D01*
X129180952Y-121447144D02*
X129219047Y-121485240D01*
X129219047Y-121485240D02*
X129295238Y-121523335D01*
X129295238Y-121523335D02*
X129523809Y-121523335D01*
X129523809Y-121523335D02*
X129600000Y-121485240D01*
X129600000Y-121485240D02*
X129638095Y-121447144D01*
X128419047Y-120723335D02*
X128799999Y-120723335D01*
X128799999Y-120723335D02*
X128838095Y-121104287D01*
X128838095Y-121104287D02*
X128799999Y-121066192D01*
X128799999Y-121066192D02*
X128723809Y-121028097D01*
X128723809Y-121028097D02*
X128533333Y-121028097D01*
X128533333Y-121028097D02*
X128457142Y-121066192D01*
X128457142Y-121066192D02*
X128419047Y-121104287D01*
X128419047Y-121104287D02*
X128380952Y-121180478D01*
X128380952Y-121180478D02*
X128380952Y-121370954D01*
X128380952Y-121370954D02*
X128419047Y-121447144D01*
X128419047Y-121447144D02*
X128457142Y-121485240D01*
X128457142Y-121485240D02*
X128533333Y-121523335D01*
X128533333Y-121523335D02*
X128723809Y-121523335D01*
X128723809Y-121523335D02*
X128799999Y-121485240D01*
X128799999Y-121485240D02*
X128838095Y-121447144D01*
X107438094Y-113903335D02*
X107438094Y-113103335D01*
X106904761Y-113103335D02*
X106752380Y-113103335D01*
X106752380Y-113103335D02*
X106676190Y-113141430D01*
X106676190Y-113141430D02*
X106599999Y-113217620D01*
X106599999Y-113217620D02*
X106561904Y-113370001D01*
X106561904Y-113370001D02*
X106561904Y-113636668D01*
X106561904Y-113636668D02*
X106599999Y-113789049D01*
X106599999Y-113789049D02*
X106676190Y-113865240D01*
X106676190Y-113865240D02*
X106752380Y-113903335D01*
X106752380Y-113903335D02*
X106904761Y-113903335D01*
X106904761Y-113903335D02*
X106980952Y-113865240D01*
X106980952Y-113865240D02*
X107057142Y-113789049D01*
X107057142Y-113789049D02*
X107095238Y-113636668D01*
X107095238Y-113636668D02*
X107095238Y-113370001D01*
X107095238Y-113370001D02*
X107057142Y-113217620D01*
X107057142Y-113217620D02*
X106980952Y-113141430D01*
X106980952Y-113141430D02*
X106904761Y-113103335D01*
X106257143Y-113179525D02*
X106219047Y-113141430D01*
X106219047Y-113141430D02*
X106142857Y-113103335D01*
X106142857Y-113103335D02*
X105952381Y-113103335D01*
X105952381Y-113103335D02*
X105876190Y-113141430D01*
X105876190Y-113141430D02*
X105838095Y-113179525D01*
X105838095Y-113179525D02*
X105800000Y-113255716D01*
X105800000Y-113255716D02*
X105800000Y-113331906D01*
X105800000Y-113331906D02*
X105838095Y-113446192D01*
X105838095Y-113446192D02*
X106295238Y-113903335D01*
X106295238Y-113903335D02*
X105800000Y-113903335D01*
X105457142Y-113598573D02*
X104847619Y-113598573D01*
X104504762Y-113674763D02*
X104123809Y-113674763D01*
X104580952Y-113903335D02*
X104314285Y-113103335D01*
X104314285Y-113103335D02*
X104047619Y-113903335D01*
X130780951Y-136763335D02*
X130780951Y-135963335D01*
X130247618Y-135963335D02*
X130095237Y-135963335D01*
X130095237Y-135963335D02*
X130019047Y-136001430D01*
X130019047Y-136001430D02*
X129942856Y-136077620D01*
X129942856Y-136077620D02*
X129904761Y-136230001D01*
X129904761Y-136230001D02*
X129904761Y-136496668D01*
X129904761Y-136496668D02*
X129942856Y-136649049D01*
X129942856Y-136649049D02*
X130019047Y-136725240D01*
X130019047Y-136725240D02*
X130095237Y-136763335D01*
X130095237Y-136763335D02*
X130247618Y-136763335D01*
X130247618Y-136763335D02*
X130323809Y-136725240D01*
X130323809Y-136725240D02*
X130399999Y-136649049D01*
X130399999Y-136649049D02*
X130438095Y-136496668D01*
X130438095Y-136496668D02*
X130438095Y-136230001D01*
X130438095Y-136230001D02*
X130399999Y-136077620D01*
X130399999Y-136077620D02*
X130323809Y-136001430D01*
X130323809Y-136001430D02*
X130247618Y-135963335D01*
X129219047Y-136230001D02*
X129219047Y-136763335D01*
X129409523Y-135925240D02*
X129600000Y-136496668D01*
X129600000Y-136496668D02*
X129104761Y-136496668D01*
X128380952Y-136763335D02*
X128838095Y-136763335D01*
X128609523Y-136763335D02*
X128609523Y-135963335D01*
X128609523Y-135963335D02*
X128685714Y-136077620D01*
X128685714Y-136077620D02*
X128761904Y-136153811D01*
X128761904Y-136153811D02*
X128838095Y-136191906D01*
X130780951Y-126603335D02*
X130780951Y-125803335D01*
X130247618Y-125803335D02*
X130095237Y-125803335D01*
X130095237Y-125803335D02*
X130019047Y-125841430D01*
X130019047Y-125841430D02*
X129942856Y-125917620D01*
X129942856Y-125917620D02*
X129904761Y-126070001D01*
X129904761Y-126070001D02*
X129904761Y-126336668D01*
X129904761Y-126336668D02*
X129942856Y-126489049D01*
X129942856Y-126489049D02*
X130019047Y-126565240D01*
X130019047Y-126565240D02*
X130095237Y-126603335D01*
X130095237Y-126603335D02*
X130247618Y-126603335D01*
X130247618Y-126603335D02*
X130323809Y-126565240D01*
X130323809Y-126565240D02*
X130399999Y-126489049D01*
X130399999Y-126489049D02*
X130438095Y-126336668D01*
X130438095Y-126336668D02*
X130438095Y-126070001D01*
X130438095Y-126070001D02*
X130399999Y-125917620D01*
X130399999Y-125917620D02*
X130323809Y-125841430D01*
X130323809Y-125841430D02*
X130247618Y-125803335D01*
X129638095Y-125803335D02*
X129142857Y-125803335D01*
X129142857Y-125803335D02*
X129409523Y-126108097D01*
X129409523Y-126108097D02*
X129295238Y-126108097D01*
X129295238Y-126108097D02*
X129219047Y-126146192D01*
X129219047Y-126146192D02*
X129180952Y-126184287D01*
X129180952Y-126184287D02*
X129142857Y-126260478D01*
X129142857Y-126260478D02*
X129142857Y-126450954D01*
X129142857Y-126450954D02*
X129180952Y-126527144D01*
X129180952Y-126527144D02*
X129219047Y-126565240D01*
X129219047Y-126565240D02*
X129295238Y-126603335D01*
X129295238Y-126603335D02*
X129523809Y-126603335D01*
X129523809Y-126603335D02*
X129600000Y-126565240D01*
X129600000Y-126565240D02*
X129638095Y-126527144D01*
X128876190Y-125803335D02*
X128342856Y-125803335D01*
X128342856Y-125803335D02*
X128685714Y-126603335D01*
X130780951Y-124063335D02*
X130780951Y-123263335D01*
X130247618Y-123263335D02*
X130095237Y-123263335D01*
X130095237Y-123263335D02*
X130019047Y-123301430D01*
X130019047Y-123301430D02*
X129942856Y-123377620D01*
X129942856Y-123377620D02*
X129904761Y-123530001D01*
X129904761Y-123530001D02*
X129904761Y-123796668D01*
X129904761Y-123796668D02*
X129942856Y-123949049D01*
X129942856Y-123949049D02*
X130019047Y-124025240D01*
X130019047Y-124025240D02*
X130095237Y-124063335D01*
X130095237Y-124063335D02*
X130247618Y-124063335D01*
X130247618Y-124063335D02*
X130323809Y-124025240D01*
X130323809Y-124025240D02*
X130399999Y-123949049D01*
X130399999Y-123949049D02*
X130438095Y-123796668D01*
X130438095Y-123796668D02*
X130438095Y-123530001D01*
X130438095Y-123530001D02*
X130399999Y-123377620D01*
X130399999Y-123377620D02*
X130323809Y-123301430D01*
X130323809Y-123301430D02*
X130247618Y-123263335D01*
X129638095Y-123263335D02*
X129142857Y-123263335D01*
X129142857Y-123263335D02*
X129409523Y-123568097D01*
X129409523Y-123568097D02*
X129295238Y-123568097D01*
X129295238Y-123568097D02*
X129219047Y-123606192D01*
X129219047Y-123606192D02*
X129180952Y-123644287D01*
X129180952Y-123644287D02*
X129142857Y-123720478D01*
X129142857Y-123720478D02*
X129142857Y-123910954D01*
X129142857Y-123910954D02*
X129180952Y-123987144D01*
X129180952Y-123987144D02*
X129219047Y-124025240D01*
X129219047Y-124025240D02*
X129295238Y-124063335D01*
X129295238Y-124063335D02*
X129523809Y-124063335D01*
X129523809Y-124063335D02*
X129600000Y-124025240D01*
X129600000Y-124025240D02*
X129638095Y-123987144D01*
X128457142Y-123263335D02*
X128609523Y-123263335D01*
X128609523Y-123263335D02*
X128685714Y-123301430D01*
X128685714Y-123301430D02*
X128723809Y-123339525D01*
X128723809Y-123339525D02*
X128799999Y-123453811D01*
X128799999Y-123453811D02*
X128838095Y-123606192D01*
X128838095Y-123606192D02*
X128838095Y-123910954D01*
X128838095Y-123910954D02*
X128799999Y-123987144D01*
X128799999Y-123987144D02*
X128761904Y-124025240D01*
X128761904Y-124025240D02*
X128685714Y-124063335D01*
X128685714Y-124063335D02*
X128533333Y-124063335D01*
X128533333Y-124063335D02*
X128457142Y-124025240D01*
X128457142Y-124025240D02*
X128419047Y-123987144D01*
X128419047Y-123987144D02*
X128380952Y-123910954D01*
X128380952Y-123910954D02*
X128380952Y-123720478D01*
X128380952Y-123720478D02*
X128419047Y-123644287D01*
X128419047Y-123644287D02*
X128457142Y-123606192D01*
X128457142Y-123606192D02*
X128533333Y-123568097D01*
X128533333Y-123568097D02*
X128685714Y-123568097D01*
X128685714Y-123568097D02*
X128761904Y-123606192D01*
X128761904Y-123606192D02*
X128799999Y-123644287D01*
X128799999Y-123644287D02*
X128838095Y-123720478D01*
X107438094Y-118983335D02*
X107438094Y-118183335D01*
X106904761Y-118183335D02*
X106752380Y-118183335D01*
X106752380Y-118183335D02*
X106676190Y-118221430D01*
X106676190Y-118221430D02*
X106599999Y-118297620D01*
X106599999Y-118297620D02*
X106561904Y-118450001D01*
X106561904Y-118450001D02*
X106561904Y-118716668D01*
X106561904Y-118716668D02*
X106599999Y-118869049D01*
X106599999Y-118869049D02*
X106676190Y-118945240D01*
X106676190Y-118945240D02*
X106752380Y-118983335D01*
X106752380Y-118983335D02*
X106904761Y-118983335D01*
X106904761Y-118983335D02*
X106980952Y-118945240D01*
X106980952Y-118945240D02*
X107057142Y-118869049D01*
X107057142Y-118869049D02*
X107095238Y-118716668D01*
X107095238Y-118716668D02*
X107095238Y-118450001D01*
X107095238Y-118450001D02*
X107057142Y-118297620D01*
X107057142Y-118297620D02*
X106980952Y-118221430D01*
X106980952Y-118221430D02*
X106904761Y-118183335D01*
X105876190Y-118450001D02*
X105876190Y-118983335D01*
X106066666Y-118145240D02*
X106257143Y-118716668D01*
X106257143Y-118716668D02*
X105761904Y-118716668D01*
X105457142Y-118678573D02*
X104847619Y-118678573D01*
X104504762Y-118754763D02*
X104123809Y-118754763D01*
X104580952Y-118983335D02*
X104314285Y-118183335D01*
X104314285Y-118183335D02*
X104047619Y-118983335D01*
X107438094Y-111363335D02*
X107438094Y-110563335D01*
X106904761Y-110563335D02*
X106752380Y-110563335D01*
X106752380Y-110563335D02*
X106676190Y-110601430D01*
X106676190Y-110601430D02*
X106599999Y-110677620D01*
X106599999Y-110677620D02*
X106561904Y-110830001D01*
X106561904Y-110830001D02*
X106561904Y-111096668D01*
X106561904Y-111096668D02*
X106599999Y-111249049D01*
X106599999Y-111249049D02*
X106676190Y-111325240D01*
X106676190Y-111325240D02*
X106752380Y-111363335D01*
X106752380Y-111363335D02*
X106904761Y-111363335D01*
X106904761Y-111363335D02*
X106980952Y-111325240D01*
X106980952Y-111325240D02*
X107057142Y-111249049D01*
X107057142Y-111249049D02*
X107095238Y-111096668D01*
X107095238Y-111096668D02*
X107095238Y-110830001D01*
X107095238Y-110830001D02*
X107057142Y-110677620D01*
X107057142Y-110677620D02*
X106980952Y-110601430D01*
X106980952Y-110601430D02*
X106904761Y-110563335D01*
X105800000Y-111363335D02*
X106257143Y-111363335D01*
X106028571Y-111363335D02*
X106028571Y-110563335D01*
X106028571Y-110563335D02*
X106104762Y-110677620D01*
X106104762Y-110677620D02*
X106180952Y-110753811D01*
X106180952Y-110753811D02*
X106257143Y-110791906D01*
X105457142Y-111058573D02*
X104847619Y-111058573D01*
X104504762Y-111134763D02*
X104123809Y-111134763D01*
X104580952Y-111363335D02*
X104314285Y-110563335D01*
X104314285Y-110563335D02*
X104047619Y-111363335D01*
X107819046Y-134223335D02*
X107819046Y-133423335D01*
X107285713Y-133423335D02*
X107133332Y-133423335D01*
X107133332Y-133423335D02*
X107057142Y-133461430D01*
X107057142Y-133461430D02*
X106980951Y-133537620D01*
X106980951Y-133537620D02*
X106942856Y-133690001D01*
X106942856Y-133690001D02*
X106942856Y-133956668D01*
X106942856Y-133956668D02*
X106980951Y-134109049D01*
X106980951Y-134109049D02*
X107057142Y-134185240D01*
X107057142Y-134185240D02*
X107133332Y-134223335D01*
X107133332Y-134223335D02*
X107285713Y-134223335D01*
X107285713Y-134223335D02*
X107361904Y-134185240D01*
X107361904Y-134185240D02*
X107438094Y-134109049D01*
X107438094Y-134109049D02*
X107476190Y-133956668D01*
X107476190Y-133956668D02*
X107476190Y-133690001D01*
X107476190Y-133690001D02*
X107438094Y-133537620D01*
X107438094Y-133537620D02*
X107361904Y-133461430D01*
X107361904Y-133461430D02*
X107285713Y-133423335D01*
X106180952Y-134223335D02*
X106638095Y-134223335D01*
X106409523Y-134223335D02*
X106409523Y-133423335D01*
X106409523Y-133423335D02*
X106485714Y-133537620D01*
X106485714Y-133537620D02*
X106561904Y-133613811D01*
X106561904Y-133613811D02*
X106638095Y-133651906D01*
X105685713Y-133423335D02*
X105609523Y-133423335D01*
X105609523Y-133423335D02*
X105533332Y-133461430D01*
X105533332Y-133461430D02*
X105495237Y-133499525D01*
X105495237Y-133499525D02*
X105457142Y-133575716D01*
X105457142Y-133575716D02*
X105419047Y-133728097D01*
X105419047Y-133728097D02*
X105419047Y-133918573D01*
X105419047Y-133918573D02*
X105457142Y-134070954D01*
X105457142Y-134070954D02*
X105495237Y-134147144D01*
X105495237Y-134147144D02*
X105533332Y-134185240D01*
X105533332Y-134185240D02*
X105609523Y-134223335D01*
X105609523Y-134223335D02*
X105685713Y-134223335D01*
X105685713Y-134223335D02*
X105761904Y-134185240D01*
X105761904Y-134185240D02*
X105799999Y-134147144D01*
X105799999Y-134147144D02*
X105838094Y-134070954D01*
X105838094Y-134070954D02*
X105876190Y-133918573D01*
X105876190Y-133918573D02*
X105876190Y-133728097D01*
X105876190Y-133728097D02*
X105838094Y-133575716D01*
X105838094Y-133575716D02*
X105799999Y-133499525D01*
X105799999Y-133499525D02*
X105761904Y-133461430D01*
X105761904Y-133461430D02*
X105685713Y-133423335D01*
X105076189Y-133918573D02*
X104466666Y-133918573D01*
X104123809Y-133994763D02*
X103742856Y-133994763D01*
X104199999Y-134223335D02*
X103933332Y-133423335D01*
X103933332Y-133423335D02*
X103666666Y-134223335D01*
X130780951Y-134223335D02*
X130780951Y-133423335D01*
X130247618Y-133423335D02*
X130095237Y-133423335D01*
X130095237Y-133423335D02*
X130019047Y-133461430D01*
X130019047Y-133461430D02*
X129942856Y-133537620D01*
X129942856Y-133537620D02*
X129904761Y-133690001D01*
X129904761Y-133690001D02*
X129904761Y-133956668D01*
X129904761Y-133956668D02*
X129942856Y-134109049D01*
X129942856Y-134109049D02*
X130019047Y-134185240D01*
X130019047Y-134185240D02*
X130095237Y-134223335D01*
X130095237Y-134223335D02*
X130247618Y-134223335D01*
X130247618Y-134223335D02*
X130323809Y-134185240D01*
X130323809Y-134185240D02*
X130399999Y-134109049D01*
X130399999Y-134109049D02*
X130438095Y-133956668D01*
X130438095Y-133956668D02*
X130438095Y-133690001D01*
X130438095Y-133690001D02*
X130399999Y-133537620D01*
X130399999Y-133537620D02*
X130323809Y-133461430D01*
X130323809Y-133461430D02*
X130247618Y-133423335D01*
X129219047Y-133690001D02*
X129219047Y-134223335D01*
X129409523Y-133385240D02*
X129600000Y-133956668D01*
X129600000Y-133956668D02*
X129104761Y-133956668D01*
X128647618Y-133423335D02*
X128571428Y-133423335D01*
X128571428Y-133423335D02*
X128495237Y-133461430D01*
X128495237Y-133461430D02*
X128457142Y-133499525D01*
X128457142Y-133499525D02*
X128419047Y-133575716D01*
X128419047Y-133575716D02*
X128380952Y-133728097D01*
X128380952Y-133728097D02*
X128380952Y-133918573D01*
X128380952Y-133918573D02*
X128419047Y-134070954D01*
X128419047Y-134070954D02*
X128457142Y-134147144D01*
X128457142Y-134147144D02*
X128495237Y-134185240D01*
X128495237Y-134185240D02*
X128571428Y-134223335D01*
X128571428Y-134223335D02*
X128647618Y-134223335D01*
X128647618Y-134223335D02*
X128723809Y-134185240D01*
X128723809Y-134185240D02*
X128761904Y-134147144D01*
X128761904Y-134147144D02*
X128799999Y-134070954D01*
X128799999Y-134070954D02*
X128838095Y-133918573D01*
X128838095Y-133918573D02*
X128838095Y-133728097D01*
X128838095Y-133728097D02*
X128799999Y-133575716D01*
X128799999Y-133575716D02*
X128761904Y-133499525D01*
X128761904Y-133499525D02*
X128723809Y-133461430D01*
X128723809Y-133461430D02*
X128647618Y-133423335D01*
X107438094Y-116443335D02*
X107438094Y-115643335D01*
X106904761Y-115643335D02*
X106752380Y-115643335D01*
X106752380Y-115643335D02*
X106676190Y-115681430D01*
X106676190Y-115681430D02*
X106599999Y-115757620D01*
X106599999Y-115757620D02*
X106561904Y-115910001D01*
X106561904Y-115910001D02*
X106561904Y-116176668D01*
X106561904Y-116176668D02*
X106599999Y-116329049D01*
X106599999Y-116329049D02*
X106676190Y-116405240D01*
X106676190Y-116405240D02*
X106752380Y-116443335D01*
X106752380Y-116443335D02*
X106904761Y-116443335D01*
X106904761Y-116443335D02*
X106980952Y-116405240D01*
X106980952Y-116405240D02*
X107057142Y-116329049D01*
X107057142Y-116329049D02*
X107095238Y-116176668D01*
X107095238Y-116176668D02*
X107095238Y-115910001D01*
X107095238Y-115910001D02*
X107057142Y-115757620D01*
X107057142Y-115757620D02*
X106980952Y-115681430D01*
X106980952Y-115681430D02*
X106904761Y-115643335D01*
X106295238Y-115643335D02*
X105800000Y-115643335D01*
X105800000Y-115643335D02*
X106066666Y-115948097D01*
X106066666Y-115948097D02*
X105952381Y-115948097D01*
X105952381Y-115948097D02*
X105876190Y-115986192D01*
X105876190Y-115986192D02*
X105838095Y-116024287D01*
X105838095Y-116024287D02*
X105800000Y-116100478D01*
X105800000Y-116100478D02*
X105800000Y-116290954D01*
X105800000Y-116290954D02*
X105838095Y-116367144D01*
X105838095Y-116367144D02*
X105876190Y-116405240D01*
X105876190Y-116405240D02*
X105952381Y-116443335D01*
X105952381Y-116443335D02*
X106180952Y-116443335D01*
X106180952Y-116443335D02*
X106257143Y-116405240D01*
X106257143Y-116405240D02*
X106295238Y-116367144D01*
X105457142Y-116138573D02*
X104847619Y-116138573D01*
X104504762Y-116214763D02*
X104123809Y-116214763D01*
X104580952Y-116443335D02*
X104314285Y-115643335D01*
X104314285Y-115643335D02*
X104047619Y-116443335D01*
X130780951Y-116443335D02*
X130780951Y-115643335D01*
X130247618Y-115643335D02*
X130095237Y-115643335D01*
X130095237Y-115643335D02*
X130019047Y-115681430D01*
X130019047Y-115681430D02*
X129942856Y-115757620D01*
X129942856Y-115757620D02*
X129904761Y-115910001D01*
X129904761Y-115910001D02*
X129904761Y-116176668D01*
X129904761Y-116176668D02*
X129942856Y-116329049D01*
X129942856Y-116329049D02*
X130019047Y-116405240D01*
X130019047Y-116405240D02*
X130095237Y-116443335D01*
X130095237Y-116443335D02*
X130247618Y-116443335D01*
X130247618Y-116443335D02*
X130323809Y-116405240D01*
X130323809Y-116405240D02*
X130399999Y-116329049D01*
X130399999Y-116329049D02*
X130438095Y-116176668D01*
X130438095Y-116176668D02*
X130438095Y-115910001D01*
X130438095Y-115910001D02*
X130399999Y-115757620D01*
X130399999Y-115757620D02*
X130323809Y-115681430D01*
X130323809Y-115681430D02*
X130247618Y-115643335D01*
X129638095Y-115643335D02*
X129142857Y-115643335D01*
X129142857Y-115643335D02*
X129409523Y-115948097D01*
X129409523Y-115948097D02*
X129295238Y-115948097D01*
X129295238Y-115948097D02*
X129219047Y-115986192D01*
X129219047Y-115986192D02*
X129180952Y-116024287D01*
X129180952Y-116024287D02*
X129142857Y-116100478D01*
X129142857Y-116100478D02*
X129142857Y-116290954D01*
X129142857Y-116290954D02*
X129180952Y-116367144D01*
X129180952Y-116367144D02*
X129219047Y-116405240D01*
X129219047Y-116405240D02*
X129295238Y-116443335D01*
X129295238Y-116443335D02*
X129523809Y-116443335D01*
X129523809Y-116443335D02*
X129600000Y-116405240D01*
X129600000Y-116405240D02*
X129638095Y-116367144D01*
X128876190Y-115643335D02*
X128380952Y-115643335D01*
X128380952Y-115643335D02*
X128647618Y-115948097D01*
X128647618Y-115948097D02*
X128533333Y-115948097D01*
X128533333Y-115948097D02*
X128457142Y-115986192D01*
X128457142Y-115986192D02*
X128419047Y-116024287D01*
X128419047Y-116024287D02*
X128380952Y-116100478D01*
X128380952Y-116100478D02*
X128380952Y-116290954D01*
X128380952Y-116290954D02*
X128419047Y-116367144D01*
X128419047Y-116367144D02*
X128457142Y-116405240D01*
X128457142Y-116405240D02*
X128533333Y-116443335D01*
X128533333Y-116443335D02*
X128761904Y-116443335D01*
X128761904Y-116443335D02*
X128838095Y-116405240D01*
X128838095Y-116405240D02*
X128876190Y-116367144D01*
X130780951Y-129143335D02*
X130780951Y-128343335D01*
X130247618Y-128343335D02*
X130095237Y-128343335D01*
X130095237Y-128343335D02*
X130019047Y-128381430D01*
X130019047Y-128381430D02*
X129942856Y-128457620D01*
X129942856Y-128457620D02*
X129904761Y-128610001D01*
X129904761Y-128610001D02*
X129904761Y-128876668D01*
X129904761Y-128876668D02*
X129942856Y-129029049D01*
X129942856Y-129029049D02*
X130019047Y-129105240D01*
X130019047Y-129105240D02*
X130095237Y-129143335D01*
X130095237Y-129143335D02*
X130247618Y-129143335D01*
X130247618Y-129143335D02*
X130323809Y-129105240D01*
X130323809Y-129105240D02*
X130399999Y-129029049D01*
X130399999Y-129029049D02*
X130438095Y-128876668D01*
X130438095Y-128876668D02*
X130438095Y-128610001D01*
X130438095Y-128610001D02*
X130399999Y-128457620D01*
X130399999Y-128457620D02*
X130323809Y-128381430D01*
X130323809Y-128381430D02*
X130247618Y-128343335D01*
X129638095Y-128343335D02*
X129142857Y-128343335D01*
X129142857Y-128343335D02*
X129409523Y-128648097D01*
X129409523Y-128648097D02*
X129295238Y-128648097D01*
X129295238Y-128648097D02*
X129219047Y-128686192D01*
X129219047Y-128686192D02*
X129180952Y-128724287D01*
X129180952Y-128724287D02*
X129142857Y-128800478D01*
X129142857Y-128800478D02*
X129142857Y-128990954D01*
X129142857Y-128990954D02*
X129180952Y-129067144D01*
X129180952Y-129067144D02*
X129219047Y-129105240D01*
X129219047Y-129105240D02*
X129295238Y-129143335D01*
X129295238Y-129143335D02*
X129523809Y-129143335D01*
X129523809Y-129143335D02*
X129600000Y-129105240D01*
X129600000Y-129105240D02*
X129638095Y-129067144D01*
X128685714Y-128686192D02*
X128761904Y-128648097D01*
X128761904Y-128648097D02*
X128799999Y-128610001D01*
X128799999Y-128610001D02*
X128838095Y-128533811D01*
X128838095Y-128533811D02*
X128838095Y-128495716D01*
X128838095Y-128495716D02*
X128799999Y-128419525D01*
X128799999Y-128419525D02*
X128761904Y-128381430D01*
X128761904Y-128381430D02*
X128685714Y-128343335D01*
X128685714Y-128343335D02*
X128533333Y-128343335D01*
X128533333Y-128343335D02*
X128457142Y-128381430D01*
X128457142Y-128381430D02*
X128419047Y-128419525D01*
X128419047Y-128419525D02*
X128380952Y-128495716D01*
X128380952Y-128495716D02*
X128380952Y-128533811D01*
X128380952Y-128533811D02*
X128419047Y-128610001D01*
X128419047Y-128610001D02*
X128457142Y-128648097D01*
X128457142Y-128648097D02*
X128533333Y-128686192D01*
X128533333Y-128686192D02*
X128685714Y-128686192D01*
X128685714Y-128686192D02*
X128761904Y-128724287D01*
X128761904Y-128724287D02*
X128799999Y-128762382D01*
X128799999Y-128762382D02*
X128838095Y-128838573D01*
X128838095Y-128838573D02*
X128838095Y-128990954D01*
X128838095Y-128990954D02*
X128799999Y-129067144D01*
X128799999Y-129067144D02*
X128761904Y-129105240D01*
X128761904Y-129105240D02*
X128685714Y-129143335D01*
X128685714Y-129143335D02*
X128533333Y-129143335D01*
X128533333Y-129143335D02*
X128457142Y-129105240D01*
X128457142Y-129105240D02*
X128419047Y-129067144D01*
X128419047Y-129067144D02*
X128380952Y-128990954D01*
X128380952Y-128990954D02*
X128380952Y-128838573D01*
X128380952Y-128838573D02*
X128419047Y-128762382D01*
X128419047Y-128762382D02*
X128457142Y-128724287D01*
X128457142Y-128724287D02*
X128533333Y-128686192D01*
X130780951Y-131683335D02*
X130780951Y-130883335D01*
X130247618Y-130883335D02*
X130095237Y-130883335D01*
X130095237Y-130883335D02*
X130019047Y-130921430D01*
X130019047Y-130921430D02*
X129942856Y-130997620D01*
X129942856Y-130997620D02*
X129904761Y-131150001D01*
X129904761Y-131150001D02*
X129904761Y-131416668D01*
X129904761Y-131416668D02*
X129942856Y-131569049D01*
X129942856Y-131569049D02*
X130019047Y-131645240D01*
X130019047Y-131645240D02*
X130095237Y-131683335D01*
X130095237Y-131683335D02*
X130247618Y-131683335D01*
X130247618Y-131683335D02*
X130323809Y-131645240D01*
X130323809Y-131645240D02*
X130399999Y-131569049D01*
X130399999Y-131569049D02*
X130438095Y-131416668D01*
X130438095Y-131416668D02*
X130438095Y-131150001D01*
X130438095Y-131150001D02*
X130399999Y-130997620D01*
X130399999Y-130997620D02*
X130323809Y-130921430D01*
X130323809Y-130921430D02*
X130247618Y-130883335D01*
X129638095Y-130883335D02*
X129142857Y-130883335D01*
X129142857Y-130883335D02*
X129409523Y-131188097D01*
X129409523Y-131188097D02*
X129295238Y-131188097D01*
X129295238Y-131188097D02*
X129219047Y-131226192D01*
X129219047Y-131226192D02*
X129180952Y-131264287D01*
X129180952Y-131264287D02*
X129142857Y-131340478D01*
X129142857Y-131340478D02*
X129142857Y-131530954D01*
X129142857Y-131530954D02*
X129180952Y-131607144D01*
X129180952Y-131607144D02*
X129219047Y-131645240D01*
X129219047Y-131645240D02*
X129295238Y-131683335D01*
X129295238Y-131683335D02*
X129523809Y-131683335D01*
X129523809Y-131683335D02*
X129600000Y-131645240D01*
X129600000Y-131645240D02*
X129638095Y-131607144D01*
X128761904Y-131683335D02*
X128609523Y-131683335D01*
X128609523Y-131683335D02*
X128533333Y-131645240D01*
X128533333Y-131645240D02*
X128495237Y-131607144D01*
X128495237Y-131607144D02*
X128419047Y-131492859D01*
X128419047Y-131492859D02*
X128380952Y-131340478D01*
X128380952Y-131340478D02*
X128380952Y-131035716D01*
X128380952Y-131035716D02*
X128419047Y-130959525D01*
X128419047Y-130959525D02*
X128457142Y-130921430D01*
X128457142Y-130921430D02*
X128533333Y-130883335D01*
X128533333Y-130883335D02*
X128685714Y-130883335D01*
X128685714Y-130883335D02*
X128761904Y-130921430D01*
X128761904Y-130921430D02*
X128799999Y-130959525D01*
X128799999Y-130959525D02*
X128838095Y-131035716D01*
X128838095Y-131035716D02*
X128838095Y-131226192D01*
X128838095Y-131226192D02*
X128799999Y-131302382D01*
X128799999Y-131302382D02*
X128761904Y-131340478D01*
X128761904Y-131340478D02*
X128685714Y-131378573D01*
X128685714Y-131378573D02*
X128533333Y-131378573D01*
X128533333Y-131378573D02*
X128457142Y-131340478D01*
X128457142Y-131340478D02*
X128419047Y-131302382D01*
X128419047Y-131302382D02*
X128380952Y-131226192D01*
X107819046Y-146923335D02*
X107819046Y-146123335D01*
X107285713Y-146123335D02*
X107133332Y-146123335D01*
X107133332Y-146123335D02*
X107057142Y-146161430D01*
X107057142Y-146161430D02*
X106980951Y-146237620D01*
X106980951Y-146237620D02*
X106942856Y-146390001D01*
X106942856Y-146390001D02*
X106942856Y-146656668D01*
X106942856Y-146656668D02*
X106980951Y-146809049D01*
X106980951Y-146809049D02*
X107057142Y-146885240D01*
X107057142Y-146885240D02*
X107133332Y-146923335D01*
X107133332Y-146923335D02*
X107285713Y-146923335D01*
X107285713Y-146923335D02*
X107361904Y-146885240D01*
X107361904Y-146885240D02*
X107438094Y-146809049D01*
X107438094Y-146809049D02*
X107476190Y-146656668D01*
X107476190Y-146656668D02*
X107476190Y-146390001D01*
X107476190Y-146390001D02*
X107438094Y-146237620D01*
X107438094Y-146237620D02*
X107361904Y-146161430D01*
X107361904Y-146161430D02*
X107285713Y-146123335D01*
X106180952Y-146923335D02*
X106638095Y-146923335D01*
X106409523Y-146923335D02*
X106409523Y-146123335D01*
X106409523Y-146123335D02*
X106485714Y-146237620D01*
X106485714Y-146237620D02*
X106561904Y-146313811D01*
X106561904Y-146313811D02*
X106638095Y-146351906D01*
X105914285Y-146123335D02*
X105380951Y-146123335D01*
X105380951Y-146123335D02*
X105723809Y-146923335D01*
X105076189Y-146618573D02*
X104466666Y-146618573D01*
X104123809Y-146694763D02*
X103742856Y-146694763D01*
X104199999Y-146923335D02*
X103933332Y-146123335D01*
X103933332Y-146123335D02*
X103666666Y-146923335D01*
X107438094Y-121523335D02*
X107438094Y-120723335D01*
X106904761Y-120723335D02*
X106752380Y-120723335D01*
X106752380Y-120723335D02*
X106676190Y-120761430D01*
X106676190Y-120761430D02*
X106599999Y-120837620D01*
X106599999Y-120837620D02*
X106561904Y-120990001D01*
X106561904Y-120990001D02*
X106561904Y-121256668D01*
X106561904Y-121256668D02*
X106599999Y-121409049D01*
X106599999Y-121409049D02*
X106676190Y-121485240D01*
X106676190Y-121485240D02*
X106752380Y-121523335D01*
X106752380Y-121523335D02*
X106904761Y-121523335D01*
X106904761Y-121523335D02*
X106980952Y-121485240D01*
X106980952Y-121485240D02*
X107057142Y-121409049D01*
X107057142Y-121409049D02*
X107095238Y-121256668D01*
X107095238Y-121256668D02*
X107095238Y-120990001D01*
X107095238Y-120990001D02*
X107057142Y-120837620D01*
X107057142Y-120837620D02*
X106980952Y-120761430D01*
X106980952Y-120761430D02*
X106904761Y-120723335D01*
X105838095Y-120723335D02*
X106219047Y-120723335D01*
X106219047Y-120723335D02*
X106257143Y-121104287D01*
X106257143Y-121104287D02*
X106219047Y-121066192D01*
X106219047Y-121066192D02*
X106142857Y-121028097D01*
X106142857Y-121028097D02*
X105952381Y-121028097D01*
X105952381Y-121028097D02*
X105876190Y-121066192D01*
X105876190Y-121066192D02*
X105838095Y-121104287D01*
X105838095Y-121104287D02*
X105800000Y-121180478D01*
X105800000Y-121180478D02*
X105800000Y-121370954D01*
X105800000Y-121370954D02*
X105838095Y-121447144D01*
X105838095Y-121447144D02*
X105876190Y-121485240D01*
X105876190Y-121485240D02*
X105952381Y-121523335D01*
X105952381Y-121523335D02*
X106142857Y-121523335D01*
X106142857Y-121523335D02*
X106219047Y-121485240D01*
X106219047Y-121485240D02*
X106257143Y-121447144D01*
X105457142Y-121218573D02*
X104847619Y-121218573D01*
X104504762Y-121294763D02*
X104123809Y-121294763D01*
X104580952Y-121523335D02*
X104314285Y-120723335D01*
X104314285Y-120723335D02*
X104047619Y-121523335D01*
X130780951Y-144383335D02*
X130780951Y-143583335D01*
X130247618Y-143583335D02*
X130095237Y-143583335D01*
X130095237Y-143583335D02*
X130019047Y-143621430D01*
X130019047Y-143621430D02*
X129942856Y-143697620D01*
X129942856Y-143697620D02*
X129904761Y-143850001D01*
X129904761Y-143850001D02*
X129904761Y-144116668D01*
X129904761Y-144116668D02*
X129942856Y-144269049D01*
X129942856Y-144269049D02*
X130019047Y-144345240D01*
X130019047Y-144345240D02*
X130095237Y-144383335D01*
X130095237Y-144383335D02*
X130247618Y-144383335D01*
X130247618Y-144383335D02*
X130323809Y-144345240D01*
X130323809Y-144345240D02*
X130399999Y-144269049D01*
X130399999Y-144269049D02*
X130438095Y-144116668D01*
X130438095Y-144116668D02*
X130438095Y-143850001D01*
X130438095Y-143850001D02*
X130399999Y-143697620D01*
X130399999Y-143697620D02*
X130323809Y-143621430D01*
X130323809Y-143621430D02*
X130247618Y-143583335D01*
X129219047Y-143850001D02*
X129219047Y-144383335D01*
X129409523Y-143545240D02*
X129600000Y-144116668D01*
X129600000Y-144116668D02*
X129104761Y-144116668D01*
X128457142Y-143850001D02*
X128457142Y-144383335D01*
X128647618Y-143545240D02*
X128838095Y-144116668D01*
X128838095Y-144116668D02*
X128342856Y-144116668D01*
X130780951Y-141843335D02*
X130780951Y-141043335D01*
X130247618Y-141043335D02*
X130095237Y-141043335D01*
X130095237Y-141043335D02*
X130019047Y-141081430D01*
X130019047Y-141081430D02*
X129942856Y-141157620D01*
X129942856Y-141157620D02*
X129904761Y-141310001D01*
X129904761Y-141310001D02*
X129904761Y-141576668D01*
X129904761Y-141576668D02*
X129942856Y-141729049D01*
X129942856Y-141729049D02*
X130019047Y-141805240D01*
X130019047Y-141805240D02*
X130095237Y-141843335D01*
X130095237Y-141843335D02*
X130247618Y-141843335D01*
X130247618Y-141843335D02*
X130323809Y-141805240D01*
X130323809Y-141805240D02*
X130399999Y-141729049D01*
X130399999Y-141729049D02*
X130438095Y-141576668D01*
X130438095Y-141576668D02*
X130438095Y-141310001D01*
X130438095Y-141310001D02*
X130399999Y-141157620D01*
X130399999Y-141157620D02*
X130323809Y-141081430D01*
X130323809Y-141081430D02*
X130247618Y-141043335D01*
X129219047Y-141310001D02*
X129219047Y-141843335D01*
X129409523Y-141005240D02*
X129600000Y-141576668D01*
X129600000Y-141576668D02*
X129104761Y-141576668D01*
X128876190Y-141043335D02*
X128380952Y-141043335D01*
X128380952Y-141043335D02*
X128647618Y-141348097D01*
X128647618Y-141348097D02*
X128533333Y-141348097D01*
X128533333Y-141348097D02*
X128457142Y-141386192D01*
X128457142Y-141386192D02*
X128419047Y-141424287D01*
X128419047Y-141424287D02*
X128380952Y-141500478D01*
X128380952Y-141500478D02*
X128380952Y-141690954D01*
X128380952Y-141690954D02*
X128419047Y-141767144D01*
X128419047Y-141767144D02*
X128457142Y-141805240D01*
X128457142Y-141805240D02*
X128533333Y-141843335D01*
X128533333Y-141843335D02*
X128761904Y-141843335D01*
X128761904Y-141843335D02*
X128838095Y-141805240D01*
X128838095Y-141805240D02*
X128876190Y-141767144D01*
X130780951Y-113903335D02*
X130780951Y-113103335D01*
X130247618Y-113103335D02*
X130095237Y-113103335D01*
X130095237Y-113103335D02*
X130019047Y-113141430D01*
X130019047Y-113141430D02*
X129942856Y-113217620D01*
X129942856Y-113217620D02*
X129904761Y-113370001D01*
X129904761Y-113370001D02*
X129904761Y-113636668D01*
X129904761Y-113636668D02*
X129942856Y-113789049D01*
X129942856Y-113789049D02*
X130019047Y-113865240D01*
X130019047Y-113865240D02*
X130095237Y-113903335D01*
X130095237Y-113903335D02*
X130247618Y-113903335D01*
X130247618Y-113903335D02*
X130323809Y-113865240D01*
X130323809Y-113865240D02*
X130399999Y-113789049D01*
X130399999Y-113789049D02*
X130438095Y-113636668D01*
X130438095Y-113636668D02*
X130438095Y-113370001D01*
X130438095Y-113370001D02*
X130399999Y-113217620D01*
X130399999Y-113217620D02*
X130323809Y-113141430D01*
X130323809Y-113141430D02*
X130247618Y-113103335D01*
X129600000Y-113179525D02*
X129561904Y-113141430D01*
X129561904Y-113141430D02*
X129485714Y-113103335D01*
X129485714Y-113103335D02*
X129295238Y-113103335D01*
X129295238Y-113103335D02*
X129219047Y-113141430D01*
X129219047Y-113141430D02*
X129180952Y-113179525D01*
X129180952Y-113179525D02*
X129142857Y-113255716D01*
X129142857Y-113255716D02*
X129142857Y-113331906D01*
X129142857Y-113331906D02*
X129180952Y-113446192D01*
X129180952Y-113446192D02*
X129638095Y-113903335D01*
X129638095Y-113903335D02*
X129142857Y-113903335D01*
X128380952Y-113903335D02*
X128838095Y-113903335D01*
X128609523Y-113903335D02*
X128609523Y-113103335D01*
X128609523Y-113103335D02*
X128685714Y-113217620D01*
X128685714Y-113217620D02*
X128761904Y-113293811D01*
X128761904Y-113293811D02*
X128838095Y-113331906D01*
X107819046Y-144383335D02*
X107819046Y-143583335D01*
X107285713Y-143583335D02*
X107133332Y-143583335D01*
X107133332Y-143583335D02*
X107057142Y-143621430D01*
X107057142Y-143621430D02*
X106980951Y-143697620D01*
X106980951Y-143697620D02*
X106942856Y-143850001D01*
X106942856Y-143850001D02*
X106942856Y-144116668D01*
X106942856Y-144116668D02*
X106980951Y-144269049D01*
X106980951Y-144269049D02*
X107057142Y-144345240D01*
X107057142Y-144345240D02*
X107133332Y-144383335D01*
X107133332Y-144383335D02*
X107285713Y-144383335D01*
X107285713Y-144383335D02*
X107361904Y-144345240D01*
X107361904Y-144345240D02*
X107438094Y-144269049D01*
X107438094Y-144269049D02*
X107476190Y-144116668D01*
X107476190Y-144116668D02*
X107476190Y-143850001D01*
X107476190Y-143850001D02*
X107438094Y-143697620D01*
X107438094Y-143697620D02*
X107361904Y-143621430D01*
X107361904Y-143621430D02*
X107285713Y-143583335D01*
X106180952Y-144383335D02*
X106638095Y-144383335D01*
X106409523Y-144383335D02*
X106409523Y-143583335D01*
X106409523Y-143583335D02*
X106485714Y-143697620D01*
X106485714Y-143697620D02*
X106561904Y-143773811D01*
X106561904Y-143773811D02*
X106638095Y-143811906D01*
X105495237Y-143850001D02*
X105495237Y-144383335D01*
X105685713Y-143545240D02*
X105876190Y-144116668D01*
X105876190Y-144116668D02*
X105380951Y-144116668D01*
X105076189Y-144078573D02*
X104466666Y-144078573D01*
X104123809Y-144154763D02*
X103742856Y-144154763D01*
X104199999Y-144383335D02*
X103933332Y-143583335D01*
X103933332Y-143583335D02*
X103666666Y-144383335D01*
X130780951Y-146923335D02*
X130780951Y-146123335D01*
X130247618Y-146123335D02*
X130095237Y-146123335D01*
X130095237Y-146123335D02*
X130019047Y-146161430D01*
X130019047Y-146161430D02*
X129942856Y-146237620D01*
X129942856Y-146237620D02*
X129904761Y-146390001D01*
X129904761Y-146390001D02*
X129904761Y-146656668D01*
X129904761Y-146656668D02*
X129942856Y-146809049D01*
X129942856Y-146809049D02*
X130019047Y-146885240D01*
X130019047Y-146885240D02*
X130095237Y-146923335D01*
X130095237Y-146923335D02*
X130247618Y-146923335D01*
X130247618Y-146923335D02*
X130323809Y-146885240D01*
X130323809Y-146885240D02*
X130399999Y-146809049D01*
X130399999Y-146809049D02*
X130438095Y-146656668D01*
X130438095Y-146656668D02*
X130438095Y-146390001D01*
X130438095Y-146390001D02*
X130399999Y-146237620D01*
X130399999Y-146237620D02*
X130323809Y-146161430D01*
X130323809Y-146161430D02*
X130247618Y-146123335D01*
X129219047Y-146390001D02*
X129219047Y-146923335D01*
X129409523Y-146085240D02*
X129600000Y-146656668D01*
X129600000Y-146656668D02*
X129104761Y-146656668D01*
X128876190Y-146123335D02*
X128342856Y-146123335D01*
X128342856Y-146123335D02*
X128685714Y-146923335D01*
M02*
