%TF.GenerationSoftware,KiCad,Pcbnew,9.0.7*%
%TF.CreationDate,2026-07-14T13:27:33+03:00*%
%TF.ProjectId,Raiden S0-1,52616964-656e-4205-9330-2d312e6b6963,A*%
%TF.SameCoordinates,Original*%
%TF.FileFunction,Copper,L2,Inr*%
%TF.FilePolarity,Positive*%
%FSLAX46Y46*%
G04 Gerber Fmt 4.6, Leading zero omitted, Abs format (unit mm)*
G04 Created by KiCad (PCBNEW 9.0.7) date 2026-07-14 13:27:33*
%MOMM*%
%LPD*%
G01*
G04 APERTURE LIST*
%TA.AperFunction,ComponentPad*%
%ADD10R,1.700000X1.700000*%
%TD*%
%TA.AperFunction,ComponentPad*%
%ADD11C,1.700000*%
%TD*%
%TA.AperFunction,HeatsinkPad*%
%ADD12O,1.000000X2.100000*%
%TD*%
%TA.AperFunction,HeatsinkPad*%
%ADD13O,1.000000X1.600000*%
%TD*%
%TA.AperFunction,ViaPad*%
%ADD14C,0.600000*%
%TD*%
%TA.AperFunction,ViaPad*%
%ADD15C,0.500000*%
%TD*%
G04 APERTURE END LIST*
D10*
%TO.N,GPIO47*%
%TO.C,J1*%
X134199999Y-111000000D03*
D11*
%TO.N,GPIO44*%
X134199999Y-113540000D03*
%TO.N,GPIO43*%
X134199999Y-116080000D03*
%TO.N,GPIO42*%
X134199999Y-118620000D03*
%TO.N,GPIO41*%
X134199999Y-121160000D03*
%TO.N,GPIO40*%
X134199999Y-123700000D03*
%TO.N,GPIO39*%
X134199999Y-126240000D03*
%TO.N,GPIO38*%
X134199999Y-128780000D03*
%TO.N,GPIO37*%
X134199999Y-131320000D03*
%TO.N,GPIO36*%
X134199999Y-133860000D03*
%TO.N,GPIO35*%
X134199999Y-136400000D03*
%TO.N,GPIO34*%
X134199999Y-138940000D03*
%TO.N,GPIO33*%
X134199999Y-141480000D03*
%TO.N,GPIO21*%
X134199999Y-144020000D03*
%TO.N,GPIO18*%
X134199999Y-146560000D03*
%TD*%
D10*
%TO.N,+5V*%
%TO.C,J6*%
X126500000Y-109500000D03*
D11*
X129040000Y-109500000D03*
X126500000Y-112040000D03*
X129040000Y-112040000D03*
%TD*%
D10*
%TO.N,+3.3V*%
%TO.C,J5*%
X127500000Y-103000000D03*
D11*
X130040000Y-103000000D03*
X127500000Y-105540000D03*
X130040000Y-105540000D03*
%TD*%
D12*
%TO.N,GND*%
%TO.C,P1*%
X113680000Y-149470000D03*
D13*
X113680000Y-153650000D03*
D12*
X122320000Y-149470000D03*
D13*
X122320000Y-153650000D03*
%TD*%
D10*
%TO.N,GPIO1*%
%TO.C,J2*%
X101800000Y-111000000D03*
D11*
%TO.N,GPIO2*%
X101800000Y-113540000D03*
%TO.N,GPIO3*%
X101800000Y-116080000D03*
%TO.N,GPIO4*%
X101800000Y-118620000D03*
%TO.N,GPIO5*%
X101800000Y-121160000D03*
%TO.N,GPIO6*%
X101800000Y-123700000D03*
%TO.N,GPIO7*%
X101800000Y-126240000D03*
%TO.N,GPIO8*%
X101800000Y-128780000D03*
%TO.N,GPIO9*%
X101800000Y-131320000D03*
%TO.N,GPIO10*%
X101800000Y-133860000D03*
%TO.N,GPIO11*%
X101800000Y-136400000D03*
%TO.N,GPIO12*%
X101800000Y-138940000D03*
%TO.N,GPIO13*%
X101800000Y-141480000D03*
%TO.N,GPIO14*%
X101800000Y-144020000D03*
%TO.N,GPIO17*%
X101800000Y-146560000D03*
%TD*%
D10*
%TO.N,GND*%
%TO.C,J4*%
X120000000Y-103500000D03*
D11*
X122540000Y-103500000D03*
X120000000Y-106040000D03*
X122540000Y-106040000D03*
X120000000Y-108580000D03*
X122540000Y-108580000D03*
%TD*%
D14*
%TO.N,+3.3V*%
X108800000Y-130600000D03*
X108800000Y-118800000D03*
X108174707Y-122450000D03*
X110000000Y-112400000D03*
X115000000Y-120600000D03*
X111150000Y-138750000D03*
X108200000Y-124800000D03*
X108400000Y-126376000D03*
X108600000Y-115600000D03*
X110600000Y-147800000D03*
X125350000Y-126600000D03*
X117078124Y-130615508D03*
X108800000Y-127600000D03*
X108800000Y-129200000D03*
X113523173Y-145376000D03*
X110350000Y-130600000D03*
X108800000Y-117400000D03*
X108993188Y-120475000D03*
X105800000Y-138000000D03*
X113600000Y-121400000D03*
X114000000Y-138000000D03*
X112600000Y-141200000D03*
X110000000Y-123220000D03*
X108400000Y-123424000D03*
%TO.N,+5V*%
X105800000Y-140400000D03*
X110200000Y-141400000D03*
%TO.N,/EN*%
X113482844Y-122200000D03*
X120400000Y-136800000D03*
X123000000Y-147000000D03*
X121600000Y-142000000D03*
%TO.N,GND*%
X110000000Y-118775000D03*
X118000000Y-125300000D03*
X107000000Y-121600000D03*
X112850000Y-107980000D03*
X113066000Y-140275000D03*
X122017000Y-135025000D03*
X103178000Y-147100000D03*
X113295000Y-134339000D03*
X114330000Y-114790000D03*
X107800000Y-119800000D03*
X116700000Y-124000000D03*
X115200000Y-118020000D03*
X115474000Y-135106000D03*
X119300000Y-122700000D03*
X119300000Y-125300000D03*
X116700000Y-122700000D03*
X112110000Y-112290000D03*
X121631000Y-109176000D03*
X113409000Y-136329000D03*
X112662000Y-136725000D03*
X110859000Y-108007000D03*
X118000000Y-122700000D03*
X111081818Y-127216819D03*
X126564000Y-123430000D03*
X104850000Y-135700000D03*
X104056000Y-135853000D03*
X111150000Y-109980000D03*
X121289000Y-107340000D03*
X109123000Y-125700000D03*
X122215000Y-150333000D03*
X106504000Y-151360000D03*
X126964000Y-124165000D03*
X106872000Y-122439000D03*
X127643000Y-131803000D03*
X111694000Y-142775000D03*
X121412000Y-104989000D03*
X104795000Y-147339000D03*
X118000000Y-124000000D03*
D15*
X118300000Y-138775000D03*
D14*
X114900000Y-142675000D03*
X108314000Y-146076000D03*
X123064000Y-133570000D03*
X110800000Y-125800000D03*
X119300000Y-124000000D03*
X115716396Y-121844601D03*
X110150000Y-121980000D03*
D15*
X122100000Y-115850000D03*
D14*
X110060000Y-147161000D03*
X116700000Y-125300000D03*
%TO.N,GPIO47*%
X123630855Y-123150000D03*
X127000000Y-113600000D03*
%TO.N,Net-(D1-I{slash}O1)*%
X124200000Y-137400000D03*
X121200000Y-143400000D03*
X124000000Y-135400000D03*
X120400000Y-145200000D03*
%TO.N,Net-(D1-I{slash}O2)*%
X119405887Y-144819089D03*
X119800000Y-143400000D03*
X120019867Y-137560265D03*
X120262178Y-129405220D03*
%TO.N,Net-(F1-Pad1)*%
X107804427Y-143824205D03*
X110088681Y-144311367D03*
%TO.N,Net-(P1-CC1)*%
X114509918Y-145350400D03*
X113165512Y-144604908D03*
%TO.N,Net-(U1-GPIO0)*%
X106200000Y-145200000D03*
X108000000Y-141600000D03*
X115338316Y-123016999D03*
X110400000Y-132200000D03*
X111800000Y-129600000D03*
X108400000Y-139800000D03*
X108600000Y-137200000D03*
X107200000Y-138800000D03*
%TO.N,Net-(U1-GPIO45)*%
X120800000Y-117600000D03*
X119400000Y-117000000D03*
%TO.N,Net-(U1-GPIO46)*%
X120400000Y-115600000D03*
X121600000Y-114200000D03*
%TO.N,Net-(U1-SPICLK_N)*%
X124400000Y-124200000D03*
X125200000Y-117000000D03*
%TO.N,Net-(U1-XTAL_32K_N)*%
X119472822Y-135977399D03*
X118091553Y-131409379D03*
%TO.N,Net-(U1-XTAL_32K_P)*%
X121270867Y-140133709D03*
X118319867Y-137374000D03*
%TO.N,Net-(U1-XTAL_N)*%
X116757538Y-117957538D03*
X122800000Y-124800000D03*
X122800000Y-126000000D03*
X121800000Y-131000000D03*
%TO.N,Net-(U1-XTAL_P)*%
X118600000Y-134000000D03*
X115400000Y-119200000D03*
X118955353Y-132838865D03*
X113800000Y-131200000D03*
X112665252Y-132483222D03*
X113849000Y-132400000D03*
%TD*%
%TA.AperFunction,Conductor*%
%TO.N,GND*%
G36*
X133376406Y-100520185D02*
G01*
X133422161Y-100572989D01*
X133432105Y-100642147D01*
X133403080Y-100705703D01*
X133382252Y-100724819D01*
X133320207Y-100769896D01*
X133169890Y-100920213D01*
X133044951Y-101092179D01*
X132948444Y-101281585D01*
X132882753Y-101483760D01*
X132849500Y-101693713D01*
X132849500Y-101906286D01*
X132882753Y-102116239D01*
X132948444Y-102318414D01*
X133044951Y-102507820D01*
X133169890Y-102679786D01*
X133320213Y-102830109D01*
X133492179Y-102955048D01*
X133492181Y-102955049D01*
X133492184Y-102955051D01*
X133681588Y-103051557D01*
X133883757Y-103117246D01*
X134093713Y-103150500D01*
X134093714Y-103150500D01*
X134306286Y-103150500D01*
X134306287Y-103150500D01*
X134516243Y-103117246D01*
X134718412Y-103051557D01*
X134907816Y-102955051D01*
X134952305Y-102922728D01*
X135079786Y-102830109D01*
X135079788Y-102830106D01*
X135079792Y-102830104D01*
X135230104Y-102679792D01*
X135275181Y-102617747D01*
X135330511Y-102575082D01*
X135400124Y-102569103D01*
X135461920Y-102601708D01*
X135496277Y-102662547D01*
X135499500Y-102690633D01*
X135499500Y-109875168D01*
X135479815Y-109942207D01*
X135427011Y-109987962D01*
X135357853Y-109997906D01*
X135294297Y-109968881D01*
X135287819Y-109962849D01*
X135222764Y-109897794D01*
X135119991Y-109852415D01*
X135094864Y-109849500D01*
X133305142Y-109849500D01*
X133305116Y-109849502D01*
X133280011Y-109852413D01*
X133280007Y-109852415D01*
X133177234Y-109897793D01*
X133097793Y-109977234D01*
X133052414Y-110080006D01*
X133052414Y-110080008D01*
X133049499Y-110105131D01*
X133049499Y-111894856D01*
X133049501Y-111894882D01*
X133052412Y-111919987D01*
X133052414Y-111919991D01*
X133097792Y-112022764D01*
X133097793Y-112022765D01*
X133177234Y-112102206D01*
X133280008Y-112147585D01*
X133305134Y-112150500D01*
X134042872Y-112150499D01*
X134109909Y-112170183D01*
X134155664Y-112222987D01*
X134165608Y-112292146D01*
X134136583Y-112355702D01*
X134077805Y-112393476D01*
X134062269Y-112396972D01*
X133930588Y-112417829D01*
X133758362Y-112473787D01*
X133758359Y-112473788D01*
X133597001Y-112556006D01*
X133450504Y-112662441D01*
X133450499Y-112662445D01*
X133322444Y-112790500D01*
X133322440Y-112790505D01*
X133216005Y-112937002D01*
X133133787Y-113098360D01*
X133133786Y-113098363D01*
X133077828Y-113270589D01*
X133049499Y-113449448D01*
X133049499Y-113630551D01*
X133077828Y-113809410D01*
X133133786Y-113981636D01*
X133133787Y-113981639D01*
X133184170Y-114080518D01*
X133204768Y-114120945D01*
X133216005Y-114142997D01*
X133322440Y-114289494D01*
X133322444Y-114289499D01*
X133450499Y-114417554D01*
X133450504Y-114417558D01*
X133578286Y-114510396D01*
X133597005Y-114523996D01*
X133702483Y-114577740D01*
X133758359Y-114606211D01*
X133758362Y-114606212D01*
X133844475Y-114634191D01*
X133930590Y-114662171D01*
X134003638Y-114673740D01*
X134090677Y-114687527D01*
X134153812Y-114717456D01*
X134190743Y-114776768D01*
X134189745Y-114846631D01*
X134151135Y-114904863D01*
X134090677Y-114932473D01*
X133930588Y-114957829D01*
X133758362Y-115013787D01*
X133758359Y-115013788D01*
X133597001Y-115096006D01*
X133450504Y-115202441D01*
X133450499Y-115202445D01*
X133322444Y-115330500D01*
X133322440Y-115330505D01*
X133216005Y-115477002D01*
X133133787Y-115638360D01*
X133133786Y-115638363D01*
X133077828Y-115810589D01*
X133049499Y-115989448D01*
X133049499Y-116170551D01*
X133077828Y-116349410D01*
X133133786Y-116521636D01*
X133133787Y-116521639D01*
X133216005Y-116682997D01*
X133322440Y-116829494D01*
X133322444Y-116829499D01*
X133450499Y-116957554D01*
X133450504Y-116957558D01*
X133578286Y-117050396D01*
X133597005Y-117063996D01*
X133702483Y-117117740D01*
X133758359Y-117146211D01*
X133758362Y-117146212D01*
X133844475Y-117174191D01*
X133930590Y-117202171D01*
X134003638Y-117213740D01*
X134090677Y-117227527D01*
X134153812Y-117257456D01*
X134190743Y-117316768D01*
X134189745Y-117386631D01*
X134151135Y-117444863D01*
X134090677Y-117472473D01*
X133930588Y-117497829D01*
X133758362Y-117553787D01*
X133758359Y-117553788D01*
X133597001Y-117636006D01*
X133450504Y-117742441D01*
X133450499Y-117742445D01*
X133322444Y-117870500D01*
X133322440Y-117870505D01*
X133216005Y-118017002D01*
X133133787Y-118178360D01*
X133133786Y-118178363D01*
X133077828Y-118350589D01*
X133049499Y-118529448D01*
X133049499Y-118710551D01*
X133077828Y-118889410D01*
X133133786Y-119061636D01*
X133133787Y-119061639D01*
X133216005Y-119222997D01*
X133322440Y-119369494D01*
X133322444Y-119369499D01*
X133450499Y-119497554D01*
X133450504Y-119497558D01*
X133548436Y-119568709D01*
X133597005Y-119603996D01*
X133702483Y-119657740D01*
X133758359Y-119686211D01*
X133758362Y-119686212D01*
X133844475Y-119714191D01*
X133930590Y-119742171D01*
X134003638Y-119753740D01*
X134090677Y-119767527D01*
X134153812Y-119797456D01*
X134190743Y-119856768D01*
X134189745Y-119926631D01*
X134151135Y-119984863D01*
X134090677Y-120012473D01*
X133930588Y-120037829D01*
X133758362Y-120093787D01*
X133758359Y-120093788D01*
X133597001Y-120176006D01*
X133450504Y-120282441D01*
X133450499Y-120282445D01*
X133322444Y-120410500D01*
X133322440Y-120410505D01*
X133216005Y-120557002D01*
X133133787Y-120718360D01*
X133133786Y-120718363D01*
X133077828Y-120890589D01*
X133049499Y-121069448D01*
X133049499Y-121250551D01*
X133077828Y-121429410D01*
X133133786Y-121601636D01*
X133133787Y-121601639D01*
X133216005Y-121762997D01*
X133322440Y-121909494D01*
X133322444Y-121909499D01*
X133450499Y-122037554D01*
X133450504Y-122037558D01*
X133510690Y-122081285D01*
X133597005Y-122143996D01*
X133702483Y-122197740D01*
X133758359Y-122226211D01*
X133758362Y-122226212D01*
X133844475Y-122254191D01*
X133930590Y-122282171D01*
X134003638Y-122293740D01*
X134090677Y-122307527D01*
X134153812Y-122337456D01*
X134190743Y-122396768D01*
X134189745Y-122466631D01*
X134151135Y-122524863D01*
X134090677Y-122552473D01*
X133930588Y-122577829D01*
X133758362Y-122633787D01*
X133758359Y-122633788D01*
X133597001Y-122716006D01*
X133450504Y-122822441D01*
X133450499Y-122822445D01*
X133322444Y-122950500D01*
X133322440Y-122950505D01*
X133216005Y-123097002D01*
X133133787Y-123258360D01*
X133133786Y-123258363D01*
X133077828Y-123430589D01*
X133049499Y-123609448D01*
X133049499Y-123790551D01*
X133077828Y-123969410D01*
X133133786Y-124141636D01*
X133133787Y-124141639D01*
X133184121Y-124240423D01*
X133203806Y-124279057D01*
X133216005Y-124302997D01*
X133322440Y-124449494D01*
X133322444Y-124449499D01*
X133450499Y-124577554D01*
X133450504Y-124577558D01*
X133578286Y-124670396D01*
X133597005Y-124683996D01*
X133702483Y-124737740D01*
X133758359Y-124766211D01*
X133758362Y-124766212D01*
X133844475Y-124794191D01*
X133930590Y-124822171D01*
X134003638Y-124833740D01*
X134090677Y-124847527D01*
X134153812Y-124877456D01*
X134190743Y-124936768D01*
X134189745Y-125006631D01*
X134151135Y-125064863D01*
X134090677Y-125092473D01*
X133930588Y-125117829D01*
X133758362Y-125173787D01*
X133758359Y-125173788D01*
X133597001Y-125256006D01*
X133450504Y-125362441D01*
X133450499Y-125362445D01*
X133322444Y-125490500D01*
X133322440Y-125490505D01*
X133216005Y-125637002D01*
X133133787Y-125798360D01*
X133133786Y-125798363D01*
X133077828Y-125970589D01*
X133049499Y-126149448D01*
X133049499Y-126330551D01*
X133077828Y-126509410D01*
X133133786Y-126681636D01*
X133133787Y-126681639D01*
X133165928Y-126744717D01*
X133210894Y-126832968D01*
X133216005Y-126842997D01*
X133322440Y-126989494D01*
X133322444Y-126989499D01*
X133450499Y-127117554D01*
X133450504Y-127117558D01*
X133508338Y-127159576D01*
X133597005Y-127223996D01*
X133702483Y-127277740D01*
X133758359Y-127306211D01*
X133758362Y-127306212D01*
X133844475Y-127334191D01*
X133930590Y-127362171D01*
X134003638Y-127373740D01*
X134090677Y-127387527D01*
X134153812Y-127417456D01*
X134190743Y-127476768D01*
X134189745Y-127546631D01*
X134151135Y-127604863D01*
X134090677Y-127632473D01*
X133930588Y-127657829D01*
X133758362Y-127713787D01*
X133758359Y-127713788D01*
X133597001Y-127796006D01*
X133450504Y-127902441D01*
X133450499Y-127902445D01*
X133322444Y-128030500D01*
X133322440Y-128030505D01*
X133216005Y-128177002D01*
X133133787Y-128338360D01*
X133133786Y-128338363D01*
X133077828Y-128510589D01*
X133049499Y-128689448D01*
X133049499Y-128870551D01*
X133077828Y-129049410D01*
X133133786Y-129221636D01*
X133133787Y-129221639D01*
X133187046Y-129326163D01*
X133208473Y-129368216D01*
X133216005Y-129382997D01*
X133322440Y-129529494D01*
X133322444Y-129529499D01*
X133450499Y-129657554D01*
X133450504Y-129657558D01*
X133578286Y-129750396D01*
X133597005Y-129763996D01*
X133668648Y-129800500D01*
X133758359Y-129846211D01*
X133758362Y-129846212D01*
X133844475Y-129874191D01*
X133930590Y-129902171D01*
X134003638Y-129913740D01*
X134090677Y-129927527D01*
X134153812Y-129957456D01*
X134190743Y-130016768D01*
X134189745Y-130086631D01*
X134151135Y-130144863D01*
X134090677Y-130172473D01*
X133930588Y-130197829D01*
X133758362Y-130253787D01*
X133758359Y-130253788D01*
X133597001Y-130336006D01*
X133450504Y-130442441D01*
X133450499Y-130442445D01*
X133322444Y-130570500D01*
X133322440Y-130570505D01*
X133216005Y-130717002D01*
X133133787Y-130878360D01*
X133133786Y-130878363D01*
X133077828Y-131050589D01*
X133049499Y-131229448D01*
X133049499Y-131410551D01*
X133077828Y-131589410D01*
X133133786Y-131761636D01*
X133133787Y-131761639D01*
X133189663Y-131871300D01*
X133216002Y-131922993D01*
X133216005Y-131922997D01*
X133322440Y-132069494D01*
X133322444Y-132069499D01*
X133450499Y-132197554D01*
X133450504Y-132197558D01*
X133562676Y-132279055D01*
X133597005Y-132303996D01*
X133667233Y-132339779D01*
X133758359Y-132386211D01*
X133758362Y-132386212D01*
X133844475Y-132414191D01*
X133930590Y-132442171D01*
X134003638Y-132453740D01*
X134090677Y-132467527D01*
X134153812Y-132497456D01*
X134190743Y-132556768D01*
X134189745Y-132626631D01*
X134151135Y-132684863D01*
X134090677Y-132712473D01*
X133930588Y-132737829D01*
X133758362Y-132793787D01*
X133758359Y-132793788D01*
X133597001Y-132876006D01*
X133450504Y-132982441D01*
X133450499Y-132982445D01*
X133322444Y-133110500D01*
X133322440Y-133110505D01*
X133216005Y-133257002D01*
X133133787Y-133418360D01*
X133133786Y-133418363D01*
X133077828Y-133590589D01*
X133049499Y-133769448D01*
X133049499Y-133950551D01*
X133077828Y-134129410D01*
X133133786Y-134301636D01*
X133133787Y-134301639D01*
X133216005Y-134462997D01*
X133322440Y-134609494D01*
X133322444Y-134609499D01*
X133450499Y-134737554D01*
X133450504Y-134737558D01*
X133535761Y-134799500D01*
X133597005Y-134843996D01*
X133702483Y-134897740D01*
X133758359Y-134926211D01*
X133758362Y-134926212D01*
X133844475Y-134954191D01*
X133930590Y-134982171D01*
X134003638Y-134993740D01*
X134090677Y-135007527D01*
X134153812Y-135037456D01*
X134190743Y-135096768D01*
X134189745Y-135166631D01*
X134151135Y-135224863D01*
X134090677Y-135252473D01*
X133930588Y-135277829D01*
X133758362Y-135333787D01*
X133758359Y-135333788D01*
X133597001Y-135416006D01*
X133450504Y-135522441D01*
X133450499Y-135522445D01*
X133322444Y-135650500D01*
X133322440Y-135650505D01*
X133216005Y-135797002D01*
X133133787Y-135958360D01*
X133133786Y-135958363D01*
X133077828Y-136130589D01*
X133049499Y-136309448D01*
X133049499Y-136490551D01*
X133077828Y-136669410D01*
X133133786Y-136841636D01*
X133133787Y-136841639D01*
X133182907Y-136938040D01*
X133214015Y-136999093D01*
X133216005Y-137002997D01*
X133322440Y-137149494D01*
X133322444Y-137149499D01*
X133450499Y-137277554D01*
X133450504Y-137277558D01*
X133555321Y-137353711D01*
X133597005Y-137383996D01*
X133690980Y-137431879D01*
X133758359Y-137466211D01*
X133758362Y-137466212D01*
X133844475Y-137494191D01*
X133930590Y-137522171D01*
X134003638Y-137533740D01*
X134090677Y-137547527D01*
X134153812Y-137577456D01*
X134190743Y-137636768D01*
X134189745Y-137706631D01*
X134151135Y-137764863D01*
X134090677Y-137792473D01*
X133930588Y-137817829D01*
X133758362Y-137873787D01*
X133758359Y-137873788D01*
X133597001Y-137956006D01*
X133450504Y-138062441D01*
X133450499Y-138062445D01*
X133322444Y-138190500D01*
X133322440Y-138190505D01*
X133216005Y-138337002D01*
X133133787Y-138498360D01*
X133133786Y-138498363D01*
X133077828Y-138670589D01*
X133049499Y-138849448D01*
X133049499Y-139030551D01*
X133077828Y-139209410D01*
X133133786Y-139381636D01*
X133133787Y-139381639D01*
X133189663Y-139491300D01*
X133211017Y-139533209D01*
X133216005Y-139542997D01*
X133322440Y-139689494D01*
X133322444Y-139689499D01*
X133450499Y-139817554D01*
X133450504Y-139817558D01*
X133535147Y-139879054D01*
X133597005Y-139923996D01*
X133702483Y-139977740D01*
X133758359Y-140006211D01*
X133758362Y-140006212D01*
X133835522Y-140031282D01*
X133930590Y-140062171D01*
X134003638Y-140073740D01*
X134090677Y-140087527D01*
X134153812Y-140117456D01*
X134190743Y-140176768D01*
X134189745Y-140246631D01*
X134151135Y-140304863D01*
X134090677Y-140332473D01*
X133930588Y-140357829D01*
X133758362Y-140413787D01*
X133758359Y-140413788D01*
X133597001Y-140496006D01*
X133450504Y-140602441D01*
X133450499Y-140602445D01*
X133322444Y-140730500D01*
X133322440Y-140730505D01*
X133216005Y-140877002D01*
X133133787Y-141038360D01*
X133133786Y-141038363D01*
X133077828Y-141210589D01*
X133049499Y-141389448D01*
X133049499Y-141570551D01*
X133077828Y-141749410D01*
X133133786Y-141921636D01*
X133133787Y-141921639D01*
X133173969Y-142000499D01*
X133214744Y-142080524D01*
X133216005Y-142082997D01*
X133322440Y-142229494D01*
X133322444Y-142229499D01*
X133450499Y-142357554D01*
X133450504Y-142357558D01*
X133578286Y-142450396D01*
X133597005Y-142463996D01*
X133702483Y-142517740D01*
X133758359Y-142546211D01*
X133758362Y-142546212D01*
X133844475Y-142574191D01*
X133930590Y-142602171D01*
X134003638Y-142613740D01*
X134090677Y-142627527D01*
X134153812Y-142657456D01*
X134190743Y-142716768D01*
X134189745Y-142786631D01*
X134151135Y-142844863D01*
X134090677Y-142872473D01*
X133930588Y-142897829D01*
X133758362Y-142953787D01*
X133758359Y-142953788D01*
X133597001Y-143036006D01*
X133450504Y-143142441D01*
X133450499Y-143142445D01*
X133322444Y-143270500D01*
X133322440Y-143270505D01*
X133216005Y-143417002D01*
X133133787Y-143578360D01*
X133133786Y-143578363D01*
X133077828Y-143750589D01*
X133049499Y-143929448D01*
X133049499Y-144110551D01*
X133077828Y-144289410D01*
X133133786Y-144461636D01*
X133133787Y-144461639D01*
X133175324Y-144543157D01*
X133197818Y-144587305D01*
X133216005Y-144622997D01*
X133322440Y-144769494D01*
X133322444Y-144769499D01*
X133450499Y-144897554D01*
X133450504Y-144897558D01*
X133480920Y-144919656D01*
X133597005Y-145003996D01*
X133702483Y-145057740D01*
X133758359Y-145086211D01*
X133758362Y-145086212D01*
X133844475Y-145114191D01*
X133930590Y-145142171D01*
X134003638Y-145153740D01*
X134090677Y-145167527D01*
X134153812Y-145197456D01*
X134190743Y-145256768D01*
X134189745Y-145326631D01*
X134151135Y-145384863D01*
X134090677Y-145412473D01*
X133930588Y-145437829D01*
X133758362Y-145493787D01*
X133758359Y-145493788D01*
X133597001Y-145576006D01*
X133450504Y-145682441D01*
X133450499Y-145682445D01*
X133322444Y-145810500D01*
X133322440Y-145810505D01*
X133216005Y-145957002D01*
X133133787Y-146118360D01*
X133133786Y-146118363D01*
X133077828Y-146290589D01*
X133049499Y-146469448D01*
X133049499Y-146650551D01*
X133077828Y-146829410D01*
X133133786Y-147001636D01*
X133133787Y-147001639D01*
X133216005Y-147162997D01*
X133322440Y-147309494D01*
X133322444Y-147309499D01*
X133450499Y-147437554D01*
X133450504Y-147437558D01*
X133578286Y-147530396D01*
X133597005Y-147543996D01*
X133702483Y-147597740D01*
X133758359Y-147626211D01*
X133758362Y-147626212D01*
X133844475Y-147654191D01*
X133930590Y-147682171D01*
X134013428Y-147695291D01*
X134109448Y-147710500D01*
X134109453Y-147710500D01*
X134290550Y-147710500D01*
X134377258Y-147696765D01*
X134469408Y-147682171D01*
X134641638Y-147626211D01*
X134802993Y-147543996D01*
X134949500Y-147437553D01*
X135077552Y-147309501D01*
X135183995Y-147162994D01*
X135265015Y-147003983D01*
X135312990Y-146953188D01*
X135380811Y-146936393D01*
X135446946Y-146958931D01*
X135490397Y-147013646D01*
X135499500Y-147060279D01*
X135499500Y-157309366D01*
X135479815Y-157376405D01*
X135427011Y-157422160D01*
X135357853Y-157432104D01*
X135294297Y-157403079D01*
X135275182Y-157382251D01*
X135230109Y-157320214D01*
X135230105Y-157320209D01*
X135079786Y-157169890D01*
X134907820Y-157044951D01*
X134718414Y-156948444D01*
X134718413Y-156948443D01*
X134718412Y-156948443D01*
X134516243Y-156882754D01*
X134516241Y-156882753D01*
X134516240Y-156882753D01*
X134354957Y-156857208D01*
X134306287Y-156849500D01*
X134093713Y-156849500D01*
X134045042Y-156857208D01*
X133883760Y-156882753D01*
X133681585Y-156948444D01*
X133492179Y-157044951D01*
X133320213Y-157169890D01*
X133169890Y-157320213D01*
X133044951Y-157492179D01*
X132948444Y-157681585D01*
X132882753Y-157883760D01*
X132849500Y-158093713D01*
X132849500Y-158306286D01*
X132882753Y-158516239D01*
X132948444Y-158718414D01*
X133044951Y-158907820D01*
X133169890Y-159079786D01*
X133320207Y-159230103D01*
X133382252Y-159275181D01*
X133424918Y-159330511D01*
X133430897Y-159400124D01*
X133398292Y-159461920D01*
X133337453Y-159496277D01*
X133309367Y-159499500D01*
X105490633Y-159499500D01*
X105423594Y-159479815D01*
X105377839Y-159427011D01*
X105367895Y-159357853D01*
X105396920Y-159294297D01*
X105417748Y-159275181D01*
X105479792Y-159230104D01*
X105630104Y-159079792D01*
X105630106Y-159079788D01*
X105630109Y-159079786D01*
X105755048Y-158907820D01*
X105755047Y-158907820D01*
X105755051Y-158907816D01*
X105851557Y-158718412D01*
X105917246Y-158516243D01*
X105950500Y-158306287D01*
X105950500Y-158093713D01*
X105917246Y-157883757D01*
X105851557Y-157681588D01*
X105755051Y-157492184D01*
X105755049Y-157492181D01*
X105755048Y-157492179D01*
X105630109Y-157320213D01*
X105479786Y-157169890D01*
X105307820Y-157044951D01*
X105118414Y-156948444D01*
X105118413Y-156948443D01*
X105118412Y-156948443D01*
X104916243Y-156882754D01*
X104916241Y-156882753D01*
X104916240Y-156882753D01*
X104754957Y-156857208D01*
X104706287Y-156849500D01*
X104493713Y-156849500D01*
X104445042Y-156857208D01*
X104283760Y-156882753D01*
X104081585Y-156948444D01*
X103892179Y-157044951D01*
X103720213Y-157169890D01*
X103569890Y-157320213D01*
X103444951Y-157492179D01*
X103348444Y-157681585D01*
X103282753Y-157883760D01*
X103249500Y-158093713D01*
X103249500Y-158306286D01*
X103282753Y-158516239D01*
X103348444Y-158718414D01*
X103444951Y-158907820D01*
X103569890Y-159079786D01*
X103720207Y-159230103D01*
X103782252Y-159275181D01*
X103824918Y-159330511D01*
X103830897Y-159400124D01*
X103798292Y-159461920D01*
X103737453Y-159496277D01*
X103709367Y-159499500D01*
X100624500Y-159499500D01*
X100557461Y-159479815D01*
X100511706Y-159427011D01*
X100500500Y-159375500D01*
X100500500Y-149924234D01*
X114534500Y-149924234D01*
X114534500Y-150075765D01*
X114573719Y-150222136D01*
X114611602Y-150287750D01*
X114649485Y-150353365D01*
X114756635Y-150460515D01*
X114887865Y-150536281D01*
X115034234Y-150575500D01*
X115034236Y-150575500D01*
X115185764Y-150575500D01*
X115185766Y-150575500D01*
X115332135Y-150536281D01*
X115463365Y-150460515D01*
X115570515Y-150353365D01*
X115646281Y-150222135D01*
X115685500Y-150075766D01*
X115685500Y-149924234D01*
X120314500Y-149924234D01*
X120314500Y-150075765D01*
X120353719Y-150222136D01*
X120391602Y-150287750D01*
X120429485Y-150353365D01*
X120536635Y-150460515D01*
X120667865Y-150536281D01*
X120814234Y-150575500D01*
X120814236Y-150575500D01*
X120965764Y-150575500D01*
X120965766Y-150575500D01*
X121112135Y-150536281D01*
X121243365Y-150460515D01*
X121350515Y-150353365D01*
X121426281Y-150222135D01*
X121465500Y-150075766D01*
X121465500Y-149924234D01*
X121426281Y-149777865D01*
X121350515Y-149646635D01*
X121243365Y-149539485D01*
X121177750Y-149501602D01*
X121112136Y-149463719D01*
X121038950Y-149444109D01*
X120965766Y-149424500D01*
X120814234Y-149424500D01*
X120667863Y-149463719D01*
X120536635Y-149539485D01*
X120536632Y-149539487D01*
X120429487Y-149646632D01*
X120429485Y-149646635D01*
X120353719Y-149777863D01*
X120314500Y-149924234D01*
X115685500Y-149924234D01*
X115646281Y-149777865D01*
X115570515Y-149646635D01*
X115463365Y-149539485D01*
X115397750Y-149501602D01*
X115332136Y-149463719D01*
X115258950Y-149444109D01*
X115185766Y-149424500D01*
X115034234Y-149424500D01*
X114887863Y-149463719D01*
X114756635Y-149539485D01*
X114756632Y-149539487D01*
X114649487Y-149646632D01*
X114649485Y-149646635D01*
X114573719Y-149777863D01*
X114534500Y-149924234D01*
X100500500Y-149924234D01*
X100500500Y-147720943D01*
X109999500Y-147720943D01*
X109999500Y-147879056D01*
X110040423Y-148031783D01*
X110040426Y-148031790D01*
X110119475Y-148168709D01*
X110119479Y-148168714D01*
X110119480Y-148168716D01*
X110231284Y-148280520D01*
X110231286Y-148280521D01*
X110231290Y-148280524D01*
X110368209Y-148359573D01*
X110368216Y-148359577D01*
X110520943Y-148400500D01*
X110520945Y-148400500D01*
X110679055Y-148400500D01*
X110679057Y-148400500D01*
X110831784Y-148359577D01*
X110968716Y-148280520D01*
X111080520Y-148168716D01*
X111159577Y-148031784D01*
X111200500Y-147879057D01*
X111200500Y-147720943D01*
X111159577Y-147568216D01*
X111145592Y-147543993D01*
X111080524Y-147431290D01*
X111080518Y-147431282D01*
X110968717Y-147319481D01*
X110968709Y-147319475D01*
X110831790Y-147240426D01*
X110831786Y-147240424D01*
X110831784Y-147240423D01*
X110679057Y-147199500D01*
X110520943Y-147199500D01*
X110368216Y-147240423D01*
X110368209Y-147240426D01*
X110231290Y-147319475D01*
X110231282Y-147319481D01*
X110119481Y-147431282D01*
X110119475Y-147431290D01*
X110040426Y-147568209D01*
X110040423Y-147568216D01*
X109999500Y-147720943D01*
X100500500Y-147720943D01*
X100500500Y-147060281D01*
X100520185Y-146993242D01*
X100572989Y-146947487D01*
X100642147Y-146937543D01*
X100705703Y-146966568D01*
X100734985Y-147003986D01*
X100816006Y-147162997D01*
X100922441Y-147309494D01*
X100922445Y-147309499D01*
X101050500Y-147437554D01*
X101050505Y-147437558D01*
X101178287Y-147530396D01*
X101197006Y-147543996D01*
X101302484Y-147597740D01*
X101358360Y-147626211D01*
X101358363Y-147626212D01*
X101444476Y-147654191D01*
X101530591Y-147682171D01*
X101613429Y-147695291D01*
X101709449Y-147710500D01*
X101709454Y-147710500D01*
X101890551Y-147710500D01*
X101977259Y-147696765D01*
X102069409Y-147682171D01*
X102241639Y-147626211D01*
X102402994Y-147543996D01*
X102549501Y-147437553D01*
X102677553Y-147309501D01*
X102783996Y-147162994D01*
X102866211Y-147001639D01*
X102877606Y-146966568D01*
X102892430Y-146920943D01*
X122399500Y-146920943D01*
X122399500Y-147079056D01*
X122440423Y-147231783D01*
X122440426Y-147231790D01*
X122519475Y-147368709D01*
X122519479Y-147368714D01*
X122519480Y-147368716D01*
X122631284Y-147480520D01*
X122631286Y-147480521D01*
X122631290Y-147480524D01*
X122768209Y-147559573D01*
X122768216Y-147559577D01*
X122920943Y-147600500D01*
X122920945Y-147600500D01*
X123079055Y-147600500D01*
X123079057Y-147600500D01*
X123231784Y-147559577D01*
X123368716Y-147480520D01*
X123480520Y-147368716D01*
X123559577Y-147231784D01*
X123600500Y-147079057D01*
X123600500Y-146920943D01*
X123559577Y-146768216D01*
X123491641Y-146650546D01*
X123480524Y-146631290D01*
X123480518Y-146631282D01*
X123368717Y-146519481D01*
X123368709Y-146519475D01*
X123231790Y-146440426D01*
X123231786Y-146440424D01*
X123231784Y-146440423D01*
X123079057Y-146399500D01*
X122920943Y-146399500D01*
X122768216Y-146440423D01*
X122768209Y-146440426D01*
X122631290Y-146519475D01*
X122631282Y-146519481D01*
X122519481Y-146631282D01*
X122519475Y-146631290D01*
X122440426Y-146768209D01*
X122440423Y-146768216D01*
X122399500Y-146920943D01*
X102892430Y-146920943D01*
X102907521Y-146874499D01*
X102907521Y-146874498D01*
X102922171Y-146829409D01*
X102950500Y-146650551D01*
X102950500Y-146469448D01*
X102934019Y-146365397D01*
X102922171Y-146290591D01*
X102883806Y-146172514D01*
X102866212Y-146118363D01*
X102866211Y-146118360D01*
X102836331Y-146059718D01*
X102783996Y-145957006D01*
X102710989Y-145856520D01*
X102677558Y-145810505D01*
X102677554Y-145810500D01*
X102549499Y-145682445D01*
X102549494Y-145682441D01*
X102402997Y-145576006D01*
X102402996Y-145576005D01*
X102402994Y-145576004D01*
X102351300Y-145549664D01*
X102241639Y-145493788D01*
X102241636Y-145493787D01*
X102069410Y-145437829D01*
X101909321Y-145412473D01*
X101846186Y-145382544D01*
X101809255Y-145323232D01*
X101810253Y-145253370D01*
X101848863Y-145195137D01*
X101909321Y-145167527D01*
X101979425Y-145156422D01*
X102069409Y-145142171D01*
X102134743Y-145120943D01*
X105599500Y-145120943D01*
X105599500Y-145279057D01*
X105639800Y-145429457D01*
X105640423Y-145431783D01*
X105640426Y-145431790D01*
X105719475Y-145568709D01*
X105719479Y-145568714D01*
X105719480Y-145568716D01*
X105831284Y-145680520D01*
X105831286Y-145680521D01*
X105831290Y-145680524D01*
X105942476Y-145744716D01*
X105968216Y-145759577D01*
X106120943Y-145800500D01*
X106120945Y-145800500D01*
X106279055Y-145800500D01*
X106279057Y-145800500D01*
X106431784Y-145759577D01*
X106568716Y-145680520D01*
X106680520Y-145568716D01*
X106759577Y-145431784D01*
X106800500Y-145279057D01*
X106800500Y-145120943D01*
X106759577Y-144968216D01*
X106727044Y-144911866D01*
X106680524Y-144831290D01*
X106680518Y-144831282D01*
X106568717Y-144719481D01*
X106568709Y-144719475D01*
X106431790Y-144640426D01*
X106431786Y-144640424D01*
X106431784Y-144640423D01*
X106279057Y-144599500D01*
X106120943Y-144599500D01*
X105968216Y-144640423D01*
X105968209Y-144640426D01*
X105831290Y-144719475D01*
X105831282Y-144719481D01*
X105719481Y-144831282D01*
X105719475Y-144831290D01*
X105640426Y-144968209D01*
X105640423Y-144968216D01*
X105599500Y-145120943D01*
X102134743Y-145120943D01*
X102241639Y-145086211D01*
X102402994Y-145003996D01*
X102549501Y-144897553D01*
X102677553Y-144769501D01*
X102783996Y-144622994D01*
X102866211Y-144461639D01*
X102922171Y-144289409D01*
X102942322Y-144162183D01*
X102950500Y-144110551D01*
X102950500Y-143929448D01*
X102923094Y-143756419D01*
X102922171Y-143750591D01*
X102920402Y-143745148D01*
X107203927Y-143745148D01*
X107203927Y-143903262D01*
X107219017Y-143959576D01*
X107244850Y-144055988D01*
X107244853Y-144055995D01*
X107323902Y-144192914D01*
X107323906Y-144192919D01*
X107323907Y-144192921D01*
X107435711Y-144304725D01*
X107435713Y-144304726D01*
X107435717Y-144304729D01*
X107572636Y-144383778D01*
X107572643Y-144383782D01*
X107725370Y-144424705D01*
X107725372Y-144424705D01*
X107883482Y-144424705D01*
X107883484Y-144424705D01*
X108036211Y-144383782D01*
X108173143Y-144304725D01*
X108245558Y-144232310D01*
X109488181Y-144232310D01*
X109488181Y-144390424D01*
X109524469Y-144525851D01*
X109529104Y-144543150D01*
X109529107Y-144543157D01*
X109608156Y-144680076D01*
X109608160Y-144680081D01*
X109608161Y-144680083D01*
X109719965Y-144791887D01*
X109719967Y-144791888D01*
X109719971Y-144791891D01*
X109813846Y-144846089D01*
X109856897Y-144870944D01*
X110009624Y-144911867D01*
X110009626Y-144911867D01*
X110167736Y-144911867D01*
X110167738Y-144911867D01*
X110320465Y-144870944D01*
X110457397Y-144791887D01*
X110569201Y-144680083D01*
X110648258Y-144543151D01*
X110652894Y-144525851D01*
X112565012Y-144525851D01*
X112565012Y-144683965D01*
X112604486Y-144831282D01*
X112605935Y-144836691D01*
X112605938Y-144836698D01*
X112684987Y-144973617D01*
X112684991Y-144973622D01*
X112684992Y-144973624D01*
X112796796Y-145085428D01*
X112872491Y-145129130D01*
X112920705Y-145179695D01*
X112933929Y-145248301D01*
X112930265Y-145268607D01*
X112922673Y-145296939D01*
X112922673Y-145296943D01*
X112922673Y-145455057D01*
X112956737Y-145582183D01*
X112963596Y-145607783D01*
X112963599Y-145607790D01*
X113042648Y-145744709D01*
X113042652Y-145744714D01*
X113042653Y-145744716D01*
X113154457Y-145856520D01*
X113154459Y-145856521D01*
X113154463Y-145856524D01*
X113247041Y-145909973D01*
X113291389Y-145935577D01*
X113444116Y-145976500D01*
X113444118Y-145976500D01*
X113602228Y-145976500D01*
X113602230Y-145976500D01*
X113754957Y-145935577D01*
X113891889Y-145856520D01*
X113941665Y-145806743D01*
X114002986Y-145773259D01*
X114072678Y-145778243D01*
X114117026Y-145806744D01*
X114141202Y-145830920D01*
X114141204Y-145830921D01*
X114141208Y-145830924D01*
X114278127Y-145909973D01*
X114278134Y-145909977D01*
X114430861Y-145950900D01*
X114430863Y-145950900D01*
X114588973Y-145950900D01*
X114588975Y-145950900D01*
X114741702Y-145909977D01*
X114878634Y-145830920D01*
X114990438Y-145719116D01*
X115069495Y-145582184D01*
X115110418Y-145429457D01*
X115110418Y-145271343D01*
X115069495Y-145118616D01*
X115050334Y-145085428D01*
X114990442Y-144981690D01*
X114990436Y-144981682D01*
X114878635Y-144869881D01*
X114878627Y-144869875D01*
X114825655Y-144839292D01*
X114741708Y-144790826D01*
X114741704Y-144790824D01*
X114741702Y-144790823D01*
X114588975Y-144749900D01*
X114430861Y-144749900D01*
X114278134Y-144790823D01*
X114278127Y-144790826D01*
X114141208Y-144869875D01*
X114141200Y-144869881D01*
X114091425Y-144919656D01*
X114030102Y-144953140D01*
X113960410Y-144948155D01*
X113932800Y-144933673D01*
X113923811Y-144927402D01*
X113891889Y-144895480D01*
X113811610Y-144849131D01*
X113807249Y-144846089D01*
X113788576Y-144822812D01*
X113767978Y-144801210D01*
X113766944Y-144795847D01*
X113763528Y-144791589D01*
X113760403Y-144761911D01*
X113756187Y-144740032D01*
X118805387Y-144740032D01*
X118805387Y-144898146D01*
X118837166Y-145016745D01*
X118846310Y-145050872D01*
X118846313Y-145050879D01*
X118925362Y-145187798D01*
X118925366Y-145187803D01*
X118925367Y-145187805D01*
X119037171Y-145299609D01*
X119037173Y-145299610D01*
X119037177Y-145299613D01*
X119150687Y-145365147D01*
X119174103Y-145378666D01*
X119326830Y-145419589D01*
X119326832Y-145419589D01*
X119484942Y-145419589D01*
X119484944Y-145419589D01*
X119637671Y-145378666D01*
X119661088Y-145365146D01*
X119728985Y-145348674D01*
X119795012Y-145371526D01*
X119837648Y-145425084D01*
X119840424Y-145431788D01*
X119919475Y-145568709D01*
X119919479Y-145568714D01*
X119919480Y-145568716D01*
X120031284Y-145680520D01*
X120031286Y-145680521D01*
X120031290Y-145680524D01*
X120142476Y-145744716D01*
X120168216Y-145759577D01*
X120320943Y-145800500D01*
X120320945Y-145800500D01*
X120479055Y-145800500D01*
X120479057Y-145800500D01*
X120631784Y-145759577D01*
X120768716Y-145680520D01*
X120880520Y-145568716D01*
X120959577Y-145431784D01*
X121000500Y-145279057D01*
X121000500Y-145120943D01*
X120959577Y-144968216D01*
X120927044Y-144911866D01*
X120880524Y-144831290D01*
X120880518Y-144831282D01*
X120768717Y-144719481D01*
X120768709Y-144719475D01*
X120631790Y-144640426D01*
X120631786Y-144640424D01*
X120631784Y-144640423D01*
X120479057Y-144599500D01*
X120320943Y-144599500D01*
X120168216Y-144640423D01*
X120168213Y-144640424D01*
X120144797Y-144653943D01*
X120076896Y-144670413D01*
X120010870Y-144647559D01*
X119968236Y-144594000D01*
X119965466Y-144587313D01*
X119965464Y-144587305D01*
X119965459Y-144587296D01*
X119886411Y-144450379D01*
X119886405Y-144450371D01*
X119774604Y-144338570D01*
X119774596Y-144338564D01*
X119637677Y-144259515D01*
X119637673Y-144259513D01*
X119637671Y-144259512D01*
X119484944Y-144218589D01*
X119326830Y-144218589D01*
X119174103Y-144259512D01*
X119174096Y-144259515D01*
X119037177Y-144338564D01*
X119037169Y-144338570D01*
X118925368Y-144450371D01*
X118925362Y-144450379D01*
X118846313Y-144587298D01*
X118846310Y-144587305D01*
X118805387Y-144740032D01*
X113756187Y-144740032D01*
X113754755Y-144732603D01*
X113756373Y-144723631D01*
X113756213Y-144722103D01*
X113756893Y-144720750D01*
X113758416Y-144712310D01*
X113766012Y-144683965D01*
X113766012Y-144525851D01*
X113725089Y-144373124D01*
X113725085Y-144373117D01*
X113646036Y-144236198D01*
X113646030Y-144236190D01*
X113534229Y-144124389D01*
X113534221Y-144124383D01*
X113397302Y-144045334D01*
X113397298Y-144045332D01*
X113397296Y-144045331D01*
X113244569Y-144004408D01*
X113086455Y-144004408D01*
X112933728Y-144045331D01*
X112933721Y-144045334D01*
X112796802Y-144124383D01*
X112796794Y-144124389D01*
X112684993Y-144236190D01*
X112684987Y-144236198D01*
X112605938Y-144373117D01*
X112605935Y-144373124D01*
X112565012Y-144525851D01*
X110652894Y-144525851D01*
X110689181Y-144390424D01*
X110689181Y-144232310D01*
X110648258Y-144079583D01*
X110602600Y-144000500D01*
X110569205Y-143942657D01*
X110569199Y-143942649D01*
X110457398Y-143830848D01*
X110457390Y-143830842D01*
X110320471Y-143751793D01*
X110320467Y-143751791D01*
X110320465Y-143751790D01*
X110167738Y-143710867D01*
X110009624Y-143710867D01*
X109856897Y-143751790D01*
X109856890Y-143751793D01*
X109719971Y-143830842D01*
X109719963Y-143830848D01*
X109608162Y-143942649D01*
X109608156Y-143942657D01*
X109529107Y-144079576D01*
X109529104Y-144079583D01*
X109488181Y-144232310D01*
X108245558Y-144232310D01*
X108284947Y-144192921D01*
X108291187Y-144182112D01*
X108302694Y-144162183D01*
X108332506Y-144110546D01*
X108364004Y-144055989D01*
X108404927Y-143903262D01*
X108404927Y-143745148D01*
X108364004Y-143592421D01*
X108342239Y-143554723D01*
X108284951Y-143455495D01*
X108284945Y-143455487D01*
X108173144Y-143343686D01*
X108173136Y-143343680D01*
X108133754Y-143320943D01*
X119199500Y-143320943D01*
X119199500Y-143479057D01*
X119226109Y-143578361D01*
X119240423Y-143631783D01*
X119240426Y-143631790D01*
X119319475Y-143768709D01*
X119319479Y-143768714D01*
X119319480Y-143768716D01*
X119431284Y-143880520D01*
X119431286Y-143880521D01*
X119431290Y-143880524D01*
X119538899Y-143942651D01*
X119568216Y-143959577D01*
X119720943Y-144000500D01*
X119720945Y-144000500D01*
X119879055Y-144000500D01*
X119879057Y-144000500D01*
X120031784Y-143959577D01*
X120168716Y-143880520D01*
X120280520Y-143768716D01*
X120359577Y-143631784D01*
X120380225Y-143554721D01*
X120416590Y-143495062D01*
X120479437Y-143464533D01*
X120548812Y-143472828D01*
X120602690Y-143517313D01*
X120619774Y-143554720D01*
X120626109Y-143578363D01*
X120640423Y-143631783D01*
X120640426Y-143631790D01*
X120719475Y-143768709D01*
X120719479Y-143768714D01*
X120719480Y-143768716D01*
X120831284Y-143880520D01*
X120831286Y-143880521D01*
X120831290Y-143880524D01*
X120938899Y-143942651D01*
X120968216Y-143959577D01*
X121120943Y-144000500D01*
X121120945Y-144000500D01*
X121279055Y-144000500D01*
X121279057Y-144000500D01*
X121431784Y-143959577D01*
X121568716Y-143880520D01*
X121680520Y-143768716D01*
X121759577Y-143631784D01*
X121800500Y-143479057D01*
X121800500Y-143320943D01*
X121759577Y-143168216D01*
X121759573Y-143168209D01*
X121680524Y-143031290D01*
X121680518Y-143031282D01*
X121568717Y-142919481D01*
X121568709Y-142919475D01*
X121431790Y-142840426D01*
X121431786Y-142840424D01*
X121431784Y-142840423D01*
X121279057Y-142799500D01*
X121120943Y-142799500D01*
X120968216Y-142840423D01*
X120968209Y-142840426D01*
X120831290Y-142919475D01*
X120831282Y-142919481D01*
X120719481Y-143031282D01*
X120719475Y-143031290D01*
X120640426Y-143168209D01*
X120640423Y-143168214D01*
X120619775Y-143245277D01*
X120583410Y-143304937D01*
X120520563Y-143335466D01*
X120451187Y-143327171D01*
X120397309Y-143282686D01*
X120380225Y-143245277D01*
X120359576Y-143168214D01*
X120359573Y-143168209D01*
X120280524Y-143031290D01*
X120280518Y-143031282D01*
X120168717Y-142919481D01*
X120168709Y-142919475D01*
X120031790Y-142840426D01*
X120031786Y-142840424D01*
X120031784Y-142840423D01*
X119879057Y-142799500D01*
X119720943Y-142799500D01*
X119568216Y-142840423D01*
X119568209Y-142840426D01*
X119431290Y-142919475D01*
X119431282Y-142919481D01*
X119319481Y-143031282D01*
X119319475Y-143031290D01*
X119240426Y-143168209D01*
X119240424Y-143168214D01*
X119240423Y-143168216D01*
X119199500Y-143320943D01*
X108133754Y-143320943D01*
X108036217Y-143264631D01*
X108036213Y-143264629D01*
X108036211Y-143264628D01*
X107883484Y-143223705D01*
X107725370Y-143223705D01*
X107572643Y-143264628D01*
X107572636Y-143264631D01*
X107435717Y-143343680D01*
X107435709Y-143343686D01*
X107323908Y-143455487D01*
X107323902Y-143455495D01*
X107244853Y-143592414D01*
X107244850Y-143592421D01*
X107203927Y-143745148D01*
X102920402Y-143745148D01*
X102909264Y-143710867D01*
X102866212Y-143578363D01*
X102866211Y-143578360D01*
X102823768Y-143495062D01*
X102783996Y-143417006D01*
X102730726Y-143343686D01*
X102677558Y-143270505D01*
X102677554Y-143270500D01*
X102549499Y-143142445D01*
X102549494Y-143142441D01*
X102402997Y-143036006D01*
X102402996Y-143036005D01*
X102402994Y-143036004D01*
X102351300Y-143009664D01*
X102241639Y-142953788D01*
X102241636Y-142953787D01*
X102069410Y-142897829D01*
X101909321Y-142872473D01*
X101846186Y-142842544D01*
X101809255Y-142783232D01*
X101810253Y-142713370D01*
X101848863Y-142655137D01*
X101909321Y-142627527D01*
X101979425Y-142616422D01*
X102069409Y-142602171D01*
X102241639Y-142546211D01*
X102402994Y-142463996D01*
X102549501Y-142357553D01*
X102677553Y-142229501D01*
X102783996Y-142082994D01*
X102866211Y-141921639D01*
X102866437Y-141920945D01*
X102883806Y-141867487D01*
X102922171Y-141749409D01*
X102940880Y-141631284D01*
X102950500Y-141570551D01*
X102950500Y-141520943D01*
X107399500Y-141520943D01*
X107399500Y-141679057D01*
X107432041Y-141800500D01*
X107440423Y-141831783D01*
X107440426Y-141831790D01*
X107519475Y-141968709D01*
X107519479Y-141968714D01*
X107519480Y-141968716D01*
X107631284Y-142080520D01*
X107631286Y-142080521D01*
X107631290Y-142080524D01*
X107768209Y-142159573D01*
X107768216Y-142159577D01*
X107920943Y-142200500D01*
X107920945Y-142200500D01*
X108079055Y-142200500D01*
X108079057Y-142200500D01*
X108231784Y-142159577D01*
X108368716Y-142080520D01*
X108480520Y-141968716D01*
X108559577Y-141831784D01*
X108600500Y-141679057D01*
X108600500Y-141520943D01*
X108559577Y-141368216D01*
X108532285Y-141320945D01*
X108532284Y-141320943D01*
X109599500Y-141320943D01*
X109599500Y-141479057D01*
X109640289Y-141631282D01*
X109640423Y-141631783D01*
X109640426Y-141631790D01*
X109719475Y-141768709D01*
X109719479Y-141768714D01*
X109719480Y-141768716D01*
X109831284Y-141880520D01*
X109831286Y-141880521D01*
X109831290Y-141880524D01*
X109968209Y-141959573D01*
X109968216Y-141959577D01*
X110120943Y-142000500D01*
X110120945Y-142000500D01*
X110279055Y-142000500D01*
X110279057Y-142000500D01*
X110431784Y-141959577D01*
X110498701Y-141920943D01*
X120999500Y-141920943D01*
X120999500Y-142079057D01*
X121039812Y-142229501D01*
X121040423Y-142231783D01*
X121040426Y-142231790D01*
X121119475Y-142368709D01*
X121119479Y-142368714D01*
X121119480Y-142368716D01*
X121231284Y-142480520D01*
X121231286Y-142480521D01*
X121231290Y-142480524D01*
X121345065Y-142546211D01*
X121368216Y-142559577D01*
X121520943Y-142600500D01*
X121520945Y-142600500D01*
X121679055Y-142600500D01*
X121679057Y-142600500D01*
X121831784Y-142559577D01*
X121968716Y-142480520D01*
X122080520Y-142368716D01*
X122159577Y-142231784D01*
X122200500Y-142079057D01*
X122200500Y-141920943D01*
X122159577Y-141768216D01*
X122154587Y-141759573D01*
X122080524Y-141631290D01*
X122080518Y-141631282D01*
X121968717Y-141519481D01*
X121968709Y-141519475D01*
X121831790Y-141440426D01*
X121831786Y-141440424D01*
X121831784Y-141440423D01*
X121679057Y-141399500D01*
X121520943Y-141399500D01*
X121368216Y-141440423D01*
X121368209Y-141440426D01*
X121231290Y-141519475D01*
X121231282Y-141519481D01*
X121119481Y-141631282D01*
X121119475Y-141631290D01*
X121040426Y-141768209D01*
X121040423Y-141768216D01*
X120999500Y-141920943D01*
X110498701Y-141920943D01*
X110568716Y-141880520D01*
X110680520Y-141768716D01*
X110759577Y-141631784D01*
X110800500Y-141479057D01*
X110800500Y-141320943D01*
X110759577Y-141168216D01*
X110732285Y-141120945D01*
X110732284Y-141120943D01*
X111999500Y-141120943D01*
X111999500Y-141279057D01*
X112023389Y-141368210D01*
X112040423Y-141431783D01*
X112040426Y-141431790D01*
X112119475Y-141568709D01*
X112119479Y-141568714D01*
X112119480Y-141568716D01*
X112231284Y-141680520D01*
X112231286Y-141680521D01*
X112231290Y-141680524D01*
X112350604Y-141749409D01*
X112368216Y-141759577D01*
X112520943Y-141800500D01*
X112520945Y-141800500D01*
X112679055Y-141800500D01*
X112679057Y-141800500D01*
X112831784Y-141759577D01*
X112968716Y-141680520D01*
X113080520Y-141568716D01*
X113159577Y-141431784D01*
X113200500Y-141279057D01*
X113200500Y-141120943D01*
X113159577Y-140968216D01*
X113131437Y-140919475D01*
X113080524Y-140831290D01*
X113080518Y-140831282D01*
X112968717Y-140719481D01*
X112968709Y-140719475D01*
X112831790Y-140640426D01*
X112831786Y-140640424D01*
X112831784Y-140640423D01*
X112679057Y-140599500D01*
X112520943Y-140599500D01*
X112368216Y-140640423D01*
X112368209Y-140640426D01*
X112231290Y-140719475D01*
X112231282Y-140719481D01*
X112119481Y-140831282D01*
X112119475Y-140831290D01*
X112040426Y-140968209D01*
X112040423Y-140968216D01*
X111999500Y-141120943D01*
X110732284Y-141120943D01*
X110680522Y-141031287D01*
X110680518Y-141031282D01*
X110568717Y-140919481D01*
X110568709Y-140919475D01*
X110431790Y-140840426D01*
X110431786Y-140840424D01*
X110431784Y-140840423D01*
X110279057Y-140799500D01*
X110120943Y-140799500D01*
X109968216Y-140840423D01*
X109968209Y-140840426D01*
X109831290Y-140919475D01*
X109831282Y-140919481D01*
X109719481Y-141031282D01*
X109719475Y-141031290D01*
X109640426Y-141168209D01*
X109640426Y-141168210D01*
X109640423Y-141168216D01*
X109599500Y-141320943D01*
X108532284Y-141320943D01*
X108480522Y-141231287D01*
X108480518Y-141231282D01*
X108368717Y-141119481D01*
X108368709Y-141119475D01*
X108231790Y-141040426D01*
X108231786Y-141040424D01*
X108231784Y-141040423D01*
X108079057Y-140999500D01*
X107920943Y-140999500D01*
X107768216Y-141040423D01*
X107768209Y-141040426D01*
X107631290Y-141119475D01*
X107631282Y-141119481D01*
X107519481Y-141231282D01*
X107519475Y-141231290D01*
X107440426Y-141368209D01*
X107440426Y-141368210D01*
X107440423Y-141368216D01*
X107399500Y-141520943D01*
X102950500Y-141520943D01*
X102950500Y-141389448D01*
X102925449Y-141231290D01*
X102922171Y-141210591D01*
X102883806Y-141092514D01*
X102866212Y-141038363D01*
X102866211Y-141038360D01*
X102830470Y-140968216D01*
X102783996Y-140877006D01*
X102705320Y-140768717D01*
X102677558Y-140730505D01*
X102677554Y-140730500D01*
X102549499Y-140602445D01*
X102549494Y-140602441D01*
X102402997Y-140496006D01*
X102402996Y-140496005D01*
X102402994Y-140496004D01*
X102260306Y-140423300D01*
X102260305Y-140423299D01*
X102241643Y-140413790D01*
X102241636Y-140413787D01*
X102069410Y-140357829D01*
X101909321Y-140332473D01*
X101884999Y-140320943D01*
X105199500Y-140320943D01*
X105199500Y-140479057D01*
X105235721Y-140614233D01*
X105240423Y-140631783D01*
X105240426Y-140631790D01*
X105319475Y-140768709D01*
X105319479Y-140768714D01*
X105319480Y-140768716D01*
X105431284Y-140880520D01*
X105431286Y-140880521D01*
X105431290Y-140880524D01*
X105498765Y-140919480D01*
X105568216Y-140959577D01*
X105720943Y-141000500D01*
X105720945Y-141000500D01*
X105879055Y-141000500D01*
X105879057Y-141000500D01*
X106031784Y-140959577D01*
X106168716Y-140880520D01*
X106280520Y-140768716D01*
X106359577Y-140631784D01*
X106400500Y-140479057D01*
X106400500Y-140320943D01*
X106359577Y-140168216D01*
X106312992Y-140087527D01*
X106280524Y-140031290D01*
X106280518Y-140031282D01*
X106168717Y-139919481D01*
X106168709Y-139919475D01*
X106031790Y-139840426D01*
X106031786Y-139840424D01*
X106031784Y-139840423D01*
X105879057Y-139799500D01*
X105720943Y-139799500D01*
X105568216Y-139840423D01*
X105568209Y-139840426D01*
X105431290Y-139919475D01*
X105431282Y-139919481D01*
X105319481Y-140031282D01*
X105319475Y-140031290D01*
X105240426Y-140168209D01*
X105240423Y-140168216D01*
X105199500Y-140320943D01*
X101884999Y-140320943D01*
X101846186Y-140302544D01*
X101809255Y-140243232D01*
X101810253Y-140173370D01*
X101848863Y-140115137D01*
X101909321Y-140087527D01*
X101979425Y-140076422D01*
X102069409Y-140062171D01*
X102241639Y-140006211D01*
X102402994Y-139923996D01*
X102549501Y-139817553D01*
X102646111Y-139720943D01*
X107799500Y-139720943D01*
X107799500Y-139879057D01*
X107840289Y-140031282D01*
X107840423Y-140031783D01*
X107840426Y-140031790D01*
X107919475Y-140168709D01*
X107919479Y-140168714D01*
X107919480Y-140168716D01*
X108031284Y-140280520D01*
X108031286Y-140280521D01*
X108031290Y-140280524D01*
X108121270Y-140332473D01*
X108168216Y-140359577D01*
X108320943Y-140400500D01*
X108320945Y-140400500D01*
X108479055Y-140400500D01*
X108479057Y-140400500D01*
X108631784Y-140359577D01*
X108768716Y-140280520D01*
X108880520Y-140168716D01*
X108946374Y-140054652D01*
X120670367Y-140054652D01*
X120670367Y-140212766D01*
X120709237Y-140357829D01*
X120711290Y-140365492D01*
X120711293Y-140365499D01*
X120790342Y-140502418D01*
X120790346Y-140502423D01*
X120790347Y-140502425D01*
X120902151Y-140614229D01*
X120902153Y-140614230D01*
X120902157Y-140614233D01*
X121039076Y-140693282D01*
X121039083Y-140693286D01*
X121191810Y-140734209D01*
X121191812Y-140734209D01*
X121349922Y-140734209D01*
X121349924Y-140734209D01*
X121502651Y-140693286D01*
X121639583Y-140614229D01*
X121751387Y-140502425D01*
X121830444Y-140365493D01*
X121871367Y-140212766D01*
X121871367Y-140054652D01*
X121830444Y-139901925D01*
X121794936Y-139840423D01*
X121751391Y-139764999D01*
X121751385Y-139764991D01*
X121639584Y-139653190D01*
X121639576Y-139653184D01*
X121502657Y-139574135D01*
X121502653Y-139574133D01*
X121502651Y-139574132D01*
X121349924Y-139533209D01*
X121191810Y-139533209D01*
X121039083Y-139574132D01*
X121039076Y-139574135D01*
X120902157Y-139653184D01*
X120902149Y-139653190D01*
X120790348Y-139764991D01*
X120790342Y-139764999D01*
X120711293Y-139901918D01*
X120711290Y-139901925D01*
X120670367Y-140054652D01*
X108946374Y-140054652D01*
X108959577Y-140031784D01*
X109000500Y-139879057D01*
X109000500Y-139720943D01*
X108959577Y-139568216D01*
X108939366Y-139533209D01*
X108880524Y-139431290D01*
X108880518Y-139431282D01*
X108768717Y-139319481D01*
X108768709Y-139319475D01*
X108631790Y-139240426D01*
X108631786Y-139240424D01*
X108631784Y-139240423D01*
X108479057Y-139199500D01*
X108320943Y-139199500D01*
X108168216Y-139240423D01*
X108168209Y-139240426D01*
X108031290Y-139319475D01*
X108031282Y-139319481D01*
X107919481Y-139431282D01*
X107919475Y-139431290D01*
X107840426Y-139568209D01*
X107840423Y-139568216D01*
X107799500Y-139720943D01*
X102646111Y-139720943D01*
X102677553Y-139689501D01*
X102783996Y-139542994D01*
X102866211Y-139381639D01*
X102922171Y-139209409D01*
X102936765Y-139117259D01*
X102950500Y-139030551D01*
X102950500Y-138849448D01*
X102930146Y-138720943D01*
X106599500Y-138720943D01*
X106599500Y-138879057D01*
X106640092Y-139030546D01*
X106640423Y-139031783D01*
X106640426Y-139031790D01*
X106719475Y-139168709D01*
X106719479Y-139168714D01*
X106719480Y-139168716D01*
X106831284Y-139280520D01*
X106831286Y-139280521D01*
X106831290Y-139280524D01*
X106952492Y-139350499D01*
X106968216Y-139359577D01*
X107120943Y-139400500D01*
X107120945Y-139400500D01*
X107279055Y-139400500D01*
X107279057Y-139400500D01*
X107431784Y-139359577D01*
X107568716Y-139280520D01*
X107680520Y-139168716D01*
X107759577Y-139031784D01*
X107800500Y-138879057D01*
X107800500Y-138720943D01*
X107787103Y-138670943D01*
X110549500Y-138670943D01*
X110549500Y-138829057D01*
X110562898Y-138879057D01*
X110590423Y-138981783D01*
X110590426Y-138981790D01*
X110669475Y-139118709D01*
X110669479Y-139118714D01*
X110669480Y-139118716D01*
X110781284Y-139230520D01*
X110781286Y-139230521D01*
X110781290Y-139230524D01*
X110867887Y-139280520D01*
X110918216Y-139309577D01*
X111070943Y-139350500D01*
X111070945Y-139350500D01*
X111229055Y-139350500D01*
X111229057Y-139350500D01*
X111381784Y-139309577D01*
X111518716Y-139230520D01*
X111630520Y-139118716D01*
X111709577Y-138981784D01*
X111750500Y-138829057D01*
X111750500Y-138670943D01*
X111709577Y-138518216D01*
X111687816Y-138480524D01*
X111630524Y-138381290D01*
X111630518Y-138381282D01*
X111518717Y-138269481D01*
X111518709Y-138269475D01*
X111381790Y-138190426D01*
X111381786Y-138190424D01*
X111381784Y-138190423D01*
X111229057Y-138149500D01*
X111070943Y-138149500D01*
X110918216Y-138190423D01*
X110918209Y-138190426D01*
X110781290Y-138269475D01*
X110781282Y-138269481D01*
X110669481Y-138381282D01*
X110669475Y-138381290D01*
X110590426Y-138518209D01*
X110590423Y-138518216D01*
X110549500Y-138670943D01*
X107787103Y-138670943D01*
X107759577Y-138568216D01*
X107712313Y-138486351D01*
X107680524Y-138431290D01*
X107680518Y-138431282D01*
X107568717Y-138319481D01*
X107568709Y-138319475D01*
X107431790Y-138240426D01*
X107431786Y-138240424D01*
X107431784Y-138240423D01*
X107279057Y-138199500D01*
X107120943Y-138199500D01*
X106968216Y-138240423D01*
X106968209Y-138240426D01*
X106831290Y-138319475D01*
X106831282Y-138319481D01*
X106719481Y-138431282D01*
X106719475Y-138431290D01*
X106640426Y-138568209D01*
X106640424Y-138568214D01*
X106640423Y-138568216D01*
X106599500Y-138720943D01*
X102930146Y-138720943D01*
X102922171Y-138670591D01*
X102883806Y-138552514D01*
X102866212Y-138498363D01*
X102866211Y-138498360D01*
X102832032Y-138431282D01*
X102783996Y-138337006D01*
X102770396Y-138318287D01*
X102677558Y-138190505D01*
X102677554Y-138190500D01*
X102549501Y-138062447D01*
X102519691Y-138040789D01*
X102481627Y-138013134D01*
X102481626Y-138013132D01*
X102402997Y-137956006D01*
X102402996Y-137956005D01*
X102402994Y-137956004D01*
X102349945Y-137928974D01*
X102334184Y-137920943D01*
X105199500Y-137920943D01*
X105199500Y-138079057D01*
X105229363Y-138190505D01*
X105240423Y-138231783D01*
X105240426Y-138231790D01*
X105319475Y-138368709D01*
X105319479Y-138368714D01*
X105319480Y-138368716D01*
X105431284Y-138480520D01*
X105431286Y-138480521D01*
X105431290Y-138480524D01*
X105546101Y-138546809D01*
X105568216Y-138559577D01*
X105720943Y-138600500D01*
X105720945Y-138600500D01*
X105879055Y-138600500D01*
X105879057Y-138600500D01*
X106031784Y-138559577D01*
X106168716Y-138480520D01*
X106280520Y-138368716D01*
X106359577Y-138231784D01*
X106400500Y-138079057D01*
X106400500Y-137920943D01*
X113399500Y-137920943D01*
X113399500Y-138079057D01*
X113429363Y-138190505D01*
X113440423Y-138231783D01*
X113440426Y-138231790D01*
X113519475Y-138368709D01*
X113519479Y-138368714D01*
X113519480Y-138368716D01*
X113631284Y-138480520D01*
X113631286Y-138480521D01*
X113631290Y-138480524D01*
X113746101Y-138546809D01*
X113768216Y-138559577D01*
X113920943Y-138600500D01*
X113920945Y-138600500D01*
X114079055Y-138600500D01*
X114079057Y-138600500D01*
X114231784Y-138559577D01*
X114368716Y-138480520D01*
X114480520Y-138368716D01*
X114559577Y-138231784D01*
X114600500Y-138079057D01*
X114600500Y-137920943D01*
X114559577Y-137768216D01*
X114522059Y-137703232D01*
X114480524Y-137631290D01*
X114480518Y-137631282D01*
X114368717Y-137519481D01*
X114368709Y-137519475D01*
X114231790Y-137440426D01*
X114231787Y-137440424D01*
X114231784Y-137440423D01*
X114105518Y-137406590D01*
X114094519Y-137403643D01*
X114079057Y-137399500D01*
X113920943Y-137399500D01*
X113768216Y-137440423D01*
X113768209Y-137440426D01*
X113631290Y-137519475D01*
X113631282Y-137519481D01*
X113519481Y-137631282D01*
X113519475Y-137631290D01*
X113440426Y-137768209D01*
X113440423Y-137768216D01*
X113399500Y-137920943D01*
X106400500Y-137920943D01*
X106359577Y-137768216D01*
X106322059Y-137703232D01*
X106280524Y-137631290D01*
X106280518Y-137631282D01*
X106168717Y-137519481D01*
X106168709Y-137519475D01*
X106031790Y-137440426D01*
X106031786Y-137440424D01*
X106031784Y-137440423D01*
X105879057Y-137399500D01*
X105720943Y-137399500D01*
X105568216Y-137440423D01*
X105568209Y-137440426D01*
X105431290Y-137519475D01*
X105431282Y-137519481D01*
X105319481Y-137631282D01*
X105319475Y-137631290D01*
X105240426Y-137768209D01*
X105240423Y-137768216D01*
X105199500Y-137920943D01*
X102334184Y-137920943D01*
X102241639Y-137873788D01*
X102241636Y-137873787D01*
X102069410Y-137817829D01*
X101909321Y-137792473D01*
X101846186Y-137762544D01*
X101809255Y-137703232D01*
X101810253Y-137633370D01*
X101848863Y-137575137D01*
X101909321Y-137547527D01*
X101979425Y-137536422D01*
X102069409Y-137522171D01*
X102241639Y-137466211D01*
X102402994Y-137383996D01*
X102549501Y-137277553D01*
X102677553Y-137149501D01*
X102698300Y-137120945D01*
X102698301Y-137120943D01*
X107999500Y-137120943D01*
X107999500Y-137279057D01*
X108033673Y-137406590D01*
X108040423Y-137431783D01*
X108040426Y-137431790D01*
X108119475Y-137568709D01*
X108119479Y-137568714D01*
X108119480Y-137568716D01*
X108231284Y-137680520D01*
X108231286Y-137680521D01*
X108231290Y-137680524D01*
X108339013Y-137742717D01*
X108368216Y-137759577D01*
X108520943Y-137800500D01*
X108520945Y-137800500D01*
X108679055Y-137800500D01*
X108679057Y-137800500D01*
X108831784Y-137759577D01*
X108968716Y-137680520D01*
X109080520Y-137568716D01*
X109159577Y-137431784D01*
X109196243Y-137294943D01*
X117719367Y-137294943D01*
X117719367Y-137453057D01*
X117726334Y-137479056D01*
X117760290Y-137605783D01*
X117760293Y-137605790D01*
X117839342Y-137742709D01*
X117839346Y-137742714D01*
X117839347Y-137742716D01*
X117951151Y-137854520D01*
X117951153Y-137854521D01*
X117951157Y-137854524D01*
X118080110Y-137928974D01*
X118088083Y-137933577D01*
X118240810Y-137974500D01*
X118240812Y-137974500D01*
X118398922Y-137974500D01*
X118398924Y-137974500D01*
X118551651Y-137933577D01*
X118688583Y-137854520D01*
X118800387Y-137742716D01*
X118879444Y-137605784D01*
X118920367Y-137453057D01*
X118920367Y-137294943D01*
X118879444Y-137142216D01*
X118867162Y-137120943D01*
X118800391Y-137005290D01*
X118800385Y-137005282D01*
X118688584Y-136893481D01*
X118688576Y-136893475D01*
X118551657Y-136814426D01*
X118551653Y-136814424D01*
X118551651Y-136814423D01*
X118398924Y-136773500D01*
X118240810Y-136773500D01*
X118088083Y-136814423D01*
X118088076Y-136814426D01*
X117951157Y-136893475D01*
X117951149Y-136893481D01*
X117839348Y-137005282D01*
X117839342Y-137005290D01*
X117760293Y-137142209D01*
X117760290Y-137142216D01*
X117719367Y-137294943D01*
X109196243Y-137294943D01*
X109200500Y-137279057D01*
X109200500Y-137120943D01*
X109159577Y-136968216D01*
X109108101Y-136879056D01*
X109080524Y-136831290D01*
X109080518Y-136831282D01*
X108968717Y-136719481D01*
X108968709Y-136719475D01*
X108831790Y-136640426D01*
X108831786Y-136640424D01*
X108831784Y-136640423D01*
X108679057Y-136599500D01*
X108520943Y-136599500D01*
X108368216Y-136640423D01*
X108368209Y-136640426D01*
X108231290Y-136719475D01*
X108231282Y-136719481D01*
X108119481Y-136831282D01*
X108119475Y-136831290D01*
X108040426Y-136968209D01*
X108040423Y-136968216D01*
X107999500Y-137120943D01*
X102698301Y-137120943D01*
X102757161Y-137039931D01*
X102775644Y-137014490D01*
X102783996Y-137002994D01*
X102866211Y-136841639D01*
X102922171Y-136669409D01*
X102938198Y-136568216D01*
X102950500Y-136490551D01*
X102950500Y-136309448D01*
X102930889Y-136185633D01*
X102922171Y-136130591D01*
X102883806Y-136012514D01*
X102866212Y-135958363D01*
X102866208Y-135958354D01*
X102860174Y-135946511D01*
X102860173Y-135946510D01*
X102835630Y-135898342D01*
X118872322Y-135898342D01*
X118872322Y-136056456D01*
X118910651Y-136199500D01*
X118913245Y-136209182D01*
X118913248Y-136209189D01*
X118992297Y-136346108D01*
X118992301Y-136346113D01*
X118992302Y-136346115D01*
X119104106Y-136457919D01*
X119104108Y-136457920D01*
X119104112Y-136457923D01*
X119241031Y-136536972D01*
X119241038Y-136536976D01*
X119393765Y-136577899D01*
X119393767Y-136577899D01*
X119551876Y-136577899D01*
X119551879Y-136577899D01*
X119652494Y-136550939D01*
X119722340Y-136552602D01*
X119780202Y-136591764D01*
X119807707Y-136655992D01*
X119808576Y-136672108D01*
X119808400Y-136687726D01*
X119799500Y-136720943D01*
X119799500Y-136879057D01*
X119805977Y-136903232D01*
X119805786Y-136920264D01*
X119800348Y-136938040D01*
X119799906Y-136956628D01*
X119790340Y-136970761D01*
X119785349Y-136987078D01*
X119771163Y-136999093D01*
X119760742Y-137014490D01*
X119743794Y-137026257D01*
X119651154Y-137079742D01*
X119651149Y-137079746D01*
X119539348Y-137191547D01*
X119539342Y-137191555D01*
X119460293Y-137328474D01*
X119460290Y-137328481D01*
X119419367Y-137481208D01*
X119419367Y-137639322D01*
X119447072Y-137742716D01*
X119460290Y-137792048D01*
X119460293Y-137792055D01*
X119539342Y-137928974D01*
X119539346Y-137928979D01*
X119539347Y-137928981D01*
X119651151Y-138040785D01*
X119651153Y-138040786D01*
X119651157Y-138040789D01*
X119788076Y-138119838D01*
X119788083Y-138119842D01*
X119940810Y-138160765D01*
X119940812Y-138160765D01*
X120098922Y-138160765D01*
X120098924Y-138160765D01*
X120251651Y-138119842D01*
X120388583Y-138040785D01*
X120500387Y-137928981D01*
X120579444Y-137792049D01*
X120620367Y-137639322D01*
X120620367Y-137481208D01*
X120618299Y-137473490D01*
X120618798Y-137452460D01*
X120614438Y-137431879D01*
X120619611Y-137418233D01*
X120619958Y-137403643D01*
X120631749Y-137386219D01*
X120639208Y-137366548D01*
X120653749Y-137353711D01*
X120659118Y-137345779D01*
X120664299Y-137341727D01*
X120669962Y-137337534D01*
X120698699Y-137320943D01*
X123599500Y-137320943D01*
X123599500Y-137479057D01*
X123640289Y-137631282D01*
X123640423Y-137631783D01*
X123640426Y-137631790D01*
X123719475Y-137768709D01*
X123719479Y-137768714D01*
X123719480Y-137768716D01*
X123831284Y-137880520D01*
X123831286Y-137880521D01*
X123831290Y-137880524D01*
X123923182Y-137933577D01*
X123968216Y-137959577D01*
X124120943Y-138000500D01*
X124120945Y-138000500D01*
X124279055Y-138000500D01*
X124279057Y-138000500D01*
X124431784Y-137959577D01*
X124568716Y-137880520D01*
X124680520Y-137768716D01*
X124759577Y-137631784D01*
X124800500Y-137479057D01*
X124800500Y-137320943D01*
X124759577Y-137168216D01*
X124744562Y-137142209D01*
X124680524Y-137031290D01*
X124680518Y-137031282D01*
X124568717Y-136919481D01*
X124568709Y-136919475D01*
X124431790Y-136840426D01*
X124431786Y-136840424D01*
X124431784Y-136840423D01*
X124279057Y-136799500D01*
X124120943Y-136799500D01*
X123968216Y-136840423D01*
X123968209Y-136840426D01*
X123831290Y-136919475D01*
X123831282Y-136919481D01*
X123719481Y-137031282D01*
X123719475Y-137031290D01*
X123640426Y-137168209D01*
X123640423Y-137168216D01*
X123599500Y-137320943D01*
X120698699Y-137320943D01*
X120768716Y-137280520D01*
X120880520Y-137168716D01*
X120959577Y-137031784D01*
X121000500Y-136879057D01*
X121000500Y-136720943D01*
X120959577Y-136568216D01*
X120941540Y-136536975D01*
X120880524Y-136431290D01*
X120880518Y-136431282D01*
X120768717Y-136319481D01*
X120768709Y-136319475D01*
X120631790Y-136240426D01*
X120631786Y-136240424D01*
X120631784Y-136240423D01*
X120479057Y-136199500D01*
X120320943Y-136199500D01*
X120220330Y-136226459D01*
X120150480Y-136224796D01*
X120092618Y-136185633D01*
X120065114Y-136121405D01*
X120068463Y-136074589D01*
X120073322Y-136056456D01*
X120073322Y-135898342D01*
X120032399Y-135745615D01*
X119977485Y-135650500D01*
X119953346Y-135608689D01*
X119953340Y-135608681D01*
X119841539Y-135496880D01*
X119841538Y-135496879D01*
X119704606Y-135417822D01*
X119551879Y-135376899D01*
X119393765Y-135376899D01*
X119241038Y-135417822D01*
X119241031Y-135417825D01*
X119104112Y-135496874D01*
X119104104Y-135496880D01*
X118992303Y-135608681D01*
X118992297Y-135608689D01*
X118913248Y-135745608D01*
X118913245Y-135745615D01*
X118872322Y-135898342D01*
X102835630Y-135898342D01*
X102826548Y-135880518D01*
X102783996Y-135797006D01*
X102763437Y-135768709D01*
X102677558Y-135650505D01*
X102677554Y-135650500D01*
X102549499Y-135522445D01*
X102549494Y-135522441D01*
X102402997Y-135416006D01*
X102402996Y-135416005D01*
X102402994Y-135416004D01*
X102326247Y-135376899D01*
X102241639Y-135333788D01*
X102241636Y-135333787D01*
X102202105Y-135320943D01*
X123399500Y-135320943D01*
X123399500Y-135479057D01*
X123411127Y-135522447D01*
X123440423Y-135631783D01*
X123440426Y-135631790D01*
X123519475Y-135768709D01*
X123519479Y-135768714D01*
X123519480Y-135768716D01*
X123631284Y-135880520D01*
X123631286Y-135880521D01*
X123631290Y-135880524D01*
X123745583Y-135946510D01*
X123768216Y-135959577D01*
X123920943Y-136000500D01*
X123920945Y-136000500D01*
X124079055Y-136000500D01*
X124079057Y-136000500D01*
X124231784Y-135959577D01*
X124368716Y-135880520D01*
X124480520Y-135768716D01*
X124559577Y-135631784D01*
X124600500Y-135479057D01*
X124600500Y-135320943D01*
X124559577Y-135168216D01*
X124516365Y-135093370D01*
X124480524Y-135031290D01*
X124480518Y-135031282D01*
X124368717Y-134919481D01*
X124368709Y-134919475D01*
X124231790Y-134840426D01*
X124231786Y-134840424D01*
X124231784Y-134840423D01*
X124079057Y-134799500D01*
X123920943Y-134799500D01*
X123768216Y-134840423D01*
X123768209Y-134840426D01*
X123631290Y-134919475D01*
X123631282Y-134919481D01*
X123519481Y-135031282D01*
X123519475Y-135031290D01*
X123440426Y-135168209D01*
X123440423Y-135168216D01*
X123399500Y-135320943D01*
X102202105Y-135320943D01*
X102069410Y-135277829D01*
X101909321Y-135252473D01*
X101846186Y-135222544D01*
X101809255Y-135163232D01*
X101810253Y-135093370D01*
X101848863Y-135035137D01*
X101909321Y-135007527D01*
X101979425Y-134996422D01*
X102069409Y-134982171D01*
X102241639Y-134926211D01*
X102402994Y-134843996D01*
X102549501Y-134737553D01*
X102677553Y-134609501D01*
X102783996Y-134462994D01*
X102866211Y-134301639D01*
X102922171Y-134129409D01*
X102936765Y-134037259D01*
X102950500Y-133950551D01*
X102950500Y-133920943D01*
X117999500Y-133920943D01*
X117999500Y-134079056D01*
X118040423Y-134231783D01*
X118040426Y-134231790D01*
X118119475Y-134368709D01*
X118119479Y-134368714D01*
X118119480Y-134368716D01*
X118231284Y-134480520D01*
X118231286Y-134480521D01*
X118231290Y-134480524D01*
X118368209Y-134559573D01*
X118368216Y-134559577D01*
X118520943Y-134600500D01*
X118520945Y-134600500D01*
X118679055Y-134600500D01*
X118679057Y-134600500D01*
X118831784Y-134559577D01*
X118968716Y-134480520D01*
X119080520Y-134368716D01*
X119159577Y-134231784D01*
X119200500Y-134079057D01*
X119200500Y-133920943D01*
X119159577Y-133768216D01*
X119159573Y-133768209D01*
X119080524Y-133631290D01*
X119080518Y-133631282D01*
X119071282Y-133622046D01*
X119037797Y-133560723D01*
X119042781Y-133491031D01*
X119084653Y-133435098D01*
X119126867Y-133414591D01*
X119187137Y-133398442D01*
X119324069Y-133319385D01*
X119435873Y-133207581D01*
X119514930Y-133070649D01*
X119555853Y-132917922D01*
X119555853Y-132759808D01*
X119514930Y-132607081D01*
X119483920Y-132553370D01*
X119435877Y-132470155D01*
X119435871Y-132470147D01*
X119324070Y-132358346D01*
X119324062Y-132358340D01*
X119187143Y-132279291D01*
X119187139Y-132279289D01*
X119187137Y-132279288D01*
X119034410Y-132238365D01*
X118876296Y-132238365D01*
X118723569Y-132279288D01*
X118723562Y-132279291D01*
X118586643Y-132358340D01*
X118586635Y-132358346D01*
X118474834Y-132470147D01*
X118474828Y-132470155D01*
X118395779Y-132607074D01*
X118395776Y-132607081D01*
X118354853Y-132759808D01*
X118354853Y-132917922D01*
X118388314Y-133042798D01*
X118395776Y-133070648D01*
X118395779Y-133070655D01*
X118474828Y-133207574D01*
X118474834Y-133207582D01*
X118484070Y-133216818D01*
X118517555Y-133278141D01*
X118512571Y-133347833D01*
X118470699Y-133403766D01*
X118428484Y-133424273D01*
X118368220Y-133440421D01*
X118368209Y-133440426D01*
X118231290Y-133519475D01*
X118231282Y-133519481D01*
X118119481Y-133631282D01*
X118119475Y-133631290D01*
X118040426Y-133768209D01*
X118040423Y-133768216D01*
X117999500Y-133920943D01*
X102950500Y-133920943D01*
X102950500Y-133769448D01*
X102928616Y-133631284D01*
X102922171Y-133590591D01*
X102883806Y-133472514D01*
X102866212Y-133418363D01*
X102866211Y-133418360D01*
X102815782Y-133319389D01*
X102783996Y-133257006D01*
X102748082Y-133207574D01*
X102677558Y-133110505D01*
X102677554Y-133110500D01*
X102549499Y-132982445D01*
X102549494Y-132982441D01*
X102402997Y-132876006D01*
X102402996Y-132876005D01*
X102402994Y-132876004D01*
X102351300Y-132849664D01*
X102241639Y-132793788D01*
X102241636Y-132793787D01*
X102069410Y-132737829D01*
X101909321Y-132712473D01*
X101846186Y-132682544D01*
X101809255Y-132623232D01*
X101810253Y-132553370D01*
X101848863Y-132495137D01*
X101909321Y-132467527D01*
X101979425Y-132456422D01*
X102069409Y-132442171D01*
X102241639Y-132386211D01*
X102402994Y-132303996D01*
X102549501Y-132197553D01*
X102626111Y-132120943D01*
X109799500Y-132120943D01*
X109799500Y-132279057D01*
X109820746Y-132358346D01*
X109840423Y-132431783D01*
X109840426Y-132431790D01*
X109919475Y-132568709D01*
X109919479Y-132568714D01*
X109919480Y-132568716D01*
X110031284Y-132680520D01*
X110031286Y-132680521D01*
X110031290Y-132680524D01*
X110091026Y-132715012D01*
X110168216Y-132759577D01*
X110320943Y-132800500D01*
X110320945Y-132800500D01*
X110479055Y-132800500D01*
X110479057Y-132800500D01*
X110631784Y-132759577D01*
X110768716Y-132680520D01*
X110880520Y-132568716D01*
X110959577Y-132431784D01*
X110966977Y-132404165D01*
X112064752Y-132404165D01*
X112064752Y-132562279D01*
X112104997Y-132712473D01*
X112105675Y-132715005D01*
X112105678Y-132715012D01*
X112184727Y-132851931D01*
X112184731Y-132851936D01*
X112184732Y-132851938D01*
X112296536Y-132963742D01*
X112296538Y-132963743D01*
X112296542Y-132963746D01*
X112360203Y-133000500D01*
X112433468Y-133042799D01*
X112586195Y-133083722D01*
X112586197Y-133083722D01*
X112744307Y-133083722D01*
X112744309Y-133083722D01*
X112897036Y-133042799D01*
X113033968Y-132963742D01*
X113145772Y-132851938D01*
X113176950Y-132797934D01*
X113227516Y-132749720D01*
X113296122Y-132736496D01*
X113360987Y-132762463D01*
X113372018Y-132772254D01*
X113480284Y-132880520D01*
X113480286Y-132880521D01*
X113480290Y-132880524D01*
X113617209Y-132959573D01*
X113617216Y-132959577D01*
X113769943Y-133000500D01*
X113769945Y-133000500D01*
X113928055Y-133000500D01*
X113928057Y-133000500D01*
X114080784Y-132959577D01*
X114217716Y-132880520D01*
X114329520Y-132768716D01*
X114408577Y-132631784D01*
X114449500Y-132479057D01*
X114449500Y-132320943D01*
X114408577Y-132168216D01*
X114388535Y-132133502D01*
X114329524Y-132031290D01*
X114329518Y-132031282D01*
X114217715Y-131919479D01*
X114195493Y-131906649D01*
X114172270Y-131893242D01*
X114124055Y-131842676D01*
X114110831Y-131774069D01*
X114136799Y-131709204D01*
X114163034Y-131686472D01*
X114162265Y-131685470D01*
X114168709Y-131680523D01*
X114168716Y-131680520D01*
X114280520Y-131568716D01*
X114359577Y-131431784D01*
X114400500Y-131279057D01*
X114400500Y-131120943D01*
X114359577Y-130968216D01*
X114359573Y-130968209D01*
X114280524Y-130831290D01*
X114280518Y-130831282D01*
X114168717Y-130719481D01*
X114168709Y-130719475D01*
X114031787Y-130640424D01*
X114031784Y-130640423D01*
X113879057Y-130599500D01*
X113720943Y-130599500D01*
X113568216Y-130640423D01*
X113568209Y-130640426D01*
X113431290Y-130719475D01*
X113431282Y-130719481D01*
X113319481Y-130831282D01*
X113319475Y-130831290D01*
X113240426Y-130968209D01*
X113240423Y-130968216D01*
X113199500Y-131120943D01*
X113199500Y-131279057D01*
X113234733Y-131410546D01*
X113240423Y-131431783D01*
X113240426Y-131431790D01*
X113319475Y-131568709D01*
X113319479Y-131568714D01*
X113319480Y-131568716D01*
X113431284Y-131680520D01*
X113431285Y-131680521D01*
X113431287Y-131680522D01*
X113476727Y-131706756D01*
X113524944Y-131757322D01*
X113538168Y-131825929D01*
X113512201Y-131890794D01*
X113485968Y-131913530D01*
X113486735Y-131914530D01*
X113480282Y-131919481D01*
X113368479Y-132031284D01*
X113337301Y-132085287D01*
X113286733Y-132133502D01*
X113218126Y-132146724D01*
X113153262Y-132120756D01*
X113142233Y-132110967D01*
X113033969Y-132002703D01*
X113033961Y-132002697D01*
X112897042Y-131923648D01*
X112897038Y-131923646D01*
X112897036Y-131923645D01*
X112744309Y-131882722D01*
X112586195Y-131882722D01*
X112433468Y-131923645D01*
X112433461Y-131923648D01*
X112296542Y-132002697D01*
X112296534Y-132002703D01*
X112184733Y-132114504D01*
X112184727Y-132114512D01*
X112105678Y-132251431D01*
X112105675Y-132251438D01*
X112064752Y-132404165D01*
X110966977Y-132404165D01*
X111000500Y-132279057D01*
X111000500Y-132120943D01*
X110959577Y-131968216D01*
X110933470Y-131922997D01*
X110880524Y-131831290D01*
X110880518Y-131831282D01*
X110768717Y-131719481D01*
X110768709Y-131719475D01*
X110631790Y-131640426D01*
X110631786Y-131640424D01*
X110631784Y-131640423D01*
X110479057Y-131599500D01*
X110320943Y-131599500D01*
X110168216Y-131640423D01*
X110168209Y-131640426D01*
X110031290Y-131719475D01*
X110031282Y-131719481D01*
X109919481Y-131831282D01*
X109919475Y-131831290D01*
X109840426Y-131968209D01*
X109840423Y-131968216D01*
X109799500Y-132120943D01*
X102626111Y-132120943D01*
X102677553Y-132069501D01*
X102687504Y-132055804D01*
X102699038Y-132039930D01*
X102750603Y-131968956D01*
X102783996Y-131922994D01*
X102866211Y-131761639D01*
X102922171Y-131589409D01*
X102936765Y-131497259D01*
X102950500Y-131410551D01*
X102950500Y-131229448D01*
X102929367Y-131096026D01*
X102922171Y-131050591D01*
X102882617Y-130928854D01*
X102866212Y-130878363D01*
X102866211Y-130878360D01*
X102821672Y-130790949D01*
X102783996Y-130717006D01*
X102728358Y-130640426D01*
X102677558Y-130570505D01*
X102677554Y-130570500D01*
X102549499Y-130442445D01*
X102549494Y-130442441D01*
X102402997Y-130336006D01*
X102402996Y-130336005D01*
X102402994Y-130336004D01*
X102351300Y-130309664D01*
X102241639Y-130253788D01*
X102241636Y-130253787D01*
X102069410Y-130197829D01*
X101909321Y-130172473D01*
X101846186Y-130142544D01*
X101809255Y-130083232D01*
X101810253Y-130013370D01*
X101848863Y-129955137D01*
X101909321Y-129927527D01*
X101979425Y-129916422D01*
X102069409Y-129902171D01*
X102241639Y-129846211D01*
X102402994Y-129763996D01*
X102549501Y-129657553D01*
X102677553Y-129529501D01*
X102783996Y-129382994D01*
X102866211Y-129221639D01*
X102877606Y-129186568D01*
X102898929Y-129120943D01*
X108199500Y-129120943D01*
X108199500Y-129279057D01*
X108223388Y-129368206D01*
X108240423Y-129431783D01*
X108240426Y-129431790D01*
X108319475Y-129568709D01*
X108319479Y-129568714D01*
X108319480Y-129568716D01*
X108431284Y-129680520D01*
X108431286Y-129680521D01*
X108431290Y-129680524D01*
X108568209Y-129759573D01*
X108568216Y-129759577D01*
X108645278Y-129780225D01*
X108704937Y-129816590D01*
X108735466Y-129879437D01*
X108727171Y-129948813D01*
X108682686Y-130002691D01*
X108645279Y-130019774D01*
X108612615Y-130028526D01*
X108568214Y-130040423D01*
X108568209Y-130040426D01*
X108431290Y-130119475D01*
X108431282Y-130119481D01*
X108319481Y-130231282D01*
X108319475Y-130231290D01*
X108240426Y-130368209D01*
X108240423Y-130368216D01*
X108199500Y-130520943D01*
X108199500Y-130679057D01*
X108240289Y-130831282D01*
X108240423Y-130831783D01*
X108240426Y-130831790D01*
X108319475Y-130968709D01*
X108319479Y-130968714D01*
X108319480Y-130968716D01*
X108431284Y-131080520D01*
X108431286Y-131080521D01*
X108431290Y-131080524D01*
X108562294Y-131156158D01*
X108568216Y-131159577D01*
X108720943Y-131200500D01*
X108720945Y-131200500D01*
X108879055Y-131200500D01*
X108879057Y-131200500D01*
X109031784Y-131159577D01*
X109168716Y-131080520D01*
X109280520Y-130968716D01*
X109359577Y-130831784D01*
X109400500Y-130679057D01*
X109400500Y-130520943D01*
X109749500Y-130520943D01*
X109749500Y-130679057D01*
X109790289Y-130831282D01*
X109790423Y-130831783D01*
X109790426Y-130831790D01*
X109869475Y-130968709D01*
X109869479Y-130968714D01*
X109869480Y-130968716D01*
X109981284Y-131080520D01*
X109981286Y-131080521D01*
X109981290Y-131080524D01*
X110112294Y-131156158D01*
X110118216Y-131159577D01*
X110270943Y-131200500D01*
X110270945Y-131200500D01*
X110429055Y-131200500D01*
X110429057Y-131200500D01*
X110581784Y-131159577D01*
X110718716Y-131080520D01*
X110830520Y-130968716D01*
X110909577Y-130831784D01*
X110950500Y-130679057D01*
X110950500Y-130536451D01*
X116477624Y-130536451D01*
X116477624Y-130694565D01*
X116514394Y-130831790D01*
X116518547Y-130847291D01*
X116518550Y-130847298D01*
X116597599Y-130984217D01*
X116597603Y-130984222D01*
X116597604Y-130984224D01*
X116709408Y-131096028D01*
X116709410Y-131096029D01*
X116709414Y-131096032D01*
X116813557Y-131156158D01*
X116846340Y-131175085D01*
X116999067Y-131216008D01*
X116999069Y-131216008D01*
X117157179Y-131216008D01*
X117157181Y-131216008D01*
X117309908Y-131175085D01*
X117314154Y-131172633D01*
X117382050Y-131156158D01*
X117448078Y-131179006D01*
X117491272Y-131233925D01*
X117497918Y-131303478D01*
X117495933Y-131312107D01*
X117491053Y-131330320D01*
X117491053Y-131330322D01*
X117491053Y-131488436D01*
X117521081Y-131600500D01*
X117531976Y-131641162D01*
X117531979Y-131641169D01*
X117611028Y-131778088D01*
X117611032Y-131778093D01*
X117611033Y-131778095D01*
X117722837Y-131889899D01*
X117722839Y-131889900D01*
X117722843Y-131889903D01*
X117858475Y-131968209D01*
X117859769Y-131968956D01*
X118012496Y-132009879D01*
X118012498Y-132009879D01*
X118170608Y-132009879D01*
X118170610Y-132009879D01*
X118323337Y-131968956D01*
X118460269Y-131889899D01*
X118572073Y-131778095D01*
X118651130Y-131641163D01*
X118692053Y-131488436D01*
X118692053Y-131330322D01*
X118651130Y-131177595D01*
X118648266Y-131172634D01*
X118572077Y-131040669D01*
X118572071Y-131040661D01*
X118460270Y-130928860D01*
X118460262Y-130928854D01*
X118446560Y-130920943D01*
X121199500Y-130920943D01*
X121199500Y-131079057D01*
X121232041Y-131200500D01*
X121240423Y-131231783D01*
X121240426Y-131231790D01*
X121319475Y-131368709D01*
X121319479Y-131368714D01*
X121319480Y-131368716D01*
X121431284Y-131480520D01*
X121431286Y-131480521D01*
X121431290Y-131480524D01*
X121568209Y-131559573D01*
X121568216Y-131559577D01*
X121720943Y-131600500D01*
X121720945Y-131600500D01*
X121879055Y-131600500D01*
X121879057Y-131600500D01*
X122031784Y-131559577D01*
X122168716Y-131480520D01*
X122280520Y-131368716D01*
X122359577Y-131231784D01*
X122400500Y-131079057D01*
X122400500Y-130920943D01*
X122359577Y-130768216D01*
X122330009Y-130717002D01*
X122280524Y-130631290D01*
X122280518Y-130631282D01*
X122168717Y-130519481D01*
X122168709Y-130519475D01*
X122031790Y-130440426D01*
X122031786Y-130440424D01*
X122031784Y-130440423D01*
X121879057Y-130399500D01*
X121720943Y-130399500D01*
X121568216Y-130440423D01*
X121568209Y-130440426D01*
X121431290Y-130519475D01*
X121431282Y-130519481D01*
X121319481Y-130631282D01*
X121319475Y-130631290D01*
X121240426Y-130768209D01*
X121240423Y-130768216D01*
X121199500Y-130920943D01*
X118446560Y-130920943D01*
X118323343Y-130849805D01*
X118323339Y-130849803D01*
X118323337Y-130849802D01*
X118170610Y-130808879D01*
X118012496Y-130808879D01*
X117859769Y-130849802D01*
X117859764Y-130849804D01*
X117855514Y-130852258D01*
X117787613Y-130868727D01*
X117721587Y-130845872D01*
X117678399Y-130790949D01*
X117671761Y-130721395D01*
X117673736Y-130712804D01*
X117678624Y-130694565D01*
X117678624Y-130536451D01*
X117637701Y-130383724D01*
X117628748Y-130368216D01*
X117558648Y-130246798D01*
X117558642Y-130246790D01*
X117446841Y-130134989D01*
X117446833Y-130134983D01*
X117309914Y-130055934D01*
X117309910Y-130055932D01*
X117309908Y-130055931D01*
X117157181Y-130015008D01*
X116999067Y-130015008D01*
X116846340Y-130055931D01*
X116846333Y-130055934D01*
X116709414Y-130134983D01*
X116709406Y-130134989D01*
X116597605Y-130246790D01*
X116597599Y-130246798D01*
X116518550Y-130383717D01*
X116518547Y-130383724D01*
X116477624Y-130536451D01*
X110950500Y-130536451D01*
X110950500Y-130520943D01*
X110909577Y-130368216D01*
X110890980Y-130336004D01*
X110830524Y-130231290D01*
X110830518Y-130231282D01*
X110718717Y-130119481D01*
X110718709Y-130119475D01*
X110581790Y-130040426D01*
X110581786Y-130040424D01*
X110581784Y-130040423D01*
X110429057Y-129999500D01*
X110270943Y-129999500D01*
X110118216Y-130040423D01*
X110118209Y-130040426D01*
X109981290Y-130119475D01*
X109981282Y-130119481D01*
X109869481Y-130231282D01*
X109869475Y-130231290D01*
X109790426Y-130368209D01*
X109790423Y-130368216D01*
X109749500Y-130520943D01*
X109400500Y-130520943D01*
X109359577Y-130368216D01*
X109340980Y-130336004D01*
X109280524Y-130231290D01*
X109280518Y-130231282D01*
X109168717Y-130119481D01*
X109168709Y-130119475D01*
X109031790Y-130040426D01*
X109031786Y-130040424D01*
X109031784Y-130040423D01*
X108954721Y-130019774D01*
X108895062Y-129983410D01*
X108864533Y-129920563D01*
X108872828Y-129851188D01*
X108917313Y-129797310D01*
X108954720Y-129780225D01*
X109031784Y-129759577D01*
X109168716Y-129680520D01*
X109280520Y-129568716D01*
X109308102Y-129520943D01*
X111199500Y-129520943D01*
X111199500Y-129679057D01*
X111232041Y-129800500D01*
X111240423Y-129831783D01*
X111240426Y-129831790D01*
X111319475Y-129968709D01*
X111319479Y-129968714D01*
X111319480Y-129968716D01*
X111431284Y-130080520D01*
X111431286Y-130080521D01*
X111431290Y-130080524D01*
X111542730Y-130144863D01*
X111568216Y-130159577D01*
X111720943Y-130200500D01*
X111720945Y-130200500D01*
X111879055Y-130200500D01*
X111879057Y-130200500D01*
X112031784Y-130159577D01*
X112168716Y-130080520D01*
X112280520Y-129968716D01*
X112359577Y-129831784D01*
X112400500Y-129679057D01*
X112400500Y-129520943D01*
X112359577Y-129368216D01*
X112359573Y-129368209D01*
X112359572Y-129368206D01*
X112335299Y-129326163D01*
X119661678Y-129326163D01*
X119661678Y-129484277D01*
X119684304Y-129568716D01*
X119702601Y-129637003D01*
X119702604Y-129637010D01*
X119781653Y-129773929D01*
X119781657Y-129773934D01*
X119781658Y-129773936D01*
X119893462Y-129885740D01*
X119893464Y-129885741D01*
X119893468Y-129885744D01*
X120013662Y-129955137D01*
X120030394Y-129964797D01*
X120183121Y-130005720D01*
X120183123Y-130005720D01*
X120341233Y-130005720D01*
X120341235Y-130005720D01*
X120493962Y-129964797D01*
X120630894Y-129885740D01*
X120742698Y-129773936D01*
X120821755Y-129637004D01*
X120862678Y-129484277D01*
X120862678Y-129326163D01*
X120821755Y-129173436D01*
X120791450Y-129120945D01*
X120742702Y-129036510D01*
X120742696Y-129036502D01*
X120630895Y-128924701D01*
X120630887Y-128924695D01*
X120493968Y-128845646D01*
X120493964Y-128845644D01*
X120493962Y-128845643D01*
X120341235Y-128804720D01*
X120183121Y-128804720D01*
X120030394Y-128845643D01*
X120030387Y-128845646D01*
X119893468Y-128924695D01*
X119893460Y-128924701D01*
X119781659Y-129036502D01*
X119781653Y-129036510D01*
X119702604Y-129173429D01*
X119702601Y-129173436D01*
X119661678Y-129326163D01*
X112335299Y-129326163D01*
X112280524Y-129231290D01*
X112280518Y-129231282D01*
X112168717Y-129119481D01*
X112168709Y-129119475D01*
X112031790Y-129040426D01*
X112031786Y-129040424D01*
X112031784Y-129040423D01*
X111879057Y-128999500D01*
X111720943Y-128999500D01*
X111568216Y-129040423D01*
X111568209Y-129040426D01*
X111431290Y-129119475D01*
X111431282Y-129119481D01*
X111319481Y-129231282D01*
X111319475Y-129231290D01*
X111240426Y-129368209D01*
X111240423Y-129368216D01*
X111199500Y-129520943D01*
X109308102Y-129520943D01*
X109359577Y-129431784D01*
X109400500Y-129279057D01*
X109400500Y-129120943D01*
X109359577Y-128968216D01*
X109334453Y-128924700D01*
X109280524Y-128831290D01*
X109280518Y-128831282D01*
X109168717Y-128719481D01*
X109168709Y-128719475D01*
X109031790Y-128640426D01*
X109031786Y-128640424D01*
X109031784Y-128640423D01*
X108879057Y-128599500D01*
X108720943Y-128599500D01*
X108568216Y-128640423D01*
X108568209Y-128640426D01*
X108431290Y-128719475D01*
X108431282Y-128719481D01*
X108319481Y-128831282D01*
X108319475Y-128831290D01*
X108240426Y-128968209D01*
X108240423Y-128968216D01*
X108199500Y-129120943D01*
X102898929Y-129120943D01*
X102914020Y-129074498D01*
X102919766Y-129056810D01*
X102922171Y-129049409D01*
X102941924Y-128924695D01*
X102950500Y-128870551D01*
X102950500Y-128689448D01*
X102934019Y-128585397D01*
X102922171Y-128510591D01*
X102883806Y-128392514D01*
X102866212Y-128338363D01*
X102866211Y-128338360D01*
X102836331Y-128279718D01*
X102783996Y-128177006D01*
X102713898Y-128080524D01*
X102677558Y-128030505D01*
X102677554Y-128030500D01*
X102549499Y-127902445D01*
X102549494Y-127902441D01*
X102402997Y-127796006D01*
X102402996Y-127796005D01*
X102402994Y-127796004D01*
X102351300Y-127769664D01*
X102241639Y-127713788D01*
X102241636Y-127713787D01*
X102069410Y-127657829D01*
X101909321Y-127632473D01*
X101846186Y-127602544D01*
X101809255Y-127543232D01*
X101810253Y-127473370D01*
X101848863Y-127415137D01*
X101909321Y-127387527D01*
X101979425Y-127376422D01*
X102069409Y-127362171D01*
X102241639Y-127306211D01*
X102402994Y-127223996D01*
X102549501Y-127117553D01*
X102677553Y-126989501D01*
X102783996Y-126842994D01*
X102866211Y-126681639D01*
X102922171Y-126509409D01*
X102936765Y-126417259D01*
X102950500Y-126330551D01*
X102950500Y-126296943D01*
X107799500Y-126296943D01*
X107799500Y-126455057D01*
X107838472Y-126600500D01*
X107840423Y-126607783D01*
X107840426Y-126607790D01*
X107919475Y-126744709D01*
X107919479Y-126744714D01*
X107919480Y-126744716D01*
X108031284Y-126856520D01*
X108031286Y-126856521D01*
X108031290Y-126856524D01*
X108110652Y-126902343D01*
X108168216Y-126935577D01*
X108313279Y-126974446D01*
X108372935Y-127010808D01*
X108403465Y-127073655D01*
X108395171Y-127143031D01*
X108368864Y-127181899D01*
X108319481Y-127231282D01*
X108319475Y-127231290D01*
X108240426Y-127368209D01*
X108240423Y-127368216D01*
X108199500Y-127520943D01*
X108199500Y-127679057D01*
X108230837Y-127796006D01*
X108240423Y-127831783D01*
X108240426Y-127831790D01*
X108319475Y-127968709D01*
X108319479Y-127968714D01*
X108319480Y-127968716D01*
X108431284Y-128080520D01*
X108431286Y-128080521D01*
X108431290Y-128080524D01*
X108568209Y-128159573D01*
X108568216Y-128159577D01*
X108720943Y-128200500D01*
X108720945Y-128200500D01*
X108879055Y-128200500D01*
X108879057Y-128200500D01*
X109031784Y-128159577D01*
X109168716Y-128080520D01*
X109280520Y-127968716D01*
X109359577Y-127831784D01*
X109400500Y-127679057D01*
X109400500Y-127520943D01*
X109359577Y-127368216D01*
X109356086Y-127362170D01*
X109280524Y-127231290D01*
X109280518Y-127231282D01*
X109168717Y-127119481D01*
X109168709Y-127119475D01*
X109031790Y-127040426D01*
X109031786Y-127040424D01*
X109031784Y-127040423D01*
X108886722Y-127001553D01*
X108827063Y-126965190D01*
X108796534Y-126902343D01*
X108804829Y-126832968D01*
X108831134Y-126794101D01*
X108880520Y-126744716D01*
X108959577Y-126607784D01*
X109000500Y-126455057D01*
X109000500Y-126296943D01*
X108959577Y-126144216D01*
X108959573Y-126144209D01*
X108880524Y-126007290D01*
X108880518Y-126007282D01*
X108768717Y-125895481D01*
X108768709Y-125895475D01*
X108631790Y-125816426D01*
X108631786Y-125816424D01*
X108631784Y-125816423D01*
X108479057Y-125775500D01*
X108320943Y-125775500D01*
X108168216Y-125816423D01*
X108168209Y-125816426D01*
X108031290Y-125895475D01*
X108031282Y-125895481D01*
X107919481Y-126007282D01*
X107919475Y-126007290D01*
X107840426Y-126144209D01*
X107840423Y-126144216D01*
X107799500Y-126296943D01*
X102950500Y-126296943D01*
X102950500Y-126149448D01*
X102933231Y-126040423D01*
X102922171Y-125970591D01*
X102883806Y-125852514D01*
X102866212Y-125798363D01*
X102866211Y-125798360D01*
X102836331Y-125739718D01*
X102783996Y-125637006D01*
X102689823Y-125507387D01*
X102677558Y-125490505D01*
X102677554Y-125490500D01*
X102549499Y-125362445D01*
X102549494Y-125362441D01*
X102402997Y-125256006D01*
X102402996Y-125256005D01*
X102402994Y-125256004D01*
X102351300Y-125229664D01*
X102241639Y-125173788D01*
X102241636Y-125173787D01*
X102069410Y-125117829D01*
X101909321Y-125092473D01*
X101846186Y-125062544D01*
X101809255Y-125003232D01*
X101810253Y-124933370D01*
X101848863Y-124875137D01*
X101909321Y-124847527D01*
X101979425Y-124836422D01*
X102069409Y-124822171D01*
X102241639Y-124766211D01*
X102402994Y-124683996D01*
X102549501Y-124577553D01*
X102677553Y-124449501D01*
X102783996Y-124302994D01*
X102866211Y-124141639D01*
X102922171Y-123969409D01*
X102945756Y-123820499D01*
X102950500Y-123790551D01*
X102950500Y-123609448D01*
X102932771Y-123497517D01*
X102922171Y-123430591D01*
X102883806Y-123312514D01*
X102866212Y-123258363D01*
X102866211Y-123258360D01*
X102806383Y-123140943D01*
X102783996Y-123097006D01*
X102723893Y-123014281D01*
X102677558Y-122950505D01*
X102677554Y-122950500D01*
X102549499Y-122822445D01*
X102549494Y-122822441D01*
X102402997Y-122716006D01*
X102402996Y-122716005D01*
X102402994Y-122716004D01*
X102333353Y-122680520D01*
X102241639Y-122633788D01*
X102241636Y-122633787D01*
X102069410Y-122577829D01*
X101909321Y-122552473D01*
X101846186Y-122522544D01*
X101809255Y-122463232D01*
X101810253Y-122393370D01*
X101825123Y-122370943D01*
X107574207Y-122370943D01*
X107574207Y-122529057D01*
X107614793Y-122680524D01*
X107615130Y-122681783D01*
X107615133Y-122681790D01*
X107694182Y-122818709D01*
X107694186Y-122818714D01*
X107694187Y-122818716D01*
X107805991Y-122930520D01*
X107837744Y-122948852D01*
X107885960Y-122999419D01*
X107899184Y-123068026D01*
X107883133Y-123118239D01*
X107840423Y-123192215D01*
X107840423Y-123192216D01*
X107799500Y-123344943D01*
X107799500Y-123503057D01*
X107830165Y-123617498D01*
X107840423Y-123655783D01*
X107840426Y-123655790D01*
X107919475Y-123792709D01*
X107919479Y-123792714D01*
X107919480Y-123792716D01*
X108031284Y-123904520D01*
X108149415Y-123972722D01*
X108197630Y-124023288D01*
X108210854Y-124091895D01*
X108184886Y-124156760D01*
X108127972Y-124197289D01*
X108119509Y-124199884D01*
X107968214Y-124240423D01*
X107968209Y-124240426D01*
X107831290Y-124319475D01*
X107831282Y-124319481D01*
X107719481Y-124431282D01*
X107719475Y-124431290D01*
X107640426Y-124568209D01*
X107640423Y-124568216D01*
X107599500Y-124720943D01*
X107599500Y-124879057D01*
X107633684Y-125006631D01*
X107640423Y-125031783D01*
X107640426Y-125031790D01*
X107719475Y-125168709D01*
X107719479Y-125168714D01*
X107719480Y-125168716D01*
X107831284Y-125280520D01*
X107831286Y-125280521D01*
X107831290Y-125280524D01*
X107905468Y-125323350D01*
X107968216Y-125359577D01*
X108120943Y-125400500D01*
X108120945Y-125400500D01*
X108279055Y-125400500D01*
X108279057Y-125400500D01*
X108431784Y-125359577D01*
X108568716Y-125280520D01*
X108680520Y-125168716D01*
X108759577Y-125031784D01*
X108800500Y-124879057D01*
X108800500Y-124720943D01*
X122199500Y-124720943D01*
X122199500Y-124879057D01*
X122233684Y-125006631D01*
X122240423Y-125031783D01*
X122240426Y-125031790D01*
X122319475Y-125168709D01*
X122319479Y-125168714D01*
X122319480Y-125168716D01*
X122431284Y-125280520D01*
X122431285Y-125280521D01*
X122431287Y-125280522D01*
X122452229Y-125292613D01*
X122500445Y-125343180D01*
X122513668Y-125411787D01*
X122487700Y-125476652D01*
X122452229Y-125507387D01*
X122431287Y-125519477D01*
X122431282Y-125519481D01*
X122319481Y-125631282D01*
X122319475Y-125631290D01*
X122240426Y-125768209D01*
X122240423Y-125768216D01*
X122199500Y-125920943D01*
X122199500Y-126079057D01*
X122240289Y-126231282D01*
X122240423Y-126231783D01*
X122240426Y-126231790D01*
X122319475Y-126368709D01*
X122319479Y-126368714D01*
X122319480Y-126368716D01*
X122431284Y-126480520D01*
X122431286Y-126480521D01*
X122431290Y-126480524D01*
X122568209Y-126559573D01*
X122568216Y-126559577D01*
X122720943Y-126600500D01*
X122720945Y-126600500D01*
X122879055Y-126600500D01*
X122879057Y-126600500D01*
X123031784Y-126559577D01*
X123098701Y-126520943D01*
X124749500Y-126520943D01*
X124749500Y-126679057D01*
X124767094Y-126744716D01*
X124790423Y-126831783D01*
X124790426Y-126831790D01*
X124869475Y-126968709D01*
X124869479Y-126968714D01*
X124869480Y-126968716D01*
X124981284Y-127080520D01*
X124981286Y-127080521D01*
X124981290Y-127080524D01*
X125048765Y-127119480D01*
X125118216Y-127159577D01*
X125270943Y-127200500D01*
X125270945Y-127200500D01*
X125429055Y-127200500D01*
X125429057Y-127200500D01*
X125581784Y-127159577D01*
X125718716Y-127080520D01*
X125830520Y-126968716D01*
X125909577Y-126831784D01*
X125950500Y-126679057D01*
X125950500Y-126520943D01*
X125909577Y-126368216D01*
X125887831Y-126330551D01*
X125830524Y-126231290D01*
X125830518Y-126231282D01*
X125718717Y-126119481D01*
X125718709Y-126119475D01*
X125581790Y-126040426D01*
X125581786Y-126040424D01*
X125581784Y-126040423D01*
X125429057Y-125999500D01*
X125270943Y-125999500D01*
X125118216Y-126040423D01*
X125118209Y-126040426D01*
X124981290Y-126119475D01*
X124981282Y-126119481D01*
X124869481Y-126231282D01*
X124869475Y-126231290D01*
X124790426Y-126368209D01*
X124790423Y-126368216D01*
X124749500Y-126520943D01*
X123098701Y-126520943D01*
X123168716Y-126480520D01*
X123280520Y-126368716D01*
X123359577Y-126231784D01*
X123400500Y-126079057D01*
X123400500Y-125920943D01*
X123359577Y-125768216D01*
X123283824Y-125637006D01*
X123280524Y-125631290D01*
X123280518Y-125631282D01*
X123168717Y-125519481D01*
X123168712Y-125519477D01*
X123147772Y-125507388D01*
X123099555Y-125456822D01*
X123086331Y-125388215D01*
X123112298Y-125323350D01*
X123147772Y-125292612D01*
X123168709Y-125280524D01*
X123168716Y-125280520D01*
X123280520Y-125168716D01*
X123359577Y-125031784D01*
X123400500Y-124879057D01*
X123400500Y-124720943D01*
X123359577Y-124568216D01*
X123359573Y-124568209D01*
X123280524Y-124431290D01*
X123280518Y-124431282D01*
X123168717Y-124319481D01*
X123168709Y-124319475D01*
X123031790Y-124240426D01*
X123031786Y-124240424D01*
X123031784Y-124240423D01*
X122879057Y-124199500D01*
X122720943Y-124199500D01*
X122568216Y-124240423D01*
X122568209Y-124240426D01*
X122431290Y-124319475D01*
X122431282Y-124319481D01*
X122319481Y-124431282D01*
X122319475Y-124431290D01*
X122240426Y-124568209D01*
X122240423Y-124568216D01*
X122199500Y-124720943D01*
X108800500Y-124720943D01*
X108759577Y-124568216D01*
X108759573Y-124568209D01*
X108680524Y-124431290D01*
X108680518Y-124431282D01*
X108568717Y-124319481D01*
X108568709Y-124319475D01*
X108450585Y-124251277D01*
X108402369Y-124200711D01*
X108389145Y-124132104D01*
X108415113Y-124067239D01*
X108472027Y-124026710D01*
X108480471Y-124024121D01*
X108631784Y-123983577D01*
X108768716Y-123904520D01*
X108880520Y-123792716D01*
X108959577Y-123655784D01*
X109000500Y-123503057D01*
X109000500Y-123344943D01*
X108959577Y-123192216D01*
X108929975Y-123140943D01*
X109399500Y-123140943D01*
X109399500Y-123299057D01*
X109434745Y-123430591D01*
X109440423Y-123451783D01*
X109440426Y-123451790D01*
X109519475Y-123588709D01*
X109519479Y-123588714D01*
X109519480Y-123588716D01*
X109631284Y-123700520D01*
X109631286Y-123700521D01*
X109631290Y-123700524D01*
X109768209Y-123779573D01*
X109768216Y-123779577D01*
X109920943Y-123820500D01*
X109920945Y-123820500D01*
X110079055Y-123820500D01*
X110079057Y-123820500D01*
X110231784Y-123779577D01*
X110368716Y-123700520D01*
X110480520Y-123588716D01*
X110559577Y-123451784D01*
X110600500Y-123299057D01*
X110600500Y-123140943D01*
X110559577Y-122988216D01*
X110537801Y-122950499D01*
X110530551Y-122937942D01*
X114737816Y-122937942D01*
X114737816Y-123096056D01*
X114778088Y-123246351D01*
X114778739Y-123248782D01*
X114778742Y-123248789D01*
X114857791Y-123385708D01*
X114857795Y-123385713D01*
X114857796Y-123385715D01*
X114969600Y-123497519D01*
X114969602Y-123497520D01*
X114969606Y-123497523D01*
X115006316Y-123518717D01*
X115106532Y-123576576D01*
X115259259Y-123617499D01*
X115259261Y-123617499D01*
X115417371Y-123617499D01*
X115417373Y-123617499D01*
X115570100Y-123576576D01*
X115707032Y-123497519D01*
X115818836Y-123385715D01*
X115897893Y-123248783D01*
X115938816Y-123096056D01*
X115938816Y-123070943D01*
X123030355Y-123070943D01*
X123030355Y-123229057D01*
X123049112Y-123299057D01*
X123071278Y-123381783D01*
X123071281Y-123381790D01*
X123150330Y-123518709D01*
X123150334Y-123518714D01*
X123150335Y-123518716D01*
X123262139Y-123630520D01*
X123262141Y-123630521D01*
X123262145Y-123630524D01*
X123399064Y-123709573D01*
X123399071Y-123709577D01*
X123551798Y-123750500D01*
X123551800Y-123750500D01*
X123709908Y-123750500D01*
X123709912Y-123750500D01*
X123723850Y-123746765D01*
X123793697Y-123748428D01*
X123851560Y-123787590D01*
X123879065Y-123851818D01*
X123867479Y-123920720D01*
X123863330Y-123928538D01*
X123840425Y-123968211D01*
X123840423Y-123968216D01*
X123799500Y-124120943D01*
X123799500Y-124279057D01*
X123840289Y-124431282D01*
X123840423Y-124431783D01*
X123840426Y-124431790D01*
X123919475Y-124568709D01*
X123919479Y-124568714D01*
X123919480Y-124568716D01*
X124031284Y-124680520D01*
X124031286Y-124680521D01*
X124031290Y-124680524D01*
X124168209Y-124759573D01*
X124168216Y-124759577D01*
X124320943Y-124800500D01*
X124320945Y-124800500D01*
X124479055Y-124800500D01*
X124479057Y-124800500D01*
X124631784Y-124759577D01*
X124768716Y-124680520D01*
X124880520Y-124568716D01*
X124959577Y-124431784D01*
X125000500Y-124279057D01*
X125000500Y-124120943D01*
X124959577Y-123968216D01*
X124936669Y-123928538D01*
X124880524Y-123831290D01*
X124880518Y-123831282D01*
X124768717Y-123719481D01*
X124768709Y-123719475D01*
X124631790Y-123640426D01*
X124631786Y-123640424D01*
X124631784Y-123640423D01*
X124479057Y-123599500D01*
X124320943Y-123599500D01*
X124320938Y-123599500D01*
X124307000Y-123603235D01*
X124237150Y-123601569D01*
X124179290Y-123562404D01*
X124151788Y-123498174D01*
X124163378Y-123429273D01*
X124167526Y-123421458D01*
X124190432Y-123381784D01*
X124231355Y-123229057D01*
X124231355Y-123070943D01*
X124190432Y-122918216D01*
X124190428Y-122918209D01*
X124111379Y-122781290D01*
X124111373Y-122781282D01*
X123999572Y-122669481D01*
X123999564Y-122669475D01*
X123862645Y-122590426D01*
X123862641Y-122590424D01*
X123862639Y-122590423D01*
X123709912Y-122549500D01*
X123551798Y-122549500D01*
X123399071Y-122590423D01*
X123399064Y-122590426D01*
X123262145Y-122669475D01*
X123262137Y-122669481D01*
X123150336Y-122781282D01*
X123150330Y-122781290D01*
X123071281Y-122918209D01*
X123071278Y-122918216D01*
X123030355Y-123070943D01*
X115938816Y-123070943D01*
X115938816Y-122937942D01*
X115897893Y-122785215D01*
X115895627Y-122781290D01*
X115818840Y-122648289D01*
X115818834Y-122648281D01*
X115707033Y-122536480D01*
X115707025Y-122536474D01*
X115570106Y-122457425D01*
X115570102Y-122457423D01*
X115570100Y-122457422D01*
X115417373Y-122416499D01*
X115259259Y-122416499D01*
X115106532Y-122457422D01*
X115106525Y-122457425D01*
X114969606Y-122536474D01*
X114969598Y-122536480D01*
X114857797Y-122648281D01*
X114857791Y-122648289D01*
X114778742Y-122785208D01*
X114778739Y-122785215D01*
X114737816Y-122937942D01*
X110530551Y-122937942D01*
X110480524Y-122851290D01*
X110480518Y-122851282D01*
X110368717Y-122739481D01*
X110368709Y-122739475D01*
X110231790Y-122660426D01*
X110231786Y-122660424D01*
X110231784Y-122660423D01*
X110079057Y-122619500D01*
X109920943Y-122619500D01*
X109768216Y-122660423D01*
X109768209Y-122660426D01*
X109631290Y-122739475D01*
X109631282Y-122739481D01*
X109519481Y-122851282D01*
X109519475Y-122851290D01*
X109440426Y-122988209D01*
X109440423Y-122988216D01*
X109399500Y-123140943D01*
X108929975Y-123140943D01*
X108880520Y-123055284D01*
X108768716Y-122943480D01*
X108768715Y-122943479D01*
X108768712Y-122943477D01*
X108736961Y-122925146D01*
X108688746Y-122874579D01*
X108675522Y-122805972D01*
X108691572Y-122755763D01*
X108734284Y-122681784D01*
X108775207Y-122529057D01*
X108775207Y-122370943D01*
X108734284Y-122218216D01*
X108678124Y-122120943D01*
X112882344Y-122120943D01*
X112882344Y-122279057D01*
X112919172Y-122416499D01*
X112923267Y-122431783D01*
X112923270Y-122431790D01*
X113002319Y-122568709D01*
X113002323Y-122568714D01*
X113002324Y-122568716D01*
X113114128Y-122680520D01*
X113114130Y-122680521D01*
X113114134Y-122680524D01*
X113216252Y-122739481D01*
X113251060Y-122759577D01*
X113403787Y-122800500D01*
X113403789Y-122800500D01*
X113561899Y-122800500D01*
X113561901Y-122800500D01*
X113714628Y-122759577D01*
X113851560Y-122680520D01*
X113963364Y-122568716D01*
X114042421Y-122431784D01*
X114083344Y-122279057D01*
X114083344Y-122120943D01*
X114042421Y-121968216D01*
X114030918Y-121948293D01*
X114014445Y-121880395D01*
X114037297Y-121814367D01*
X114050625Y-121798611D01*
X114063603Y-121785633D01*
X114080520Y-121768716D01*
X114159577Y-121631784D01*
X114200500Y-121479057D01*
X114200500Y-121320943D01*
X114159577Y-121168216D01*
X114154587Y-121159573D01*
X114080524Y-121031290D01*
X114080518Y-121031282D01*
X113968717Y-120919481D01*
X113968709Y-120919475D01*
X113831790Y-120840426D01*
X113831786Y-120840424D01*
X113831784Y-120840423D01*
X113679057Y-120799500D01*
X113520943Y-120799500D01*
X113368216Y-120840423D01*
X113368209Y-120840426D01*
X113231290Y-120919475D01*
X113231282Y-120919481D01*
X113119481Y-121031282D01*
X113119475Y-121031290D01*
X113040426Y-121168209D01*
X113040423Y-121168216D01*
X112999500Y-121320943D01*
X112999500Y-121479057D01*
X113022949Y-121566568D01*
X113040423Y-121631783D01*
X113040424Y-121631786D01*
X113051925Y-121651706D01*
X113068398Y-121719606D01*
X113045546Y-121785633D01*
X113032220Y-121801386D01*
X113002323Y-121831283D01*
X112923270Y-121968209D01*
X112923267Y-121968216D01*
X112882344Y-122120943D01*
X108678124Y-122120943D01*
X108655227Y-122081284D01*
X108543423Y-121969480D01*
X108543421Y-121969479D01*
X108543416Y-121969475D01*
X108406497Y-121890426D01*
X108406493Y-121890424D01*
X108406491Y-121890423D01*
X108253764Y-121849500D01*
X108095650Y-121849500D01*
X107942923Y-121890423D01*
X107942916Y-121890426D01*
X107805997Y-121969475D01*
X107805989Y-121969481D01*
X107694188Y-122081282D01*
X107694182Y-122081290D01*
X107615133Y-122218209D01*
X107615130Y-122218216D01*
X107574207Y-122370943D01*
X101825123Y-122370943D01*
X101848863Y-122335137D01*
X101909321Y-122307527D01*
X101979425Y-122296422D01*
X102069409Y-122282171D01*
X102158236Y-122253309D01*
X102184166Y-122244885D01*
X102184166Y-122244884D01*
X102241639Y-122226211D01*
X102402994Y-122143996D01*
X102549501Y-122037553D01*
X102677553Y-121909501D01*
X102783996Y-121762994D01*
X102866211Y-121601639D01*
X102922171Y-121429409D01*
X102939350Y-121320943D01*
X102950500Y-121250551D01*
X102950500Y-121069448D01*
X102932454Y-120955518D01*
X102922171Y-120890591D01*
X102883806Y-120772514D01*
X102866212Y-120718363D01*
X102866211Y-120718360D01*
X102783996Y-120557006D01*
X102714027Y-120460701D01*
X102714026Y-120460698D01*
X102677558Y-120410505D01*
X102677554Y-120410500D01*
X102662997Y-120395943D01*
X108392688Y-120395943D01*
X108392688Y-120554057D01*
X108426182Y-120679056D01*
X108433611Y-120706783D01*
X108433614Y-120706790D01*
X108512663Y-120843709D01*
X108512667Y-120843714D01*
X108512668Y-120843716D01*
X108624472Y-120955520D01*
X108624474Y-120955521D01*
X108624478Y-120955524D01*
X108755697Y-121031282D01*
X108761404Y-121034577D01*
X108914131Y-121075500D01*
X108914133Y-121075500D01*
X109072243Y-121075500D01*
X109072245Y-121075500D01*
X109224972Y-121034577D01*
X109361904Y-120955520D01*
X109473708Y-120843716D01*
X109552765Y-120706784D01*
X109593688Y-120554057D01*
X109593688Y-120520943D01*
X114399500Y-120520943D01*
X114399500Y-120679057D01*
X114410032Y-120718361D01*
X114440423Y-120831783D01*
X114440426Y-120831790D01*
X114519475Y-120968709D01*
X114519479Y-120968714D01*
X114519480Y-120968716D01*
X114631284Y-121080520D01*
X114631286Y-121080521D01*
X114631290Y-121080524D01*
X114768209Y-121159573D01*
X114768216Y-121159577D01*
X114920943Y-121200500D01*
X114920945Y-121200500D01*
X115079055Y-121200500D01*
X115079057Y-121200500D01*
X115231784Y-121159577D01*
X115368716Y-121080520D01*
X115480520Y-120968716D01*
X115559577Y-120831784D01*
X115600500Y-120679057D01*
X115600500Y-120520943D01*
X115559577Y-120368216D01*
X115510058Y-120282445D01*
X115480524Y-120231290D01*
X115480518Y-120231282D01*
X115368717Y-120119481D01*
X115368709Y-120119475D01*
X115231790Y-120040426D01*
X115231786Y-120040424D01*
X115231784Y-120040423D01*
X115079057Y-119999500D01*
X114920943Y-119999500D01*
X114768216Y-120040423D01*
X114768209Y-120040426D01*
X114631290Y-120119475D01*
X114631282Y-120119481D01*
X114519481Y-120231282D01*
X114519475Y-120231290D01*
X114440426Y-120368209D01*
X114440423Y-120368216D01*
X114399500Y-120520943D01*
X109593688Y-120520943D01*
X109593688Y-120395943D01*
X109552765Y-120243216D01*
X109513962Y-120176006D01*
X109473712Y-120106290D01*
X109473706Y-120106282D01*
X109361905Y-119994481D01*
X109361897Y-119994475D01*
X109224978Y-119915426D01*
X109224974Y-119915424D01*
X109224972Y-119915423D01*
X109072245Y-119874500D01*
X108914131Y-119874500D01*
X108761404Y-119915423D01*
X108761397Y-119915426D01*
X108624478Y-119994475D01*
X108624470Y-119994481D01*
X108512669Y-120106282D01*
X108512663Y-120106290D01*
X108433614Y-120243209D01*
X108433611Y-120243216D01*
X108392688Y-120395943D01*
X102662997Y-120395943D01*
X102549499Y-120282445D01*
X102549494Y-120282441D01*
X102402997Y-120176006D01*
X102402996Y-120176005D01*
X102402994Y-120176004D01*
X102351300Y-120149664D01*
X102241639Y-120093788D01*
X102241636Y-120093787D01*
X102069410Y-120037829D01*
X101909321Y-120012473D01*
X101846186Y-119982544D01*
X101809255Y-119923232D01*
X101810253Y-119853370D01*
X101848863Y-119795137D01*
X101909321Y-119767527D01*
X101979425Y-119756422D01*
X102069409Y-119742171D01*
X102241639Y-119686211D01*
X102402994Y-119603996D01*
X102549501Y-119497553D01*
X102677553Y-119369501D01*
X102783996Y-119222994D01*
X102866211Y-119061639D01*
X102922171Y-118889409D01*
X102936765Y-118797259D01*
X102950500Y-118710551D01*
X102950500Y-118529448D01*
X102934019Y-118425397D01*
X102922171Y-118350591D01*
X102883806Y-118232514D01*
X102866212Y-118178363D01*
X102866211Y-118178360D01*
X102815806Y-118079437D01*
X102783996Y-118017006D01*
X102748912Y-117968717D01*
X102677558Y-117870505D01*
X102677554Y-117870500D01*
X102549499Y-117742445D01*
X102549494Y-117742441D01*
X102402997Y-117636006D01*
X102402996Y-117636005D01*
X102402994Y-117636004D01*
X102333312Y-117600499D01*
X102241639Y-117553788D01*
X102241636Y-117553787D01*
X102069410Y-117497829D01*
X101909321Y-117472473D01*
X101896188Y-117466247D01*
X101881730Y-117464752D01*
X101865250Y-117451581D01*
X101846186Y-117442544D01*
X101838502Y-117430203D01*
X101827150Y-117421131D01*
X101820407Y-117401142D01*
X101809255Y-117383232D01*
X101809462Y-117368698D01*
X101804817Y-117354927D01*
X101809951Y-117334464D01*
X101810145Y-117320943D01*
X108199500Y-117320943D01*
X108199500Y-117479057D01*
X108232041Y-117600500D01*
X108240423Y-117631783D01*
X108240426Y-117631790D01*
X108319475Y-117768709D01*
X108319479Y-117768714D01*
X108319480Y-117768716D01*
X108431284Y-117880520D01*
X108431286Y-117880521D01*
X108431290Y-117880524D01*
X108568209Y-117959573D01*
X108568216Y-117959577D01*
X108645278Y-117980225D01*
X108704937Y-118016590D01*
X108735466Y-118079437D01*
X108727171Y-118148813D01*
X108682686Y-118202691D01*
X108645279Y-118219774D01*
X108612615Y-118228526D01*
X108568214Y-118240423D01*
X108568209Y-118240426D01*
X108431290Y-118319475D01*
X108431282Y-118319481D01*
X108319481Y-118431282D01*
X108319475Y-118431290D01*
X108240426Y-118568209D01*
X108240423Y-118568216D01*
X108199500Y-118720943D01*
X108199500Y-118879057D01*
X108239026Y-119026568D01*
X108240423Y-119031783D01*
X108240426Y-119031790D01*
X108319475Y-119168709D01*
X108319479Y-119168714D01*
X108319480Y-119168716D01*
X108431284Y-119280520D01*
X108431286Y-119280521D01*
X108431290Y-119280524D01*
X108568209Y-119359573D01*
X108568216Y-119359577D01*
X108720943Y-119400500D01*
X108720945Y-119400500D01*
X108879055Y-119400500D01*
X108879057Y-119400500D01*
X109031784Y-119359577D01*
X109168716Y-119280520D01*
X109280520Y-119168716D01*
X109308102Y-119120943D01*
X114799500Y-119120943D01*
X114799500Y-119279057D01*
X114832041Y-119400500D01*
X114840423Y-119431783D01*
X114840426Y-119431790D01*
X114919475Y-119568709D01*
X114919479Y-119568714D01*
X114919480Y-119568716D01*
X115031284Y-119680520D01*
X115031286Y-119680521D01*
X115031290Y-119680524D01*
X115168209Y-119759573D01*
X115168216Y-119759577D01*
X115320943Y-119800500D01*
X115320945Y-119800500D01*
X115479055Y-119800500D01*
X115479057Y-119800500D01*
X115631784Y-119759577D01*
X115768716Y-119680520D01*
X115880520Y-119568716D01*
X115959577Y-119431784D01*
X116000500Y-119279057D01*
X116000500Y-119120943D01*
X115959577Y-118968216D01*
X115914079Y-118889410D01*
X115880524Y-118831290D01*
X115880518Y-118831282D01*
X115768717Y-118719481D01*
X115768709Y-118719475D01*
X115631790Y-118640426D01*
X115631786Y-118640424D01*
X115631784Y-118640423D01*
X115479057Y-118599500D01*
X115320943Y-118599500D01*
X115168216Y-118640423D01*
X115168209Y-118640426D01*
X115031290Y-118719475D01*
X115031282Y-118719481D01*
X114919481Y-118831282D01*
X114919475Y-118831290D01*
X114840426Y-118968209D01*
X114840423Y-118968216D01*
X114799500Y-119120943D01*
X109308102Y-119120943D01*
X109359577Y-119031784D01*
X109400500Y-118879057D01*
X109400500Y-118720943D01*
X109359577Y-118568216D01*
X109337198Y-118529454D01*
X109280524Y-118431290D01*
X109280518Y-118431282D01*
X109168717Y-118319481D01*
X109168709Y-118319475D01*
X109031790Y-118240426D01*
X109031786Y-118240424D01*
X109031784Y-118240423D01*
X108954721Y-118219774D01*
X108895062Y-118183410D01*
X108864533Y-118120563D01*
X108872828Y-118051188D01*
X108917313Y-117997310D01*
X108954720Y-117980225D01*
X109031784Y-117959577D01*
X109168716Y-117880520D01*
X109170755Y-117878481D01*
X116157038Y-117878481D01*
X116157038Y-118036595D01*
X116197275Y-118186759D01*
X116197961Y-118189321D01*
X116197964Y-118189328D01*
X116277013Y-118326247D01*
X116277017Y-118326252D01*
X116277018Y-118326254D01*
X116388822Y-118438058D01*
X116388824Y-118438059D01*
X116388828Y-118438062D01*
X116525747Y-118517111D01*
X116525754Y-118517115D01*
X116678481Y-118558038D01*
X116678483Y-118558038D01*
X116836593Y-118558038D01*
X116836595Y-118558038D01*
X116989322Y-118517115D01*
X117126254Y-118438058D01*
X117238058Y-118326254D01*
X117317115Y-118189322D01*
X117358038Y-118036595D01*
X117358038Y-117878481D01*
X117317115Y-117725754D01*
X117290154Y-117679055D01*
X117238062Y-117588828D01*
X117238056Y-117588820D01*
X117126255Y-117477019D01*
X117126247Y-117477013D01*
X116989328Y-117397964D01*
X116989324Y-117397962D01*
X116989322Y-117397961D01*
X116836595Y-117357038D01*
X116678481Y-117357038D01*
X116525754Y-117397961D01*
X116525747Y-117397964D01*
X116388828Y-117477013D01*
X116388820Y-117477019D01*
X116277019Y-117588820D01*
X116277013Y-117588828D01*
X116197964Y-117725747D01*
X116197961Y-117725754D01*
X116157038Y-117878481D01*
X109170755Y-117878481D01*
X109280520Y-117768716D01*
X109359577Y-117631784D01*
X109400500Y-117479057D01*
X109400500Y-117320943D01*
X109359577Y-117168216D01*
X109308101Y-117079056D01*
X109280524Y-117031290D01*
X109280518Y-117031282D01*
X109170179Y-116920943D01*
X118799500Y-116920943D01*
X118799500Y-117079057D01*
X118840289Y-117231282D01*
X118840423Y-117231783D01*
X118840426Y-117231790D01*
X118919475Y-117368709D01*
X118919479Y-117368714D01*
X118919480Y-117368716D01*
X119031284Y-117480520D01*
X119031286Y-117480521D01*
X119031290Y-117480524D01*
X119158187Y-117553787D01*
X119168216Y-117559577D01*
X119320943Y-117600500D01*
X119320945Y-117600500D01*
X119479055Y-117600500D01*
X119479057Y-117600500D01*
X119631784Y-117559577D01*
X119698701Y-117520943D01*
X120199500Y-117520943D01*
X120199500Y-117679057D01*
X120223525Y-117768717D01*
X120240423Y-117831783D01*
X120240426Y-117831790D01*
X120319475Y-117968709D01*
X120319479Y-117968714D01*
X120319480Y-117968716D01*
X120431284Y-118080520D01*
X120431286Y-118080521D01*
X120431290Y-118080524D01*
X120499181Y-118119720D01*
X120568216Y-118159577D01*
X120720943Y-118200500D01*
X120720945Y-118200500D01*
X120879055Y-118200500D01*
X120879057Y-118200500D01*
X121031784Y-118159577D01*
X121168716Y-118080520D01*
X121280520Y-117968716D01*
X121359577Y-117831784D01*
X121400500Y-117679057D01*
X121400500Y-117520943D01*
X121359577Y-117368216D01*
X121359573Y-117368209D01*
X121280524Y-117231290D01*
X121280518Y-117231282D01*
X121168717Y-117119481D01*
X121168709Y-117119475D01*
X121031790Y-117040426D01*
X121031786Y-117040424D01*
X121031784Y-117040423D01*
X120879057Y-116999500D01*
X120720943Y-116999500D01*
X120568216Y-117040423D01*
X120568209Y-117040426D01*
X120431290Y-117119475D01*
X120431282Y-117119481D01*
X120319481Y-117231282D01*
X120319475Y-117231290D01*
X120240426Y-117368209D01*
X120240423Y-117368216D01*
X120199500Y-117520943D01*
X119698701Y-117520943D01*
X119768716Y-117480520D01*
X119880520Y-117368716D01*
X119959577Y-117231784D01*
X120000500Y-117079057D01*
X120000500Y-116920943D01*
X124599500Y-116920943D01*
X124599500Y-117079057D01*
X124640289Y-117231282D01*
X124640423Y-117231783D01*
X124640426Y-117231790D01*
X124719475Y-117368709D01*
X124719479Y-117368714D01*
X124719480Y-117368716D01*
X124831284Y-117480520D01*
X124831286Y-117480521D01*
X124831290Y-117480524D01*
X124958187Y-117553787D01*
X124968216Y-117559577D01*
X125120943Y-117600500D01*
X125120945Y-117600500D01*
X125279055Y-117600500D01*
X125279057Y-117600500D01*
X125431784Y-117559577D01*
X125568716Y-117480520D01*
X125680520Y-117368716D01*
X125759577Y-117231784D01*
X125800500Y-117079057D01*
X125800500Y-116920943D01*
X125759577Y-116768216D01*
X125759573Y-116768209D01*
X125680524Y-116631290D01*
X125680518Y-116631282D01*
X125568717Y-116519481D01*
X125568709Y-116519475D01*
X125431790Y-116440426D01*
X125431786Y-116440424D01*
X125431784Y-116440423D01*
X125279057Y-116399500D01*
X125120943Y-116399500D01*
X124968216Y-116440423D01*
X124968209Y-116440426D01*
X124831290Y-116519475D01*
X124831282Y-116519481D01*
X124719481Y-116631282D01*
X124719475Y-116631290D01*
X124640426Y-116768209D01*
X124640423Y-116768216D01*
X124599500Y-116920943D01*
X120000500Y-116920943D01*
X119959577Y-116768216D01*
X119959573Y-116768209D01*
X119880524Y-116631290D01*
X119880518Y-116631282D01*
X119768717Y-116519481D01*
X119768709Y-116519475D01*
X119631790Y-116440426D01*
X119631786Y-116440424D01*
X119631784Y-116440423D01*
X119479057Y-116399500D01*
X119320943Y-116399500D01*
X119168216Y-116440423D01*
X119168209Y-116440426D01*
X119031290Y-116519475D01*
X119031282Y-116519481D01*
X118919481Y-116631282D01*
X118919475Y-116631290D01*
X118840426Y-116768209D01*
X118840423Y-116768216D01*
X118799500Y-116920943D01*
X109170179Y-116920943D01*
X109168717Y-116919481D01*
X109168709Y-116919475D01*
X109031790Y-116840426D01*
X109031786Y-116840424D01*
X109031784Y-116840423D01*
X108879057Y-116799500D01*
X108720943Y-116799500D01*
X108568216Y-116840423D01*
X108568209Y-116840426D01*
X108431290Y-116919475D01*
X108431282Y-116919481D01*
X108319481Y-117031282D01*
X108319475Y-117031290D01*
X108240426Y-117168209D01*
X108240423Y-117168216D01*
X108199500Y-117320943D01*
X101810145Y-117320943D01*
X101810253Y-117313370D01*
X101818284Y-117301257D01*
X101821822Y-117287158D01*
X101837205Y-117272718D01*
X101848863Y-117255137D01*
X101863099Y-117248415D01*
X101872767Y-117239341D01*
X101903035Y-117229558D01*
X101906209Y-117228060D01*
X101907763Y-117227772D01*
X102069409Y-117202171D01*
X102241639Y-117146211D01*
X102402994Y-117063996D01*
X102549501Y-116957553D01*
X102677553Y-116829501D01*
X102783996Y-116682994D01*
X102866211Y-116521639D01*
X102866913Y-116519480D01*
X102883806Y-116467487D01*
X102922171Y-116349409D01*
X102945756Y-116200499D01*
X102950500Y-116170551D01*
X102950500Y-115989448D01*
X102934019Y-115885397D01*
X102922171Y-115810591D01*
X102883806Y-115692514D01*
X102866212Y-115638363D01*
X102866206Y-115638350D01*
X102830928Y-115569113D01*
X102830926Y-115569111D01*
X102806383Y-115520943D01*
X107999500Y-115520943D01*
X107999500Y-115679057D01*
X108034745Y-115810591D01*
X108040423Y-115831783D01*
X108040426Y-115831790D01*
X108119475Y-115968709D01*
X108119479Y-115968714D01*
X108119480Y-115968716D01*
X108231284Y-116080520D01*
X108231286Y-116080521D01*
X108231290Y-116080524D01*
X108368209Y-116159573D01*
X108368216Y-116159577D01*
X108520943Y-116200500D01*
X108520945Y-116200500D01*
X108679055Y-116200500D01*
X108679057Y-116200500D01*
X108831784Y-116159577D01*
X108968716Y-116080520D01*
X109080520Y-115968716D01*
X109159577Y-115831784D01*
X109200500Y-115679057D01*
X109200500Y-115520943D01*
X119799500Y-115520943D01*
X119799500Y-115679057D01*
X119834745Y-115810591D01*
X119840423Y-115831783D01*
X119840426Y-115831790D01*
X119919475Y-115968709D01*
X119919479Y-115968714D01*
X119919480Y-115968716D01*
X120031284Y-116080520D01*
X120031286Y-116080521D01*
X120031290Y-116080524D01*
X120168209Y-116159573D01*
X120168216Y-116159577D01*
X120320943Y-116200500D01*
X120320945Y-116200500D01*
X120479055Y-116200500D01*
X120479057Y-116200500D01*
X120631784Y-116159577D01*
X120768716Y-116080520D01*
X120880520Y-115968716D01*
X120959577Y-115831784D01*
X121000500Y-115679057D01*
X121000500Y-115520943D01*
X120959577Y-115368216D01*
X120937801Y-115330499D01*
X120880524Y-115231290D01*
X120880518Y-115231282D01*
X120768717Y-115119481D01*
X120768709Y-115119475D01*
X120631790Y-115040426D01*
X120631786Y-115040424D01*
X120631784Y-115040423D01*
X120479057Y-114999500D01*
X120320943Y-114999500D01*
X120168216Y-115040423D01*
X120168209Y-115040426D01*
X120031290Y-115119475D01*
X120031282Y-115119481D01*
X119919481Y-115231282D01*
X119919475Y-115231290D01*
X119840426Y-115368209D01*
X119840423Y-115368216D01*
X119799500Y-115520943D01*
X109200500Y-115520943D01*
X109159577Y-115368216D01*
X109137801Y-115330499D01*
X109080524Y-115231290D01*
X109080518Y-115231282D01*
X108968717Y-115119481D01*
X108968709Y-115119475D01*
X108831790Y-115040426D01*
X108831786Y-115040424D01*
X108831784Y-115040423D01*
X108679057Y-114999500D01*
X108520943Y-114999500D01*
X108368216Y-115040423D01*
X108368209Y-115040426D01*
X108231290Y-115119475D01*
X108231282Y-115119481D01*
X108119481Y-115231282D01*
X108119475Y-115231290D01*
X108040426Y-115368209D01*
X108040423Y-115368216D01*
X107999500Y-115520943D01*
X102806383Y-115520943D01*
X102783996Y-115477006D01*
X102704951Y-115368209D01*
X102677558Y-115330505D01*
X102677554Y-115330500D01*
X102549499Y-115202445D01*
X102549494Y-115202441D01*
X102402997Y-115096006D01*
X102402996Y-115096005D01*
X102402994Y-115096004D01*
X102351300Y-115069664D01*
X102241639Y-115013788D01*
X102241636Y-115013787D01*
X102069410Y-114957829D01*
X101909321Y-114932473D01*
X101846186Y-114902544D01*
X101809255Y-114843232D01*
X101810253Y-114773370D01*
X101848863Y-114715137D01*
X101909321Y-114687527D01*
X101979425Y-114676422D01*
X102069409Y-114662171D01*
X102241639Y-114606211D01*
X102402994Y-114523996D01*
X102549501Y-114417553D01*
X102677553Y-114289501D01*
X102783996Y-114142994D01*
X102795232Y-114120943D01*
X120999500Y-114120943D01*
X120999500Y-114279057D01*
X121002299Y-114289501D01*
X121040423Y-114431783D01*
X121040426Y-114431790D01*
X121119475Y-114568709D01*
X121119479Y-114568714D01*
X121119480Y-114568716D01*
X121231284Y-114680520D01*
X121231286Y-114680521D01*
X121231290Y-114680524D01*
X121368209Y-114759573D01*
X121368216Y-114759577D01*
X121520943Y-114800500D01*
X121520945Y-114800500D01*
X121679055Y-114800500D01*
X121679057Y-114800500D01*
X121831784Y-114759577D01*
X121968716Y-114680520D01*
X122080520Y-114568716D01*
X122159577Y-114431784D01*
X122200500Y-114279057D01*
X122200500Y-114120943D01*
X122159577Y-113968216D01*
X122147079Y-113946568D01*
X122080524Y-113831290D01*
X122080518Y-113831282D01*
X121968717Y-113719481D01*
X121968709Y-113719475D01*
X121831790Y-113640426D01*
X121831786Y-113640424D01*
X121831784Y-113640423D01*
X121679057Y-113599500D01*
X121520943Y-113599500D01*
X121368216Y-113640423D01*
X121368209Y-113640426D01*
X121231290Y-113719475D01*
X121231282Y-113719481D01*
X121119481Y-113831282D01*
X121119475Y-113831290D01*
X121040426Y-113968209D01*
X121040423Y-113968216D01*
X120999500Y-114120943D01*
X102795232Y-114120943D01*
X102866211Y-113981639D01*
X102922171Y-113809409D01*
X102942817Y-113679055D01*
X102950500Y-113630551D01*
X102950500Y-113449448D01*
X102933285Y-113340764D01*
X102922171Y-113270591D01*
X102886944Y-113162171D01*
X102866212Y-113098363D01*
X102866211Y-113098360D01*
X102828318Y-113023993D01*
X102783996Y-112937006D01*
X102742955Y-112880518D01*
X102677558Y-112790505D01*
X102677554Y-112790500D01*
X102549499Y-112662445D01*
X102549494Y-112662441D01*
X102402997Y-112556006D01*
X102402996Y-112556005D01*
X102402994Y-112556004D01*
X102351300Y-112529664D01*
X102241639Y-112473788D01*
X102241633Y-112473786D01*
X102115992Y-112432964D01*
X102115988Y-112432963D01*
X102069409Y-112417829D01*
X101935195Y-112396571D01*
X101932658Y-112396061D01*
X101903922Y-112380945D01*
X101874594Y-112367042D01*
X101873183Y-112364776D01*
X101870821Y-112363534D01*
X101854822Y-112335288D01*
X101845890Y-112320943D01*
X109399500Y-112320943D01*
X109399500Y-112479057D01*
X109420119Y-112556006D01*
X109440423Y-112631783D01*
X109440426Y-112631790D01*
X109519475Y-112768709D01*
X109519479Y-112768714D01*
X109519480Y-112768716D01*
X109631284Y-112880520D01*
X109631286Y-112880521D01*
X109631290Y-112880524D01*
X109768209Y-112959573D01*
X109768216Y-112959577D01*
X109920943Y-113000500D01*
X109920945Y-113000500D01*
X110079055Y-113000500D01*
X110079057Y-113000500D01*
X110231784Y-112959577D01*
X110368716Y-112880520D01*
X110480520Y-112768716D01*
X110559577Y-112631784D01*
X110600500Y-112479057D01*
X110600500Y-112320943D01*
X110559577Y-112168216D01*
X110537831Y-112130551D01*
X110480524Y-112031290D01*
X110480518Y-112031282D01*
X110368717Y-111919481D01*
X110368709Y-111919475D01*
X110231790Y-111840426D01*
X110231786Y-111840424D01*
X110231784Y-111840423D01*
X110079057Y-111799500D01*
X109920943Y-111799500D01*
X109768216Y-111840423D01*
X109768209Y-111840426D01*
X109631290Y-111919475D01*
X109631282Y-111919481D01*
X109519481Y-112031282D01*
X109519475Y-112031290D01*
X109440426Y-112168209D01*
X109440423Y-112168216D01*
X109399500Y-112320943D01*
X101845890Y-112320943D01*
X101837663Y-112307731D01*
X101837701Y-112305061D01*
X101836386Y-112302740D01*
X101838197Y-112270333D01*
X101838661Y-112237868D01*
X101840136Y-112235643D01*
X101840285Y-112232979D01*
X101859331Y-112206692D01*
X101877271Y-112179636D01*
X101879714Y-112178562D01*
X101881280Y-112176401D01*
X101911515Y-112164584D01*
X101941235Y-112151522D01*
X101945669Y-112151236D01*
X101946357Y-112150968D01*
X101948222Y-112151072D01*
X101957120Y-112150499D01*
X102694864Y-112150499D01*
X102694879Y-112150497D01*
X102694882Y-112150497D01*
X102719987Y-112147586D01*
X102719988Y-112147585D01*
X102719991Y-112147585D01*
X102822765Y-112102206D01*
X102902206Y-112022765D01*
X102947585Y-111919991D01*
X102950500Y-111894865D01*
X102950499Y-110105136D01*
X102950251Y-110102994D01*
X102947586Y-110080012D01*
X102947585Y-110080010D01*
X102947585Y-110080009D01*
X102902206Y-109977235D01*
X102822765Y-109897794D01*
X102771520Y-109875167D01*
X102719992Y-109852415D01*
X102694865Y-109849500D01*
X100905143Y-109849500D01*
X100905117Y-109849502D01*
X100880012Y-109852413D01*
X100880008Y-109852415D01*
X100777235Y-109897793D01*
X100777234Y-109897794D01*
X100712181Y-109962848D01*
X100650858Y-109996333D01*
X100581166Y-109991349D01*
X100525233Y-109949477D01*
X100500816Y-109884013D01*
X100500500Y-109875167D01*
X100500500Y-108605131D01*
X125349500Y-108605131D01*
X125349500Y-110394856D01*
X125349502Y-110394882D01*
X125352413Y-110419987D01*
X125352415Y-110419991D01*
X125397793Y-110522764D01*
X125397794Y-110522765D01*
X125477235Y-110602206D01*
X125580009Y-110647585D01*
X125605135Y-110650500D01*
X126342873Y-110650499D01*
X126409910Y-110670183D01*
X126455665Y-110722987D01*
X126465609Y-110792146D01*
X126436584Y-110855702D01*
X126377806Y-110893476D01*
X126362270Y-110896972D01*
X126230589Y-110917829D01*
X126058363Y-110973787D01*
X126058360Y-110973788D01*
X125897002Y-111056006D01*
X125750505Y-111162441D01*
X125750500Y-111162445D01*
X125622445Y-111290500D01*
X125622441Y-111290505D01*
X125516006Y-111437002D01*
X125433788Y-111598360D01*
X125433787Y-111598363D01*
X125377829Y-111770589D01*
X125349500Y-111949448D01*
X125349500Y-112130551D01*
X125377829Y-112309410D01*
X125433787Y-112481636D01*
X125433788Y-112481639D01*
X125471680Y-112556004D01*
X125510295Y-112631790D01*
X125516006Y-112642997D01*
X125622441Y-112789494D01*
X125622445Y-112789499D01*
X125750500Y-112917554D01*
X125750505Y-112917558D01*
X125808339Y-112959576D01*
X125897006Y-113023996D01*
X126002484Y-113077740D01*
X126058360Y-113106211D01*
X126058363Y-113106212D01*
X126142143Y-113133433D01*
X126230591Y-113162171D01*
X126292877Y-113172036D01*
X126353636Y-113181660D01*
X126416771Y-113211589D01*
X126453702Y-113270901D01*
X126452704Y-113340764D01*
X126441628Y-113366128D01*
X126440425Y-113368211D01*
X126440423Y-113368216D01*
X126399500Y-113520943D01*
X126399500Y-113679057D01*
X126440289Y-113831282D01*
X126440423Y-113831783D01*
X126440426Y-113831790D01*
X126519475Y-113968709D01*
X126519479Y-113968714D01*
X126519480Y-113968716D01*
X126631284Y-114080520D01*
X126631286Y-114080521D01*
X126631290Y-114080524D01*
X126739493Y-114142994D01*
X126768216Y-114159577D01*
X126920943Y-114200500D01*
X126920945Y-114200500D01*
X127079055Y-114200500D01*
X127079057Y-114200500D01*
X127231784Y-114159577D01*
X127368716Y-114080520D01*
X127480520Y-113968716D01*
X127559577Y-113831784D01*
X127600500Y-113679057D01*
X127600500Y-113520943D01*
X127559577Y-113368216D01*
X127503213Y-113270589D01*
X127480524Y-113231290D01*
X127480518Y-113231282D01*
X127368717Y-113119481D01*
X127368712Y-113119477D01*
X127305069Y-113082733D01*
X127256853Y-113032166D01*
X127243630Y-112963559D01*
X127269598Y-112898694D01*
X127279372Y-112887681D01*
X127377553Y-112789501D01*
X127483996Y-112642994D01*
X127566211Y-112481639D01*
X127622171Y-112309409D01*
X127642895Y-112178562D01*
X127647527Y-112149321D01*
X127677456Y-112086186D01*
X127736768Y-112049255D01*
X127806630Y-112050253D01*
X127864863Y-112088863D01*
X127892473Y-112149321D01*
X127917829Y-112309410D01*
X127973787Y-112481636D01*
X127973788Y-112481639D01*
X128011680Y-112556004D01*
X128050295Y-112631790D01*
X128056006Y-112642997D01*
X128162441Y-112789494D01*
X128162445Y-112789499D01*
X128290500Y-112917554D01*
X128290505Y-112917558D01*
X128348339Y-112959576D01*
X128437006Y-113023996D01*
X128542484Y-113077740D01*
X128598360Y-113106211D01*
X128598363Y-113106212D01*
X128682143Y-113133433D01*
X128770591Y-113162171D01*
X128853429Y-113175291D01*
X128949449Y-113190500D01*
X128949454Y-113190500D01*
X129130551Y-113190500D01*
X129217259Y-113176765D01*
X129309409Y-113162171D01*
X129481639Y-113106211D01*
X129642994Y-113023996D01*
X129789501Y-112917553D01*
X129917553Y-112789501D01*
X130023996Y-112642994D01*
X130106211Y-112481639D01*
X130162171Y-112309409D01*
X130182895Y-112178562D01*
X130190500Y-112130551D01*
X130190500Y-111949448D01*
X130173231Y-111840423D01*
X130162171Y-111770591D01*
X130106211Y-111598361D01*
X130106211Y-111598360D01*
X130077740Y-111542484D01*
X130023996Y-111437006D01*
X130010396Y-111418287D01*
X129917558Y-111290505D01*
X129917554Y-111290500D01*
X129789499Y-111162445D01*
X129789494Y-111162441D01*
X129642997Y-111056006D01*
X129642996Y-111056005D01*
X129642994Y-111056004D01*
X129591300Y-111029664D01*
X129481639Y-110973788D01*
X129481636Y-110973787D01*
X129309410Y-110917829D01*
X129149321Y-110892473D01*
X129086186Y-110862544D01*
X129049255Y-110803232D01*
X129050253Y-110733370D01*
X129088863Y-110675137D01*
X129149321Y-110647527D01*
X129219425Y-110636422D01*
X129309409Y-110622171D01*
X129481639Y-110566211D01*
X129642994Y-110483996D01*
X129789501Y-110377553D01*
X129917553Y-110249501D01*
X130023996Y-110102994D01*
X130106211Y-109941639D01*
X130162171Y-109769409D01*
X130176765Y-109677259D01*
X130190500Y-109590551D01*
X130190500Y-109409448D01*
X130174019Y-109305397D01*
X130162171Y-109230591D01*
X130106211Y-109058361D01*
X130106211Y-109058360D01*
X130077740Y-109002484D01*
X130023996Y-108897006D01*
X130010396Y-108878287D01*
X129917558Y-108750505D01*
X129917554Y-108750500D01*
X129789499Y-108622445D01*
X129789494Y-108622441D01*
X129642997Y-108516006D01*
X129642996Y-108516005D01*
X129642994Y-108516004D01*
X129566906Y-108477235D01*
X129481639Y-108433788D01*
X129481636Y-108433787D01*
X129309410Y-108377829D01*
X129130551Y-108349500D01*
X129130546Y-108349500D01*
X128949454Y-108349500D01*
X128949449Y-108349500D01*
X128770589Y-108377829D01*
X128598363Y-108433787D01*
X128598360Y-108433788D01*
X128437002Y-108516006D01*
X128290505Y-108622441D01*
X128290500Y-108622445D01*
X128162445Y-108750500D01*
X128162441Y-108750505D01*
X128056006Y-108897002D01*
X127973788Y-109058360D01*
X127973787Y-109058363D01*
X127917829Y-109230589D01*
X127896972Y-109362271D01*
X127867042Y-109425405D01*
X127807731Y-109462336D01*
X127737868Y-109461338D01*
X127679636Y-109422728D01*
X127651522Y-109358764D01*
X127650499Y-109342872D01*
X127650499Y-108605143D01*
X127650499Y-108605136D01*
X127650497Y-108605117D01*
X127647586Y-108580012D01*
X127647585Y-108580010D01*
X127647585Y-108580009D01*
X127602206Y-108477235D01*
X127522765Y-108397794D01*
X127522763Y-108397793D01*
X127419992Y-108352415D01*
X127394865Y-108349500D01*
X125605143Y-108349500D01*
X125605117Y-108349502D01*
X125580012Y-108352413D01*
X125580008Y-108352415D01*
X125477235Y-108397793D01*
X125397794Y-108477234D01*
X125352415Y-108580006D01*
X125352415Y-108580008D01*
X125349500Y-108605131D01*
X100500500Y-108605131D01*
X100500500Y-102690633D01*
X100520185Y-102623594D01*
X100572989Y-102577839D01*
X100642147Y-102567895D01*
X100705703Y-102596920D01*
X100724819Y-102617748D01*
X100769896Y-102679792D01*
X100920213Y-102830109D01*
X101092179Y-102955048D01*
X101092181Y-102955049D01*
X101092184Y-102955051D01*
X101281588Y-103051557D01*
X101483757Y-103117246D01*
X101693713Y-103150500D01*
X101693714Y-103150500D01*
X101906286Y-103150500D01*
X101906287Y-103150500D01*
X102116243Y-103117246D01*
X102318412Y-103051557D01*
X102507816Y-102955051D01*
X102552305Y-102922728D01*
X102679786Y-102830109D01*
X102679788Y-102830106D01*
X102679792Y-102830104D01*
X102830104Y-102679792D01*
X102830106Y-102679788D01*
X102830109Y-102679786D01*
X102955048Y-102507820D01*
X102955047Y-102507820D01*
X102955051Y-102507816D01*
X103051557Y-102318412D01*
X103117246Y-102116243D01*
X103119006Y-102105131D01*
X126349500Y-102105131D01*
X126349500Y-103894856D01*
X126349502Y-103894882D01*
X126352413Y-103919987D01*
X126352415Y-103919991D01*
X126397793Y-104022764D01*
X126397794Y-104022765D01*
X126477235Y-104102206D01*
X126580009Y-104147585D01*
X126605135Y-104150500D01*
X127342873Y-104150499D01*
X127409910Y-104170183D01*
X127455665Y-104222987D01*
X127465609Y-104292146D01*
X127436584Y-104355702D01*
X127377806Y-104393476D01*
X127362270Y-104396972D01*
X127230589Y-104417829D01*
X127058363Y-104473787D01*
X127058360Y-104473788D01*
X126897002Y-104556006D01*
X126750505Y-104662441D01*
X126750500Y-104662445D01*
X126622445Y-104790500D01*
X126622441Y-104790505D01*
X126516006Y-104937002D01*
X126433788Y-105098360D01*
X126433787Y-105098363D01*
X126377829Y-105270589D01*
X126349500Y-105449448D01*
X126349500Y-105630551D01*
X126377829Y-105809410D01*
X126433787Y-105981636D01*
X126433788Y-105981639D01*
X126516006Y-106142997D01*
X126622441Y-106289494D01*
X126622445Y-106289499D01*
X126750500Y-106417554D01*
X126750505Y-106417558D01*
X126878287Y-106510396D01*
X126897006Y-106523996D01*
X127002484Y-106577740D01*
X127058360Y-106606211D01*
X127058363Y-106606212D01*
X127144476Y-106634191D01*
X127230591Y-106662171D01*
X127313429Y-106675291D01*
X127409449Y-106690500D01*
X127409454Y-106690500D01*
X127590551Y-106690500D01*
X127677259Y-106676765D01*
X127769409Y-106662171D01*
X127941639Y-106606211D01*
X128102994Y-106523996D01*
X128249501Y-106417553D01*
X128377553Y-106289501D01*
X128483996Y-106142994D01*
X128566211Y-105981639D01*
X128622171Y-105809409D01*
X128636422Y-105719425D01*
X128647527Y-105649321D01*
X128677456Y-105586186D01*
X128736768Y-105549255D01*
X128806630Y-105550253D01*
X128864863Y-105588863D01*
X128892473Y-105649321D01*
X128917829Y-105809410D01*
X128973787Y-105981636D01*
X128973788Y-105981639D01*
X129056006Y-106142997D01*
X129162441Y-106289494D01*
X129162445Y-106289499D01*
X129290500Y-106417554D01*
X129290505Y-106417558D01*
X129418287Y-106510396D01*
X129437006Y-106523996D01*
X129542484Y-106577740D01*
X129598360Y-106606211D01*
X129598363Y-106606212D01*
X129684476Y-106634191D01*
X129770591Y-106662171D01*
X129853429Y-106675291D01*
X129949449Y-106690500D01*
X129949454Y-106690500D01*
X130130551Y-106690500D01*
X130217259Y-106676765D01*
X130309409Y-106662171D01*
X130481639Y-106606211D01*
X130642994Y-106523996D01*
X130789501Y-106417553D01*
X130917553Y-106289501D01*
X131023996Y-106142994D01*
X131106211Y-105981639D01*
X131162171Y-105809409D01*
X131176765Y-105717259D01*
X131190500Y-105630551D01*
X131190500Y-105449448D01*
X131174019Y-105345397D01*
X131162171Y-105270591D01*
X131106211Y-105098361D01*
X131106211Y-105098360D01*
X131077740Y-105042484D01*
X131023996Y-104937006D01*
X131010396Y-104918287D01*
X130917558Y-104790505D01*
X130917554Y-104790500D01*
X130789499Y-104662445D01*
X130789494Y-104662441D01*
X130642997Y-104556006D01*
X130642996Y-104556005D01*
X130642994Y-104556004D01*
X130591300Y-104529664D01*
X130481639Y-104473788D01*
X130481636Y-104473787D01*
X130309410Y-104417829D01*
X130149321Y-104392473D01*
X130086186Y-104362544D01*
X130049255Y-104303232D01*
X130050253Y-104233370D01*
X130088863Y-104175137D01*
X130149321Y-104147527D01*
X130219425Y-104136422D01*
X130309409Y-104122171D01*
X130481639Y-104066211D01*
X130642994Y-103983996D01*
X130789501Y-103877553D01*
X130917553Y-103749501D01*
X131023996Y-103602994D01*
X131106211Y-103441639D01*
X131162171Y-103269409D01*
X131176765Y-103177259D01*
X131190500Y-103090551D01*
X131190500Y-102909448D01*
X131174019Y-102805397D01*
X131162171Y-102730591D01*
X131120295Y-102601708D01*
X131106212Y-102558363D01*
X131106211Y-102558360D01*
X131077740Y-102502484D01*
X131023996Y-102397006D01*
X130966896Y-102318414D01*
X130917558Y-102250505D01*
X130917554Y-102250500D01*
X130789499Y-102122445D01*
X130789494Y-102122441D01*
X130642997Y-102016006D01*
X130642996Y-102016005D01*
X130642994Y-102016004D01*
X130566906Y-101977235D01*
X130481639Y-101933788D01*
X130481636Y-101933787D01*
X130309410Y-101877829D01*
X130130551Y-101849500D01*
X130130546Y-101849500D01*
X129949454Y-101849500D01*
X129949449Y-101849500D01*
X129770589Y-101877829D01*
X129598363Y-101933787D01*
X129598360Y-101933788D01*
X129437002Y-102016006D01*
X129290505Y-102122441D01*
X129290500Y-102122445D01*
X129162445Y-102250500D01*
X129162441Y-102250505D01*
X129056006Y-102397002D01*
X128973788Y-102558360D01*
X128973787Y-102558363D01*
X128917829Y-102730589D01*
X128896972Y-102862271D01*
X128867042Y-102925405D01*
X128807731Y-102962336D01*
X128737868Y-102961338D01*
X128679636Y-102922728D01*
X128651522Y-102858764D01*
X128650499Y-102842872D01*
X128650499Y-102105143D01*
X128650499Y-102105136D01*
X128650497Y-102105117D01*
X128647586Y-102080012D01*
X128647585Y-102080010D01*
X128647585Y-102080009D01*
X128602206Y-101977235D01*
X128522765Y-101897794D01*
X128522763Y-101897793D01*
X128419992Y-101852415D01*
X128394865Y-101849500D01*
X126605143Y-101849500D01*
X126605117Y-101849502D01*
X126580012Y-101852413D01*
X126580008Y-101852415D01*
X126477235Y-101897793D01*
X126397794Y-101977234D01*
X126352415Y-102080006D01*
X126352415Y-102080008D01*
X126349500Y-102105131D01*
X103119006Y-102105131D01*
X103122985Y-102080012D01*
X103150500Y-101906286D01*
X103150500Y-101693713D01*
X103117246Y-101483760D01*
X103117246Y-101483757D01*
X103051557Y-101281588D01*
X102955051Y-101092184D01*
X102955049Y-101092181D01*
X102955048Y-101092179D01*
X102830109Y-100920213D01*
X102679792Y-100769896D01*
X102617748Y-100724819D01*
X102575082Y-100669489D01*
X102569103Y-100599876D01*
X102601708Y-100538080D01*
X102662547Y-100503723D01*
X102690633Y-100500500D01*
X133309367Y-100500500D01*
X133376406Y-100520185D01*
G37*
%TD.AperFunction*%
%TD*%
M02*
