%TF.GenerationSoftware,KiCad,Pcbnew,9.0.7*%
%TF.CreationDate,2026-08-17T18:55:04+03:00*%
%TF.ProjectId,Raiden S0-1,52616964-656e-4205-9330-2d312e6b6963,A*%
%TF.SameCoordinates,Original*%
%TF.FileFunction,Copper,L4,Bot*%
%TF.FilePolarity,Positive*%
%FSLAX46Y46*%
G04 Gerber Fmt 4.6, Leading zero omitted, Abs format (unit mm)*
G04 Created by KiCad (PCBNEW 9.0.7) date 2026-08-17 18:55:04*
%MOMM*%
%LPD*%
G01*
G04 APERTURE LIST*
%TA.AperFunction,ComponentPad*%
%ADD10R,1.700000X1.700000*%
%TD*%
%TA.AperFunction,ComponentPad*%
%ADD11C,1.700000*%
%TD*%
%TA.AperFunction,HeatsinkPad*%
%ADD12O,1.000000X2.100000*%
%TD*%
%TA.AperFunction,HeatsinkPad*%
%ADD13O,1.000000X1.600000*%
%TD*%
%TA.AperFunction,ViaPad*%
%ADD14C,0.600000*%
%TD*%
%TA.AperFunction,ViaPad*%
%ADD15C,0.500000*%
%TD*%
%TA.AperFunction,Conductor*%
%ADD16C,0.200000*%
%TD*%
%TA.AperFunction,Conductor*%
%ADD17C,0.500000*%
%TD*%
%TA.AperFunction,Conductor*%
%ADD18C,0.300000*%
%TD*%
%TA.AperFunction,Conductor*%
%ADD19C,0.250000*%
%TD*%
G04 APERTURE END LIST*
D10*
%TO.P,J1,1*%
%TO.N,GPIO47*%
X134199999Y-111000000D03*
D11*
%TO.P,J1,2*%
%TO.N,GPIO44*%
X134199999Y-113540000D03*
%TO.P,J1,3*%
%TO.N,GPIO43*%
X134199999Y-116080000D03*
%TO.P,J1,4*%
%TO.N,GPIO42*%
X134199999Y-118620000D03*
%TO.P,J1,5*%
%TO.N,GPIO41*%
X134199999Y-121160000D03*
%TO.P,J1,6*%
%TO.N,GPIO40*%
X134199999Y-123700000D03*
%TO.P,J1,7*%
%TO.N,GPIO39*%
X134199999Y-126240000D03*
%TO.P,J1,8*%
%TO.N,GPIO38*%
X134199999Y-128780000D03*
%TO.P,J1,9*%
%TO.N,GPIO37*%
X134199999Y-131320000D03*
%TO.P,J1,10*%
%TO.N,GPIO36*%
X134199999Y-133860000D03*
%TO.P,J1,11*%
%TO.N,GPIO35*%
X134199999Y-136400000D03*
%TO.P,J1,12*%
%TO.N,GPIO34*%
X134199999Y-138940000D03*
%TO.P,J1,13*%
%TO.N,GPIO33*%
X134199999Y-141480000D03*
%TO.P,J1,14*%
%TO.N,GPIO21*%
X134199999Y-144020000D03*
%TO.P,J1,15*%
%TO.N,GPIO18*%
X134199999Y-146560000D03*
%TD*%
D10*
%TO.P,J6,1*%
%TO.N,+5V*%
X126500000Y-109500000D03*
D11*
%TO.P,J6,2*%
X129040000Y-109500000D03*
%TO.P,J6,3*%
X126500000Y-112040000D03*
%TO.P,J6,4*%
X129040000Y-112040000D03*
%TD*%
D10*
%TO.P,J5,1*%
%TO.N,+3.3V*%
X127500000Y-103000000D03*
D11*
%TO.P,J5,2*%
X130040000Y-103000000D03*
%TO.P,J5,3*%
X127500000Y-105540000D03*
%TO.P,J5,4*%
X130040000Y-105540000D03*
%TD*%
D12*
%TO.P,P1,S1*%
%TO.N,GND*%
X113680000Y-153220000D03*
D13*
X113680000Y-157400000D03*
D12*
X122320000Y-153220000D03*
D13*
X122320000Y-157400000D03*
%TD*%
D10*
%TO.P,J2,1*%
%TO.N,GPIO1*%
X101800000Y-111000000D03*
D11*
%TO.P,J2,2*%
%TO.N,GPIO2*%
X101800000Y-113540000D03*
%TO.P,J2,3*%
%TO.N,GPIO3*%
X101800000Y-116080000D03*
%TO.P,J2,4*%
%TO.N,GPIO4*%
X101800000Y-118620000D03*
%TO.P,J2,5*%
%TO.N,GPIO5*%
X101800000Y-121160000D03*
%TO.P,J2,6*%
%TO.N,GPIO6*%
X101800000Y-123700000D03*
%TO.P,J2,7*%
%TO.N,GPIO7*%
X101800000Y-126240000D03*
%TO.P,J2,8*%
%TO.N,GPIO8*%
X101800000Y-128780000D03*
%TO.P,J2,9*%
%TO.N,GPIO9*%
X101800000Y-131320000D03*
%TO.P,J2,10*%
%TO.N,GPIO10*%
X101800000Y-133860000D03*
%TO.P,J2,11*%
%TO.N,GPIO11*%
X101800000Y-136400000D03*
%TO.P,J2,12*%
%TO.N,GPIO12*%
X101800000Y-138940000D03*
%TO.P,J2,13*%
%TO.N,GPIO13*%
X101800000Y-141480000D03*
%TO.P,J2,14*%
%TO.N,GPIO14*%
X101800000Y-144020000D03*
%TO.P,J2,15*%
%TO.N,GPIO17*%
X101800000Y-146560000D03*
%TD*%
D10*
%TO.P,J4,1*%
%TO.N,GND*%
X120000000Y-103500000D03*
D11*
%TO.P,J4,2*%
X122540000Y-103500000D03*
%TO.P,J4,3*%
X120000000Y-106040000D03*
%TO.P,J4,4*%
X122540000Y-106040000D03*
%TO.P,J4,5*%
X120000000Y-108580000D03*
%TO.P,J4,6*%
X122540000Y-108580000D03*
%TD*%
D14*
%TO.N,+3.3V*%
X108800000Y-130600000D03*
X108800000Y-118800000D03*
X108174707Y-122450000D03*
X110000000Y-112400000D03*
X115000000Y-120600000D03*
X111150000Y-138750000D03*
X108200000Y-124800000D03*
X108400000Y-126376000D03*
X108600000Y-115600000D03*
X110600000Y-147800000D03*
X125350000Y-126600000D03*
X117078124Y-130615508D03*
X108800000Y-127600000D03*
X108800000Y-129200000D03*
X113523173Y-145376000D03*
X110350000Y-130600000D03*
X108800000Y-117400000D03*
X108993188Y-120475000D03*
X105800000Y-138000000D03*
X113600000Y-121400000D03*
X114000000Y-138000000D03*
X112600000Y-141200000D03*
X110000000Y-123220000D03*
X108400000Y-123424000D03*
%TO.N,+5V*%
X105800000Y-140400000D03*
X110200000Y-141400000D03*
%TO.N,/EN*%
X113482844Y-122200000D03*
X120400000Y-136800000D03*
X123000000Y-147000000D03*
X121600000Y-142000000D03*
%TO.N,GND*%
X110000000Y-118775000D03*
X118000000Y-125300000D03*
X107000000Y-121600000D03*
X112850000Y-107980000D03*
X113066000Y-140275000D03*
X122017000Y-135025000D03*
X103178000Y-147100000D03*
X113295000Y-134339000D03*
X114330000Y-114790000D03*
X107800000Y-119800000D03*
X116700000Y-124000000D03*
X115200000Y-118020000D03*
X115474000Y-135106000D03*
X119300000Y-122700000D03*
X119300000Y-125300000D03*
X116700000Y-122700000D03*
X112110000Y-112290000D03*
X121631000Y-109176000D03*
X113409000Y-136329000D03*
X112662000Y-136725000D03*
X110859000Y-108007000D03*
X118000000Y-122700000D03*
X111081818Y-127216819D03*
X126564000Y-123430000D03*
X104850000Y-135700000D03*
X104056000Y-135853000D03*
X111150000Y-109980000D03*
X121289000Y-107340000D03*
X109123000Y-125700000D03*
X122215000Y-154083000D03*
X106504000Y-151360000D03*
X126964000Y-124165000D03*
X106872000Y-122439000D03*
X127643000Y-131803000D03*
X111694000Y-142775000D03*
X121412000Y-104989000D03*
X104795000Y-147339000D03*
X118000000Y-124000000D03*
D15*
X118300000Y-138775000D03*
D14*
X114900000Y-142675000D03*
X108314000Y-146076000D03*
X123064000Y-133570000D03*
X110800000Y-125800000D03*
X119300000Y-124000000D03*
X115716396Y-121844601D03*
X110150000Y-121980000D03*
D15*
X122100000Y-115850000D03*
D14*
X110060000Y-147161000D03*
X116700000Y-125300000D03*
%TO.N,GPIO47*%
X123630855Y-123150000D03*
X127000000Y-113600000D03*
%TO.N,Net-(D1-I{slash}O1)*%
X124200000Y-137400000D03*
X121200000Y-143400000D03*
X124000000Y-135400000D03*
X120400000Y-145200000D03*
%TO.N,Net-(D1-I{slash}O2)*%
X119405887Y-144819089D03*
X119800000Y-143400000D03*
X120019867Y-137560265D03*
X120262178Y-129405220D03*
%TO.N,Net-(F1-Pad1)*%
X107804427Y-143824205D03*
X110088681Y-144311367D03*
%TO.N,Net-(P1-CC1)*%
X114509918Y-145350400D03*
X113165512Y-144604908D03*
%TO.N,Net-(U1-GPIO0)*%
X106200000Y-145200000D03*
X108000000Y-141600000D03*
X115338316Y-123016999D03*
X110400000Y-132200000D03*
X111800000Y-129600000D03*
X108400000Y-139800000D03*
X108600000Y-137200000D03*
X107200000Y-138800000D03*
%TO.N,Net-(U1-GPIO45)*%
X120800000Y-117600000D03*
X119400000Y-117000000D03*
%TO.N,Net-(U1-GPIO46)*%
X120400000Y-115600000D03*
X121600000Y-114200000D03*
%TO.N,Net-(U1-SPICLK_N)*%
X124400000Y-124200000D03*
X125200000Y-117000000D03*
%TO.N,Net-(U1-XTAL_32K_N)*%
X119472822Y-135977399D03*
X118091553Y-131409379D03*
%TO.N,Net-(U1-XTAL_32K_P)*%
X121270867Y-140133709D03*
X118319867Y-137374000D03*
%TO.N,Net-(U1-XTAL_N)*%
X116757538Y-117957538D03*
X122800000Y-124800000D03*
X122800000Y-126000000D03*
X121800000Y-131000000D03*
%TO.N,Net-(U1-XTAL_P)*%
X118600000Y-134000000D03*
X115400000Y-119200000D03*
X118955353Y-132838865D03*
X113800000Y-131200000D03*
X112665252Y-132483222D03*
X113849000Y-132400000D03*
%TD*%
D16*
%TO.N,+3.3V*%
X113600000Y-121400000D02*
X114200000Y-121400000D01*
X108800000Y-118800000D02*
X108800000Y-117400000D01*
X108800000Y-126776000D02*
X108400000Y-126376000D01*
X108200000Y-123624000D02*
X108400000Y-123424000D01*
X117062616Y-130600000D02*
X112284924Y-130600000D01*
X108800000Y-127600000D02*
X108800000Y-126776000D01*
X109400000Y-138000000D02*
X112600000Y-141200000D01*
X112234925Y-130650000D02*
X110400000Y-130650000D01*
X113523173Y-145686344D02*
X113523173Y-145376000D01*
X111409517Y-147800000D02*
X113523173Y-145686344D01*
D17*
X110000000Y-114200000D02*
X108600000Y-115600000D01*
D16*
X114200000Y-121400000D02*
X115000000Y-120600000D01*
X108174707Y-122450000D02*
X108174707Y-120734129D01*
X105800000Y-138000000D02*
X109400000Y-138000000D01*
D17*
X110000000Y-112400000D02*
X110000000Y-114200000D01*
D16*
X112284924Y-130600000D02*
X112234925Y-130650000D01*
X108800000Y-130600000D02*
X108800000Y-129200000D01*
X110600000Y-147800000D02*
X111409517Y-147800000D01*
X108433836Y-120475000D02*
X108993188Y-120475000D01*
X108174707Y-120734129D02*
X108433836Y-120475000D01*
X108200000Y-124800000D02*
X108200000Y-123624000D01*
X110400000Y-130650000D02*
X110350000Y-130600000D01*
%TO.N,+5V*%
X105800000Y-140400000D02*
X109200000Y-140400000D01*
D18*
X114600000Y-143400000D02*
X109200000Y-140400000D01*
X124600000Y-133800000D02*
X123200000Y-135200000D01*
X125200000Y-125800000D02*
X124600000Y-126400000D01*
X126400000Y-112000000D02*
X127800000Y-113400000D01*
X124600000Y-126400000D02*
X124600000Y-133800000D01*
X115200000Y-143400000D02*
X114600000Y-143400000D01*
X110200000Y-141400000D02*
X109200000Y-140400000D01*
X127800000Y-113400000D02*
X127800000Y-113800000D01*
X123200000Y-135200000D02*
X122400000Y-140600000D01*
X122400000Y-140600000D02*
X115200000Y-143400000D01*
X127800000Y-113800000D02*
X125200000Y-125800000D01*
D16*
%TO.N,/EN*%
X112069239Y-130250000D02*
X112319239Y-130000000D01*
X113482844Y-122200000D02*
X110800000Y-124882844D01*
X110530761Y-124950000D02*
X110150000Y-125330761D01*
X121600000Y-142000000D02*
X123000000Y-143400000D01*
X110309697Y-126228936D02*
X110309697Y-127670898D01*
X123000000Y-143400000D02*
X123000000Y-147000000D01*
X110150000Y-126069239D02*
X110309697Y-126228936D01*
X110800000Y-124950000D02*
X110530761Y-124950000D01*
X110800000Y-129519239D02*
X111530761Y-130250000D01*
X110800000Y-128161201D02*
X110800000Y-129519239D01*
X110309697Y-127670898D02*
X110800000Y-128161201D01*
X117601414Y-130000000D02*
X120400000Y-132798586D01*
X112319239Y-130000000D02*
X117601414Y-130000000D01*
X110800000Y-124882844D02*
X110800000Y-124950000D01*
X120400000Y-132798586D02*
X120400000Y-136800000D01*
X110150000Y-125330761D02*
X110150000Y-126069239D01*
X111530761Y-130250000D02*
X112069239Y-130250000D01*
%TO.N,GND*%
X111081818Y-126081818D02*
X110800000Y-125800000D01*
X111081818Y-127216819D02*
X111081818Y-126081818D01*
D19*
X107000000Y-120600000D02*
X107800000Y-119800000D01*
X107000000Y-121600000D02*
X107000000Y-120600000D01*
D16*
%TO.N,GPIO47*%
X127000000Y-113600000D02*
X123600000Y-117000000D01*
X123600000Y-123119145D02*
X123630855Y-123150000D01*
X123600000Y-117000000D02*
X123600000Y-123119145D01*
%TO.N,Net-(D1-I{slash}O1)*%
X124200000Y-135600000D02*
X124200000Y-137400000D01*
X120400000Y-144200000D02*
X120400000Y-145200000D01*
X124000000Y-135400000D02*
X124200000Y-135600000D01*
X121200000Y-143400000D02*
X120400000Y-144200000D01*
%TO.N,Net-(D1-I{slash}O2)*%
X120262178Y-129405220D02*
X121050000Y-130193042D01*
X120558974Y-137560265D02*
X120019867Y-137560265D01*
X121050000Y-130193042D02*
X121050000Y-137069239D01*
X119800000Y-143400000D02*
X119800000Y-144424976D01*
X119800000Y-144424976D02*
X119405887Y-144819089D01*
X121050000Y-137069239D02*
X120558974Y-137560265D01*
%TO.N,Net-(F1-Pad1)*%
X110088681Y-144311367D02*
X108291589Y-144311367D01*
X108291589Y-144311367D02*
X107804427Y-143824205D01*
%TO.N,Net-(P1-CC1)*%
X114416812Y-145350400D02*
X114509918Y-145350400D01*
X113165512Y-144604908D02*
X113671320Y-144604908D01*
X113671320Y-144604908D02*
X114416812Y-145350400D01*
%TO.N,Net-(U1-GPIO0)*%
X111731820Y-127556769D02*
X111200000Y-128088589D01*
X108000000Y-141600000D02*
X106200000Y-143400000D01*
X111200000Y-129000000D02*
X111800000Y-129600000D01*
X107400000Y-138800000D02*
X108400000Y-139800000D01*
X111200000Y-128088589D02*
X111200000Y-129000000D01*
X107200000Y-138800000D02*
X107400000Y-138800000D01*
X110400000Y-132200000D02*
X108600000Y-134000000D01*
X111731820Y-125068180D02*
X111731820Y-127556769D01*
X106200000Y-143400000D02*
X106200000Y-145200000D01*
X115338316Y-123016999D02*
X114955315Y-123400000D01*
X108600000Y-134000000D02*
X108600000Y-137200000D01*
X113400000Y-123400000D02*
X111731820Y-125068180D01*
X114955315Y-123400000D02*
X113400000Y-123400000D01*
%TO.N,Net-(U1-GPIO45)*%
X120200000Y-117000000D02*
X120800000Y-117600000D01*
X119400000Y-117000000D02*
X120200000Y-117000000D01*
%TO.N,Net-(U1-GPIO46)*%
X121600000Y-114400000D02*
X120400000Y-115600000D01*
X121600000Y-114200000D02*
X121600000Y-114400000D01*
%TO.N,Net-(U1-SPICLK_N)*%
X124400000Y-117800000D02*
X124400000Y-124200000D01*
X125200000Y-117000000D02*
X124400000Y-117800000D01*
%TO.N,Net-(U1-XTAL_32K_N)*%
X118445107Y-131409379D02*
X118091553Y-131409379D01*
X119700000Y-132664272D02*
X118445107Y-131409379D01*
X119700000Y-135750221D02*
X119700000Y-132664272D01*
X119472822Y-135977399D02*
X119700000Y-135750221D01*
%TO.N,Net-(U1-XTAL_32K_P)*%
X121133709Y-140133709D02*
X121270867Y-140133709D01*
X118374000Y-137374000D02*
X121133709Y-140133709D01*
X118319867Y-137374000D02*
X118374000Y-137374000D01*
%TO.N,Net-(U1-XTAL_N)*%
X118757538Y-117957538D02*
X116757538Y-117957538D01*
X122800000Y-122000000D02*
X118757538Y-117957538D01*
X122800000Y-126000000D02*
X123562094Y-126762094D01*
X122800000Y-124800000D02*
X122800000Y-122000000D01*
X123562094Y-129237906D02*
X121800000Y-131000000D01*
X123562094Y-126762094D02*
X123562094Y-129237906D01*
%TO.N,Net-(U1-XTAL_P)*%
X109750000Y-126681371D02*
X109817916Y-126749287D01*
X109999000Y-130031761D02*
X109700000Y-130330761D01*
X109700000Y-130330761D02*
X109700000Y-130869239D01*
X113849000Y-132400000D02*
X117000000Y-132400000D01*
X109999000Y-124601000D02*
X109999000Y-124916075D01*
X109750000Y-125165076D02*
X109750000Y-126681371D01*
X110380761Y-131550000D02*
X111732030Y-131550000D01*
X109817916Y-126749287D02*
X109817916Y-127744802D01*
X114400000Y-120200000D02*
X113880761Y-120200000D01*
X109700000Y-130869239D02*
X110380761Y-131550000D01*
X113880761Y-120200000D02*
X112950000Y-121130761D01*
X109999000Y-127925886D02*
X109999000Y-130031761D01*
X111732030Y-131550000D02*
X112665252Y-132483222D01*
X115400000Y-119200000D02*
X114400000Y-120200000D01*
X112950000Y-121130761D02*
X112950000Y-121650000D01*
X118038865Y-132838865D02*
X118955353Y-132838865D01*
X112950000Y-121650000D02*
X109999000Y-124601000D01*
X109999000Y-124916075D02*
X109750000Y-125165076D01*
X109817916Y-127744802D02*
X109999000Y-127925886D01*
X117000000Y-132400000D02*
X118600000Y-134000000D01*
X113800000Y-131200000D02*
X116400000Y-131200000D01*
X116400000Y-131200000D02*
X118038865Y-132838865D01*
%TD*%
%TA.AperFunction,Conductor*%
%TO.N,GND*%
G36*
X111581814Y-131970185D02*
G01*
X111602456Y-131986819D01*
X112028433Y-132412796D01*
X112061918Y-132474119D01*
X112064752Y-132500477D01*
X112064752Y-132562279D01*
X112104997Y-132712473D01*
X112105675Y-132715005D01*
X112105678Y-132715012D01*
X112184727Y-132851931D01*
X112184731Y-132851936D01*
X112184732Y-132851938D01*
X112296536Y-132963742D01*
X112296538Y-132963743D01*
X112296542Y-132963746D01*
X112360203Y-133000500D01*
X112433468Y-133042799D01*
X112586195Y-133083722D01*
X112586197Y-133083722D01*
X112744307Y-133083722D01*
X112744309Y-133083722D01*
X112897036Y-133042799D01*
X113033968Y-132963742D01*
X113145772Y-132851938D01*
X113176950Y-132797934D01*
X113227516Y-132749720D01*
X113296122Y-132736496D01*
X113360987Y-132762463D01*
X113372018Y-132772254D01*
X113480284Y-132880520D01*
X113480286Y-132880521D01*
X113480290Y-132880524D01*
X113617209Y-132959573D01*
X113617216Y-132959577D01*
X113769943Y-133000500D01*
X113769945Y-133000500D01*
X113928055Y-133000500D01*
X113928057Y-133000500D01*
X114080784Y-132959577D01*
X114217716Y-132880520D01*
X114261417Y-132836819D01*
X114322740Y-132803334D01*
X114349098Y-132800500D01*
X116782745Y-132800500D01*
X116849784Y-132820185D01*
X116870426Y-132836819D01*
X117963181Y-133929573D01*
X117996666Y-133990896D01*
X117999500Y-134017254D01*
X117999500Y-134079056D01*
X118040423Y-134231783D01*
X118040426Y-134231790D01*
X118119475Y-134368709D01*
X118119479Y-134368714D01*
X118119480Y-134368716D01*
X118231284Y-134480520D01*
X118231286Y-134480521D01*
X118231290Y-134480524D01*
X118368209Y-134559573D01*
X118368216Y-134559577D01*
X118520943Y-134600500D01*
X118520945Y-134600500D01*
X118679055Y-134600500D01*
X118679057Y-134600500D01*
X118831784Y-134559577D01*
X118968716Y-134480520D01*
X119080520Y-134368716D01*
X119080520Y-134368715D01*
X119086267Y-134362969D01*
X119088288Y-134364990D01*
X119133541Y-134331942D01*
X119203287Y-134327780D01*
X119264210Y-134361987D01*
X119296969Y-134423701D01*
X119299500Y-134448627D01*
X119299500Y-135312477D01*
X119279815Y-135379516D01*
X119237500Y-135419864D01*
X119104109Y-135496876D01*
X119104104Y-135496880D01*
X118992303Y-135608681D01*
X118992297Y-135608689D01*
X118913248Y-135745608D01*
X118913245Y-135745615D01*
X118872322Y-135898342D01*
X118872322Y-136056456D01*
X118892187Y-136130591D01*
X118913245Y-136209182D01*
X118913248Y-136209189D01*
X118992297Y-136346108D01*
X118992301Y-136346113D01*
X118992302Y-136346115D01*
X119104106Y-136457919D01*
X119104108Y-136457920D01*
X119104112Y-136457923D01*
X119241031Y-136536972D01*
X119241038Y-136536976D01*
X119393765Y-136577899D01*
X119393767Y-136577899D01*
X119551876Y-136577899D01*
X119551879Y-136577899D01*
X119652494Y-136550939D01*
X119722340Y-136552602D01*
X119780202Y-136591764D01*
X119807707Y-136655992D01*
X119808576Y-136672108D01*
X119808400Y-136687726D01*
X119799500Y-136720943D01*
X119799500Y-136879057D01*
X119805977Y-136903232D01*
X119805786Y-136920264D01*
X119800348Y-136938040D01*
X119799906Y-136956628D01*
X119790340Y-136970761D01*
X119785349Y-136987078D01*
X119771163Y-136999093D01*
X119760742Y-137014490D01*
X119743794Y-137026257D01*
X119651154Y-137079742D01*
X119651149Y-137079746D01*
X119539348Y-137191547D01*
X119539342Y-137191555D01*
X119460293Y-137328474D01*
X119460290Y-137328481D01*
X119419367Y-137481208D01*
X119419367Y-137553612D01*
X119399682Y-137620651D01*
X119346878Y-137666406D01*
X119277720Y-137676350D01*
X119214164Y-137647325D01*
X119207686Y-137641293D01*
X118956686Y-137390293D01*
X118923201Y-137328970D01*
X118920367Y-137302612D01*
X118920367Y-137294945D01*
X118920367Y-137294943D01*
X118879444Y-137142216D01*
X118867162Y-137120943D01*
X118800391Y-137005290D01*
X118800385Y-137005282D01*
X118688584Y-136893481D01*
X118688576Y-136893475D01*
X118551657Y-136814426D01*
X118551653Y-136814424D01*
X118551651Y-136814423D01*
X118398924Y-136773500D01*
X118240810Y-136773500D01*
X118088083Y-136814423D01*
X118088076Y-136814426D01*
X117951157Y-136893475D01*
X117951149Y-136893481D01*
X117839348Y-137005282D01*
X117839342Y-137005290D01*
X117760293Y-137142209D01*
X117760290Y-137142216D01*
X117719367Y-137294943D01*
X117719367Y-137453057D01*
X117748024Y-137560004D01*
X117760290Y-137605783D01*
X117760293Y-137605790D01*
X117839342Y-137742709D01*
X117839346Y-137742714D01*
X117839347Y-137742716D01*
X117951151Y-137854520D01*
X117951153Y-137854521D01*
X117951157Y-137854524D01*
X118080122Y-137928981D01*
X118088083Y-137933577D01*
X118240810Y-137974500D01*
X118240812Y-137974500D01*
X118356745Y-137974500D01*
X118423784Y-137994185D01*
X118444426Y-138010819D01*
X120655654Y-140222047D01*
X120687747Y-140277632D01*
X120709236Y-140357829D01*
X120711291Y-140365495D01*
X120711293Y-140365499D01*
X120790342Y-140502418D01*
X120790348Y-140502426D01*
X120828906Y-140540984D01*
X120862391Y-140602307D01*
X120857407Y-140671999D01*
X120815535Y-140727932D01*
X120786168Y-140744234D01*
X116966929Y-142229494D01*
X115192680Y-142919480D01*
X115137165Y-142941069D01*
X115092222Y-142949500D01*
X114748869Y-142949500D01*
X114688649Y-142933895D01*
X112897176Y-141938632D01*
X112848133Y-141888868D01*
X112833780Y-141820488D01*
X112858674Y-141755204D01*
X112895395Y-141722851D01*
X112968716Y-141680520D01*
X113080520Y-141568716D01*
X113159577Y-141431784D01*
X113200500Y-141279057D01*
X113200500Y-141120943D01*
X113159577Y-140968216D01*
X113136491Y-140928230D01*
X113080524Y-140831290D01*
X113080518Y-140831282D01*
X112968717Y-140719481D01*
X112968709Y-140719475D01*
X112831790Y-140640426D01*
X112831786Y-140640424D01*
X112831784Y-140640423D01*
X112679057Y-140599500D01*
X112679056Y-140599500D01*
X112617255Y-140599500D01*
X112550216Y-140579815D01*
X112529574Y-140563181D01*
X111428969Y-139462576D01*
X111395484Y-139401253D01*
X111400468Y-139331561D01*
X111442340Y-139275628D01*
X111454643Y-139267511D01*
X111518716Y-139230520D01*
X111630520Y-139118716D01*
X111709577Y-138981784D01*
X111750500Y-138829057D01*
X111750500Y-138670943D01*
X111709577Y-138518216D01*
X111687816Y-138480524D01*
X111630524Y-138381290D01*
X111630518Y-138381282D01*
X111518717Y-138269481D01*
X111518709Y-138269475D01*
X111381790Y-138190426D01*
X111381786Y-138190424D01*
X111381784Y-138190423D01*
X111229057Y-138149500D01*
X111070943Y-138149500D01*
X110918216Y-138190423D01*
X110918209Y-138190426D01*
X110781290Y-138269475D01*
X110781282Y-138269481D01*
X110669479Y-138381284D01*
X110632491Y-138445350D01*
X110581923Y-138493565D01*
X110513316Y-138506787D01*
X110448452Y-138480819D01*
X110437423Y-138471030D01*
X109887336Y-137920943D01*
X113399500Y-137920943D01*
X113399500Y-138079057D01*
X113429363Y-138190505D01*
X113440423Y-138231783D01*
X113440426Y-138231790D01*
X113519475Y-138368709D01*
X113519479Y-138368714D01*
X113519480Y-138368716D01*
X113631284Y-138480520D01*
X113631286Y-138480521D01*
X113631290Y-138480524D01*
X113738026Y-138542147D01*
X113768216Y-138559577D01*
X113920943Y-138600500D01*
X113920945Y-138600500D01*
X114079055Y-138600500D01*
X114079057Y-138600500D01*
X114231784Y-138559577D01*
X114368716Y-138480520D01*
X114480520Y-138368716D01*
X114559577Y-138231784D01*
X114600500Y-138079057D01*
X114600500Y-137920943D01*
X114559577Y-137768216D01*
X114500798Y-137666406D01*
X114480524Y-137631290D01*
X114480518Y-137631282D01*
X114368717Y-137519481D01*
X114368709Y-137519475D01*
X114231790Y-137440426D01*
X114231786Y-137440424D01*
X114231784Y-137440423D01*
X114079057Y-137399500D01*
X113920943Y-137399500D01*
X113768216Y-137440423D01*
X113768209Y-137440426D01*
X113631290Y-137519475D01*
X113631282Y-137519481D01*
X113519481Y-137631282D01*
X113519475Y-137631290D01*
X113440426Y-137768209D01*
X113440423Y-137768216D01*
X113399500Y-137920943D01*
X109887336Y-137920943D01*
X109645915Y-137679522D01*
X109645913Y-137679520D01*
X109576289Y-137639322D01*
X109554589Y-137626793D01*
X109476202Y-137605790D01*
X109452727Y-137599500D01*
X109452726Y-137599500D01*
X109275686Y-137599500D01*
X109208647Y-137579815D01*
X109162892Y-137527011D01*
X109152948Y-137457853D01*
X109157912Y-137439752D01*
X109157473Y-137439635D01*
X109159577Y-137431784D01*
X109200500Y-137279057D01*
X109200500Y-137120943D01*
X109159577Y-136968216D01*
X109120354Y-136900279D01*
X109080524Y-136831290D01*
X109080518Y-136831282D01*
X109036819Y-136787583D01*
X109003334Y-136726260D01*
X109000500Y-136699902D01*
X109000500Y-134217255D01*
X109020185Y-134150216D01*
X109036819Y-134129574D01*
X110329574Y-132836819D01*
X110390897Y-132803334D01*
X110417255Y-132800500D01*
X110479055Y-132800500D01*
X110479057Y-132800500D01*
X110631784Y-132759577D01*
X110768716Y-132680520D01*
X110880520Y-132568716D01*
X110959577Y-132431784D01*
X111000500Y-132279057D01*
X111000500Y-132120943D01*
X111000450Y-132120756D01*
X110996655Y-132106591D01*
X110998319Y-132036741D01*
X111037482Y-131978880D01*
X111101711Y-131951377D01*
X111116430Y-131950500D01*
X111514775Y-131950500D01*
X111581814Y-131970185D01*
G37*
%TD.AperFunction*%
%TA.AperFunction,Conductor*%
G36*
X124102152Y-129386794D02*
G01*
X124142680Y-129443708D01*
X124149500Y-129484264D01*
X124149500Y-133562034D01*
X124129815Y-133629073D01*
X124113181Y-133649715D01*
X122911374Y-134851521D01*
X122904910Y-134857984D01*
X122883940Y-134873544D01*
X122863164Y-134899729D01*
X122858133Y-134904761D01*
X122858125Y-134904771D01*
X122839511Y-134923386D01*
X122831014Y-134938101D01*
X122820779Y-134953153D01*
X122810215Y-134966470D01*
X122799748Y-134990622D01*
X122799749Y-134990623D01*
X122796917Y-134997158D01*
X122780201Y-135026113D01*
X122773441Y-135051338D01*
X122769812Y-135059715D01*
X122763057Y-135075306D01*
X122763056Y-135075312D01*
X122760381Y-135093370D01*
X122759198Y-135101350D01*
X122759197Y-135101349D01*
X122758152Y-135108402D01*
X122749501Y-135140691D01*
X122749501Y-135166803D01*
X122748162Y-135175843D01*
X122748162Y-135175845D01*
X122055718Y-139849829D01*
X122026422Y-139913260D01*
X121967482Y-139950783D01*
X121897613Y-139950484D01*
X121838997Y-139912458D01*
X121825674Y-139893663D01*
X121751387Y-139764993D01*
X121639583Y-139653189D01*
X121639581Y-139653188D01*
X121639576Y-139653184D01*
X121502657Y-139574135D01*
X121502653Y-139574133D01*
X121502651Y-139574132D01*
X121349924Y-139533209D01*
X121191810Y-139533209D01*
X121191804Y-139533209D01*
X121188231Y-139534167D01*
X121185099Y-139534092D01*
X121183749Y-139534270D01*
X121183721Y-139534059D01*
X121118381Y-139532500D01*
X121068464Y-139502071D01*
X119938839Y-138372446D01*
X119905354Y-138311123D01*
X119910338Y-138241431D01*
X119952210Y-138185498D01*
X120017674Y-138161081D01*
X120026520Y-138160765D01*
X120098922Y-138160765D01*
X120098924Y-138160765D01*
X120251651Y-138119842D01*
X120388583Y-138040785D01*
X120432284Y-137997084D01*
X120493607Y-137963599D01*
X120519965Y-137960765D01*
X120611699Y-137960765D01*
X120611701Y-137960765D01*
X120713562Y-137933472D01*
X120804887Y-137880745D01*
X121285706Y-137399923D01*
X121285711Y-137399920D01*
X121295911Y-137389719D01*
X121295913Y-137389719D01*
X121370480Y-137315152D01*
X121423207Y-137223826D01*
X121429651Y-137199776D01*
X121450501Y-137121966D01*
X121450501Y-137016512D01*
X121450500Y-137016508D01*
X121450500Y-131689634D01*
X121470185Y-131622595D01*
X121522989Y-131576840D01*
X121592147Y-131566896D01*
X121606572Y-131569854D01*
X121720943Y-131600500D01*
X121720946Y-131600500D01*
X121879055Y-131600500D01*
X121879057Y-131600500D01*
X122031784Y-131559577D01*
X122168716Y-131480520D01*
X122280520Y-131368716D01*
X122359577Y-131231784D01*
X122400500Y-131079057D01*
X122400500Y-131017255D01*
X122420185Y-130950216D01*
X122436819Y-130929574D01*
X123135111Y-130231282D01*
X123882574Y-129483819D01*
X123918113Y-129422263D01*
X123968680Y-129374048D01*
X124037287Y-129360826D01*
X124102152Y-129386794D01*
G37*
%TD.AperFunction*%
%TA.AperFunction,Conductor*%
G36*
X111250654Y-125168253D02*
G01*
X111306587Y-125210125D01*
X111331004Y-125275589D01*
X111331320Y-125284435D01*
X111331320Y-127339514D01*
X111311635Y-127406553D01*
X111295001Y-127427195D01*
X111051375Y-127670821D01*
X111043429Y-127675159D01*
X111038004Y-127682407D01*
X111013244Y-127691641D01*
X110990052Y-127704306D01*
X110981022Y-127703660D01*
X110972540Y-127706824D01*
X110946719Y-127701207D01*
X110920360Y-127699322D01*
X110911306Y-127693503D01*
X110904267Y-127691972D01*
X110876013Y-127670821D01*
X110746516Y-127541324D01*
X110713031Y-127480001D01*
X110710197Y-127453643D01*
X110710197Y-126291665D01*
X110710198Y-126291652D01*
X110710198Y-126176210D01*
X110701623Y-126144209D01*
X110682904Y-126074349D01*
X110672033Y-126055520D01*
X110630177Y-125983023D01*
X110580337Y-125933183D01*
X110574885Y-125925828D01*
X110565862Y-125901286D01*
X110553334Y-125878342D01*
X110551642Y-125862605D01*
X110550776Y-125860250D01*
X110551189Y-125858393D01*
X110550500Y-125851984D01*
X110550500Y-125548016D01*
X110570185Y-125480977D01*
X110586819Y-125460335D01*
X110660335Y-125386819D01*
X110721658Y-125353334D01*
X110748016Y-125350500D01*
X110852725Y-125350500D01*
X110852727Y-125350500D01*
X110954587Y-125323207D01*
X111045913Y-125270480D01*
X111119639Y-125196754D01*
X111180962Y-125163269D01*
X111250654Y-125168253D01*
G37*
%TD.AperFunction*%
%TA.AperFunction,Conductor*%
G36*
X133339620Y-100509383D02*
G01*
X133370343Y-100516528D01*
X133372895Y-100519154D01*
X133376406Y-100520185D01*
X133397050Y-100544009D01*
X133419037Y-100566634D01*
X133419764Y-100570222D01*
X133422161Y-100572989D01*
X133426648Y-100604201D01*
X133432912Y-100635112D01*
X133431583Y-100638523D01*
X133432105Y-100642147D01*
X133419001Y-100670839D01*
X133407562Y-100700221D01*
X133404004Y-100703678D01*
X133403080Y-100705703D01*
X133382252Y-100724819D01*
X133320207Y-100769896D01*
X133169890Y-100920213D01*
X133044951Y-101092179D01*
X132948444Y-101281585D01*
X132882753Y-101483760D01*
X132849500Y-101693713D01*
X132849500Y-101906286D01*
X132882753Y-102116239D01*
X132948444Y-102318414D01*
X133044951Y-102507820D01*
X133169890Y-102679786D01*
X133320213Y-102830109D01*
X133492179Y-102955048D01*
X133492181Y-102955049D01*
X133492184Y-102955051D01*
X133681588Y-103051557D01*
X133883757Y-103117246D01*
X134093713Y-103150500D01*
X134093714Y-103150500D01*
X134306286Y-103150500D01*
X134306287Y-103150500D01*
X134516243Y-103117246D01*
X134718412Y-103051557D01*
X134907816Y-102955051D01*
X134952305Y-102922728D01*
X135079786Y-102830109D01*
X135079788Y-102830106D01*
X135079792Y-102830104D01*
X135230104Y-102679792D01*
X135275181Y-102617747D01*
X135330511Y-102575082D01*
X135400124Y-102569103D01*
X135461920Y-102601708D01*
X135496277Y-102662547D01*
X135499500Y-102690633D01*
X135499500Y-109875168D01*
X135479815Y-109942207D01*
X135427011Y-109987962D01*
X135357853Y-109997906D01*
X135294297Y-109968881D01*
X135287819Y-109962849D01*
X135222764Y-109897794D01*
X135119991Y-109852415D01*
X135094864Y-109849500D01*
X133305142Y-109849500D01*
X133305116Y-109849502D01*
X133280011Y-109852413D01*
X133280007Y-109852415D01*
X133177234Y-109897793D01*
X133097793Y-109977234D01*
X133052414Y-110080006D01*
X133052414Y-110080008D01*
X133049499Y-110105131D01*
X133049499Y-111894856D01*
X133049501Y-111894882D01*
X133052412Y-111919987D01*
X133052414Y-111919991D01*
X133097792Y-112022764D01*
X133097793Y-112022765D01*
X133177234Y-112102206D01*
X133280008Y-112147585D01*
X133305134Y-112150500D01*
X134042872Y-112150499D01*
X134109909Y-112170183D01*
X134155664Y-112222987D01*
X134165608Y-112292146D01*
X134136583Y-112355702D01*
X134077805Y-112393476D01*
X134062269Y-112396972D01*
X133930588Y-112417829D01*
X133758362Y-112473787D01*
X133758359Y-112473788D01*
X133597001Y-112556006D01*
X133450504Y-112662441D01*
X133450499Y-112662445D01*
X133322444Y-112790500D01*
X133322440Y-112790505D01*
X133216005Y-112937002D01*
X133133787Y-113098360D01*
X133133786Y-113098363D01*
X133077828Y-113270589D01*
X133049499Y-113449448D01*
X133049499Y-113630551D01*
X133077828Y-113809410D01*
X133133786Y-113981636D01*
X133133787Y-113981639D01*
X133189663Y-114091300D01*
X133204768Y-114120945D01*
X133216005Y-114142997D01*
X133322440Y-114289494D01*
X133322444Y-114289499D01*
X133450499Y-114417554D01*
X133450504Y-114417558D01*
X133578286Y-114510396D01*
X133597005Y-114523996D01*
X133702483Y-114577740D01*
X133758359Y-114606211D01*
X133758362Y-114606212D01*
X133844475Y-114634191D01*
X133930590Y-114662171D01*
X134003638Y-114673740D01*
X134090677Y-114687527D01*
X134153812Y-114717456D01*
X134190743Y-114776768D01*
X134189745Y-114846631D01*
X134151135Y-114904863D01*
X134090677Y-114932473D01*
X133930588Y-114957829D01*
X133758362Y-115013787D01*
X133758359Y-115013788D01*
X133597001Y-115096006D01*
X133450504Y-115202441D01*
X133450499Y-115202445D01*
X133322444Y-115330500D01*
X133322440Y-115330505D01*
X133216005Y-115477002D01*
X133133787Y-115638360D01*
X133133786Y-115638363D01*
X133077828Y-115810589D01*
X133049499Y-115989448D01*
X133049499Y-116170551D01*
X133077828Y-116349410D01*
X133133786Y-116521636D01*
X133133787Y-116521639D01*
X133216005Y-116682997D01*
X133322440Y-116829494D01*
X133322444Y-116829499D01*
X133450499Y-116957554D01*
X133450504Y-116957558D01*
X133577444Y-117049784D01*
X133597005Y-117063996D01*
X133702483Y-117117740D01*
X133758359Y-117146211D01*
X133758362Y-117146212D01*
X133844475Y-117174191D01*
X133930590Y-117202171D01*
X134003638Y-117213740D01*
X134090677Y-117227527D01*
X134153812Y-117257456D01*
X134190743Y-117316768D01*
X134189745Y-117386631D01*
X134151135Y-117444863D01*
X134090677Y-117472473D01*
X133930588Y-117497829D01*
X133758362Y-117553787D01*
X133758359Y-117553788D01*
X133597001Y-117636006D01*
X133450504Y-117742441D01*
X133450499Y-117742445D01*
X133322444Y-117870500D01*
X133322440Y-117870505D01*
X133216005Y-118017002D01*
X133133787Y-118178360D01*
X133133786Y-118178363D01*
X133077828Y-118350589D01*
X133049499Y-118529448D01*
X133049499Y-118710551D01*
X133077828Y-118889410D01*
X133133786Y-119061636D01*
X133133787Y-119061639D01*
X133216005Y-119222997D01*
X133322440Y-119369494D01*
X133322444Y-119369499D01*
X133450499Y-119497554D01*
X133450504Y-119497558D01*
X133548436Y-119568709D01*
X133597005Y-119603996D01*
X133702483Y-119657740D01*
X133758359Y-119686211D01*
X133758362Y-119686212D01*
X133844475Y-119714191D01*
X133930590Y-119742171D01*
X134003638Y-119753740D01*
X134090677Y-119767527D01*
X134153812Y-119797456D01*
X134190743Y-119856768D01*
X134189745Y-119926631D01*
X134151135Y-119984863D01*
X134090677Y-120012473D01*
X133930588Y-120037829D01*
X133758362Y-120093787D01*
X133758359Y-120093788D01*
X133597001Y-120176006D01*
X133450504Y-120282441D01*
X133450499Y-120282445D01*
X133322444Y-120410500D01*
X133322440Y-120410505D01*
X133216005Y-120557002D01*
X133133787Y-120718360D01*
X133133786Y-120718363D01*
X133077828Y-120890589D01*
X133049499Y-121069448D01*
X133049499Y-121250551D01*
X133077828Y-121429410D01*
X133133786Y-121601636D01*
X133133787Y-121601639D01*
X133216005Y-121762997D01*
X133322440Y-121909494D01*
X133322444Y-121909499D01*
X133450499Y-122037554D01*
X133450504Y-122037558D01*
X133510697Y-122081290D01*
X133597005Y-122143996D01*
X133689051Y-122190896D01*
X133758359Y-122226211D01*
X133758362Y-122226212D01*
X133844475Y-122254191D01*
X133930590Y-122282171D01*
X134003638Y-122293740D01*
X134090677Y-122307527D01*
X134153812Y-122337456D01*
X134190743Y-122396768D01*
X134189745Y-122466631D01*
X134151135Y-122524863D01*
X134090677Y-122552473D01*
X133930588Y-122577829D01*
X133758362Y-122633787D01*
X133758359Y-122633788D01*
X133597001Y-122716006D01*
X133450504Y-122822441D01*
X133450499Y-122822445D01*
X133322444Y-122950500D01*
X133322440Y-122950505D01*
X133216005Y-123097002D01*
X133133787Y-123258360D01*
X133133786Y-123258363D01*
X133077828Y-123430589D01*
X133049499Y-123609448D01*
X133049499Y-123790551D01*
X133077828Y-123969410D01*
X133133786Y-124141636D01*
X133133787Y-124141639D01*
X133189663Y-124251300D01*
X133203806Y-124279057D01*
X133216005Y-124302997D01*
X133322440Y-124449494D01*
X133322444Y-124449499D01*
X133450499Y-124577554D01*
X133450504Y-124577558D01*
X133568874Y-124663558D01*
X133597005Y-124683996D01*
X133683868Y-124728255D01*
X133758359Y-124766211D01*
X133758362Y-124766212D01*
X133820804Y-124786500D01*
X133930590Y-124822171D01*
X134003638Y-124833740D01*
X134090677Y-124847527D01*
X134153812Y-124877456D01*
X134190743Y-124936768D01*
X134189745Y-125006631D01*
X134151135Y-125064863D01*
X134090677Y-125092473D01*
X133930588Y-125117829D01*
X133758362Y-125173787D01*
X133758359Y-125173788D01*
X133597001Y-125256006D01*
X133450504Y-125362441D01*
X133450499Y-125362445D01*
X133322444Y-125490500D01*
X133322440Y-125490505D01*
X133216005Y-125637002D01*
X133133787Y-125798360D01*
X133133786Y-125798363D01*
X133077828Y-125970589D01*
X133049499Y-126149448D01*
X133049499Y-126330551D01*
X133077828Y-126509410D01*
X133133786Y-126681636D01*
X133133787Y-126681639D01*
X133165928Y-126744717D01*
X133212418Y-126835959D01*
X133216005Y-126842997D01*
X133322440Y-126989494D01*
X133322444Y-126989499D01*
X133450499Y-127117554D01*
X133450504Y-127117558D01*
X133550541Y-127190238D01*
X133597005Y-127223996D01*
X133702483Y-127277740D01*
X133758359Y-127306211D01*
X133758362Y-127306212D01*
X133844475Y-127334191D01*
X133930590Y-127362171D01*
X134003638Y-127373740D01*
X134090677Y-127387527D01*
X134153812Y-127417456D01*
X134190743Y-127476768D01*
X134189745Y-127546631D01*
X134151135Y-127604863D01*
X134090677Y-127632473D01*
X133930588Y-127657829D01*
X133758362Y-127713787D01*
X133758359Y-127713788D01*
X133597001Y-127796006D01*
X133450504Y-127902441D01*
X133450499Y-127902445D01*
X133322444Y-128030500D01*
X133322440Y-128030505D01*
X133216005Y-128177002D01*
X133133787Y-128338360D01*
X133133786Y-128338363D01*
X133077828Y-128510589D01*
X133049499Y-128689448D01*
X133049499Y-128870551D01*
X133077828Y-129049410D01*
X133133786Y-129221636D01*
X133133787Y-129221639D01*
X133168942Y-129290633D01*
X133212698Y-129376508D01*
X133216005Y-129382997D01*
X133322440Y-129529494D01*
X133322444Y-129529499D01*
X133450499Y-129657554D01*
X133450504Y-129657558D01*
X133509056Y-129700098D01*
X133597005Y-129763996D01*
X133696136Y-129814506D01*
X133758359Y-129846211D01*
X133758362Y-129846212D01*
X133839455Y-129872560D01*
X133930590Y-129902171D01*
X134003638Y-129913740D01*
X134090677Y-129927527D01*
X134153812Y-129957456D01*
X134190743Y-130016768D01*
X134189745Y-130086631D01*
X134151135Y-130144863D01*
X134090677Y-130172473D01*
X133930588Y-130197829D01*
X133758362Y-130253787D01*
X133758359Y-130253788D01*
X133597001Y-130336006D01*
X133450504Y-130442441D01*
X133450499Y-130442445D01*
X133322444Y-130570500D01*
X133322440Y-130570505D01*
X133216005Y-130717002D01*
X133133787Y-130878360D01*
X133133786Y-130878363D01*
X133077828Y-131050589D01*
X133049499Y-131229448D01*
X133049499Y-131410551D01*
X133077828Y-131589410D01*
X133133786Y-131761636D01*
X133133787Y-131761639D01*
X133178373Y-131849142D01*
X133213883Y-131918834D01*
X133216005Y-131922997D01*
X133322440Y-132069494D01*
X133322444Y-132069499D01*
X133450499Y-132197554D01*
X133450504Y-132197558D01*
X133555709Y-132273993D01*
X133597005Y-132303996D01*
X133667233Y-132339779D01*
X133758359Y-132386211D01*
X133758362Y-132386212D01*
X133840182Y-132412796D01*
X133930590Y-132442171D01*
X134003638Y-132453740D01*
X134090677Y-132467527D01*
X134153812Y-132497456D01*
X134190743Y-132556768D01*
X134189745Y-132626631D01*
X134151135Y-132684863D01*
X134090677Y-132712473D01*
X133930588Y-132737829D01*
X133758362Y-132793787D01*
X133758359Y-132793788D01*
X133597001Y-132876006D01*
X133450504Y-132982441D01*
X133450499Y-132982445D01*
X133322444Y-133110500D01*
X133322440Y-133110505D01*
X133216005Y-133257002D01*
X133133787Y-133418360D01*
X133133786Y-133418363D01*
X133077828Y-133590589D01*
X133049499Y-133769448D01*
X133049499Y-133950551D01*
X133077828Y-134129410D01*
X133133786Y-134301636D01*
X133133787Y-134301639D01*
X133216005Y-134462997D01*
X133322440Y-134609494D01*
X133322444Y-134609499D01*
X133450499Y-134737554D01*
X133450504Y-134737558D01*
X133578286Y-134830396D01*
X133597005Y-134843996D01*
X133702483Y-134897740D01*
X133758359Y-134926211D01*
X133758362Y-134926212D01*
X133841280Y-134953153D01*
X133930590Y-134982171D01*
X134003638Y-134993740D01*
X134090677Y-135007527D01*
X134153812Y-135037456D01*
X134190743Y-135096768D01*
X134189745Y-135166631D01*
X134151135Y-135224863D01*
X134090677Y-135252473D01*
X133930588Y-135277829D01*
X133758362Y-135333787D01*
X133758359Y-135333788D01*
X133597001Y-135416006D01*
X133450504Y-135522441D01*
X133450499Y-135522445D01*
X133322444Y-135650500D01*
X133322440Y-135650505D01*
X133216005Y-135797002D01*
X133133787Y-135958360D01*
X133133786Y-135958363D01*
X133077828Y-136130589D01*
X133049499Y-136309448D01*
X133049499Y-136490551D01*
X133077828Y-136669410D01*
X133133786Y-136841636D01*
X133133787Y-136841639D01*
X133176905Y-136926260D01*
X133215471Y-137001950D01*
X133216005Y-137002997D01*
X133322440Y-137149494D01*
X133322444Y-137149499D01*
X133450499Y-137277554D01*
X133450504Y-137277558D01*
X133555683Y-137353974D01*
X133597005Y-137383996D01*
X133690794Y-137431784D01*
X133758359Y-137466211D01*
X133758362Y-137466212D01*
X133844475Y-137494191D01*
X133930590Y-137522171D01*
X134003638Y-137533740D01*
X134090677Y-137547527D01*
X134153812Y-137577456D01*
X134190743Y-137636768D01*
X134189745Y-137706631D01*
X134151135Y-137764863D01*
X134090677Y-137792473D01*
X133930588Y-137817829D01*
X133758362Y-137873787D01*
X133758359Y-137873788D01*
X133597001Y-137956006D01*
X133450504Y-138062441D01*
X133450499Y-138062445D01*
X133322444Y-138190500D01*
X133322440Y-138190505D01*
X133216005Y-138337002D01*
X133133787Y-138498360D01*
X133133786Y-138498363D01*
X133077828Y-138670589D01*
X133049499Y-138849448D01*
X133049499Y-139030551D01*
X133077828Y-139209410D01*
X133133786Y-139381636D01*
X133133787Y-139381639D01*
X133189663Y-139491300D01*
X133211505Y-139534167D01*
X133216005Y-139542997D01*
X133322440Y-139689494D01*
X133322444Y-139689499D01*
X133450499Y-139817554D01*
X133450504Y-139817558D01*
X133543569Y-139885173D01*
X133597005Y-139923996D01*
X133701794Y-139977389D01*
X133758359Y-140006211D01*
X133758362Y-140006212D01*
X133835522Y-140031282D01*
X133930590Y-140062171D01*
X134003638Y-140073740D01*
X134090677Y-140087527D01*
X134153812Y-140117456D01*
X134190743Y-140176768D01*
X134189745Y-140246631D01*
X134151135Y-140304863D01*
X134090677Y-140332473D01*
X133930588Y-140357829D01*
X133758362Y-140413787D01*
X133758359Y-140413788D01*
X133597001Y-140496006D01*
X133450504Y-140602441D01*
X133450499Y-140602445D01*
X133322444Y-140730500D01*
X133322440Y-140730505D01*
X133216005Y-140877002D01*
X133133787Y-141038360D01*
X133133786Y-141038363D01*
X133077828Y-141210589D01*
X133049499Y-141389448D01*
X133049499Y-141570551D01*
X133077828Y-141749410D01*
X133133786Y-141921636D01*
X133133787Y-141921639D01*
X133164923Y-141982745D01*
X133214744Y-142080524D01*
X133216005Y-142082997D01*
X133322440Y-142229494D01*
X133322444Y-142229499D01*
X133450499Y-142357554D01*
X133450504Y-142357558D01*
X133578286Y-142450396D01*
X133597005Y-142463996D01*
X133702483Y-142517740D01*
X133758359Y-142546211D01*
X133758362Y-142546212D01*
X133844475Y-142574191D01*
X133930590Y-142602171D01*
X134003638Y-142613740D01*
X134090677Y-142627527D01*
X134153812Y-142657456D01*
X134190743Y-142716768D01*
X134189745Y-142786631D01*
X134151135Y-142844863D01*
X134090677Y-142872473D01*
X133930588Y-142897829D01*
X133758362Y-142953787D01*
X133758359Y-142953788D01*
X133597001Y-143036006D01*
X133450504Y-143142441D01*
X133450499Y-143142445D01*
X133322444Y-143270500D01*
X133322440Y-143270505D01*
X133216005Y-143417002D01*
X133133787Y-143578360D01*
X133133786Y-143578363D01*
X133077828Y-143750589D01*
X133049499Y-143929448D01*
X133049499Y-144110551D01*
X133077828Y-144289410D01*
X133133786Y-144461636D01*
X133133787Y-144461639D01*
X133175324Y-144543157D01*
X133197818Y-144587305D01*
X133216005Y-144622997D01*
X133322440Y-144769494D01*
X133322444Y-144769499D01*
X133450499Y-144897554D01*
X133450504Y-144897558D01*
X133547748Y-144968209D01*
X133597005Y-145003996D01*
X133702483Y-145057740D01*
X133758359Y-145086211D01*
X133758362Y-145086212D01*
X133844475Y-145114191D01*
X133930590Y-145142171D01*
X134003638Y-145153740D01*
X134090677Y-145167527D01*
X134153812Y-145197456D01*
X134190743Y-145256768D01*
X134189745Y-145326631D01*
X134151135Y-145384863D01*
X134090677Y-145412473D01*
X133930588Y-145437829D01*
X133758362Y-145493787D01*
X133758359Y-145493788D01*
X133597001Y-145576006D01*
X133450504Y-145682441D01*
X133450499Y-145682445D01*
X133322444Y-145810500D01*
X133322440Y-145810505D01*
X133216005Y-145957002D01*
X133133787Y-146118360D01*
X133133786Y-146118363D01*
X133077828Y-146290589D01*
X133049499Y-146469448D01*
X133049499Y-146650551D01*
X133077828Y-146829410D01*
X133133786Y-147001636D01*
X133133787Y-147001639D01*
X133216005Y-147162997D01*
X133322440Y-147309494D01*
X133322444Y-147309499D01*
X133450499Y-147437554D01*
X133450504Y-147437558D01*
X133578286Y-147530396D01*
X133597005Y-147543996D01*
X133702483Y-147597740D01*
X133758359Y-147626211D01*
X133758362Y-147626212D01*
X133844475Y-147654191D01*
X133930590Y-147682171D01*
X134013428Y-147695291D01*
X134109448Y-147710500D01*
X134109453Y-147710500D01*
X134290550Y-147710500D01*
X134377258Y-147696765D01*
X134469408Y-147682171D01*
X134641638Y-147626211D01*
X134802993Y-147543996D01*
X134949500Y-147437553D01*
X135077552Y-147309501D01*
X135183995Y-147162994D01*
X135265015Y-147003983D01*
X135312990Y-146953188D01*
X135380811Y-146936393D01*
X135446946Y-146958931D01*
X135490397Y-147013646D01*
X135499500Y-147060279D01*
X135499500Y-157309366D01*
X135479815Y-157376405D01*
X135427011Y-157422160D01*
X135357853Y-157432104D01*
X135294297Y-157403079D01*
X135275182Y-157382251D01*
X135230109Y-157320214D01*
X135230105Y-157320209D01*
X135079786Y-157169890D01*
X134907820Y-157044951D01*
X134718414Y-156948444D01*
X134718413Y-156948443D01*
X134718412Y-156948443D01*
X134516243Y-156882754D01*
X134516241Y-156882753D01*
X134516240Y-156882753D01*
X134354957Y-156857208D01*
X134306287Y-156849500D01*
X134093713Y-156849500D01*
X134045042Y-156857208D01*
X133883760Y-156882753D01*
X133681585Y-156948444D01*
X133492179Y-157044951D01*
X133320213Y-157169890D01*
X133169890Y-157320213D01*
X133044951Y-157492179D01*
X132948444Y-157681585D01*
X132882753Y-157883760D01*
X132849500Y-158093713D01*
X132849500Y-158306286D01*
X132882753Y-158516239D01*
X132948444Y-158718414D01*
X133044951Y-158907820D01*
X133169890Y-159079786D01*
X133320207Y-159230103D01*
X133382252Y-159275181D01*
X133424918Y-159330511D01*
X133430897Y-159400124D01*
X133398292Y-159461920D01*
X133337453Y-159496277D01*
X133309367Y-159499500D01*
X102690633Y-159499500D01*
X102623594Y-159479815D01*
X102577839Y-159427011D01*
X102567895Y-159357853D01*
X102596920Y-159294297D01*
X102617748Y-159275181D01*
X102679792Y-159230104D01*
X102830104Y-159079792D01*
X102830106Y-159079788D01*
X102830109Y-159079786D01*
X102955048Y-158907820D01*
X102955047Y-158907820D01*
X102955051Y-158907816D01*
X103051557Y-158718412D01*
X103117246Y-158516243D01*
X103150500Y-158306287D01*
X103150500Y-158093713D01*
X103117246Y-157883757D01*
X103051557Y-157681588D01*
X102955051Y-157492184D01*
X102955049Y-157492181D01*
X102955048Y-157492179D01*
X102830109Y-157320213D01*
X102679786Y-157169890D01*
X102507820Y-157044951D01*
X102318414Y-156948444D01*
X102318413Y-156948443D01*
X102318412Y-156948443D01*
X102116243Y-156882754D01*
X102116241Y-156882753D01*
X102116240Y-156882753D01*
X101954957Y-156857208D01*
X101906287Y-156849500D01*
X101693713Y-156849500D01*
X101645042Y-156857208D01*
X101483760Y-156882753D01*
X101281585Y-156948444D01*
X101092179Y-157044951D01*
X100920213Y-157169890D01*
X100769894Y-157320209D01*
X100769890Y-157320214D01*
X100724818Y-157382251D01*
X100669488Y-157424917D01*
X100599875Y-157430896D01*
X100538080Y-157398290D01*
X100503722Y-157337451D01*
X100500500Y-157309366D01*
X100500500Y-153674234D01*
X114534500Y-153674234D01*
X114534500Y-153825765D01*
X114573719Y-153972136D01*
X114611602Y-154037750D01*
X114649485Y-154103365D01*
X114756635Y-154210515D01*
X114887865Y-154286281D01*
X115034234Y-154325500D01*
X115034236Y-154325500D01*
X115185764Y-154325500D01*
X115185766Y-154325500D01*
X115332135Y-154286281D01*
X115463365Y-154210515D01*
X115570515Y-154103365D01*
X115646281Y-153972135D01*
X115685500Y-153825766D01*
X115685500Y-153674234D01*
X120314500Y-153674234D01*
X120314500Y-153825765D01*
X120353719Y-153972136D01*
X120391602Y-154037750D01*
X120429485Y-154103365D01*
X120536635Y-154210515D01*
X120667865Y-154286281D01*
X120814234Y-154325500D01*
X120814236Y-154325500D01*
X120965764Y-154325500D01*
X120965766Y-154325500D01*
X121112135Y-154286281D01*
X121243365Y-154210515D01*
X121350515Y-154103365D01*
X121426281Y-153972135D01*
X121465500Y-153825766D01*
X121465500Y-153674234D01*
X121426281Y-153527865D01*
X121350515Y-153396635D01*
X121243365Y-153289485D01*
X121177750Y-153251602D01*
X121112136Y-153213719D01*
X121038950Y-153194109D01*
X120965766Y-153174500D01*
X120814234Y-153174500D01*
X120667863Y-153213719D01*
X120536635Y-153289485D01*
X120536632Y-153289487D01*
X120429487Y-153396632D01*
X120429485Y-153396635D01*
X120353719Y-153527863D01*
X120314500Y-153674234D01*
X115685500Y-153674234D01*
X115646281Y-153527865D01*
X115570515Y-153396635D01*
X115463365Y-153289485D01*
X115397750Y-153251602D01*
X115332136Y-153213719D01*
X115258950Y-153194109D01*
X115185766Y-153174500D01*
X115034234Y-153174500D01*
X114887863Y-153213719D01*
X114756635Y-153289485D01*
X114756632Y-153289487D01*
X114649487Y-153396632D01*
X114649485Y-153396635D01*
X114573719Y-153527863D01*
X114534500Y-153674234D01*
X100500500Y-153674234D01*
X100500500Y-147720943D01*
X109999500Y-147720943D01*
X109999500Y-147879056D01*
X110040423Y-148031783D01*
X110040426Y-148031790D01*
X110119475Y-148168709D01*
X110119479Y-148168714D01*
X110119480Y-148168716D01*
X110231284Y-148280520D01*
X110231286Y-148280521D01*
X110231290Y-148280524D01*
X110368209Y-148359573D01*
X110368216Y-148359577D01*
X110520943Y-148400500D01*
X110520945Y-148400500D01*
X110679055Y-148400500D01*
X110679057Y-148400500D01*
X110831784Y-148359577D01*
X110968716Y-148280520D01*
X111012417Y-148236819D01*
X111073740Y-148203334D01*
X111100098Y-148200500D01*
X111462242Y-148200500D01*
X111462244Y-148200500D01*
X111564105Y-148173207D01*
X111655430Y-148120480D01*
X113843653Y-145932257D01*
X113873057Y-145881326D01*
X113892759Y-145855649D01*
X113941666Y-145806742D01*
X114002987Y-145773259D01*
X114072679Y-145778243D01*
X114117026Y-145806744D01*
X114141202Y-145830920D01*
X114141204Y-145830921D01*
X114141208Y-145830924D01*
X114228512Y-145881328D01*
X114278134Y-145909977D01*
X114430861Y-145950900D01*
X114430863Y-145950900D01*
X114588973Y-145950900D01*
X114588975Y-145950900D01*
X114741702Y-145909977D01*
X114878634Y-145830920D01*
X114990438Y-145719116D01*
X115069495Y-145582184D01*
X115110418Y-145429457D01*
X115110418Y-145271343D01*
X115069495Y-145118616D01*
X115050334Y-145085428D01*
X114990442Y-144981690D01*
X114990436Y-144981682D01*
X114878635Y-144869881D01*
X114878627Y-144869875D01*
X114825655Y-144839292D01*
X114741708Y-144790826D01*
X114741704Y-144790824D01*
X114741702Y-144790823D01*
X114588975Y-144749900D01*
X114434067Y-144749900D01*
X114400461Y-144740032D01*
X118805387Y-144740032D01*
X118805387Y-144898146D01*
X118833750Y-145003996D01*
X118846310Y-145050872D01*
X118846313Y-145050879D01*
X118925362Y-145187798D01*
X118925366Y-145187803D01*
X118925367Y-145187805D01*
X119037171Y-145299609D01*
X119037173Y-145299610D01*
X119037177Y-145299613D01*
X119150687Y-145365147D01*
X119174103Y-145378666D01*
X119326830Y-145419589D01*
X119326832Y-145419589D01*
X119484942Y-145419589D01*
X119484944Y-145419589D01*
X119637671Y-145378666D01*
X119661088Y-145365146D01*
X119728985Y-145348674D01*
X119795012Y-145371526D01*
X119837648Y-145425084D01*
X119840424Y-145431788D01*
X119919475Y-145568709D01*
X119919479Y-145568714D01*
X119919480Y-145568716D01*
X120031284Y-145680520D01*
X120031286Y-145680521D01*
X120031290Y-145680524D01*
X120142476Y-145744716D01*
X120168216Y-145759577D01*
X120320943Y-145800500D01*
X120320945Y-145800500D01*
X120479055Y-145800500D01*
X120479057Y-145800500D01*
X120631784Y-145759577D01*
X120768716Y-145680520D01*
X120880520Y-145568716D01*
X120959577Y-145431784D01*
X121000500Y-145279057D01*
X121000500Y-145120943D01*
X120959577Y-144968216D01*
X120927044Y-144911866D01*
X120880524Y-144831290D01*
X120880518Y-144831282D01*
X120836819Y-144787583D01*
X120803334Y-144726260D01*
X120800500Y-144699902D01*
X120800500Y-144417255D01*
X120820185Y-144350216D01*
X120836819Y-144329574D01*
X121129574Y-144036819D01*
X121190897Y-144003334D01*
X121217255Y-144000500D01*
X121279055Y-144000500D01*
X121279057Y-144000500D01*
X121431784Y-143959577D01*
X121568716Y-143880520D01*
X121680520Y-143768716D01*
X121759577Y-143631784D01*
X121800500Y-143479057D01*
X121800500Y-143320943D01*
X121759577Y-143168216D01*
X121751418Y-143154084D01*
X121680524Y-143031290D01*
X121680518Y-143031282D01*
X121568717Y-142919481D01*
X121568709Y-142919475D01*
X121431790Y-142840426D01*
X121431786Y-142840424D01*
X121431784Y-142840423D01*
X121279057Y-142799500D01*
X121120943Y-142799500D01*
X120968216Y-142840423D01*
X120968209Y-142840426D01*
X120831290Y-142919475D01*
X120831282Y-142919481D01*
X120719481Y-143031282D01*
X120719475Y-143031290D01*
X120640426Y-143168209D01*
X120640423Y-143168214D01*
X120619775Y-143245277D01*
X120583410Y-143304937D01*
X120520563Y-143335466D01*
X120451187Y-143327171D01*
X120397309Y-143282686D01*
X120380225Y-143245277D01*
X120359576Y-143168214D01*
X120359573Y-143168209D01*
X120280524Y-143031290D01*
X120280518Y-143031282D01*
X120168717Y-142919481D01*
X120168709Y-142919475D01*
X120031790Y-142840426D01*
X120031786Y-142840424D01*
X120031784Y-142840423D01*
X119879057Y-142799500D01*
X119720943Y-142799500D01*
X119568216Y-142840423D01*
X119568209Y-142840426D01*
X119431290Y-142919475D01*
X119431282Y-142919481D01*
X119319481Y-143031282D01*
X119319475Y-143031290D01*
X119240426Y-143168209D01*
X119240424Y-143168214D01*
X119240423Y-143168216D01*
X119199500Y-143320943D01*
X119199500Y-143479057D01*
X119229468Y-143590897D01*
X119240423Y-143631783D01*
X119240426Y-143631790D01*
X119319475Y-143768709D01*
X119319481Y-143768717D01*
X119363181Y-143812417D01*
X119377884Y-143839344D01*
X119394477Y-143865163D01*
X119395368Y-143871363D01*
X119396666Y-143873740D01*
X119399500Y-143900098D01*
X119399500Y-144103968D01*
X119379815Y-144171007D01*
X119327011Y-144216762D01*
X119307594Y-144223743D01*
X119174101Y-144259512D01*
X119174096Y-144259515D01*
X119037177Y-144338564D01*
X119037169Y-144338570D01*
X118925368Y-144450371D01*
X118925362Y-144450379D01*
X118846313Y-144587298D01*
X118846310Y-144587305D01*
X118805387Y-144740032D01*
X114400461Y-144740032D01*
X114367028Y-144730215D01*
X114346386Y-144713581D01*
X113917235Y-144284430D01*
X113917233Y-144284428D01*
X113871570Y-144258064D01*
X113825909Y-144231701D01*
X113770154Y-144216762D01*
X113724047Y-144204408D01*
X113724046Y-144204408D01*
X113665610Y-144204408D01*
X113598571Y-144184723D01*
X113577929Y-144168089D01*
X113534229Y-144124389D01*
X113534221Y-144124383D01*
X113397302Y-144045334D01*
X113397298Y-144045332D01*
X113397296Y-144045331D01*
X113244569Y-144004408D01*
X113086455Y-144004408D01*
X112933728Y-144045331D01*
X112933721Y-144045334D01*
X112796802Y-144124383D01*
X112796794Y-144124389D01*
X112684993Y-144236190D01*
X112684987Y-144236198D01*
X112605938Y-144373117D01*
X112605935Y-144373124D01*
X112565012Y-144525851D01*
X112565012Y-144683965D01*
X112604486Y-144831282D01*
X112605935Y-144836691D01*
X112605938Y-144836698D01*
X112684987Y-144973617D01*
X112684991Y-144973622D01*
X112684992Y-144973624D01*
X112796796Y-145085428D01*
X112872491Y-145129130D01*
X112920705Y-145179695D01*
X112933929Y-145248301D01*
X112930265Y-145268607D01*
X112922673Y-145296939D01*
X112922673Y-145455056D01*
X112960228Y-145595214D01*
X112958565Y-145665064D01*
X112928134Y-145714988D01*
X111279943Y-147363181D01*
X111253015Y-147377884D01*
X111227197Y-147394477D01*
X111220996Y-147395368D01*
X111218620Y-147396666D01*
X111192262Y-147399500D01*
X111100098Y-147399500D01*
X111033059Y-147379815D01*
X111012417Y-147363181D01*
X110968717Y-147319481D01*
X110968709Y-147319475D01*
X110831790Y-147240426D01*
X110831786Y-147240424D01*
X110831784Y-147240423D01*
X110679057Y-147199500D01*
X110520943Y-147199500D01*
X110368216Y-147240423D01*
X110368209Y-147240426D01*
X110231290Y-147319475D01*
X110231282Y-147319481D01*
X110119481Y-147431282D01*
X110119475Y-147431290D01*
X110040426Y-147568209D01*
X110040423Y-147568216D01*
X109999500Y-147720943D01*
X100500500Y-147720943D01*
X100500500Y-147060281D01*
X100520185Y-146993242D01*
X100572989Y-146947487D01*
X100642147Y-146937543D01*
X100705703Y-146966568D01*
X100734985Y-147003986D01*
X100816006Y-147162997D01*
X100922441Y-147309494D01*
X100922445Y-147309499D01*
X101050500Y-147437554D01*
X101050505Y-147437558D01*
X101178287Y-147530396D01*
X101197006Y-147543996D01*
X101302484Y-147597740D01*
X101358360Y-147626211D01*
X101358363Y-147626212D01*
X101444476Y-147654191D01*
X101530591Y-147682171D01*
X101613429Y-147695291D01*
X101709449Y-147710500D01*
X101709454Y-147710500D01*
X101890551Y-147710500D01*
X101977259Y-147696765D01*
X102069409Y-147682171D01*
X102241639Y-147626211D01*
X102402994Y-147543996D01*
X102549501Y-147437553D01*
X102677553Y-147309501D01*
X102783996Y-147162994D01*
X102866211Y-147001639D01*
X102922171Y-146829409D01*
X102936765Y-146737259D01*
X102950500Y-146650551D01*
X102950500Y-146469448D01*
X102934019Y-146365397D01*
X102922171Y-146290591D01*
X102883806Y-146172514D01*
X102866212Y-146118363D01*
X102866211Y-146118360D01*
X102836331Y-146059718D01*
X102783996Y-145957006D01*
X102729013Y-145881328D01*
X102677558Y-145810505D01*
X102677554Y-145810500D01*
X102549499Y-145682445D01*
X102549494Y-145682441D01*
X102402997Y-145576006D01*
X102402996Y-145576005D01*
X102402994Y-145576004D01*
X102351300Y-145549664D01*
X102241639Y-145493788D01*
X102241636Y-145493787D01*
X102069410Y-145437829D01*
X101909321Y-145412473D01*
X101846186Y-145382544D01*
X101809255Y-145323232D01*
X101810253Y-145253370D01*
X101848863Y-145195137D01*
X101909321Y-145167527D01*
X101979425Y-145156422D01*
X102069409Y-145142171D01*
X102241639Y-145086211D01*
X102402994Y-145003996D01*
X102549501Y-144897553D01*
X102677553Y-144769501D01*
X102783996Y-144622994D01*
X102866211Y-144461639D01*
X102922171Y-144289409D01*
X102941386Y-144168089D01*
X102950500Y-144110551D01*
X102950500Y-143929448D01*
X102928658Y-143791548D01*
X102922171Y-143750591D01*
X102883569Y-143631783D01*
X102866212Y-143578363D01*
X102866211Y-143578360D01*
X102836331Y-143519718D01*
X102783996Y-143417006D01*
X102733334Y-143347275D01*
X102677558Y-143270505D01*
X102677554Y-143270500D01*
X102549499Y-143142445D01*
X102549494Y-143142441D01*
X102402997Y-143036006D01*
X102402996Y-143036005D01*
X102402994Y-143036004D01*
X102351300Y-143009664D01*
X102241639Y-142953788D01*
X102241636Y-142953787D01*
X102069410Y-142897829D01*
X101909321Y-142872473D01*
X101846186Y-142842544D01*
X101809255Y-142783232D01*
X101810253Y-142713370D01*
X101848863Y-142655137D01*
X101909321Y-142627527D01*
X101979425Y-142616422D01*
X102069409Y-142602171D01*
X102241639Y-142546211D01*
X102402994Y-142463996D01*
X102549501Y-142357553D01*
X102677553Y-142229501D01*
X102783996Y-142082994D01*
X102866211Y-141921639D01*
X102866437Y-141920945D01*
X102879570Y-141880524D01*
X102922171Y-141749409D01*
X102940880Y-141631284D01*
X102950500Y-141570551D01*
X102950500Y-141389448D01*
X102933015Y-141279055D01*
X102922171Y-141210591D01*
X102883806Y-141092514D01*
X102866212Y-141038363D01*
X102866211Y-141038360D01*
X102830470Y-140968216D01*
X102783996Y-140877006D01*
X102753146Y-140834544D01*
X102677558Y-140730505D01*
X102677554Y-140730500D01*
X102549499Y-140602445D01*
X102549494Y-140602441D01*
X102402997Y-140496006D01*
X102402996Y-140496005D01*
X102402994Y-140496004D01*
X102351300Y-140469664D01*
X102241639Y-140413788D01*
X102241636Y-140413787D01*
X102069410Y-140357829D01*
X101909321Y-140332473D01*
X101846186Y-140302544D01*
X101809255Y-140243232D01*
X101810253Y-140173370D01*
X101848863Y-140115137D01*
X101909321Y-140087527D01*
X101979425Y-140076422D01*
X102069409Y-140062171D01*
X102241639Y-140006211D01*
X102402994Y-139923996D01*
X102549501Y-139817553D01*
X102677553Y-139689501D01*
X102783996Y-139542994D01*
X102866211Y-139381639D01*
X102922171Y-139209409D01*
X102936765Y-139117259D01*
X102950500Y-139030551D01*
X102950500Y-138849448D01*
X102930146Y-138720943D01*
X102922171Y-138670591D01*
X102883806Y-138552514D01*
X102866212Y-138498363D01*
X102866211Y-138498360D01*
X102818453Y-138404631D01*
X102783996Y-138337006D01*
X102765191Y-138311123D01*
X102677558Y-138190505D01*
X102677554Y-138190500D01*
X102549501Y-138062447D01*
X102519691Y-138040789D01*
X102481627Y-138013134D01*
X102481626Y-138013132D01*
X102402997Y-137956006D01*
X102402996Y-137956005D01*
X102402994Y-137956004D01*
X102349959Y-137928981D01*
X102334184Y-137920943D01*
X105199500Y-137920943D01*
X105199500Y-138079057D01*
X105229363Y-138190505D01*
X105240423Y-138231783D01*
X105240426Y-138231790D01*
X105319475Y-138368709D01*
X105319479Y-138368714D01*
X105319480Y-138368716D01*
X105431284Y-138480520D01*
X105431286Y-138480521D01*
X105431290Y-138480524D01*
X105538026Y-138542147D01*
X105568216Y-138559577D01*
X105720943Y-138600500D01*
X105720945Y-138600500D01*
X105879055Y-138600500D01*
X105879057Y-138600500D01*
X106031784Y-138559577D01*
X106168716Y-138480520D01*
X106212417Y-138436819D01*
X106239344Y-138422115D01*
X106265163Y-138405523D01*
X106271363Y-138404631D01*
X106273740Y-138403334D01*
X106300098Y-138400500D01*
X106524314Y-138400500D01*
X106591353Y-138420185D01*
X106637108Y-138472989D01*
X106647052Y-138542147D01*
X106642087Y-138560247D01*
X106642527Y-138560365D01*
X106640423Y-138568214D01*
X106640423Y-138568216D01*
X106599500Y-138720943D01*
X106599500Y-138879057D01*
X106640092Y-139030546D01*
X106640423Y-139031783D01*
X106640426Y-139031790D01*
X106719475Y-139168709D01*
X106719479Y-139168714D01*
X106719480Y-139168716D01*
X106831284Y-139280520D01*
X106831286Y-139280521D01*
X106831290Y-139280524D01*
X106968209Y-139359573D01*
X106968216Y-139359577D01*
X107120943Y-139400500D01*
X107120945Y-139400500D01*
X107279055Y-139400500D01*
X107279057Y-139400500D01*
X107332189Y-139386263D01*
X107402038Y-139387925D01*
X107451961Y-139418354D01*
X107601817Y-139568209D01*
X107763181Y-139729573D01*
X107777884Y-139756500D01*
X107794477Y-139782319D01*
X107795368Y-139788519D01*
X107796666Y-139790896D01*
X107799500Y-139817254D01*
X107799500Y-139875500D01*
X107779815Y-139942539D01*
X107727011Y-139988294D01*
X107675500Y-139999500D01*
X106300098Y-139999500D01*
X106233059Y-139979815D01*
X106212417Y-139963181D01*
X106168717Y-139919481D01*
X106168709Y-139919475D01*
X106031790Y-139840426D01*
X106031786Y-139840424D01*
X106031784Y-139840423D01*
X105879057Y-139799500D01*
X105720943Y-139799500D01*
X105568216Y-139840423D01*
X105568209Y-139840426D01*
X105431290Y-139919475D01*
X105431282Y-139919481D01*
X105319481Y-140031282D01*
X105319475Y-140031290D01*
X105240426Y-140168209D01*
X105240423Y-140168216D01*
X105199500Y-140320943D01*
X105199500Y-140479057D01*
X105234562Y-140609908D01*
X105240423Y-140631783D01*
X105240426Y-140631790D01*
X105319475Y-140768709D01*
X105319479Y-140768714D01*
X105319480Y-140768716D01*
X105431284Y-140880520D01*
X105431286Y-140880521D01*
X105431290Y-140880524D01*
X105538026Y-140942147D01*
X105568216Y-140959577D01*
X105720943Y-141000500D01*
X105720945Y-141000500D01*
X105879055Y-141000500D01*
X105879057Y-141000500D01*
X106031784Y-140959577D01*
X106168716Y-140880520D01*
X106212417Y-140836819D01*
X106273740Y-140803334D01*
X106300098Y-140800500D01*
X107724052Y-140800500D01*
X107791091Y-140820185D01*
X107836846Y-140872989D01*
X107846790Y-140942147D01*
X107817765Y-141005703D01*
X107775252Y-141036357D01*
X107775254Y-141036359D01*
X107775236Y-141036368D01*
X107771502Y-141039062D01*
X107768211Y-141040424D01*
X107631290Y-141119475D01*
X107631282Y-141119481D01*
X107519481Y-141231282D01*
X107519475Y-141231290D01*
X107440426Y-141368209D01*
X107440423Y-141368216D01*
X107399500Y-141520943D01*
X107399500Y-141582745D01*
X107379815Y-141649784D01*
X107363181Y-141670426D01*
X105879522Y-143154084D01*
X105879520Y-143154087D01*
X105826791Y-143245414D01*
X105809325Y-143310604D01*
X105799500Y-143347271D01*
X105799500Y-144699902D01*
X105779815Y-144766941D01*
X105763181Y-144787583D01*
X105719481Y-144831282D01*
X105719475Y-144831290D01*
X105640426Y-144968209D01*
X105640423Y-144968216D01*
X105599500Y-145120943D01*
X105599500Y-145279057D01*
X105639800Y-145429457D01*
X105640423Y-145431783D01*
X105640426Y-145431790D01*
X105719475Y-145568709D01*
X105719479Y-145568714D01*
X105719480Y-145568716D01*
X105831284Y-145680520D01*
X105831286Y-145680521D01*
X105831290Y-145680524D01*
X105942476Y-145744716D01*
X105968216Y-145759577D01*
X106120943Y-145800500D01*
X106120945Y-145800500D01*
X106279055Y-145800500D01*
X106279057Y-145800500D01*
X106431784Y-145759577D01*
X106568716Y-145680520D01*
X106680520Y-145568716D01*
X106759577Y-145431784D01*
X106800500Y-145279057D01*
X106800500Y-145120943D01*
X106759577Y-144968216D01*
X106727044Y-144911866D01*
X106680524Y-144831290D01*
X106680518Y-144831282D01*
X106636819Y-144787583D01*
X106603334Y-144726260D01*
X106600500Y-144699902D01*
X106600500Y-143745148D01*
X107203927Y-143745148D01*
X107203927Y-143903262D01*
X107239714Y-144036819D01*
X107244850Y-144055988D01*
X107244853Y-144055995D01*
X107323902Y-144192914D01*
X107323906Y-144192919D01*
X107323907Y-144192921D01*
X107435711Y-144304725D01*
X107435713Y-144304726D01*
X107435717Y-144304729D01*
X107572636Y-144383778D01*
X107572643Y-144383782D01*
X107725370Y-144424705D01*
X107787172Y-144424705D01*
X107854211Y-144444390D01*
X107874853Y-144461024D01*
X108045676Y-144631847D01*
X108137001Y-144684574D01*
X108238862Y-144711867D01*
X108344316Y-144711867D01*
X109588583Y-144711867D01*
X109655622Y-144731552D01*
X109676264Y-144748186D01*
X109719965Y-144791887D01*
X109719967Y-144791888D01*
X109719971Y-144791891D01*
X109855045Y-144869875D01*
X109856897Y-144870944D01*
X110009624Y-144911867D01*
X110009626Y-144911867D01*
X110167736Y-144911867D01*
X110167738Y-144911867D01*
X110320465Y-144870944D01*
X110457397Y-144791887D01*
X110569201Y-144680083D01*
X110648258Y-144543151D01*
X110689181Y-144390424D01*
X110689181Y-144232310D01*
X110648258Y-144079583D01*
X110628483Y-144045331D01*
X110569205Y-143942657D01*
X110569199Y-143942649D01*
X110457398Y-143830848D01*
X110457390Y-143830842D01*
X110320471Y-143751793D01*
X110320467Y-143751791D01*
X110320465Y-143751790D01*
X110167738Y-143710867D01*
X110009624Y-143710867D01*
X109856897Y-143751790D01*
X109856890Y-143751793D01*
X109719971Y-143830842D01*
X109719963Y-143830848D01*
X109676264Y-143874548D01*
X109614941Y-143908033D01*
X109588583Y-143910867D01*
X108528927Y-143910867D01*
X108461888Y-143891182D01*
X108416133Y-143838378D01*
X108404927Y-143786867D01*
X108404927Y-143745150D01*
X108404927Y-143745148D01*
X108364004Y-143592421D01*
X108327720Y-143529574D01*
X108284951Y-143455495D01*
X108284945Y-143455487D01*
X108173144Y-143343686D01*
X108173136Y-143343680D01*
X108036217Y-143264631D01*
X108036213Y-143264629D01*
X108036211Y-143264628D01*
X107883484Y-143223705D01*
X107725370Y-143223705D01*
X107572643Y-143264628D01*
X107572636Y-143264631D01*
X107435717Y-143343680D01*
X107435709Y-143343686D01*
X107323908Y-143455487D01*
X107323902Y-143455495D01*
X107244853Y-143592414D01*
X107244850Y-143592421D01*
X107203927Y-143745148D01*
X106600500Y-143745148D01*
X106600500Y-143617255D01*
X106620185Y-143550216D01*
X106636819Y-143529574D01*
X107929574Y-142236819D01*
X107990897Y-142203334D01*
X108017255Y-142200500D01*
X108079055Y-142200500D01*
X108079057Y-142200500D01*
X108231784Y-142159577D01*
X108368716Y-142080520D01*
X108480520Y-141968716D01*
X108559577Y-141831784D01*
X108600500Y-141679057D01*
X108600500Y-141520943D01*
X108559577Y-141368216D01*
X108508101Y-141279056D01*
X108480524Y-141231290D01*
X108480518Y-141231282D01*
X108368717Y-141119481D01*
X108368709Y-141119475D01*
X108231788Y-141040424D01*
X108228498Y-141039062D01*
X108226148Y-141037168D01*
X108224746Y-141036359D01*
X108224872Y-141036140D01*
X108174093Y-140995222D01*
X108152027Y-140928928D01*
X108169305Y-140861229D01*
X108220441Y-140813617D01*
X108275948Y-140800500D01*
X108912035Y-140800500D01*
X108979074Y-140820185D01*
X108999716Y-140836819D01*
X109563299Y-141400402D01*
X109596784Y-141461725D01*
X109598556Y-141471893D01*
X109599498Y-141479050D01*
X109599500Y-141479057D01*
X109640288Y-141631282D01*
X109640423Y-141631783D01*
X109640426Y-141631790D01*
X109719475Y-141768709D01*
X109719479Y-141768714D01*
X109719480Y-141768716D01*
X109831284Y-141880520D01*
X109831286Y-141880521D01*
X109831290Y-141880524D01*
X109931938Y-141938632D01*
X109968216Y-141959577D01*
X110120943Y-142000500D01*
X110120945Y-142000500D01*
X110279055Y-142000500D01*
X110279057Y-142000500D01*
X110431784Y-141959577D01*
X110568716Y-141880520D01*
X110634217Y-141815018D01*
X110695536Y-141781536D01*
X110765228Y-141786520D01*
X110782110Y-141794303D01*
X113439264Y-143270500D01*
X114377149Y-143791547D01*
X114377150Y-143791548D01*
X114378040Y-143792042D01*
X114426114Y-143819799D01*
X114429756Y-143820774D01*
X114433057Y-143822608D01*
X114433059Y-143822609D01*
X114433063Y-143822611D01*
X114487004Y-143836114D01*
X114540691Y-143850500D01*
X114544468Y-143850500D01*
X114548131Y-143851417D01*
X114601968Y-143850528D01*
X114602648Y-143850517D01*
X114604694Y-143850500D01*
X115165538Y-143850500D01*
X115190092Y-143854279D01*
X115224594Y-143850500D01*
X115259309Y-143850500D01*
X115259310Y-143850500D01*
X115274137Y-143846526D01*
X115274136Y-143846526D01*
X115283309Y-143844068D01*
X115308006Y-143841364D01*
X115340356Y-143828783D01*
X115373886Y-143819799D01*
X115387188Y-143812118D01*
X115404232Y-143803941D01*
X120859076Y-141682613D01*
X120928691Y-141676662D01*
X120990474Y-141709292D01*
X121024807Y-141770144D01*
X121023793Y-141830276D01*
X120999500Y-141920943D01*
X120999500Y-142079057D01*
X121039812Y-142229501D01*
X121040423Y-142231783D01*
X121040426Y-142231790D01*
X121119475Y-142368709D01*
X121119479Y-142368714D01*
X121119480Y-142368716D01*
X121231284Y-142480520D01*
X121231286Y-142480521D01*
X121231290Y-142480524D01*
X121345065Y-142546211D01*
X121368216Y-142559577D01*
X121520943Y-142600500D01*
X121582745Y-142600500D01*
X121649784Y-142620185D01*
X121670426Y-142636819D01*
X122563181Y-143529574D01*
X122596666Y-143590897D01*
X122599500Y-143617255D01*
X122599500Y-146499902D01*
X122579815Y-146566941D01*
X122563181Y-146587583D01*
X122519481Y-146631282D01*
X122519475Y-146631290D01*
X122440426Y-146768209D01*
X122440423Y-146768216D01*
X122399500Y-146920943D01*
X122399500Y-147079056D01*
X122440423Y-147231783D01*
X122440426Y-147231790D01*
X122519475Y-147368709D01*
X122519479Y-147368714D01*
X122519480Y-147368716D01*
X122631284Y-147480520D01*
X122631286Y-147480521D01*
X122631290Y-147480524D01*
X122768209Y-147559573D01*
X122768216Y-147559577D01*
X122920943Y-147600500D01*
X122920945Y-147600500D01*
X123079055Y-147600500D01*
X123079057Y-147600500D01*
X123231784Y-147559577D01*
X123368716Y-147480520D01*
X123480520Y-147368716D01*
X123559577Y-147231784D01*
X123600500Y-147079057D01*
X123600500Y-146920943D01*
X123559577Y-146768216D01*
X123491641Y-146650546D01*
X123480524Y-146631290D01*
X123480518Y-146631282D01*
X123436819Y-146587583D01*
X123403334Y-146526260D01*
X123400500Y-146499902D01*
X123400500Y-143347275D01*
X123400499Y-143347271D01*
X123399538Y-143343686D01*
X123390675Y-143310606D01*
X123373207Y-143245412D01*
X123320480Y-143154087D01*
X122236819Y-142070426D01*
X122203334Y-142009103D01*
X122200500Y-141982745D01*
X122200500Y-141920945D01*
X122200500Y-141920943D01*
X122159577Y-141768216D01*
X122152065Y-141755204D01*
X122080524Y-141631290D01*
X122080518Y-141631282D01*
X121968717Y-141519481D01*
X121968712Y-141519477D01*
X121914827Y-141488367D01*
X121866612Y-141437800D01*
X121853388Y-141369193D01*
X121879356Y-141304329D01*
X121931882Y-141265412D01*
X122509209Y-141040896D01*
X122510488Y-141040749D01*
X122564296Y-141019473D01*
X122618558Y-140998372D01*
X122618561Y-140998369D01*
X122618591Y-140998358D01*
X122619145Y-140998051D01*
X122619710Y-140997739D01*
X122620757Y-140997164D01*
X122659773Y-140968216D01*
X122667064Y-140962806D01*
X122667567Y-140962436D01*
X122683400Y-140950825D01*
X122714217Y-140928230D01*
X122714226Y-140928218D01*
X122715443Y-140927054D01*
X122715448Y-140927049D01*
X122716038Y-140926483D01*
X122716058Y-140926457D01*
X122716060Y-140926456D01*
X122752216Y-140880881D01*
X122788462Y-140835720D01*
X122788979Y-140834544D01*
X122789784Y-140833530D01*
X122812939Y-140780090D01*
X122836235Y-140727147D01*
X122836427Y-140725890D01*
X122836942Y-140724704D01*
X122836943Y-140724691D01*
X122836945Y-140724689D01*
X122845476Y-140667100D01*
X122854279Y-140609908D01*
X122854138Y-140608629D01*
X123533916Y-136020130D01*
X123563211Y-135956702D01*
X123622151Y-135919179D01*
X123692020Y-135919478D01*
X123718573Y-135930916D01*
X123737498Y-135941842D01*
X123785714Y-135992407D01*
X123799500Y-136049230D01*
X123799500Y-136899902D01*
X123779815Y-136966941D01*
X123763181Y-136987583D01*
X123719481Y-137031282D01*
X123719475Y-137031290D01*
X123640426Y-137168209D01*
X123640423Y-137168216D01*
X123599500Y-137320943D01*
X123599500Y-137479057D01*
X123640289Y-137631282D01*
X123640423Y-137631783D01*
X123640426Y-137631790D01*
X123719475Y-137768709D01*
X123719479Y-137768714D01*
X123719480Y-137768716D01*
X123831284Y-137880520D01*
X123831286Y-137880521D01*
X123831290Y-137880524D01*
X123923182Y-137933577D01*
X123968216Y-137959577D01*
X124120943Y-138000500D01*
X124120945Y-138000500D01*
X124279055Y-138000500D01*
X124279057Y-138000500D01*
X124431784Y-137959577D01*
X124568716Y-137880520D01*
X124680520Y-137768716D01*
X124759577Y-137631784D01*
X124800500Y-137479057D01*
X124800500Y-137320943D01*
X124759577Y-137168216D01*
X124732875Y-137121966D01*
X124680524Y-137031290D01*
X124680518Y-137031282D01*
X124636819Y-136987583D01*
X124603334Y-136926260D01*
X124600500Y-136899902D01*
X124600500Y-135664699D01*
X124600500Y-135652730D01*
X124600501Y-135652727D01*
X124600501Y-135547273D01*
X124596253Y-135531423D01*
X124595798Y-135517111D01*
X124599961Y-135501056D01*
X124599961Y-135487182D01*
X124599439Y-135487114D01*
X124599961Y-135483142D01*
X124599962Y-135481064D01*
X124600500Y-135479057D01*
X124600500Y-135320943D01*
X124559577Y-135168216D01*
X124525038Y-135108392D01*
X124480524Y-135031290D01*
X124480518Y-135031282D01*
X124368717Y-134919481D01*
X124368712Y-134919477D01*
X124349476Y-134908371D01*
X124301262Y-134857803D01*
X124288040Y-134789196D01*
X124314009Y-134724332D01*
X124323787Y-134713314D01*
X124960489Y-134076614D01*
X125019799Y-133973887D01*
X125033985Y-133920943D01*
X125050500Y-133859309D01*
X125050500Y-127303032D01*
X125070185Y-127235993D01*
X125122989Y-127190238D01*
X125192147Y-127180294D01*
X125206581Y-127183254D01*
X125270943Y-127200500D01*
X125270946Y-127200500D01*
X125429055Y-127200500D01*
X125429057Y-127200500D01*
X125581784Y-127159577D01*
X125718716Y-127080520D01*
X125830520Y-126968716D01*
X125909577Y-126831784D01*
X125950500Y-126679057D01*
X125950500Y-126520943D01*
X125909577Y-126368216D01*
X125887831Y-126330551D01*
X125830524Y-126231290D01*
X125830518Y-126231282D01*
X125718717Y-126119481D01*
X125718712Y-126119477D01*
X125683653Y-126099236D01*
X125666010Y-126080733D01*
X125645691Y-126065221D01*
X125642303Y-126055869D01*
X125635437Y-126048669D01*
X125630598Y-126023562D01*
X125621891Y-125999530D01*
X125623620Y-125987362D01*
X125622214Y-125980062D01*
X125624740Y-125964351D01*
X125626855Y-125955048D01*
X125627725Y-125953359D01*
X125637487Y-125908295D01*
X125637611Y-125907755D01*
X125637655Y-125907675D01*
X125638749Y-125903159D01*
X125640808Y-125895475D01*
X125650499Y-125859309D01*
X125650499Y-125859306D01*
X125651560Y-125851250D01*
X125651598Y-125851255D01*
X125653311Y-125835269D01*
X125661816Y-125796015D01*
X128237974Y-113906053D01*
X128250500Y-113859309D01*
X128250500Y-113848244D01*
X128252843Y-113837431D01*
X128250645Y-113792084D01*
X128250500Y-113786082D01*
X128250500Y-113340693D01*
X128250500Y-113340691D01*
X128223389Y-113239511D01*
X128219799Y-113226113D01*
X128160489Y-113123386D01*
X128160487Y-113123384D01*
X128160392Y-113123260D01*
X128160343Y-113123135D01*
X128156425Y-113116348D01*
X128157483Y-113115737D01*
X128135194Y-113058092D01*
X128149229Y-112989647D01*
X128198041Y-112939655D01*
X128266131Y-112923988D01*
X128331649Y-112947451D01*
X128389728Y-112989647D01*
X128437006Y-113023996D01*
X128503923Y-113058092D01*
X128598360Y-113106211D01*
X128598363Y-113106212D01*
X128650833Y-113123260D01*
X128770591Y-113162171D01*
X128853429Y-113175291D01*
X128949449Y-113190500D01*
X128949454Y-113190500D01*
X129130551Y-113190500D01*
X129217259Y-113176765D01*
X129309409Y-113162171D01*
X129481639Y-113106211D01*
X129642994Y-113023996D01*
X129789501Y-112917553D01*
X129917553Y-112789501D01*
X130023996Y-112642994D01*
X130106211Y-112481639D01*
X130162171Y-112309409D01*
X130182725Y-112179636D01*
X130190500Y-112130551D01*
X130190500Y-111949448D01*
X130173231Y-111840423D01*
X130162171Y-111770591D01*
X130106211Y-111598361D01*
X130106211Y-111598360D01*
X130077740Y-111542484D01*
X130023996Y-111437006D01*
X130010396Y-111418287D01*
X129917558Y-111290505D01*
X129917554Y-111290500D01*
X129789499Y-111162445D01*
X129789494Y-111162441D01*
X129642997Y-111056006D01*
X129642996Y-111056005D01*
X129642994Y-111056004D01*
X129591300Y-111029664D01*
X129481639Y-110973788D01*
X129481636Y-110973787D01*
X129309410Y-110917829D01*
X129149321Y-110892473D01*
X129086186Y-110862544D01*
X129049255Y-110803232D01*
X129050253Y-110733370D01*
X129088863Y-110675137D01*
X129149321Y-110647527D01*
X129219425Y-110636422D01*
X129309409Y-110622171D01*
X129481639Y-110566211D01*
X129642994Y-110483996D01*
X129789501Y-110377553D01*
X129917553Y-110249501D01*
X130023996Y-110102994D01*
X130106211Y-109941639D01*
X130162171Y-109769409D01*
X130176765Y-109677259D01*
X130190500Y-109590551D01*
X130190500Y-109409448D01*
X130174019Y-109305397D01*
X130162171Y-109230591D01*
X130106211Y-109058361D01*
X130106211Y-109058360D01*
X130077740Y-109002484D01*
X130023996Y-108897006D01*
X130010396Y-108878287D01*
X129917558Y-108750505D01*
X129917554Y-108750500D01*
X129789499Y-108622445D01*
X129789494Y-108622441D01*
X129642997Y-108516006D01*
X129642996Y-108516005D01*
X129642994Y-108516004D01*
X129566906Y-108477235D01*
X129481639Y-108433788D01*
X129481636Y-108433787D01*
X129309410Y-108377829D01*
X129130551Y-108349500D01*
X129130546Y-108349500D01*
X128949454Y-108349500D01*
X128949449Y-108349500D01*
X128770589Y-108377829D01*
X128598363Y-108433787D01*
X128598360Y-108433788D01*
X128437002Y-108516006D01*
X128290505Y-108622441D01*
X128290500Y-108622445D01*
X128162445Y-108750500D01*
X128162441Y-108750505D01*
X128056006Y-108897002D01*
X127973788Y-109058360D01*
X127973787Y-109058363D01*
X127917829Y-109230589D01*
X127896972Y-109362271D01*
X127867042Y-109425405D01*
X127807731Y-109462336D01*
X127737868Y-109461338D01*
X127679636Y-109422728D01*
X127651522Y-109358764D01*
X127650499Y-109342872D01*
X127650499Y-108605143D01*
X127650499Y-108605136D01*
X127650497Y-108605117D01*
X127647586Y-108580012D01*
X127647585Y-108580010D01*
X127647585Y-108580009D01*
X127602206Y-108477235D01*
X127522765Y-108397794D01*
X127522763Y-108397793D01*
X127419992Y-108352415D01*
X127394865Y-108349500D01*
X125605143Y-108349500D01*
X125605117Y-108349502D01*
X125580012Y-108352413D01*
X125580008Y-108352415D01*
X125477235Y-108397793D01*
X125397794Y-108477234D01*
X125352415Y-108580006D01*
X125352415Y-108580008D01*
X125349500Y-108605131D01*
X125349500Y-110394856D01*
X125349502Y-110394882D01*
X125352413Y-110419987D01*
X125352415Y-110419991D01*
X125397793Y-110522764D01*
X125397794Y-110522765D01*
X125477235Y-110602206D01*
X125580009Y-110647585D01*
X125605135Y-110650500D01*
X126342873Y-110650499D01*
X126409910Y-110670183D01*
X126455665Y-110722987D01*
X126465609Y-110792146D01*
X126436584Y-110855702D01*
X126377806Y-110893476D01*
X126362270Y-110896972D01*
X126230589Y-110917829D01*
X126058363Y-110973787D01*
X126058360Y-110973788D01*
X125897002Y-111056006D01*
X125750505Y-111162441D01*
X125750500Y-111162445D01*
X125622445Y-111290500D01*
X125622441Y-111290505D01*
X125516006Y-111437002D01*
X125433788Y-111598360D01*
X125433787Y-111598363D01*
X125377829Y-111770589D01*
X125349500Y-111949448D01*
X125349500Y-112130551D01*
X125377829Y-112309410D01*
X125433787Y-112481636D01*
X125433788Y-112481639D01*
X125471680Y-112556004D01*
X125510292Y-112631784D01*
X125516006Y-112642997D01*
X125622441Y-112789494D01*
X125622445Y-112789499D01*
X125750500Y-112917554D01*
X125750505Y-112917558D01*
X125791650Y-112947451D01*
X125897006Y-113023996D01*
X125963923Y-113058092D01*
X126058360Y-113106211D01*
X126058363Y-113106212D01*
X126110833Y-113123260D01*
X126230591Y-113162171D01*
X126292877Y-113172036D01*
X126353636Y-113181660D01*
X126416771Y-113211589D01*
X126453702Y-113270901D01*
X126452704Y-113340764D01*
X126441628Y-113366128D01*
X126440425Y-113368211D01*
X126440423Y-113368216D01*
X126399500Y-113520943D01*
X126399500Y-113582745D01*
X126379815Y-113649784D01*
X126363181Y-113670426D01*
X123279522Y-116754084D01*
X123279520Y-116754087D01*
X123226793Y-116845411D01*
X123206947Y-116919480D01*
X123199500Y-116947271D01*
X123199500Y-121533745D01*
X123179815Y-121600784D01*
X123127011Y-121646539D01*
X123057853Y-121656483D01*
X122994297Y-121627458D01*
X122987819Y-121621426D01*
X119164531Y-117798138D01*
X119131046Y-117736815D01*
X119136030Y-117667123D01*
X119177902Y-117611190D01*
X119243366Y-117586773D01*
X119284304Y-117590682D01*
X119320943Y-117600500D01*
X119320945Y-117600500D01*
X119479055Y-117600500D01*
X119479057Y-117600500D01*
X119631784Y-117559577D01*
X119768716Y-117480520D01*
X119812417Y-117436819D01*
X119839344Y-117422115D01*
X119865163Y-117405523D01*
X119871363Y-117404631D01*
X119873740Y-117403334D01*
X119900098Y-117400500D01*
X119982745Y-117400500D01*
X120049784Y-117420185D01*
X120070426Y-117436819D01*
X120163181Y-117529574D01*
X120196666Y-117590897D01*
X120199500Y-117617255D01*
X120199500Y-117679057D01*
X120223525Y-117768717D01*
X120240423Y-117831783D01*
X120240426Y-117831790D01*
X120319475Y-117968709D01*
X120319479Y-117968714D01*
X120319480Y-117968716D01*
X120431284Y-118080520D01*
X120431286Y-118080521D01*
X120431290Y-118080524D01*
X120499181Y-118119720D01*
X120568216Y-118159577D01*
X120720943Y-118200500D01*
X120720945Y-118200500D01*
X120879055Y-118200500D01*
X120879057Y-118200500D01*
X121031784Y-118159577D01*
X121168716Y-118080520D01*
X121280520Y-117968716D01*
X121359577Y-117831784D01*
X121400500Y-117679057D01*
X121400500Y-117520943D01*
X121359577Y-117368216D01*
X121359573Y-117368209D01*
X121280524Y-117231290D01*
X121280518Y-117231282D01*
X121168717Y-117119481D01*
X121168709Y-117119475D01*
X121031790Y-117040426D01*
X121031786Y-117040424D01*
X121031784Y-117040423D01*
X120879057Y-116999500D01*
X120879056Y-116999500D01*
X120817255Y-116999500D01*
X120750216Y-116979815D01*
X120729574Y-116963181D01*
X120445915Y-116679522D01*
X120445913Y-116679520D01*
X120400250Y-116653156D01*
X120354589Y-116626793D01*
X120303657Y-116613146D01*
X120252727Y-116599500D01*
X120252726Y-116599500D01*
X119900098Y-116599500D01*
X119833059Y-116579815D01*
X119812417Y-116563181D01*
X119768717Y-116519481D01*
X119768709Y-116519475D01*
X119631790Y-116440426D01*
X119631786Y-116440424D01*
X119631784Y-116440423D01*
X119479057Y-116399500D01*
X119320943Y-116399500D01*
X119168216Y-116440423D01*
X119168209Y-116440426D01*
X119031290Y-116519475D01*
X119031282Y-116519481D01*
X118919481Y-116631282D01*
X118919475Y-116631290D01*
X118840426Y-116768209D01*
X118840423Y-116768216D01*
X118799500Y-116920943D01*
X118799500Y-117079057D01*
X118840289Y-117231282D01*
X118840423Y-117231783D01*
X118840423Y-117231784D01*
X118920821Y-117371039D01*
X118937293Y-117438939D01*
X118914440Y-117504966D01*
X118859518Y-117548156D01*
X118813433Y-117557038D01*
X117257636Y-117557038D01*
X117190597Y-117537353D01*
X117169955Y-117520719D01*
X117126255Y-117477019D01*
X117126247Y-117477013D01*
X116989328Y-117397964D01*
X116989324Y-117397962D01*
X116989322Y-117397961D01*
X116836595Y-117357038D01*
X116678481Y-117357038D01*
X116525754Y-117397961D01*
X116525747Y-117397964D01*
X116388828Y-117477013D01*
X116388820Y-117477019D01*
X116277019Y-117588820D01*
X116277013Y-117588828D01*
X116197964Y-117725747D01*
X116197961Y-117725754D01*
X116157038Y-117878481D01*
X116157038Y-118036595D01*
X116197275Y-118186759D01*
X116197961Y-118189321D01*
X116197964Y-118189328D01*
X116277013Y-118326247D01*
X116277017Y-118326252D01*
X116277018Y-118326254D01*
X116388822Y-118438058D01*
X116388824Y-118438059D01*
X116388828Y-118438062D01*
X116525747Y-118517111D01*
X116525754Y-118517115D01*
X116678481Y-118558038D01*
X116678483Y-118558038D01*
X116836593Y-118558038D01*
X116836595Y-118558038D01*
X116989322Y-118517115D01*
X117126254Y-118438058D01*
X117169955Y-118394357D01*
X117231278Y-118360872D01*
X117257636Y-118358038D01*
X118540283Y-118358038D01*
X118607322Y-118377723D01*
X118627964Y-118394357D01*
X122363181Y-122129573D01*
X122396666Y-122190896D01*
X122399500Y-122217254D01*
X122399500Y-124299902D01*
X122379815Y-124366941D01*
X122363181Y-124387583D01*
X122319481Y-124431282D01*
X122319475Y-124431290D01*
X122240426Y-124568209D01*
X122240423Y-124568216D01*
X122199500Y-124720943D01*
X122199500Y-124879057D01*
X122233684Y-125006631D01*
X122240423Y-125031783D01*
X122240426Y-125031790D01*
X122319475Y-125168709D01*
X122319479Y-125168714D01*
X122319480Y-125168716D01*
X122431284Y-125280520D01*
X122431285Y-125280521D01*
X122431287Y-125280522D01*
X122452229Y-125292613D01*
X122500445Y-125343180D01*
X122513668Y-125411787D01*
X122487700Y-125476652D01*
X122452229Y-125507387D01*
X122431287Y-125519477D01*
X122431282Y-125519481D01*
X122319481Y-125631282D01*
X122319475Y-125631290D01*
X122240426Y-125768209D01*
X122240423Y-125768216D01*
X122199500Y-125920943D01*
X122199500Y-126079057D01*
X122240289Y-126231282D01*
X122240423Y-126231783D01*
X122240426Y-126231790D01*
X122319475Y-126368709D01*
X122319479Y-126368714D01*
X122319480Y-126368716D01*
X122431284Y-126480520D01*
X122431286Y-126480521D01*
X122431290Y-126480524D01*
X122517137Y-126530087D01*
X122568216Y-126559577D01*
X122720943Y-126600500D01*
X122782745Y-126600500D01*
X122849784Y-126620185D01*
X122870426Y-126636819D01*
X123125275Y-126891667D01*
X123158760Y-126952990D01*
X123161594Y-126979348D01*
X123161594Y-129020651D01*
X123141909Y-129087690D01*
X123125275Y-129108332D01*
X121870426Y-130363181D01*
X121869122Y-130363892D01*
X121868381Y-130365179D01*
X121838553Y-130380584D01*
X121809103Y-130396666D01*
X121807197Y-130396780D01*
X121806303Y-130397242D01*
X121782745Y-130399500D01*
X121720943Y-130399500D01*
X121606593Y-130430140D01*
X121536743Y-130428477D01*
X121478881Y-130389314D01*
X121451377Y-130325086D01*
X121450500Y-130310365D01*
X121450500Y-130255771D01*
X121450501Y-130255758D01*
X121450501Y-130140316D01*
X121434524Y-130080688D01*
X121423207Y-130038455D01*
X121404307Y-130005720D01*
X121404306Y-130005719D01*
X121404306Y-130005718D01*
X121404306Y-130005717D01*
X121370482Y-129947132D01*
X121370481Y-129947131D01*
X121370480Y-129947129D01*
X121295913Y-129872562D01*
X121295912Y-129872561D01*
X121291582Y-129868231D01*
X121291571Y-129868221D01*
X120898997Y-129475646D01*
X120865512Y-129414323D01*
X120862678Y-129387965D01*
X120862678Y-129326165D01*
X120862678Y-129326163D01*
X120821755Y-129173436D01*
X120811915Y-129156393D01*
X120742702Y-129036510D01*
X120742696Y-129036502D01*
X120630895Y-128924701D01*
X120630887Y-128924695D01*
X120493968Y-128845646D01*
X120493964Y-128845644D01*
X120493962Y-128845643D01*
X120341235Y-128804720D01*
X120183121Y-128804720D01*
X120030394Y-128845643D01*
X120030387Y-128845646D01*
X119893468Y-128924695D01*
X119893460Y-128924701D01*
X119781659Y-129036502D01*
X119781653Y-129036510D01*
X119702604Y-129173429D01*
X119702601Y-129173436D01*
X119661678Y-129326163D01*
X119661678Y-129484277D01*
X119687278Y-129579815D01*
X119702601Y-129637003D01*
X119702604Y-129637010D01*
X119781653Y-129773929D01*
X119781657Y-129773934D01*
X119781658Y-129773936D01*
X119893462Y-129885740D01*
X119893464Y-129885741D01*
X119893468Y-129885744D01*
X119970989Y-129930500D01*
X120030394Y-129964797D01*
X120183121Y-130005720D01*
X120244923Y-130005720D01*
X120311962Y-130025405D01*
X120332604Y-130042039D01*
X120613181Y-130322615D01*
X120646666Y-130383938D01*
X120649500Y-130410296D01*
X120649500Y-132182331D01*
X120629815Y-132249370D01*
X120577011Y-132295125D01*
X120507853Y-132305069D01*
X120444297Y-132276044D01*
X120437819Y-132270012D01*
X117847329Y-129679522D01*
X117847327Y-129679520D01*
X117794008Y-129648736D01*
X117756003Y-129626793D01*
X117702349Y-129612417D01*
X117654141Y-129599500D01*
X117654140Y-129599500D01*
X112516697Y-129599500D01*
X112449658Y-129579815D01*
X112403903Y-129527011D01*
X112396925Y-129507602D01*
X112359577Y-129368216D01*
X112314785Y-129290633D01*
X112280524Y-129231290D01*
X112280518Y-129231282D01*
X112168717Y-129119481D01*
X112168709Y-129119475D01*
X112031790Y-129040426D01*
X112031786Y-129040424D01*
X112031784Y-129040423D01*
X111879057Y-128999500D01*
X111879056Y-128999500D01*
X111817255Y-128999500D01*
X111787814Y-128990855D01*
X111757828Y-128984332D01*
X111752812Y-128980577D01*
X111750216Y-128979815D01*
X111729574Y-128963181D01*
X111636819Y-128870426D01*
X111603334Y-128809103D01*
X111600500Y-128782745D01*
X111600500Y-128305844D01*
X111620185Y-128238805D01*
X111636819Y-128218163D01*
X111824483Y-128030499D01*
X112052300Y-127802682D01*
X112105027Y-127711357D01*
X112132320Y-127609496D01*
X112132320Y-127504042D01*
X112132320Y-125285434D01*
X112152005Y-125218395D01*
X112168639Y-125197753D01*
X113529573Y-123836819D01*
X113590896Y-123803334D01*
X113617254Y-123800500D01*
X115008040Y-123800500D01*
X115008042Y-123800500D01*
X115109903Y-123773207D01*
X115201228Y-123720480D01*
X115267890Y-123653818D01*
X115329213Y-123620333D01*
X115355571Y-123617499D01*
X115417371Y-123617499D01*
X115417373Y-123617499D01*
X115570100Y-123576576D01*
X115707032Y-123497519D01*
X115818836Y-123385715D01*
X115897893Y-123248783D01*
X115938816Y-123096056D01*
X115938816Y-122937942D01*
X115897893Y-122785215D01*
X115857936Y-122716006D01*
X115818840Y-122648289D01*
X115818834Y-122648281D01*
X115707033Y-122536480D01*
X115707025Y-122536474D01*
X115570106Y-122457425D01*
X115570102Y-122457423D01*
X115570100Y-122457422D01*
X115417373Y-122416499D01*
X115259259Y-122416499D01*
X115106532Y-122457422D01*
X115106525Y-122457425D01*
X114969606Y-122536474D01*
X114969598Y-122536480D01*
X114857797Y-122648281D01*
X114857791Y-122648289D01*
X114778742Y-122785208D01*
X114778739Y-122785213D01*
X114745948Y-122907594D01*
X114709583Y-122967254D01*
X114646736Y-122997783D01*
X114626173Y-122999500D01*
X113758792Y-122999500D01*
X113691753Y-122979815D01*
X113645998Y-122927011D01*
X113636054Y-122857853D01*
X113665079Y-122794297D01*
X113707591Y-122763642D01*
X113707590Y-122763641D01*
X113707607Y-122763631D01*
X113711342Y-122760938D01*
X113714625Y-122759577D01*
X113714628Y-122759577D01*
X113714630Y-122759575D01*
X113714632Y-122759575D01*
X113851553Y-122680524D01*
X113851552Y-122680524D01*
X113851560Y-122680520D01*
X113963364Y-122568716D01*
X114042421Y-122431784D01*
X114083344Y-122279057D01*
X114083344Y-122120943D01*
X114042421Y-121968216D01*
X114042420Y-121968214D01*
X114040317Y-121960365D01*
X114042653Y-121959739D01*
X114036502Y-121902472D01*
X114067783Y-121839996D01*
X114127875Y-121804349D01*
X114158530Y-121800500D01*
X114252725Y-121800500D01*
X114252727Y-121800500D01*
X114354588Y-121773207D01*
X114445913Y-121720480D01*
X114929574Y-121236819D01*
X114990897Y-121203334D01*
X115017255Y-121200500D01*
X115079055Y-121200500D01*
X115079057Y-121200500D01*
X115231784Y-121159577D01*
X115368716Y-121080520D01*
X115480520Y-120968716D01*
X115559577Y-120831784D01*
X115600500Y-120679057D01*
X115600500Y-120520943D01*
X115559577Y-120368216D01*
X115510058Y-120282445D01*
X115480524Y-120231290D01*
X115480518Y-120231282D01*
X115368716Y-120119480D01*
X115368709Y-120119475D01*
X115304650Y-120082491D01*
X115287397Y-120064397D01*
X115267381Y-120049413D01*
X115263700Y-120039546D01*
X115256434Y-120031925D01*
X115251701Y-120007374D01*
X115242965Y-119983949D01*
X115245203Y-119973659D01*
X115243210Y-119963318D01*
X115252502Y-119940106D01*
X115257817Y-119915676D01*
X115267416Y-119902853D01*
X115269178Y-119898453D01*
X115278964Y-119887427D01*
X115329574Y-119836818D01*
X115390897Y-119803334D01*
X115417254Y-119800500D01*
X115479055Y-119800500D01*
X115479057Y-119800500D01*
X115631784Y-119759577D01*
X115768716Y-119680520D01*
X115880520Y-119568716D01*
X115959577Y-119431784D01*
X116000500Y-119279057D01*
X116000500Y-119120943D01*
X115959577Y-118968216D01*
X115914079Y-118889410D01*
X115880524Y-118831290D01*
X115880518Y-118831282D01*
X115768717Y-118719481D01*
X115768709Y-118719475D01*
X115631790Y-118640426D01*
X115631786Y-118640424D01*
X115631784Y-118640423D01*
X115479057Y-118599500D01*
X115320943Y-118599500D01*
X115168216Y-118640423D01*
X115168209Y-118640426D01*
X115031290Y-118719475D01*
X115031282Y-118719481D01*
X114919481Y-118831282D01*
X114919475Y-118831290D01*
X114840426Y-118968209D01*
X114840423Y-118968216D01*
X114799500Y-119120943D01*
X114799500Y-119182745D01*
X114779815Y-119249784D01*
X114763181Y-119270426D01*
X114270426Y-119763181D01*
X114209103Y-119796666D01*
X114182745Y-119799500D01*
X113828034Y-119799500D01*
X113726171Y-119826793D01*
X113634848Y-119879520D01*
X113634845Y-119879522D01*
X112629522Y-120884845D01*
X112629520Y-120884848D01*
X112576794Y-120976171D01*
X112576793Y-120976173D01*
X112575715Y-120980198D01*
X112575714Y-120980201D01*
X112549500Y-121078034D01*
X112549500Y-121432744D01*
X112529815Y-121499783D01*
X112513181Y-121520425D01*
X110812181Y-123221425D01*
X110750858Y-123254910D01*
X110681166Y-123249926D01*
X110625233Y-123208054D01*
X110603130Y-123148796D01*
X110601561Y-123149003D01*
X110600500Y-123140950D01*
X110600500Y-123140943D01*
X110559577Y-122988216D01*
X110537801Y-122950499D01*
X110480524Y-122851290D01*
X110480518Y-122851282D01*
X110368717Y-122739481D01*
X110368709Y-122739475D01*
X110231790Y-122660426D01*
X110231786Y-122660424D01*
X110231784Y-122660423D01*
X110079057Y-122619500D01*
X109920943Y-122619500D01*
X109768216Y-122660423D01*
X109768209Y-122660426D01*
X109631290Y-122739475D01*
X109631282Y-122739481D01*
X109519481Y-122851282D01*
X109519475Y-122851290D01*
X109440426Y-122988209D01*
X109440423Y-122988216D01*
X109399500Y-123140943D01*
X109399500Y-123299057D01*
X109434745Y-123430591D01*
X109440423Y-123451783D01*
X109440426Y-123451790D01*
X109519475Y-123588709D01*
X109519479Y-123588714D01*
X109519480Y-123588716D01*
X109631284Y-123700520D01*
X109631286Y-123700521D01*
X109631290Y-123700524D01*
X109719176Y-123751264D01*
X109768216Y-123779577D01*
X109920943Y-123820500D01*
X109920951Y-123820500D01*
X109929003Y-123821561D01*
X109928569Y-123824853D01*
X109980783Y-123840185D01*
X110026538Y-123892989D01*
X110036482Y-123962147D01*
X110007457Y-124025703D01*
X110001425Y-124032181D01*
X109678522Y-124355084D01*
X109678520Y-124355087D01*
X109634239Y-124431784D01*
X109625793Y-124446412D01*
X109607261Y-124515575D01*
X109607261Y-124515576D01*
X109598500Y-124548270D01*
X109598500Y-124698819D01*
X109589856Y-124728255D01*
X109583333Y-124758245D01*
X109579577Y-124763261D01*
X109578815Y-124765858D01*
X109562182Y-124786500D01*
X109548183Y-124800499D01*
X109504088Y-124844594D01*
X109504087Y-124844595D01*
X109497015Y-124851668D01*
X109429520Y-124919163D01*
X109376794Y-125010486D01*
X109376793Y-125010489D01*
X109349500Y-125112349D01*
X109349500Y-126463988D01*
X109329815Y-126531027D01*
X109277011Y-126576782D01*
X109207853Y-126586726D01*
X109144297Y-126557701D01*
X109136034Y-126549847D01*
X109125628Y-126539004D01*
X109120480Y-126530087D01*
X109045913Y-126455520D01*
X109035914Y-126445521D01*
X109035034Y-126444604D01*
X109019485Y-126414682D01*
X109003334Y-126385103D01*
X109003130Y-126383207D01*
X109002817Y-126382605D01*
X109002931Y-126381361D01*
X109000500Y-126358745D01*
X109000500Y-126296945D01*
X109000500Y-126296943D01*
X108959577Y-126144216D01*
X108947549Y-126123383D01*
X108880524Y-126007290D01*
X108880518Y-126007282D01*
X108768717Y-125895481D01*
X108768709Y-125895475D01*
X108631790Y-125816426D01*
X108631786Y-125816424D01*
X108631784Y-125816423D01*
X108479057Y-125775500D01*
X108320943Y-125775500D01*
X108168216Y-125816423D01*
X108168209Y-125816426D01*
X108031290Y-125895475D01*
X108031282Y-125895481D01*
X107919481Y-126007282D01*
X107919475Y-126007290D01*
X107840426Y-126144209D01*
X107840423Y-126144216D01*
X107799500Y-126296943D01*
X107799500Y-126455057D01*
X107838472Y-126600500D01*
X107840423Y-126607783D01*
X107840426Y-126607790D01*
X107919475Y-126744709D01*
X107919479Y-126744714D01*
X107919480Y-126744716D01*
X108031284Y-126856520D01*
X108031286Y-126856521D01*
X108031290Y-126856524D01*
X108117539Y-126906319D01*
X108168216Y-126935577D01*
X108307595Y-126972923D01*
X108331370Y-126987415D01*
X108356703Y-126998984D01*
X108360793Y-127005349D01*
X108367254Y-127009287D01*
X108379421Y-127034334D01*
X108394477Y-127057762D01*
X108396022Y-127068509D01*
X108397783Y-127072134D01*
X108399500Y-127092697D01*
X108399500Y-127099902D01*
X108379815Y-127166941D01*
X108363181Y-127187583D01*
X108319481Y-127231282D01*
X108319475Y-127231290D01*
X108240426Y-127368209D01*
X108240423Y-127368216D01*
X108199500Y-127520943D01*
X108199500Y-127679057D01*
X108231245Y-127797529D01*
X108240423Y-127831783D01*
X108240426Y-127831790D01*
X108319475Y-127968709D01*
X108319479Y-127968714D01*
X108319480Y-127968716D01*
X108431284Y-128080520D01*
X108431286Y-128080521D01*
X108431290Y-128080524D01*
X108539748Y-128143141D01*
X108568216Y-128159577D01*
X108720943Y-128200500D01*
X108720945Y-128200500D01*
X108879055Y-128200500D01*
X108879057Y-128200500D01*
X109031784Y-128159577D01*
X109168716Y-128080520D01*
X109280520Y-127968716D01*
X109280522Y-127968711D01*
X109284078Y-127964079D01*
X109340505Y-127922875D01*
X109410251Y-127918718D01*
X109471172Y-127952930D01*
X109475145Y-127957194D01*
X109483530Y-127966630D01*
X109497436Y-127990715D01*
X109564771Y-128058050D01*
X109567190Y-128060772D01*
X109580604Y-128089200D01*
X109595666Y-128116783D01*
X109596269Y-128122397D01*
X109597007Y-128123960D01*
X109596694Y-128126346D01*
X109598500Y-128143141D01*
X109598500Y-128921637D01*
X109578815Y-128988676D01*
X109526011Y-129034431D01*
X109456853Y-129044375D01*
X109393297Y-129015350D01*
X109364165Y-128974951D01*
X109363641Y-128975254D01*
X109360657Y-128970086D01*
X109359939Y-128969090D01*
X109359575Y-128968211D01*
X109280524Y-128831290D01*
X109280518Y-128831282D01*
X109168717Y-128719481D01*
X109168709Y-128719475D01*
X109031790Y-128640426D01*
X109031786Y-128640424D01*
X109031784Y-128640423D01*
X108879057Y-128599500D01*
X108720943Y-128599500D01*
X108568216Y-128640423D01*
X108568209Y-128640426D01*
X108431290Y-128719475D01*
X108431282Y-128719481D01*
X108319481Y-128831282D01*
X108319475Y-128831290D01*
X108240426Y-128968209D01*
X108240423Y-128968216D01*
X108199500Y-129120943D01*
X108199500Y-129279057D01*
X108235745Y-129414323D01*
X108240423Y-129431783D01*
X108240426Y-129431790D01*
X108319475Y-129568709D01*
X108319481Y-129568717D01*
X108363181Y-129612417D01*
X108396666Y-129673740D01*
X108399500Y-129700098D01*
X108399500Y-130099902D01*
X108379815Y-130166941D01*
X108363181Y-130187583D01*
X108319481Y-130231282D01*
X108319475Y-130231290D01*
X108240426Y-130368209D01*
X108240423Y-130368216D01*
X108199500Y-130520943D01*
X108199500Y-130679057D01*
X108237191Y-130819720D01*
X108240423Y-130831783D01*
X108240426Y-130831790D01*
X108319475Y-130968709D01*
X108319479Y-130968714D01*
X108319480Y-130968716D01*
X108431284Y-131080520D01*
X108431286Y-131080521D01*
X108431290Y-131080524D01*
X108550762Y-131149500D01*
X108568216Y-131159577D01*
X108720943Y-131200500D01*
X108720945Y-131200500D01*
X108879055Y-131200500D01*
X108879057Y-131200500D01*
X109031784Y-131159577D01*
X109168716Y-131080520D01*
X109175415Y-131073820D01*
X109236733Y-131040336D01*
X109306425Y-131045317D01*
X109362360Y-131087187D01*
X109370481Y-131099498D01*
X109379515Y-131115145D01*
X109379522Y-131115154D01*
X109919885Y-131655517D01*
X109953370Y-131716840D01*
X109948386Y-131786532D01*
X109923984Y-131824500D01*
X109924426Y-131824839D01*
X109920369Y-131830125D01*
X109919885Y-131830879D01*
X109919481Y-131831282D01*
X109919475Y-131831290D01*
X109840426Y-131968209D01*
X109840423Y-131968216D01*
X109799500Y-132120943D01*
X109799500Y-132182745D01*
X109779815Y-132249784D01*
X109763181Y-132270426D01*
X108279522Y-133754084D01*
X108279520Y-133754087D01*
X108226793Y-133845411D01*
X108206555Y-133920943D01*
X108199500Y-133947271D01*
X108199500Y-136699902D01*
X108179815Y-136766941D01*
X108163181Y-136787583D01*
X108119481Y-136831282D01*
X108119475Y-136831290D01*
X108040426Y-136968209D01*
X108040423Y-136968216D01*
X107999500Y-137120943D01*
X107999500Y-137279057D01*
X108027618Y-137383996D01*
X108042527Y-137439635D01*
X108040190Y-137440260D01*
X108046342Y-137497528D01*
X108015061Y-137560004D01*
X107954969Y-137595651D01*
X107924314Y-137599500D01*
X106300098Y-137599500D01*
X106233059Y-137579815D01*
X106212417Y-137563181D01*
X106168717Y-137519481D01*
X106168709Y-137519475D01*
X106031790Y-137440426D01*
X106031786Y-137440424D01*
X106031784Y-137440423D01*
X105879057Y-137399500D01*
X105720943Y-137399500D01*
X105568216Y-137440423D01*
X105568209Y-137440426D01*
X105431290Y-137519475D01*
X105431282Y-137519481D01*
X105319481Y-137631282D01*
X105319475Y-137631290D01*
X105240426Y-137768209D01*
X105240423Y-137768216D01*
X105199500Y-137920943D01*
X102334184Y-137920943D01*
X102241639Y-137873788D01*
X102241636Y-137873787D01*
X102069410Y-137817829D01*
X101909321Y-137792473D01*
X101846186Y-137762544D01*
X101809255Y-137703232D01*
X101810253Y-137633370D01*
X101848863Y-137575137D01*
X101909321Y-137547527D01*
X101979425Y-137536422D01*
X102069409Y-137522171D01*
X102241639Y-137466211D01*
X102402994Y-137383996D01*
X102549501Y-137277553D01*
X102677553Y-137149501D01*
X102783996Y-137002994D01*
X102866211Y-136841639D01*
X102922171Y-136669409D01*
X102938198Y-136568216D01*
X102950500Y-136490551D01*
X102950500Y-136309448D01*
X102934019Y-136205397D01*
X102922171Y-136130591D01*
X102883806Y-136012514D01*
X102866212Y-135958363D01*
X102866211Y-135958360D01*
X102792517Y-135813730D01*
X102783996Y-135797006D01*
X102770396Y-135778287D01*
X102677558Y-135650505D01*
X102677554Y-135650500D01*
X102549499Y-135522445D01*
X102549494Y-135522441D01*
X102402997Y-135416006D01*
X102402996Y-135416005D01*
X102402994Y-135416004D01*
X102331383Y-135379516D01*
X102241639Y-135333788D01*
X102241636Y-135333787D01*
X102069410Y-135277829D01*
X101909321Y-135252473D01*
X101846186Y-135222544D01*
X101809255Y-135163232D01*
X101810253Y-135093370D01*
X101848863Y-135035137D01*
X101909321Y-135007527D01*
X101979425Y-134996422D01*
X102069409Y-134982171D01*
X102241639Y-134926211D01*
X102402994Y-134843996D01*
X102549501Y-134737553D01*
X102677553Y-134609501D01*
X102783996Y-134462994D01*
X102866211Y-134301639D01*
X102922171Y-134129409D01*
X102939935Y-134017254D01*
X102950500Y-133950551D01*
X102950500Y-133769448D01*
X102925783Y-133613397D01*
X102922171Y-133590591D01*
X102883806Y-133472514D01*
X102866212Y-133418363D01*
X102866211Y-133418360D01*
X102823007Y-133333569D01*
X102783996Y-133257006D01*
X102770396Y-133238287D01*
X102677558Y-133110505D01*
X102677554Y-133110500D01*
X102549499Y-132982445D01*
X102549494Y-132982441D01*
X102402997Y-132876006D01*
X102402996Y-132876005D01*
X102402994Y-132876004D01*
X102326090Y-132836819D01*
X102241639Y-132793788D01*
X102241636Y-132793787D01*
X102069410Y-132737829D01*
X101909321Y-132712473D01*
X101846186Y-132682544D01*
X101809255Y-132623232D01*
X101810253Y-132553370D01*
X101848863Y-132495137D01*
X101909321Y-132467527D01*
X101979425Y-132456422D01*
X102069409Y-132442171D01*
X102241639Y-132386211D01*
X102402994Y-132303996D01*
X102549501Y-132197553D01*
X102677553Y-132069501D01*
X102783996Y-131922994D01*
X102866211Y-131761639D01*
X102922171Y-131589409D01*
X102937660Y-131491614D01*
X102950500Y-131410551D01*
X102950500Y-131229448D01*
X102927781Y-131086014D01*
X102922171Y-131050591D01*
X102882619Y-130928859D01*
X102866212Y-130878363D01*
X102866211Y-130878360D01*
X102836331Y-130819718D01*
X102783996Y-130717006D01*
X102730666Y-130643603D01*
X102677558Y-130570505D01*
X102677554Y-130570500D01*
X102549499Y-130442445D01*
X102549494Y-130442441D01*
X102402997Y-130336006D01*
X102402996Y-130336005D01*
X102402994Y-130336004D01*
X102351300Y-130309664D01*
X102241639Y-130253788D01*
X102241636Y-130253787D01*
X102069410Y-130197829D01*
X101909321Y-130172473D01*
X101846186Y-130142544D01*
X101809255Y-130083232D01*
X101810253Y-130013370D01*
X101848863Y-129955137D01*
X101909321Y-129927527D01*
X101979425Y-129916422D01*
X102069409Y-129902171D01*
X102241639Y-129846211D01*
X102402994Y-129763996D01*
X102549501Y-129657553D01*
X102677553Y-129529501D01*
X102783996Y-129382994D01*
X102866211Y-129221639D01*
X102922171Y-129049409D01*
X102942408Y-128921637D01*
X102950500Y-128870551D01*
X102950500Y-128689448D01*
X102934019Y-128585397D01*
X102922171Y-128510591D01*
X102883806Y-128392514D01*
X102866212Y-128338363D01*
X102866211Y-128338360D01*
X102815484Y-128238805D01*
X102783996Y-128177006D01*
X102745456Y-128123960D01*
X102677558Y-128030505D01*
X102677554Y-128030500D01*
X102549499Y-127902445D01*
X102549494Y-127902441D01*
X102402997Y-127796006D01*
X102402996Y-127796005D01*
X102402994Y-127796004D01*
X102329393Y-127758502D01*
X102241639Y-127713788D01*
X102241636Y-127713787D01*
X102069410Y-127657829D01*
X101909321Y-127632473D01*
X101846186Y-127602544D01*
X101809255Y-127543232D01*
X101810253Y-127473370D01*
X101848863Y-127415137D01*
X101909321Y-127387527D01*
X101979425Y-127376422D01*
X102069409Y-127362171D01*
X102241639Y-127306211D01*
X102402994Y-127223996D01*
X102549501Y-127117553D01*
X102677553Y-126989501D01*
X102783996Y-126842994D01*
X102866211Y-126681639D01*
X102922171Y-126509409D01*
X102941859Y-126385103D01*
X102950500Y-126330551D01*
X102950500Y-126149448D01*
X102929332Y-126015805D01*
X102922171Y-125970591D01*
X102883397Y-125851255D01*
X102866212Y-125798363D01*
X102866211Y-125798360D01*
X102836331Y-125739718D01*
X102783996Y-125637006D01*
X102739039Y-125575127D01*
X102677558Y-125490505D01*
X102677554Y-125490500D01*
X102549499Y-125362445D01*
X102549494Y-125362441D01*
X102402997Y-125256006D01*
X102402996Y-125256005D01*
X102402994Y-125256004D01*
X102329183Y-125218395D01*
X102241639Y-125173788D01*
X102241636Y-125173787D01*
X102069410Y-125117829D01*
X101909321Y-125092473D01*
X101846186Y-125062544D01*
X101809255Y-125003232D01*
X101810253Y-124933370D01*
X101848863Y-124875137D01*
X101909321Y-124847527D01*
X101979425Y-124836422D01*
X102069409Y-124822171D01*
X102241639Y-124766211D01*
X102402994Y-124683996D01*
X102549501Y-124577553D01*
X102677553Y-124449501D01*
X102783996Y-124302994D01*
X102866211Y-124141639D01*
X102922171Y-123969409D01*
X102944048Y-123831282D01*
X102950500Y-123790551D01*
X102950500Y-123609448D01*
X102932771Y-123497517D01*
X102922171Y-123430591D01*
X102883806Y-123312514D01*
X102866212Y-123258363D01*
X102866211Y-123258360D01*
X102832505Y-123192209D01*
X102783996Y-123097006D01*
X102762941Y-123068026D01*
X102677558Y-122950505D01*
X102677554Y-122950500D01*
X102549499Y-122822445D01*
X102549494Y-122822441D01*
X102402997Y-122716006D01*
X102402996Y-122716005D01*
X102402994Y-122716004D01*
X102333353Y-122680520D01*
X102241639Y-122633788D01*
X102241636Y-122633787D01*
X102069410Y-122577829D01*
X101909321Y-122552473D01*
X101846186Y-122522544D01*
X101809255Y-122463232D01*
X101810253Y-122393370D01*
X101825123Y-122370943D01*
X107574207Y-122370943D01*
X107574207Y-122529057D01*
X107614793Y-122680524D01*
X107615130Y-122681783D01*
X107615133Y-122681790D01*
X107694182Y-122818709D01*
X107694186Y-122818714D01*
X107694187Y-122818716D01*
X107805991Y-122930520D01*
X107837744Y-122948852D01*
X107885960Y-122999419D01*
X107899184Y-123068026D01*
X107883133Y-123118239D01*
X107840423Y-123192215D01*
X107840423Y-123192216D01*
X107799500Y-123344943D01*
X107799500Y-123503061D01*
X107800041Y-123505078D01*
X107800041Y-123507163D01*
X107800561Y-123511113D01*
X107800041Y-123511181D01*
X107800041Y-123563143D01*
X107800561Y-123563212D01*
X107800041Y-123567155D01*
X107800042Y-123569244D01*
X107799501Y-123571262D01*
X107799500Y-123571273D01*
X107799500Y-124299902D01*
X107779815Y-124366941D01*
X107763181Y-124387583D01*
X107719481Y-124431282D01*
X107719475Y-124431290D01*
X107640426Y-124568209D01*
X107640423Y-124568216D01*
X107599500Y-124720943D01*
X107599500Y-124879057D01*
X107633684Y-125006631D01*
X107640423Y-125031783D01*
X107640426Y-125031790D01*
X107719475Y-125168709D01*
X107719479Y-125168714D01*
X107719480Y-125168716D01*
X107831284Y-125280520D01*
X107831286Y-125280521D01*
X107831290Y-125280524D01*
X107905468Y-125323350D01*
X107968216Y-125359577D01*
X108120943Y-125400500D01*
X108120945Y-125400500D01*
X108279055Y-125400500D01*
X108279057Y-125400500D01*
X108431784Y-125359577D01*
X108568716Y-125280520D01*
X108680520Y-125168716D01*
X108759577Y-125031784D01*
X108800500Y-124879057D01*
X108800500Y-124720943D01*
X108759577Y-124568216D01*
X108729185Y-124515575D01*
X108680524Y-124431290D01*
X108680518Y-124431282D01*
X108636819Y-124387583D01*
X108622115Y-124360655D01*
X108605523Y-124334837D01*
X108604631Y-124328636D01*
X108603334Y-124326260D01*
X108600500Y-124299902D01*
X108600500Y-124073230D01*
X108620185Y-124006191D01*
X108662499Y-123965843D01*
X108768716Y-123904520D01*
X108880520Y-123792716D01*
X108959577Y-123655784D01*
X109000500Y-123503057D01*
X109000500Y-123344943D01*
X108959577Y-123192216D01*
X108904059Y-123096055D01*
X108880524Y-123055290D01*
X108880518Y-123055282D01*
X108768717Y-122943481D01*
X108768712Y-122943477D01*
X108736961Y-122925146D01*
X108688746Y-122874579D01*
X108675522Y-122805972D01*
X108691572Y-122755763D01*
X108734284Y-122681784D01*
X108775207Y-122529057D01*
X108775207Y-122370943D01*
X108734284Y-122218216D01*
X108704075Y-122165892D01*
X108655231Y-122081290D01*
X108655225Y-122081282D01*
X108611526Y-122037583D01*
X108578041Y-121976260D01*
X108575207Y-121949902D01*
X108575207Y-121141850D01*
X108594892Y-121074811D01*
X108647696Y-121029056D01*
X108716854Y-121019112D01*
X108753724Y-121031874D01*
X108753894Y-121031466D01*
X108760750Y-121034305D01*
X108761210Y-121034465D01*
X108761404Y-121034577D01*
X108914131Y-121075500D01*
X108914133Y-121075500D01*
X109072243Y-121075500D01*
X109072245Y-121075500D01*
X109224972Y-121034577D01*
X109361904Y-120955520D01*
X109473708Y-120843716D01*
X109552765Y-120706784D01*
X109593688Y-120554057D01*
X109593688Y-120395943D01*
X109552765Y-120243216D01*
X109540528Y-120222020D01*
X109473712Y-120106290D01*
X109473706Y-120106282D01*
X109361905Y-119994481D01*
X109361897Y-119994475D01*
X109224978Y-119915426D01*
X109224974Y-119915424D01*
X109224972Y-119915423D01*
X109072245Y-119874500D01*
X108914131Y-119874500D01*
X108761404Y-119915423D01*
X108761397Y-119915426D01*
X108624478Y-119994475D01*
X108624470Y-119994481D01*
X108580772Y-120038180D01*
X108519449Y-120071665D01*
X108493091Y-120074499D01*
X108486563Y-120074499D01*
X108381109Y-120074499D01*
X108279248Y-120101793D01*
X108279247Y-120101793D01*
X108279245Y-120101794D01*
X108248615Y-120119479D01*
X108248614Y-120119480D01*
X108187926Y-120154518D01*
X108187924Y-120154519D01*
X108120425Y-120222018D01*
X108120424Y-120222017D01*
X108120422Y-120222020D01*
X107854229Y-120488213D01*
X107854227Y-120488216D01*
X107801501Y-120579539D01*
X107782698Y-120649712D01*
X107774207Y-120681398D01*
X107774207Y-121949902D01*
X107754522Y-122016941D01*
X107737888Y-122037583D01*
X107694188Y-122081282D01*
X107694182Y-122081290D01*
X107615133Y-122218209D01*
X107615130Y-122218216D01*
X107574207Y-122370943D01*
X101825123Y-122370943D01*
X101848863Y-122335137D01*
X101909321Y-122307527D01*
X101979425Y-122296422D01*
X102069409Y-122282171D01*
X102158236Y-122253309D01*
X102184166Y-122244885D01*
X102184166Y-122244884D01*
X102241639Y-122226211D01*
X102402994Y-122143996D01*
X102549501Y-122037553D01*
X102677553Y-121909501D01*
X102783996Y-121762994D01*
X102866211Y-121601639D01*
X102922171Y-121429409D01*
X102936765Y-121337259D01*
X102950500Y-121250551D01*
X102950500Y-121069448D01*
X102932454Y-120955518D01*
X102922171Y-120890591D01*
X102883806Y-120772514D01*
X102866212Y-120718363D01*
X102866211Y-120718360D01*
X102806157Y-120600500D01*
X102783996Y-120557006D01*
X102757795Y-120520943D01*
X102677558Y-120410505D01*
X102677554Y-120410500D01*
X102549499Y-120282445D01*
X102549494Y-120282441D01*
X102402997Y-120176006D01*
X102402996Y-120176005D01*
X102402994Y-120176004D01*
X102351300Y-120149664D01*
X102241639Y-120093788D01*
X102241636Y-120093787D01*
X102069410Y-120037829D01*
X101909321Y-120012473D01*
X101846186Y-119982544D01*
X101809255Y-119923232D01*
X101810253Y-119853370D01*
X101848863Y-119795137D01*
X101909321Y-119767527D01*
X101979425Y-119756422D01*
X102069409Y-119742171D01*
X102241639Y-119686211D01*
X102402994Y-119603996D01*
X102549501Y-119497553D01*
X102677553Y-119369501D01*
X102783996Y-119222994D01*
X102866211Y-119061639D01*
X102922171Y-118889409D01*
X102936765Y-118797259D01*
X102950500Y-118710551D01*
X102950500Y-118529448D01*
X102926468Y-118377723D01*
X102922171Y-118350591D01*
X102883806Y-118232514D01*
X102866212Y-118178363D01*
X102866211Y-118178360D01*
X102816357Y-118080518D01*
X102783996Y-118017006D01*
X102748912Y-117968717D01*
X102677558Y-117870505D01*
X102677554Y-117870500D01*
X102549499Y-117742445D01*
X102549494Y-117742441D01*
X102402997Y-117636006D01*
X102402996Y-117636005D01*
X102402994Y-117636004D01*
X102333312Y-117600499D01*
X102241639Y-117553788D01*
X102241636Y-117553787D01*
X102069410Y-117497829D01*
X101909321Y-117472473D01*
X101896188Y-117466247D01*
X101881730Y-117464752D01*
X101865250Y-117451581D01*
X101846186Y-117442544D01*
X101838502Y-117430203D01*
X101827150Y-117421131D01*
X101820407Y-117401142D01*
X101809255Y-117383232D01*
X101809462Y-117368698D01*
X101804817Y-117354927D01*
X101809951Y-117334464D01*
X101810145Y-117320943D01*
X108199500Y-117320943D01*
X108199500Y-117479057D01*
X108232041Y-117600500D01*
X108240423Y-117631783D01*
X108240426Y-117631790D01*
X108319475Y-117768709D01*
X108319481Y-117768717D01*
X108363181Y-117812417D01*
X108396666Y-117873740D01*
X108399500Y-117900098D01*
X108399500Y-118299902D01*
X108379815Y-118366941D01*
X108363181Y-118387583D01*
X108319481Y-118431282D01*
X108319475Y-118431290D01*
X108240426Y-118568209D01*
X108240423Y-118568216D01*
X108199500Y-118720943D01*
X108199500Y-118879057D01*
X108239026Y-119026568D01*
X108240423Y-119031783D01*
X108240426Y-119031790D01*
X108319475Y-119168709D01*
X108319479Y-119168714D01*
X108319480Y-119168716D01*
X108431284Y-119280520D01*
X108431286Y-119280521D01*
X108431290Y-119280524D01*
X108568209Y-119359573D01*
X108568216Y-119359577D01*
X108720943Y-119400500D01*
X108720945Y-119400500D01*
X108879055Y-119400500D01*
X108879057Y-119400500D01*
X109031784Y-119359577D01*
X109168716Y-119280520D01*
X109280520Y-119168716D01*
X109359577Y-119031784D01*
X109400500Y-118879057D01*
X109400500Y-118720943D01*
X109359577Y-118568216D01*
X109337198Y-118529454D01*
X109280524Y-118431290D01*
X109280518Y-118431282D01*
X109236819Y-118387583D01*
X109203334Y-118326260D01*
X109200500Y-118299902D01*
X109200500Y-117900098D01*
X109220185Y-117833059D01*
X109236819Y-117812417D01*
X109251098Y-117798138D01*
X109280520Y-117768716D01*
X109359577Y-117631784D01*
X109400500Y-117479057D01*
X109400500Y-117320943D01*
X109359577Y-117168216D01*
X109308101Y-117079056D01*
X109280524Y-117031290D01*
X109280518Y-117031282D01*
X109168716Y-116919480D01*
X109168709Y-116919475D01*
X109031790Y-116840426D01*
X109031786Y-116840424D01*
X109031784Y-116840423D01*
X108879057Y-116799500D01*
X108720943Y-116799500D01*
X108568216Y-116840423D01*
X108568209Y-116840426D01*
X108431290Y-116919475D01*
X108431284Y-116919480D01*
X108319481Y-117031282D01*
X108319475Y-117031290D01*
X108240426Y-117168209D01*
X108240423Y-117168216D01*
X108199500Y-117320943D01*
X101810145Y-117320943D01*
X101810253Y-117313370D01*
X101818284Y-117301257D01*
X101821822Y-117287158D01*
X101837205Y-117272718D01*
X101848863Y-117255137D01*
X101863099Y-117248415D01*
X101872767Y-117239341D01*
X101903035Y-117229558D01*
X101906209Y-117228060D01*
X101907763Y-117227772D01*
X102069409Y-117202171D01*
X102241639Y-117146211D01*
X102402994Y-117063996D01*
X102549501Y-116957553D01*
X102677553Y-116829501D01*
X102783996Y-116682994D01*
X102866211Y-116521639D01*
X102866913Y-116519480D01*
X102883806Y-116467487D01*
X102922171Y-116349409D01*
X102940235Y-116235360D01*
X102950500Y-116170551D01*
X102950500Y-115989448D01*
X102934019Y-115885397D01*
X102922171Y-115810591D01*
X102883806Y-115692514D01*
X102866212Y-115638363D01*
X102866206Y-115638350D01*
X102830928Y-115569113D01*
X102830926Y-115569111D01*
X102806383Y-115520943D01*
X107999500Y-115520943D01*
X107999500Y-115679057D01*
X108034745Y-115810591D01*
X108040423Y-115831783D01*
X108040426Y-115831790D01*
X108119475Y-115968709D01*
X108119479Y-115968714D01*
X108119480Y-115968716D01*
X108231284Y-116080520D01*
X108231286Y-116080521D01*
X108231290Y-116080524D01*
X108368209Y-116159573D01*
X108368216Y-116159577D01*
X108520943Y-116200500D01*
X108520945Y-116200500D01*
X108679055Y-116200500D01*
X108679057Y-116200500D01*
X108831784Y-116159577D01*
X108968716Y-116080520D01*
X109080520Y-115968716D01*
X109159577Y-115831784D01*
X109159577Y-115831780D01*
X109163640Y-115824745D01*
X109164262Y-115825104D01*
X109186092Y-115792431D01*
X109457580Y-115520943D01*
X119799500Y-115520943D01*
X119799500Y-115679057D01*
X119834745Y-115810591D01*
X119840423Y-115831783D01*
X119840426Y-115831790D01*
X119919475Y-115968709D01*
X119919479Y-115968714D01*
X119919480Y-115968716D01*
X120031284Y-116080520D01*
X120031286Y-116080521D01*
X120031290Y-116080524D01*
X120168209Y-116159573D01*
X120168216Y-116159577D01*
X120320943Y-116200500D01*
X120320945Y-116200500D01*
X120479055Y-116200500D01*
X120479057Y-116200500D01*
X120631784Y-116159577D01*
X120768716Y-116080520D01*
X120880520Y-115968716D01*
X120959577Y-115831784D01*
X121000500Y-115679057D01*
X121000500Y-115617254D01*
X121020185Y-115550215D01*
X121036815Y-115529577D01*
X121774183Y-114792208D01*
X121824473Y-114763176D01*
X121824271Y-114762689D01*
X121827977Y-114761153D01*
X121829777Y-114760114D01*
X121831784Y-114759577D01*
X121968716Y-114680520D01*
X122080520Y-114568716D01*
X122159577Y-114431784D01*
X122200500Y-114279057D01*
X122200500Y-114120943D01*
X122159577Y-113968216D01*
X122147079Y-113946568D01*
X122080524Y-113831290D01*
X122080518Y-113831282D01*
X121968717Y-113719481D01*
X121968709Y-113719475D01*
X121831790Y-113640426D01*
X121831786Y-113640424D01*
X121831784Y-113640423D01*
X121679057Y-113599500D01*
X121520943Y-113599500D01*
X121368216Y-113640423D01*
X121368209Y-113640426D01*
X121231290Y-113719475D01*
X121231282Y-113719481D01*
X121119481Y-113831282D01*
X121119475Y-113831290D01*
X121040426Y-113968209D01*
X121040423Y-113968216D01*
X120999500Y-114120943D01*
X120999500Y-114279060D01*
X121013736Y-114332191D01*
X121012072Y-114402041D01*
X120981642Y-114451963D01*
X120470426Y-114963181D01*
X120409103Y-114996666D01*
X120382745Y-114999500D01*
X120320943Y-114999500D01*
X120168216Y-115040423D01*
X120168209Y-115040426D01*
X120031290Y-115119475D01*
X120031282Y-115119481D01*
X119919481Y-115231282D01*
X119919475Y-115231290D01*
X119840426Y-115368209D01*
X119840423Y-115368216D01*
X119799500Y-115520943D01*
X109457580Y-115520943D01*
X110440510Y-114538015D01*
X110512984Y-114412485D01*
X110529937Y-114349219D01*
X110530459Y-114347272D01*
X110543867Y-114297229D01*
X110550500Y-114272475D01*
X110550500Y-112678362D01*
X110558167Y-112639822D01*
X110557473Y-112639636D01*
X110559577Y-112631784D01*
X110600500Y-112479057D01*
X110600500Y-112320943D01*
X110559577Y-112168216D01*
X110537831Y-112130551D01*
X110480524Y-112031290D01*
X110480518Y-112031282D01*
X110368717Y-111919481D01*
X110368709Y-111919475D01*
X110231790Y-111840426D01*
X110231786Y-111840424D01*
X110231784Y-111840423D01*
X110079057Y-111799500D01*
X109920943Y-111799500D01*
X109768216Y-111840423D01*
X109768209Y-111840426D01*
X109631290Y-111919475D01*
X109631282Y-111919481D01*
X109519481Y-112031282D01*
X109519475Y-112031290D01*
X109440426Y-112168209D01*
X109440423Y-112168216D01*
X109399500Y-112320943D01*
X109399500Y-112479057D01*
X109424189Y-112571198D01*
X109442527Y-112639636D01*
X109441832Y-112639822D01*
X109449500Y-112678362D01*
X109449500Y-113920612D01*
X109429815Y-113987651D01*
X109413181Y-114008293D01*
X108407567Y-115013906D01*
X108374894Y-115035740D01*
X108375253Y-115036361D01*
X108368218Y-115040422D01*
X108368216Y-115040423D01*
X108282028Y-115090182D01*
X108231285Y-115119479D01*
X108231282Y-115119481D01*
X108119481Y-115231282D01*
X108119475Y-115231290D01*
X108040426Y-115368209D01*
X108040423Y-115368216D01*
X107999500Y-115520943D01*
X102806383Y-115520943D01*
X102783996Y-115477006D01*
X102704951Y-115368209D01*
X102677558Y-115330505D01*
X102677554Y-115330500D01*
X102549499Y-115202445D01*
X102549494Y-115202441D01*
X102402997Y-115096006D01*
X102402996Y-115096005D01*
X102402994Y-115096004D01*
X102351300Y-115069664D01*
X102241639Y-115013788D01*
X102241636Y-115013787D01*
X102069410Y-114957829D01*
X101909321Y-114932473D01*
X101846186Y-114902544D01*
X101809255Y-114843232D01*
X101810253Y-114773370D01*
X101848863Y-114715137D01*
X101909321Y-114687527D01*
X101979425Y-114676422D01*
X102069409Y-114662171D01*
X102241639Y-114606211D01*
X102402994Y-114523996D01*
X102549501Y-114417553D01*
X102677553Y-114289501D01*
X102783996Y-114142994D01*
X102866211Y-113981639D01*
X102922171Y-113809409D01*
X102944184Y-113670426D01*
X102950500Y-113630551D01*
X102950500Y-113449448D01*
X102933274Y-113340691D01*
X102922171Y-113270591D01*
X102886944Y-113162171D01*
X102866212Y-113098363D01*
X102866211Y-113098360D01*
X102810818Y-112989647D01*
X102783996Y-112937006D01*
X102759682Y-112903541D01*
X102677558Y-112790505D01*
X102677554Y-112790500D01*
X102549499Y-112662445D01*
X102549494Y-112662441D01*
X102402997Y-112556006D01*
X102402996Y-112556005D01*
X102402994Y-112556004D01*
X102351300Y-112529664D01*
X102241639Y-112473788D01*
X102241636Y-112473787D01*
X102069410Y-112417829D01*
X101937728Y-112396972D01*
X101874594Y-112367042D01*
X101837663Y-112307731D01*
X101838661Y-112237868D01*
X101877271Y-112179636D01*
X101941235Y-112151522D01*
X101957120Y-112150499D01*
X102694864Y-112150499D01*
X102694879Y-112150497D01*
X102694882Y-112150497D01*
X102719987Y-112147586D01*
X102719988Y-112147585D01*
X102719991Y-112147585D01*
X102822765Y-112102206D01*
X102902206Y-112022765D01*
X102947585Y-111919991D01*
X102950500Y-111894865D01*
X102950499Y-110105136D01*
X102950251Y-110102994D01*
X102947586Y-110080012D01*
X102947585Y-110080010D01*
X102947585Y-110080009D01*
X102902206Y-109977235D01*
X102822765Y-109897794D01*
X102771520Y-109875167D01*
X102719992Y-109852415D01*
X102694865Y-109849500D01*
X100905143Y-109849500D01*
X100905117Y-109849502D01*
X100880012Y-109852413D01*
X100880008Y-109852415D01*
X100777235Y-109897793D01*
X100777234Y-109897794D01*
X100712181Y-109962848D01*
X100650858Y-109996333D01*
X100581166Y-109991349D01*
X100525233Y-109949477D01*
X100500816Y-109884013D01*
X100500500Y-109875167D01*
X100500500Y-104750000D01*
X111485000Y-104750000D01*
X113575000Y-104750000D01*
X113575000Y-102850000D01*
X111485000Y-102850000D01*
X111485000Y-104750000D01*
X100500500Y-104750000D01*
X100500500Y-102690633D01*
X100520185Y-102623594D01*
X100572989Y-102577839D01*
X100642147Y-102567895D01*
X100705703Y-102596920D01*
X100724819Y-102617748D01*
X100769896Y-102679792D01*
X100920213Y-102830109D01*
X101092179Y-102955048D01*
X101092181Y-102955049D01*
X101092184Y-102955051D01*
X101281588Y-103051557D01*
X101483757Y-103117246D01*
X101693713Y-103150500D01*
X101693714Y-103150500D01*
X101906286Y-103150500D01*
X101906287Y-103150500D01*
X102116243Y-103117246D01*
X102318412Y-103051557D01*
X102507816Y-102955051D01*
X102552305Y-102922728D01*
X102679786Y-102830109D01*
X102679788Y-102830106D01*
X102679792Y-102830104D01*
X102830104Y-102679792D01*
X102830106Y-102679788D01*
X102830109Y-102679786D01*
X102955048Y-102507820D01*
X102955047Y-102507820D01*
X102955051Y-102507816D01*
X103051557Y-102318412D01*
X103117246Y-102116243D01*
X103119006Y-102105131D01*
X126349500Y-102105131D01*
X126349500Y-103894856D01*
X126349502Y-103894882D01*
X126352413Y-103919987D01*
X126352415Y-103919991D01*
X126397793Y-104022764D01*
X126397794Y-104022765D01*
X126477235Y-104102206D01*
X126580009Y-104147585D01*
X126605135Y-104150500D01*
X127342873Y-104150499D01*
X127409910Y-104170183D01*
X127455665Y-104222987D01*
X127465609Y-104292146D01*
X127436584Y-104355702D01*
X127377806Y-104393476D01*
X127362270Y-104396972D01*
X127230589Y-104417829D01*
X127058363Y-104473787D01*
X127058360Y-104473788D01*
X126897002Y-104556006D01*
X126750505Y-104662441D01*
X126750500Y-104662445D01*
X126622445Y-104790500D01*
X126622441Y-104790505D01*
X126516006Y-104937002D01*
X126433788Y-105098360D01*
X126433787Y-105098363D01*
X126377829Y-105270589D01*
X126349500Y-105449448D01*
X126349500Y-105630551D01*
X126377829Y-105809410D01*
X126433787Y-105981636D01*
X126433788Y-105981639D01*
X126516006Y-106142997D01*
X126622441Y-106289494D01*
X126622445Y-106289499D01*
X126750500Y-106417554D01*
X126750505Y-106417558D01*
X126878287Y-106510396D01*
X126897006Y-106523996D01*
X127002484Y-106577740D01*
X127058360Y-106606211D01*
X127058363Y-106606212D01*
X127144476Y-106634191D01*
X127230591Y-106662171D01*
X127313429Y-106675291D01*
X127409449Y-106690500D01*
X127409454Y-106690500D01*
X127590551Y-106690500D01*
X127677259Y-106676765D01*
X127769409Y-106662171D01*
X127941639Y-106606211D01*
X128102994Y-106523996D01*
X128249501Y-106417553D01*
X128377553Y-106289501D01*
X128483996Y-106142994D01*
X128566211Y-105981639D01*
X128622171Y-105809409D01*
X128636422Y-105719425D01*
X128647527Y-105649321D01*
X128677456Y-105586186D01*
X128736768Y-105549255D01*
X128806630Y-105550253D01*
X128864863Y-105588863D01*
X128892473Y-105649321D01*
X128917829Y-105809410D01*
X128973787Y-105981636D01*
X128973788Y-105981639D01*
X129056006Y-106142997D01*
X129162441Y-106289494D01*
X129162445Y-106289499D01*
X129290500Y-106417554D01*
X129290505Y-106417558D01*
X129418287Y-106510396D01*
X129437006Y-106523996D01*
X129542484Y-106577740D01*
X129598360Y-106606211D01*
X129598363Y-106606212D01*
X129684476Y-106634191D01*
X129770591Y-106662171D01*
X129853429Y-106675291D01*
X129949449Y-106690500D01*
X129949454Y-106690500D01*
X130130551Y-106690500D01*
X130217259Y-106676765D01*
X130309409Y-106662171D01*
X130481639Y-106606211D01*
X130642994Y-106523996D01*
X130789501Y-106417553D01*
X130917553Y-106289501D01*
X131023996Y-106142994D01*
X131106211Y-105981639D01*
X131162171Y-105809409D01*
X131176765Y-105717259D01*
X131190500Y-105630551D01*
X131190500Y-105449448D01*
X131174019Y-105345397D01*
X131162171Y-105270591D01*
X131106211Y-105098361D01*
X131106211Y-105098360D01*
X131077740Y-105042484D01*
X131023996Y-104937006D01*
X131010396Y-104918287D01*
X130917558Y-104790505D01*
X130917554Y-104790500D01*
X130789499Y-104662445D01*
X130789494Y-104662441D01*
X130642997Y-104556006D01*
X130642996Y-104556005D01*
X130642994Y-104556004D01*
X130591300Y-104529664D01*
X130481639Y-104473788D01*
X130481636Y-104473787D01*
X130309410Y-104417829D01*
X130149321Y-104392473D01*
X130086186Y-104362544D01*
X130049255Y-104303232D01*
X130050253Y-104233370D01*
X130088863Y-104175137D01*
X130149321Y-104147527D01*
X130219425Y-104136422D01*
X130309409Y-104122171D01*
X130481639Y-104066211D01*
X130642994Y-103983996D01*
X130789501Y-103877553D01*
X130917553Y-103749501D01*
X131023996Y-103602994D01*
X131106211Y-103441639D01*
X131162171Y-103269409D01*
X131176765Y-103177259D01*
X131190500Y-103090551D01*
X131190500Y-102909448D01*
X131174019Y-102805397D01*
X131162171Y-102730591D01*
X131120295Y-102601708D01*
X131106212Y-102558363D01*
X131106211Y-102558360D01*
X131077740Y-102502484D01*
X131023996Y-102397006D01*
X130966896Y-102318414D01*
X130917558Y-102250505D01*
X130917554Y-102250500D01*
X130789499Y-102122445D01*
X130789494Y-102122441D01*
X130642997Y-102016006D01*
X130642996Y-102016005D01*
X130642994Y-102016004D01*
X130566906Y-101977235D01*
X130481639Y-101933788D01*
X130481636Y-101933787D01*
X130309410Y-101877829D01*
X130130551Y-101849500D01*
X130130546Y-101849500D01*
X129949454Y-101849500D01*
X129949449Y-101849500D01*
X129770589Y-101877829D01*
X129598363Y-101933787D01*
X129598360Y-101933788D01*
X129437002Y-102016006D01*
X129290505Y-102122441D01*
X129290500Y-102122445D01*
X129162445Y-102250500D01*
X129162441Y-102250505D01*
X129056006Y-102397002D01*
X128973788Y-102558360D01*
X128973787Y-102558363D01*
X128917829Y-102730589D01*
X128896972Y-102862271D01*
X128867042Y-102925405D01*
X128807731Y-102962336D01*
X128737868Y-102961338D01*
X128679636Y-102922728D01*
X128651522Y-102858764D01*
X128650499Y-102842872D01*
X128650499Y-102105143D01*
X128650499Y-102105136D01*
X128650497Y-102105117D01*
X128647586Y-102080012D01*
X128647585Y-102080010D01*
X128647585Y-102080009D01*
X128602206Y-101977235D01*
X128522765Y-101897794D01*
X128522763Y-101897793D01*
X128419992Y-101852415D01*
X128394865Y-101849500D01*
X126605143Y-101849500D01*
X126605117Y-101849502D01*
X126580012Y-101852413D01*
X126580008Y-101852415D01*
X126477235Y-101897793D01*
X126397794Y-101977234D01*
X126352415Y-102080006D01*
X126352415Y-102080008D01*
X126349500Y-102105131D01*
X103119006Y-102105131D01*
X103122985Y-102080012D01*
X103150500Y-101906286D01*
X103150500Y-101693713D01*
X103117246Y-101483760D01*
X103117246Y-101483757D01*
X103051557Y-101281588D01*
X102955051Y-101092184D01*
X102955049Y-101092181D01*
X102955048Y-101092179D01*
X102830109Y-100920213D01*
X102679792Y-100769896D01*
X102617748Y-100724819D01*
X102575082Y-100669489D01*
X102569103Y-100599876D01*
X102601708Y-100538080D01*
X102662547Y-100503723D01*
X102690633Y-100500500D01*
X133309367Y-100500500D01*
X133339620Y-100509383D01*
G37*
%TD.AperFunction*%
%TD*%
M02*
