M48
; DRILL file {KiCad 9.0.7} date 2026-08-17T18:55:05+0300
; FORMAT={-:-/ absolute / metric / decimal}
; #@! TF.CreationDate,2026-08-17T18:55:05+03:00
; #@! TF.GenerationSoftware,Kicad,Pcbnew,9.0.7
; #@! TF.FileFunction,MixedPlating,1,4
FMAT,2
METRIC
; #@! TA.AperFunction,Plated,PTH,ViaDrill
T1C0.300
; #@! TA.AperFunction,Plated,PTH,ComponentDrill
T2C0.600
; #@! TA.AperFunction,Plated,PTH,ComponentDrill
T3C1.000
; #@! TA.AperFunction,NonPlated,NPTH,ComponentDrill
T4C0.650
; #@! TA.AperFunction,NonPlated,NPTH,ComponentDrill
T5C2.200
%
G90
G05
T1
X103.178Y-147.1
X104.056Y-135.853
X104.795Y-147.339
X104.85Y-135.7
X105.8Y-138.0
X105.8Y-140.4
X106.2Y-145.2
X106.504Y-151.36
X106.872Y-122.439
X107.0Y-121.6
X107.2Y-138.8
X107.8Y-119.8
X107.804Y-143.824
X108.0Y-141.6
X108.175Y-122.45
X108.2Y-124.8
X108.314Y-146.076
X108.4Y-123.424
X108.4Y-126.376
X108.4Y-139.8
X108.6Y-115.6
X108.6Y-137.2
X108.8Y-117.4
X108.8Y-118.8
X108.8Y-127.6
X108.8Y-129.2
X108.8Y-130.6
X108.993Y-120.475
X109.123Y-125.7
X110.0Y-112.4
X110.0Y-118.775
X110.0Y-123.22
X110.06Y-147.161
X110.089Y-144.311
X110.15Y-121.98
X110.2Y-141.4
X110.35Y-130.6
X110.4Y-132.2
X110.6Y-147.8
X110.8Y-125.8
X110.859Y-108.007
X111.082Y-127.217
X111.15Y-109.98
X111.15Y-138.75
X111.694Y-142.775
X111.8Y-129.6
X112.11Y-112.29
X112.6Y-141.2
X112.662Y-136.725
X112.665Y-132.483
X112.85Y-107.98
X113.066Y-140.275
X113.166Y-144.605
X113.295Y-134.339
X113.409Y-136.329
X113.483Y-122.2
X113.523Y-145.376
X113.6Y-121.4
X113.8Y-131.2
X113.849Y-132.4
X114.0Y-138.0
X114.33Y-114.79
X114.51Y-145.35
X114.9Y-142.675
X115.0Y-120.6
X115.2Y-118.02
X115.338Y-123.017
X115.4Y-119.2
X115.474Y-135.106
X115.716Y-121.845
X116.7Y-122.7
X116.7Y-124.0
X116.7Y-125.3
X116.758Y-117.958
X117.078Y-130.616
X118.0Y-122.7
X118.0Y-124.0
X118.0Y-125.3
X118.092Y-131.409
X118.3Y-138.775
X118.32Y-137.374
X118.6Y-134.0
X118.955Y-132.839
X119.3Y-122.7
X119.3Y-124.0
X119.3Y-125.3
X119.4Y-117.0
X119.406Y-144.819
X119.473Y-135.977
X119.8Y-143.4
X120.02Y-137.56
X120.262Y-129.405
X120.4Y-115.6
X120.4Y-136.8
X120.4Y-145.2
X120.8Y-117.6
X121.2Y-143.4
X121.271Y-140.134
X121.289Y-107.34
X121.412Y-104.989
X121.6Y-114.2
X121.6Y-142.0
X121.631Y-109.176
X121.8Y-131.0
X122.017Y-135.025
X122.1Y-115.85
X122.215Y-154.083
X122.8Y-124.8
X122.8Y-126.0
X123.0Y-147.0
X123.064Y-133.57
X123.631Y-123.15
X124.0Y-135.4
X124.2Y-137.4
X124.4Y-124.2
X125.2Y-117.0
X125.35Y-126.6
X126.564Y-123.43
X126.964Y-124.165
X127.0Y-113.6
X127.643Y-131.803
T3
X101.8Y-111.0
X101.8Y-113.54
X101.8Y-116.08
X101.8Y-118.62
X101.8Y-121.16
X101.8Y-123.7
X101.8Y-126.24
X101.8Y-128.78
X101.8Y-131.32
X101.8Y-133.86
X101.8Y-136.4
X101.8Y-138.94
X101.8Y-141.48
X101.8Y-144.02
X101.8Y-146.56
X120.0Y-103.5
X120.0Y-106.04
X120.0Y-108.58
X122.54Y-103.5
X122.54Y-106.04
X122.54Y-108.58
X126.5Y-109.5
X126.5Y-112.04
X127.5Y-103.0
X127.5Y-105.54
X129.04Y-109.5
X129.04Y-112.04
X130.04Y-103.0
X130.04Y-105.54
X134.2Y-111.0
X134.2Y-113.54
X134.2Y-116.08
X134.2Y-118.62
X134.2Y-121.16
X134.2Y-123.7
X134.2Y-126.24
X134.2Y-128.78
X134.2Y-131.32
X134.2Y-133.86
X134.2Y-136.4
X134.2Y-138.94
X134.2Y-141.48
X134.2Y-144.02
X134.2Y-146.56
T4
X115.11Y-153.75
X120.89Y-153.75
T5
X101.8Y-101.8
X101.8Y-158.2
X134.2Y-101.8
X134.2Y-158.2
T2
X113.68Y-152.67G85X113.68Y-153.77
G05
X113.68Y-157.1G85X113.68Y-157.7
G05
X122.32Y-152.67G85X122.32Y-153.77
G05
X122.32Y-157.1G85X122.32Y-157.7
G05
M30
