%TF.GenerationSoftware,KiCad,Pcbnew,9.0.7*%
%TF.CreationDate,2026-08-17T18:55:05+03:00*%
%TF.ProjectId,Raiden S0-1,52616964-656e-4205-9330-2d312e6b6963,A*%
%TF.SameCoordinates,Original*%
%TF.FileFunction,Soldermask,Bot*%
%TF.FilePolarity,Negative*%
%FSLAX46Y46*%
G04 Gerber Fmt 4.6, Leading zero omitted, Abs format (unit mm)*
G04 Created by KiCad (PCBNEW 9.0.7) date 2026-08-17 18:55:05*
%MOMM*%
%LPD*%
G01*
G04 APERTURE LIST*
%ADD10R,1.700000X1.700000*%
%ADD11C,1.700000*%
%ADD12C,2.200000*%
%ADD13C,0.650000*%
%ADD14O,1.000000X2.100000*%
%ADD15O,1.000000X1.600000*%
G04 APERTURE END LIST*
D10*
%TO.C,J1*%
X134199999Y-111000000D03*
D11*
X134199999Y-113540000D03*
X134199999Y-116080000D03*
X134199999Y-118620000D03*
X134199999Y-121160000D03*
X134199999Y-123700000D03*
X134199999Y-126240000D03*
X134199999Y-128780000D03*
X134199999Y-131320000D03*
X134199999Y-133860000D03*
X134199999Y-136400000D03*
X134199999Y-138940000D03*
X134199999Y-141480000D03*
X134199999Y-144020000D03*
X134199999Y-146560000D03*
%TD*%
D12*
%TO.C,H3*%
X101800000Y-158200000D03*
%TD*%
D10*
%TO.C,J6*%
X126500000Y-109500000D03*
D11*
X129040000Y-109500000D03*
X126500000Y-112040000D03*
X129040000Y-112040000D03*
%TD*%
D10*
%TO.C,J5*%
X127500000Y-103000000D03*
D11*
X130040000Y-103000000D03*
X127500000Y-105540000D03*
X130040000Y-105540000D03*
%TD*%
D13*
%TO.C,P1*%
X115110000Y-153750000D03*
X120890000Y-153750000D03*
D14*
X113680000Y-153220000D03*
D15*
X113680000Y-157400000D03*
D14*
X122320000Y-153220000D03*
D15*
X122320000Y-157400000D03*
%TD*%
D10*
%TO.C,J2*%
X101800000Y-111000000D03*
D11*
X101800000Y-113540000D03*
X101800000Y-116080000D03*
X101800000Y-118620000D03*
X101800000Y-121160000D03*
X101800000Y-123700000D03*
X101800000Y-126240000D03*
X101800000Y-128780000D03*
X101800000Y-131320000D03*
X101800000Y-133860000D03*
X101800000Y-136400000D03*
X101800000Y-138940000D03*
X101800000Y-141480000D03*
X101800000Y-144020000D03*
X101800000Y-146560000D03*
%TD*%
D12*
%TO.C,H2*%
X134200000Y-101800000D03*
%TD*%
D10*
%TO.C,J4*%
X120000000Y-103500000D03*
D11*
X122540000Y-103500000D03*
X120000000Y-106040000D03*
X122540000Y-106040000D03*
X120000000Y-108580000D03*
X122540000Y-108580000D03*
%TD*%
D12*
%TO.C,H4*%
X134200000Y-158200000D03*
%TD*%
%TO.C,H1*%
X101800000Y-101800000D03*
%TD*%
M02*
