%TF.GenerationSoftware,KiCad,Pcbnew,9.0.7*%
%TF.CreationDate,2026-08-17T18:55:05+03:00*%
%TF.ProjectId,Raiden S0-1,52616964-656e-4205-9330-2d312e6b6963,A*%
%TF.SameCoordinates,Original*%
%TF.FileFunction,Soldermask,Top*%
%TF.FilePolarity,Negative*%
%FSLAX46Y46*%
G04 Gerber Fmt 4.6, Leading zero omitted, Abs format (unit mm)*
G04 Created by KiCad (PCBNEW 9.0.7) date 2026-08-17 18:55:05*
%MOMM*%
%LPD*%
G01*
G04 APERTURE LIST*
G04 Aperture macros list*
%AMRoundRect*
0 Rectangle with rounded corners*
0 $1 Rounding radius*
0 $2 $3 $4 $5 $6 $7 $8 $9 X,Y pos of 4 corners*
0 Add a 4 corners polygon primitive as box body*
4,1,4,$2,$3,$4,$5,$6,$7,$8,$9,$2,$3,0*
0 Add four circle primitives for the rounded corners*
1,1,$1+$1,$2,$3*
1,1,$1+$1,$4,$5*
1,1,$1+$1,$6,$7*
1,1,$1+$1,$8,$9*
0 Add four rect primitives between the rounded corners*
20,1,$1+$1,$2,$3,$4,$5,0*
20,1,$1+$1,$4,$5,$6,$7,0*
20,1,$1+$1,$6,$7,$8,$9,0*
20,1,$1+$1,$8,$9,$2,$3,0*%
G04 Aperture macros list end*
%ADD10RoundRect,0.225000X0.250000X-0.225000X0.250000X0.225000X-0.250000X0.225000X-0.250000X-0.225000X0*%
%ADD11RoundRect,0.200000X0.275000X-0.200000X0.275000X0.200000X-0.275000X0.200000X-0.275000X-0.200000X0*%
%ADD12R,1.550000X1.300000*%
%ADD13RoundRect,0.250000X-0.375000X-0.625000X0.375000X-0.625000X0.375000X0.625000X-0.375000X0.625000X0*%
%ADD14RoundRect,0.375000X-0.625000X-0.375000X0.625000X-0.375000X0.625000X0.375000X-0.625000X0.375000X0*%
%ADD15RoundRect,0.500000X-0.500000X-1.400000X0.500000X-1.400000X0.500000X1.400000X-0.500000X1.400000X0*%
%ADD16RoundRect,0.050000X-0.350000X-0.050000X0.350000X-0.050000X0.350000X0.050000X-0.350000X0.050000X0*%
%ADD17RoundRect,0.050000X-0.050000X-0.350000X0.050000X-0.350000X0.050000X0.350000X-0.050000X0.350000X0*%
%ADD18R,4.000000X4.000000*%
%ADD19R,1.700000X1.700000*%
%ADD20C,1.700000*%
%ADD21C,2.200000*%
%ADD22C,0.650000*%
%ADD23R,0.600000X1.450000*%
%ADD24R,0.300000X1.450000*%
%ADD25O,1.000000X2.100000*%
%ADD26O,1.000000X1.600000*%
%ADD27RoundRect,0.250000X-0.750000X-0.950000X0.750000X-0.950000X0.750000X0.950000X-0.750000X0.950000X0*%
%ADD28RoundRect,0.250000X-0.275000X-0.250000X0.275000X-0.250000X0.275000X0.250000X-0.275000X0.250000X0*%
%ADD29RoundRect,0.250000X-0.850000X-0.275000X0.850000X-0.275000X0.850000X0.275000X-0.850000X0.275000X0*%
%ADD30RoundRect,0.140000X0.170000X-0.140000X0.170000X0.140000X-0.170000X0.140000X-0.170000X-0.140000X0*%
%ADD31RoundRect,0.200000X-0.200000X-0.275000X0.200000X-0.275000X0.200000X0.275000X-0.200000X0.275000X0*%
%ADD32RoundRect,0.218750X-0.218750X-0.256250X0.218750X-0.256250X0.218750X0.256250X-0.218750X0.256250X0*%
%ADD33RoundRect,0.147500X0.172500X-0.147500X0.172500X0.147500X-0.172500X0.147500X-0.172500X-0.147500X0*%
%ADD34RoundRect,0.175000X-0.175000X-0.325000X0.175000X-0.325000X0.175000X0.325000X-0.175000X0.325000X0*%
%ADD35RoundRect,0.150000X-0.200000X-0.150000X0.200000X-0.150000X0.200000X0.150000X-0.200000X0.150000X0*%
%ADD36R,1.800000X1.000000*%
G04 APERTURE END LIST*
%TO.C,ANT1*%
G36*
X111485000Y-102860000D02*
G01*
X113575000Y-102860000D01*
X113575000Y-104740000D01*
X111485000Y-104740000D01*
X111485000Y-102860000D01*
G37*
%TD*%
D10*
%TO.C,C6*%
X125400000Y-128775000D03*
X125400000Y-127225000D03*
%TD*%
D11*
%TO.C,R3*%
X122200000Y-117425000D03*
X122200000Y-115775000D03*
%TD*%
D10*
%TO.C,C14*%
X105000000Y-146775000D03*
X105000000Y-145225000D03*
%TD*%
D12*
%TO.C,SW2*%
X124825000Y-150750000D03*
X132775000Y-150750000D03*
X124825000Y-155250000D03*
X132775000Y-155250000D03*
%TD*%
D13*
%TO.C,F1*%
X106600000Y-143000000D03*
X109400000Y-143000000D03*
%TD*%
D14*
%TO.C,U2*%
X104850000Y-135700000D03*
X104850000Y-138000000D03*
X104850000Y-140300000D03*
D15*
X111150000Y-138000000D03*
%TD*%
D11*
%TO.C,R5*%
X127000000Y-146825000D03*
X127000000Y-145175000D03*
%TD*%
D10*
%TO.C,C4*%
X110000000Y-127775000D03*
X110000000Y-126225000D03*
%TD*%
%TO.C,C2*%
X110000000Y-121775000D03*
X110000000Y-120225000D03*
%TD*%
D12*
%TO.C,SW1*%
X102525000Y-150950000D03*
X110475000Y-150950000D03*
X102525000Y-155450000D03*
X110475000Y-155450000D03*
%TD*%
D16*
%TO.C,U1*%
X114550000Y-121400000D03*
X114550000Y-121800000D03*
X114550000Y-122200000D03*
X114550000Y-122600000D03*
X114550000Y-123000000D03*
X114550000Y-123400000D03*
X114550000Y-123800000D03*
X114550000Y-124200000D03*
X114550000Y-124600000D03*
X114550000Y-125000000D03*
X114550000Y-125400000D03*
X114550000Y-125800000D03*
X114550000Y-126200000D03*
X114550000Y-126600000D03*
D17*
X115400000Y-127450000D03*
X115800000Y-127450000D03*
X116200000Y-127450000D03*
X116600000Y-127450000D03*
X117000000Y-127450000D03*
X117400000Y-127450000D03*
X117800000Y-127450000D03*
X118200000Y-127450000D03*
X118600000Y-127450000D03*
X119000000Y-127450000D03*
X119400000Y-127450000D03*
X119800000Y-127450000D03*
X120200000Y-127450000D03*
X120600000Y-127450000D03*
D16*
X121450000Y-126600000D03*
X121450000Y-126200000D03*
X121450000Y-125800000D03*
X121450000Y-125400000D03*
X121450000Y-125000000D03*
X121450000Y-124600000D03*
X121450000Y-124200000D03*
X121450000Y-123800000D03*
X121450000Y-123400000D03*
X121450000Y-123000000D03*
X121450000Y-122600000D03*
X121450000Y-122200000D03*
X121450000Y-121800000D03*
X121450000Y-121400000D03*
D17*
X120600000Y-120550000D03*
X120200000Y-120550000D03*
X119800000Y-120550000D03*
X119400000Y-120550000D03*
X119000000Y-120550000D03*
X118600000Y-120550000D03*
X118200000Y-120550000D03*
X117800000Y-120550000D03*
X117400000Y-120550000D03*
X117000000Y-120550000D03*
X116600000Y-120550000D03*
X116200000Y-120550000D03*
X115800000Y-120550000D03*
X115400000Y-120550000D03*
D18*
X118000000Y-124000000D03*
%TD*%
D10*
%TO.C,C3*%
X110000000Y-124775000D03*
X110000000Y-123225000D03*
%TD*%
%TO.C,C9*%
X113500000Y-133775000D03*
X113500000Y-132225000D03*
%TD*%
D11*
%TO.C,R1*%
X107300000Y-146825000D03*
X107300000Y-145175000D03*
%TD*%
D19*
%TO.C,J1*%
X134199999Y-111000000D03*
D20*
X134199999Y-113540000D03*
X134199999Y-116080000D03*
X134199999Y-118620000D03*
X134199999Y-121160000D03*
X134199999Y-123700000D03*
X134199999Y-126240000D03*
X134199999Y-128780000D03*
X134199999Y-131320000D03*
X134199999Y-133860000D03*
X134199999Y-136400000D03*
X134199999Y-138940000D03*
X134199999Y-141480000D03*
X134199999Y-144020000D03*
X134199999Y-146560000D03*
%TD*%
D11*
%TO.C,R7*%
X129500000Y-146825000D03*
X129500000Y-145175000D03*
%TD*%
D21*
%TO.C,H3*%
X101800000Y-158200000D03*
%TD*%
D19*
%TO.C,J6*%
X126500000Y-109500000D03*
D20*
X129040000Y-109500000D03*
X126500000Y-112040000D03*
X129040000Y-112040000D03*
%TD*%
D10*
%TO.C,C10*%
X122500000Y-133775000D03*
X122500000Y-132225000D03*
%TD*%
%TO.C,C8*%
X114000000Y-141775000D03*
X114000000Y-140225000D03*
%TD*%
D19*
%TO.C,J5*%
X127500000Y-103000000D03*
D20*
X130040000Y-103000000D03*
X127500000Y-105540000D03*
X130040000Y-105540000D03*
%TD*%
D22*
%TO.C,P1*%
X115110000Y-153750000D03*
X120890000Y-153750000D03*
D23*
X114750000Y-152305000D03*
X115550000Y-152305000D03*
D24*
X116750000Y-152305000D03*
X117750000Y-152305000D03*
X118250000Y-152305000D03*
X119250000Y-152305000D03*
D23*
X120450000Y-152305000D03*
X121250000Y-152305000D03*
X121250000Y-152305000D03*
X120450000Y-152305000D03*
D24*
X119750000Y-152305000D03*
X118750000Y-152305000D03*
X117250000Y-152305000D03*
X116250000Y-152305000D03*
D23*
X115550000Y-152305000D03*
X114750000Y-152305000D03*
D25*
X113680000Y-153220000D03*
D26*
X113680000Y-157400000D03*
D25*
X122320000Y-153220000D03*
D26*
X122320000Y-157400000D03*
%TD*%
D10*
%TO.C,C11*%
X118000000Y-138775000D03*
X118000000Y-137225000D03*
%TD*%
D27*
%TO.C,Y2*%
X116150000Y-133000000D03*
X119850000Y-133000000D03*
%TD*%
D28*
%TO.C,ANT1*%
X110950000Y-103800000D03*
D29*
X112475000Y-102325000D03*
X112475000Y-105275000D03*
%TD*%
D30*
%TO.C,C18*%
X112000000Y-107980000D03*
X112000000Y-107020000D03*
%TD*%
D10*
%TO.C,C15*%
X114000000Y-137775000D03*
X114000000Y-136225000D03*
%TD*%
%TO.C,C7*%
X125400000Y-124775000D03*
X125400000Y-123225000D03*
%TD*%
D30*
%TO.C,C17*%
X112000000Y-113980000D03*
X112000000Y-113020000D03*
%TD*%
D19*
%TO.C,J2*%
X101800000Y-111000000D03*
D20*
X101800000Y-113540000D03*
X101800000Y-116080000D03*
X101800000Y-118620000D03*
X101800000Y-121160000D03*
X101800000Y-123700000D03*
X101800000Y-126240000D03*
X101800000Y-128780000D03*
X101800000Y-131320000D03*
X101800000Y-133860000D03*
X101800000Y-136400000D03*
X101800000Y-138940000D03*
X101800000Y-141480000D03*
X101800000Y-144020000D03*
X101800000Y-146560000D03*
%TD*%
D31*
%TO.C,R6*%
X118675000Y-112500000D03*
X120325000Y-112500000D03*
%TD*%
D10*
%TO.C,C12*%
X125400000Y-138775000D03*
X125400000Y-137225000D03*
%TD*%
%TO.C,C16*%
X109600000Y-146775000D03*
X109600000Y-145225000D03*
%TD*%
D11*
%TO.C,R2*%
X122200000Y-113425000D03*
X122200000Y-111775000D03*
%TD*%
D10*
%TO.C,C1*%
X110000000Y-118775000D03*
X110000000Y-117225000D03*
%TD*%
D21*
%TO.C,H2*%
X134200000Y-101800000D03*
%TD*%
D11*
%TO.C,R4*%
X112400000Y-145325000D03*
X112400000Y-143675000D03*
%TD*%
D10*
%TO.C,C5*%
X110000000Y-130775000D03*
X110000000Y-129225000D03*
%TD*%
D32*
%TO.C,D2*%
X115212500Y-112500000D03*
X116787500Y-112500000D03*
%TD*%
D33*
%TO.C,L1*%
X112000000Y-110985000D03*
X112000000Y-110015000D03*
%TD*%
D10*
%TO.C,C13*%
X124500000Y-146775000D03*
X124500000Y-145225000D03*
%TD*%
D19*
%TO.C,J4*%
X120000000Y-103500000D03*
D20*
X122540000Y-103500000D03*
X120000000Y-106040000D03*
X122540000Y-106040000D03*
X120000000Y-108580000D03*
X122540000Y-108580000D03*
%TD*%
D21*
%TO.C,H4*%
X134200000Y-158200000D03*
%TD*%
D34*
%TO.C,D1*%
X117000000Y-144250000D03*
D35*
X117000000Y-145950000D03*
X119000000Y-145950000D03*
X119000000Y-144050000D03*
%TD*%
D36*
%TO.C,Y1*%
X122000000Y-136750000D03*
X122000000Y-139250000D03*
%TD*%
D21*
%TO.C,H1*%
X101800000Y-101800000D03*
%TD*%
M02*
