%TF.GenerationSoftware,KiCad,Pcbnew,9.0.7*%
%TF.CreationDate,2026-08-17T18:55:04+03:00*%
%TF.ProjectId,Raiden S0-1,52616964-656e-4205-9330-2d312e6b6963,A*%
%TF.SameCoordinates,Original*%
%TF.FileFunction,Copper,L3,Inr*%
%TF.FilePolarity,Positive*%
%FSLAX46Y46*%
G04 Gerber Fmt 4.6, Leading zero omitted, Abs format (unit mm)*
G04 Created by KiCad (PCBNEW 9.0.7) date 2026-08-17 18:55:04*
%MOMM*%
%LPD*%
G01*
G04 APERTURE LIST*
%TA.AperFunction,ComponentPad*%
%ADD10R,1.700000X1.700000*%
%TD*%
%TA.AperFunction,ComponentPad*%
%ADD11C,1.700000*%
%TD*%
%TA.AperFunction,HeatsinkPad*%
%ADD12O,1.000000X2.100000*%
%TD*%
%TA.AperFunction,HeatsinkPad*%
%ADD13O,1.000000X1.600000*%
%TD*%
%TA.AperFunction,ViaPad*%
%ADD14C,0.600000*%
%TD*%
%TA.AperFunction,ViaPad*%
%ADD15C,0.500000*%
%TD*%
G04 APERTURE END LIST*
D10*
%TO.N,GPIO47*%
%TO.C,J1*%
X134199999Y-111000000D03*
D11*
%TO.N,GPIO44*%
X134199999Y-113540000D03*
%TO.N,GPIO43*%
X134199999Y-116080000D03*
%TO.N,GPIO42*%
X134199999Y-118620000D03*
%TO.N,GPIO41*%
X134199999Y-121160000D03*
%TO.N,GPIO40*%
X134199999Y-123700000D03*
%TO.N,GPIO39*%
X134199999Y-126240000D03*
%TO.N,GPIO38*%
X134199999Y-128780000D03*
%TO.N,GPIO37*%
X134199999Y-131320000D03*
%TO.N,GPIO36*%
X134199999Y-133860000D03*
%TO.N,GPIO35*%
X134199999Y-136400000D03*
%TO.N,GPIO34*%
X134199999Y-138940000D03*
%TO.N,GPIO33*%
X134199999Y-141480000D03*
%TO.N,GPIO21*%
X134199999Y-144020000D03*
%TO.N,GPIO18*%
X134199999Y-146560000D03*
%TD*%
D10*
%TO.N,+5V*%
%TO.C,J6*%
X126500000Y-109500000D03*
D11*
X129040000Y-109500000D03*
X126500000Y-112040000D03*
X129040000Y-112040000D03*
%TD*%
D10*
%TO.N,+3.3V*%
%TO.C,J5*%
X127500000Y-103000000D03*
D11*
X130040000Y-103000000D03*
X127500000Y-105540000D03*
X130040000Y-105540000D03*
%TD*%
D12*
%TO.N,GND*%
%TO.C,P1*%
X113680000Y-153220000D03*
D13*
X113680000Y-157400000D03*
D12*
X122320000Y-153220000D03*
D13*
X122320000Y-157400000D03*
%TD*%
D10*
%TO.N,GPIO1*%
%TO.C,J2*%
X101800000Y-111000000D03*
D11*
%TO.N,GPIO2*%
X101800000Y-113540000D03*
%TO.N,GPIO3*%
X101800000Y-116080000D03*
%TO.N,GPIO4*%
X101800000Y-118620000D03*
%TO.N,GPIO5*%
X101800000Y-121160000D03*
%TO.N,GPIO6*%
X101800000Y-123700000D03*
%TO.N,GPIO7*%
X101800000Y-126240000D03*
%TO.N,GPIO8*%
X101800000Y-128780000D03*
%TO.N,GPIO9*%
X101800000Y-131320000D03*
%TO.N,GPIO10*%
X101800000Y-133860000D03*
%TO.N,GPIO11*%
X101800000Y-136400000D03*
%TO.N,GPIO12*%
X101800000Y-138940000D03*
%TO.N,GPIO13*%
X101800000Y-141480000D03*
%TO.N,GPIO14*%
X101800000Y-144020000D03*
%TO.N,GPIO17*%
X101800000Y-146560000D03*
%TD*%
D10*
%TO.N,GND*%
%TO.C,J4*%
X120000000Y-103500000D03*
D11*
X122540000Y-103500000D03*
X120000000Y-106040000D03*
X122540000Y-106040000D03*
X120000000Y-108580000D03*
X122540000Y-108580000D03*
%TD*%
D14*
%TO.N,+3.3V*%
X108800000Y-130600000D03*
X108800000Y-118800000D03*
X108174707Y-122450000D03*
X110000000Y-112400000D03*
X115000000Y-120600000D03*
X111150000Y-138750000D03*
X108200000Y-124800000D03*
X108400000Y-126376000D03*
X108600000Y-115600000D03*
X110600000Y-147800000D03*
X125350000Y-126600000D03*
X117078124Y-130615508D03*
X108800000Y-127600000D03*
X108800000Y-129200000D03*
X113523173Y-145376000D03*
X110350000Y-130600000D03*
X108800000Y-117400000D03*
X108993188Y-120475000D03*
X105800000Y-138000000D03*
X113600000Y-121400000D03*
X114000000Y-138000000D03*
X112600000Y-141200000D03*
X110000000Y-123220000D03*
X108400000Y-123424000D03*
%TO.N,+5V*%
X105800000Y-140400000D03*
X110200000Y-141400000D03*
%TO.N,/EN*%
X113482844Y-122200000D03*
X120400000Y-136800000D03*
X123000000Y-147000000D03*
X121600000Y-142000000D03*
%TO.N,GND*%
X110000000Y-118775000D03*
X118000000Y-125300000D03*
X107000000Y-121600000D03*
X112850000Y-107980000D03*
X113066000Y-140275000D03*
X122017000Y-135025000D03*
X103178000Y-147100000D03*
X113295000Y-134339000D03*
X114330000Y-114790000D03*
X107800000Y-119800000D03*
X116700000Y-124000000D03*
X115200000Y-118020000D03*
X115474000Y-135106000D03*
X119300000Y-122700000D03*
X119300000Y-125300000D03*
X116700000Y-122700000D03*
X112110000Y-112290000D03*
X121631000Y-109176000D03*
X113409000Y-136329000D03*
X112662000Y-136725000D03*
X110859000Y-108007000D03*
X118000000Y-122700000D03*
X111081818Y-127216819D03*
X126564000Y-123430000D03*
X104850000Y-135700000D03*
X104056000Y-135853000D03*
X111150000Y-109980000D03*
X121289000Y-107340000D03*
X109123000Y-125700000D03*
X122215000Y-154083000D03*
X106504000Y-151360000D03*
X126964000Y-124165000D03*
X106872000Y-122439000D03*
X127643000Y-131803000D03*
X111694000Y-142775000D03*
X121412000Y-104989000D03*
X104795000Y-147339000D03*
X118000000Y-124000000D03*
D15*
X118300000Y-138775000D03*
D14*
X114900000Y-142675000D03*
X108314000Y-146076000D03*
X123064000Y-133570000D03*
X110800000Y-125800000D03*
X119300000Y-124000000D03*
X115716396Y-121844601D03*
X110150000Y-121980000D03*
D15*
X122100000Y-115850000D03*
D14*
X110060000Y-147161000D03*
X116700000Y-125300000D03*
%TO.N,GPIO47*%
X123630855Y-123150000D03*
X127000000Y-113600000D03*
%TO.N,Net-(D1-I{slash}O1)*%
X124200000Y-137400000D03*
X121200000Y-143400000D03*
X124000000Y-135400000D03*
X120400000Y-145200000D03*
%TO.N,Net-(D1-I{slash}O2)*%
X119405887Y-144819089D03*
X119800000Y-143400000D03*
X120019867Y-137560265D03*
X120262178Y-129405220D03*
%TO.N,Net-(F1-Pad1)*%
X107804427Y-143824205D03*
X110088681Y-144311367D03*
%TO.N,Net-(P1-CC1)*%
X114509918Y-145350400D03*
X113165512Y-144604908D03*
%TO.N,Net-(U1-GPIO0)*%
X106200000Y-145200000D03*
X108000000Y-141600000D03*
X115338316Y-123016999D03*
X110400000Y-132200000D03*
X111800000Y-129600000D03*
X108400000Y-139800000D03*
X108600000Y-137200000D03*
X107200000Y-138800000D03*
%TO.N,Net-(U1-GPIO45)*%
X120800000Y-117600000D03*
X119400000Y-117000000D03*
%TO.N,Net-(U1-GPIO46)*%
X120400000Y-115600000D03*
X121600000Y-114200000D03*
%TO.N,Net-(U1-SPICLK_N)*%
X124400000Y-124200000D03*
X125200000Y-117000000D03*
%TO.N,Net-(U1-XTAL_32K_N)*%
X119472822Y-135977399D03*
X118091553Y-131409379D03*
%TO.N,Net-(U1-XTAL_32K_P)*%
X121270867Y-140133709D03*
X118319867Y-137374000D03*
%TO.N,Net-(U1-XTAL_N)*%
X116757538Y-117957538D03*
X122800000Y-124800000D03*
X122800000Y-126000000D03*
X121800000Y-131000000D03*
%TO.N,Net-(U1-XTAL_P)*%
X118600000Y-134000000D03*
X115400000Y-119200000D03*
X118955353Y-132838865D03*
X113800000Y-131200000D03*
X112665252Y-132483222D03*
X113849000Y-132400000D03*
%TD*%
%TA.AperFunction,Conductor*%
%TO.N,+3.3V*%
G36*
X129574075Y-103192993D02*
G01*
X129639901Y-103307007D01*
X129732993Y-103400099D01*
X129847007Y-103465925D01*
X129910591Y-103482962D01*
X129309971Y-104083581D01*
X129388711Y-104200895D01*
X129409727Y-104267529D01*
X129391383Y-104334947D01*
X129342051Y-104380483D01*
X129332440Y-104385380D01*
X129278282Y-104424727D01*
X129278282Y-104424728D01*
X129910591Y-105057037D01*
X129847007Y-105074075D01*
X129732993Y-105139901D01*
X129639901Y-105232993D01*
X129574075Y-105347007D01*
X129557037Y-105410591D01*
X128924728Y-104778282D01*
X128924727Y-104778282D01*
X128885380Y-104832440D01*
X128880483Y-104842051D01*
X128832506Y-104892845D01*
X128764684Y-104909638D01*
X128698550Y-104887098D01*
X128659516Y-104842048D01*
X128654626Y-104832452D01*
X128615270Y-104778282D01*
X128615269Y-104778282D01*
X127982962Y-105410590D01*
X127965925Y-105347007D01*
X127900099Y-105232993D01*
X127807007Y-105139901D01*
X127692993Y-105074075D01*
X127629409Y-105057037D01*
X128298802Y-104387642D01*
X128360125Y-104354157D01*
X128374833Y-104355078D01*
X128374556Y-104352501D01*
X128457375Y-104343598D01*
X128592086Y-104293354D01*
X128592093Y-104293350D01*
X128707187Y-104207190D01*
X128707190Y-104207187D01*
X128793350Y-104092093D01*
X128793354Y-104092086D01*
X128815529Y-104032632D01*
X128854319Y-103859390D01*
X128854682Y-103858734D01*
X128854642Y-103857984D01*
X128887642Y-103798802D01*
X129557037Y-103129408D01*
X129574075Y-103192993D01*
G37*
%TD.AperFunction*%
%TA.AperFunction,Conductor*%
G36*
X133376406Y-100520185D02*
G01*
X133422161Y-100572989D01*
X133432105Y-100642147D01*
X133403080Y-100705703D01*
X133382252Y-100724819D01*
X133320207Y-100769896D01*
X133169890Y-100920213D01*
X133044951Y-101092179D01*
X132948444Y-101281585D01*
X132882753Y-101483760D01*
X132855410Y-101656401D01*
X132849500Y-101693713D01*
X132849500Y-101906287D01*
X132849758Y-101907913D01*
X132882753Y-102116239D01*
X132948444Y-102318414D01*
X133044951Y-102507820D01*
X133169890Y-102679786D01*
X133320213Y-102830109D01*
X133492179Y-102955048D01*
X133492181Y-102955049D01*
X133492184Y-102955051D01*
X133681588Y-103051557D01*
X133883757Y-103117246D01*
X134093713Y-103150500D01*
X134093714Y-103150500D01*
X134306286Y-103150500D01*
X134306287Y-103150500D01*
X134516243Y-103117246D01*
X134718412Y-103051557D01*
X134907816Y-102955051D01*
X134992186Y-102893753D01*
X135079786Y-102830109D01*
X135079788Y-102830106D01*
X135079792Y-102830104D01*
X135230104Y-102679792D01*
X135275181Y-102617747D01*
X135330511Y-102575082D01*
X135400124Y-102569103D01*
X135461920Y-102601708D01*
X135496277Y-102662547D01*
X135499500Y-102690633D01*
X135499500Y-109875168D01*
X135479815Y-109942207D01*
X135427011Y-109987962D01*
X135357853Y-109997906D01*
X135294297Y-109968881D01*
X135287819Y-109962849D01*
X135222764Y-109897794D01*
X135119991Y-109852415D01*
X135094864Y-109849500D01*
X133305142Y-109849500D01*
X133305116Y-109849502D01*
X133280011Y-109852413D01*
X133280007Y-109852415D01*
X133177234Y-109897793D01*
X133097793Y-109977234D01*
X133052414Y-110080006D01*
X133052414Y-110080008D01*
X133049499Y-110105131D01*
X133049499Y-111894856D01*
X133049501Y-111894882D01*
X133052412Y-111919987D01*
X133052414Y-111919991D01*
X133097792Y-112022764D01*
X133097793Y-112022765D01*
X133177234Y-112102206D01*
X133280008Y-112147585D01*
X133305134Y-112150500D01*
X134042872Y-112150499D01*
X134109909Y-112170183D01*
X134155664Y-112222987D01*
X134165608Y-112292146D01*
X134136583Y-112355702D01*
X134077805Y-112393476D01*
X134062269Y-112396972D01*
X133930588Y-112417829D01*
X133758362Y-112473787D01*
X133758359Y-112473788D01*
X133597001Y-112556006D01*
X133450504Y-112662441D01*
X133450499Y-112662445D01*
X133322444Y-112790500D01*
X133322440Y-112790505D01*
X133216005Y-112937002D01*
X133133787Y-113098360D01*
X133133786Y-113098363D01*
X133077828Y-113270589D01*
X133049499Y-113449448D01*
X133049499Y-113630551D01*
X133077828Y-113809410D01*
X133133786Y-113981636D01*
X133133787Y-113981639D01*
X133184170Y-114080518D01*
X133204768Y-114120945D01*
X133216005Y-114142997D01*
X133322440Y-114289494D01*
X133322444Y-114289499D01*
X133450499Y-114417554D01*
X133450504Y-114417558D01*
X133578286Y-114510396D01*
X133597005Y-114523996D01*
X133702483Y-114577740D01*
X133758359Y-114606211D01*
X133758362Y-114606212D01*
X133844475Y-114634191D01*
X133930590Y-114662171D01*
X134003638Y-114673740D01*
X134090677Y-114687527D01*
X134153812Y-114717456D01*
X134190743Y-114776768D01*
X134189745Y-114846631D01*
X134151135Y-114904863D01*
X134090677Y-114932473D01*
X133930588Y-114957829D01*
X133758362Y-115013787D01*
X133758359Y-115013788D01*
X133597001Y-115096006D01*
X133450504Y-115202441D01*
X133450499Y-115202445D01*
X133322444Y-115330500D01*
X133322440Y-115330505D01*
X133216005Y-115477002D01*
X133133787Y-115638360D01*
X133133786Y-115638363D01*
X133077828Y-115810589D01*
X133049499Y-115989448D01*
X133049499Y-116170551D01*
X133077828Y-116349410D01*
X133133786Y-116521636D01*
X133133787Y-116521639D01*
X133216005Y-116682997D01*
X133322440Y-116829494D01*
X133322444Y-116829499D01*
X133450499Y-116957554D01*
X133450504Y-116957558D01*
X133578286Y-117050396D01*
X133597005Y-117063996D01*
X133702483Y-117117740D01*
X133758359Y-117146211D01*
X133758362Y-117146212D01*
X133844475Y-117174191D01*
X133930590Y-117202171D01*
X134003638Y-117213740D01*
X134090677Y-117227527D01*
X134153812Y-117257456D01*
X134190743Y-117316768D01*
X134189745Y-117386631D01*
X134151135Y-117444863D01*
X134090677Y-117472473D01*
X133930588Y-117497829D01*
X133758362Y-117553787D01*
X133758359Y-117553788D01*
X133597001Y-117636006D01*
X133450504Y-117742441D01*
X133450499Y-117742445D01*
X133322444Y-117870500D01*
X133322440Y-117870505D01*
X133216005Y-118017002D01*
X133133787Y-118178360D01*
X133133786Y-118178363D01*
X133077828Y-118350589D01*
X133049499Y-118529448D01*
X133049499Y-118710551D01*
X133077828Y-118889410D01*
X133133786Y-119061636D01*
X133133787Y-119061639D01*
X133216005Y-119222997D01*
X133322440Y-119369494D01*
X133322444Y-119369499D01*
X133450499Y-119497554D01*
X133450504Y-119497558D01*
X133547748Y-119568209D01*
X133597005Y-119603996D01*
X133702483Y-119657740D01*
X133758359Y-119686211D01*
X133758362Y-119686212D01*
X133844475Y-119714191D01*
X133930590Y-119742171D01*
X134003638Y-119753740D01*
X134090677Y-119767527D01*
X134153812Y-119797456D01*
X134190743Y-119856768D01*
X134189745Y-119926631D01*
X134151135Y-119984863D01*
X134090677Y-120012473D01*
X133930588Y-120037829D01*
X133758362Y-120093787D01*
X133758359Y-120093788D01*
X133597001Y-120176006D01*
X133450504Y-120282441D01*
X133450499Y-120282445D01*
X133322444Y-120410500D01*
X133322440Y-120410505D01*
X133216005Y-120557002D01*
X133133787Y-120718360D01*
X133133786Y-120718363D01*
X133077828Y-120890589D01*
X133049499Y-121069448D01*
X133049499Y-121250551D01*
X133077828Y-121429410D01*
X133133786Y-121601636D01*
X133133787Y-121601639D01*
X133189663Y-121711300D01*
X133208473Y-121748216D01*
X133216005Y-121762997D01*
X133322440Y-121909494D01*
X133322444Y-121909499D01*
X133450499Y-122037554D01*
X133450504Y-122037558D01*
X133561161Y-122117954D01*
X133597005Y-122143996D01*
X133702483Y-122197740D01*
X133758359Y-122226211D01*
X133758362Y-122226212D01*
X133844475Y-122254191D01*
X133930590Y-122282171D01*
X134003638Y-122293740D01*
X134090677Y-122307527D01*
X134153812Y-122337456D01*
X134190743Y-122396768D01*
X134189745Y-122466631D01*
X134151135Y-122524863D01*
X134090677Y-122552473D01*
X133930588Y-122577829D01*
X133758362Y-122633787D01*
X133758359Y-122633788D01*
X133597001Y-122716006D01*
X133450504Y-122822441D01*
X133450499Y-122822445D01*
X133322444Y-122950500D01*
X133322440Y-122950505D01*
X133216005Y-123097002D01*
X133133787Y-123258360D01*
X133133786Y-123258363D01*
X133077828Y-123430589D01*
X133049499Y-123609448D01*
X133049499Y-123790551D01*
X133077828Y-123969410D01*
X133133786Y-124141636D01*
X133133787Y-124141639D01*
X133180412Y-124233143D01*
X133203806Y-124279057D01*
X133216005Y-124302997D01*
X133322440Y-124449494D01*
X133322444Y-124449499D01*
X133450499Y-124577554D01*
X133450504Y-124577558D01*
X133566437Y-124661787D01*
X133597005Y-124683996D01*
X133680722Y-124726652D01*
X133758359Y-124766211D01*
X133758362Y-124766212D01*
X133844475Y-124794191D01*
X133930590Y-124822171D01*
X134003638Y-124833740D01*
X134090677Y-124847527D01*
X134153812Y-124877456D01*
X134190743Y-124936768D01*
X134189745Y-125006631D01*
X134151135Y-125064863D01*
X134090677Y-125092473D01*
X133930588Y-125117829D01*
X133758362Y-125173787D01*
X133758359Y-125173788D01*
X133597001Y-125256006D01*
X133450504Y-125362441D01*
X133450499Y-125362445D01*
X133322444Y-125490500D01*
X133322440Y-125490505D01*
X133216005Y-125637002D01*
X133133787Y-125798360D01*
X133133786Y-125798363D01*
X133077828Y-125970589D01*
X133049499Y-126149448D01*
X133049499Y-126330551D01*
X133077828Y-126509410D01*
X133133786Y-126681636D01*
X133133787Y-126681639D01*
X133216005Y-126842997D01*
X133322440Y-126989494D01*
X133322444Y-126989499D01*
X133450499Y-127117554D01*
X133450504Y-127117558D01*
X133478313Y-127137762D01*
X133597005Y-127223996D01*
X133702483Y-127277740D01*
X133758359Y-127306211D01*
X133758362Y-127306212D01*
X133844475Y-127334191D01*
X133930590Y-127362171D01*
X134003638Y-127373740D01*
X134090677Y-127387527D01*
X134153812Y-127417456D01*
X134190743Y-127476768D01*
X134189745Y-127546631D01*
X134151135Y-127604863D01*
X134090677Y-127632473D01*
X133930588Y-127657829D01*
X133758362Y-127713787D01*
X133758359Y-127713788D01*
X133597001Y-127796006D01*
X133450504Y-127902441D01*
X133450499Y-127902445D01*
X133322444Y-128030500D01*
X133322440Y-128030505D01*
X133216005Y-128177002D01*
X133133787Y-128338360D01*
X133133786Y-128338363D01*
X133077828Y-128510589D01*
X133049499Y-128689448D01*
X133049499Y-128870551D01*
X133077828Y-129049410D01*
X133133786Y-129221636D01*
X133133787Y-129221639D01*
X133187046Y-129326163D01*
X133208473Y-129368216D01*
X133216005Y-129382997D01*
X133322440Y-129529494D01*
X133322444Y-129529499D01*
X133450499Y-129657554D01*
X133450504Y-129657558D01*
X133578286Y-129750396D01*
X133597005Y-129763996D01*
X133702483Y-129817740D01*
X133758359Y-129846211D01*
X133758362Y-129846212D01*
X133844475Y-129874191D01*
X133930590Y-129902171D01*
X134003638Y-129913740D01*
X134090677Y-129927527D01*
X134153812Y-129957456D01*
X134190743Y-130016768D01*
X134189745Y-130086631D01*
X134151135Y-130144863D01*
X134090677Y-130172473D01*
X133930588Y-130197829D01*
X133758362Y-130253787D01*
X133758359Y-130253788D01*
X133597001Y-130336006D01*
X133450504Y-130442441D01*
X133450499Y-130442445D01*
X133322444Y-130570500D01*
X133322440Y-130570505D01*
X133216005Y-130717002D01*
X133133787Y-130878360D01*
X133133786Y-130878363D01*
X133077828Y-131050589D01*
X133049499Y-131229448D01*
X133049499Y-131410551D01*
X133077828Y-131589410D01*
X133133786Y-131761636D01*
X133133787Y-131761639D01*
X133189663Y-131871300D01*
X133216002Y-131922993D01*
X133216005Y-131922997D01*
X133322440Y-132069494D01*
X133322444Y-132069499D01*
X133450499Y-132197554D01*
X133450504Y-132197558D01*
X133578286Y-132290396D01*
X133597005Y-132303996D01*
X133667233Y-132339779D01*
X133758359Y-132386211D01*
X133758362Y-132386212D01*
X133844475Y-132414191D01*
X133930590Y-132442171D01*
X134003638Y-132453740D01*
X134090677Y-132467527D01*
X134153812Y-132497456D01*
X134190743Y-132556768D01*
X134189745Y-132626631D01*
X134151135Y-132684863D01*
X134090677Y-132712473D01*
X133930588Y-132737829D01*
X133758362Y-132793787D01*
X133758359Y-132793788D01*
X133597001Y-132876006D01*
X133450504Y-132982441D01*
X133450499Y-132982445D01*
X133322444Y-133110500D01*
X133322440Y-133110505D01*
X133216005Y-133257002D01*
X133133787Y-133418360D01*
X133133786Y-133418363D01*
X133077828Y-133590589D01*
X133049499Y-133769448D01*
X133049499Y-133950551D01*
X133077828Y-134129410D01*
X133133786Y-134301636D01*
X133133787Y-134301639D01*
X133216005Y-134462997D01*
X133322440Y-134609494D01*
X133322444Y-134609499D01*
X133450499Y-134737554D01*
X133450504Y-134737558D01*
X133527102Y-134793209D01*
X133597005Y-134843996D01*
X133702483Y-134897740D01*
X133758359Y-134926211D01*
X133758362Y-134926212D01*
X133819090Y-134945943D01*
X133930590Y-134982171D01*
X134003638Y-134993740D01*
X134090677Y-135007527D01*
X134153812Y-135037456D01*
X134190743Y-135096768D01*
X134189745Y-135166631D01*
X134151135Y-135224863D01*
X134090677Y-135252473D01*
X133930588Y-135277829D01*
X133758362Y-135333787D01*
X133758359Y-135333788D01*
X133597001Y-135416006D01*
X133450504Y-135522441D01*
X133450499Y-135522445D01*
X133322444Y-135650500D01*
X133322440Y-135650505D01*
X133216005Y-135797002D01*
X133133787Y-135958360D01*
X133133786Y-135958363D01*
X133077828Y-136130589D01*
X133049499Y-136309448D01*
X133049499Y-136490551D01*
X133077828Y-136669410D01*
X133133786Y-136841636D01*
X133133787Y-136841639D01*
X133189663Y-136951300D01*
X133214015Y-136999093D01*
X133216005Y-137002997D01*
X133322440Y-137149494D01*
X133322444Y-137149499D01*
X133450499Y-137277554D01*
X133450504Y-137277558D01*
X133555321Y-137353711D01*
X133597005Y-137383996D01*
X133690980Y-137431879D01*
X133758359Y-137466211D01*
X133758362Y-137466212D01*
X133844475Y-137494191D01*
X133930590Y-137522171D01*
X134003638Y-137533740D01*
X134090677Y-137547527D01*
X134153812Y-137577456D01*
X134190743Y-137636768D01*
X134189745Y-137706631D01*
X134151135Y-137764863D01*
X134090677Y-137792473D01*
X133930588Y-137817829D01*
X133758362Y-137873787D01*
X133758359Y-137873788D01*
X133597001Y-137956006D01*
X133450504Y-138062441D01*
X133450499Y-138062445D01*
X133322444Y-138190500D01*
X133322440Y-138190505D01*
X133216005Y-138337002D01*
X133133787Y-138498360D01*
X133133786Y-138498363D01*
X133077828Y-138670589D01*
X133049499Y-138849448D01*
X133049499Y-139030551D01*
X133077828Y-139209410D01*
X133133786Y-139381636D01*
X133133787Y-139381639D01*
X133189663Y-139491300D01*
X133211017Y-139533209D01*
X133216005Y-139542997D01*
X133322440Y-139689494D01*
X133322444Y-139689499D01*
X133450499Y-139817554D01*
X133450504Y-139817558D01*
X133535150Y-139879056D01*
X133597005Y-139923996D01*
X133702483Y-139977740D01*
X133758359Y-140006211D01*
X133758362Y-140006212D01*
X133835522Y-140031282D01*
X133930590Y-140062171D01*
X134003638Y-140073740D01*
X134090677Y-140087527D01*
X134153812Y-140117456D01*
X134190743Y-140176768D01*
X134189745Y-140246631D01*
X134151135Y-140304863D01*
X134090677Y-140332473D01*
X133930588Y-140357829D01*
X133758362Y-140413787D01*
X133758359Y-140413788D01*
X133597001Y-140496006D01*
X133450504Y-140602441D01*
X133450499Y-140602445D01*
X133322444Y-140730500D01*
X133322440Y-140730505D01*
X133216005Y-140877002D01*
X133133787Y-141038360D01*
X133133786Y-141038363D01*
X133077828Y-141210589D01*
X133049499Y-141389448D01*
X133049499Y-141570551D01*
X133077828Y-141749410D01*
X133133786Y-141921636D01*
X133133787Y-141921639D01*
X133173969Y-142000499D01*
X133214744Y-142080524D01*
X133216005Y-142082997D01*
X133322440Y-142229494D01*
X133322444Y-142229499D01*
X133450499Y-142357554D01*
X133450504Y-142357558D01*
X133517579Y-142406290D01*
X133597005Y-142463996D01*
X133702483Y-142517740D01*
X133758359Y-142546211D01*
X133758362Y-142546212D01*
X133831222Y-142569885D01*
X133930590Y-142602171D01*
X134003638Y-142613740D01*
X134090677Y-142627527D01*
X134153812Y-142657456D01*
X134190743Y-142716768D01*
X134189745Y-142786631D01*
X134151135Y-142844863D01*
X134090677Y-142872473D01*
X133930588Y-142897829D01*
X133758362Y-142953787D01*
X133758359Y-142953788D01*
X133597001Y-143036006D01*
X133450504Y-143142441D01*
X133450499Y-143142445D01*
X133322444Y-143270500D01*
X133322440Y-143270505D01*
X133216005Y-143417002D01*
X133133787Y-143578360D01*
X133133786Y-143578363D01*
X133077828Y-143750589D01*
X133049499Y-143929448D01*
X133049499Y-144110551D01*
X133077828Y-144289410D01*
X133133786Y-144461636D01*
X133133787Y-144461639D01*
X133175324Y-144543157D01*
X133197818Y-144587305D01*
X133216005Y-144622997D01*
X133322440Y-144769494D01*
X133322444Y-144769499D01*
X133450499Y-144897554D01*
X133450504Y-144897558D01*
X133547748Y-144968209D01*
X133597005Y-145003996D01*
X133702483Y-145057740D01*
X133758359Y-145086211D01*
X133758362Y-145086212D01*
X133844475Y-145114191D01*
X133930590Y-145142171D01*
X134003638Y-145153740D01*
X134090677Y-145167527D01*
X134153812Y-145197456D01*
X134190743Y-145256768D01*
X134189745Y-145326631D01*
X134151135Y-145384863D01*
X134090677Y-145412473D01*
X133930588Y-145437829D01*
X133758362Y-145493787D01*
X133758359Y-145493788D01*
X133597001Y-145576006D01*
X133450504Y-145682441D01*
X133450499Y-145682445D01*
X133322444Y-145810500D01*
X133322440Y-145810505D01*
X133216005Y-145957002D01*
X133133787Y-146118360D01*
X133133786Y-146118363D01*
X133077828Y-146290589D01*
X133049499Y-146469448D01*
X133049499Y-146650551D01*
X133077828Y-146829410D01*
X133133786Y-147001636D01*
X133133787Y-147001639D01*
X133216005Y-147162997D01*
X133322440Y-147309494D01*
X133322444Y-147309499D01*
X133450499Y-147437554D01*
X133450504Y-147437558D01*
X133577341Y-147529709D01*
X133597005Y-147543996D01*
X133668695Y-147580524D01*
X133758359Y-147626211D01*
X133758362Y-147626212D01*
X133805477Y-147641520D01*
X133930590Y-147682171D01*
X134013428Y-147695291D01*
X134109448Y-147710500D01*
X134109453Y-147710500D01*
X134290550Y-147710500D01*
X134377258Y-147696765D01*
X134469408Y-147682171D01*
X134641638Y-147626211D01*
X134802993Y-147543996D01*
X134949500Y-147437553D01*
X135077552Y-147309501D01*
X135183995Y-147162994D01*
X135265015Y-147003983D01*
X135312990Y-146953188D01*
X135380811Y-146936393D01*
X135446946Y-146958931D01*
X135490397Y-147013646D01*
X135499500Y-147060279D01*
X135499500Y-157309366D01*
X135479815Y-157376405D01*
X135427011Y-157422160D01*
X135357853Y-157432104D01*
X135294297Y-157403079D01*
X135275182Y-157382251D01*
X135230109Y-157320214D01*
X135230105Y-157320209D01*
X135079786Y-157169890D01*
X134907820Y-157044951D01*
X134718414Y-156948444D01*
X134718413Y-156948443D01*
X134718412Y-156948443D01*
X134516243Y-156882754D01*
X134516241Y-156882753D01*
X134516240Y-156882753D01*
X134354957Y-156857208D01*
X134306287Y-156849500D01*
X134093713Y-156849500D01*
X134045042Y-156857208D01*
X133883760Y-156882753D01*
X133681585Y-156948444D01*
X133492179Y-157044951D01*
X133320213Y-157169890D01*
X133169890Y-157320213D01*
X133044951Y-157492179D01*
X132948444Y-157681585D01*
X132882753Y-157883760D01*
X132849500Y-158093713D01*
X132849500Y-158306286D01*
X132882753Y-158516239D01*
X132948444Y-158718414D01*
X133044951Y-158907820D01*
X133169890Y-159079786D01*
X133320207Y-159230103D01*
X133382252Y-159275181D01*
X133424918Y-159330511D01*
X133430897Y-159400124D01*
X133398292Y-159461920D01*
X133337453Y-159496277D01*
X133309367Y-159499500D01*
X102690633Y-159499500D01*
X102623594Y-159479815D01*
X102577839Y-159427011D01*
X102567895Y-159357853D01*
X102596920Y-159294297D01*
X102617748Y-159275181D01*
X102679792Y-159230104D01*
X102830104Y-159079792D01*
X102830106Y-159079788D01*
X102830109Y-159079786D01*
X102955048Y-158907820D01*
X102955047Y-158907820D01*
X102955051Y-158907816D01*
X103051557Y-158718412D01*
X103117246Y-158516243D01*
X103150500Y-158306287D01*
X103150500Y-158093713D01*
X103117246Y-157883757D01*
X103051557Y-157681588D01*
X102955051Y-157492184D01*
X102955049Y-157492181D01*
X102955048Y-157492179D01*
X102830109Y-157320213D01*
X102679792Y-157169896D01*
X102679784Y-157169890D01*
X102604762Y-157115384D01*
X102604761Y-157115382D01*
X102507819Y-157044951D01*
X102507818Y-157044950D01*
X102507816Y-157044949D01*
X102461114Y-157021153D01*
X112879500Y-157021153D01*
X112879500Y-157778846D01*
X112910261Y-157933489D01*
X112910264Y-157933501D01*
X112970602Y-158079172D01*
X112970609Y-158079185D01*
X113058210Y-158210288D01*
X113058213Y-158210292D01*
X113169707Y-158321786D01*
X113169711Y-158321789D01*
X113300814Y-158409390D01*
X113300827Y-158409397D01*
X113446498Y-158469735D01*
X113446503Y-158469737D01*
X113601153Y-158500499D01*
X113601156Y-158500500D01*
X113601158Y-158500500D01*
X113758844Y-158500500D01*
X113758845Y-158500499D01*
X113913497Y-158469737D01*
X114059179Y-158409394D01*
X114190289Y-158321789D01*
X114301789Y-158210289D01*
X114389394Y-158079179D01*
X114449737Y-157933497D01*
X114480500Y-157778842D01*
X114480500Y-157021158D01*
X114480500Y-157021155D01*
X114480499Y-157021153D01*
X121519500Y-157021153D01*
X121519500Y-157778846D01*
X121550261Y-157933489D01*
X121550264Y-157933501D01*
X121610602Y-158079172D01*
X121610609Y-158079185D01*
X121698210Y-158210288D01*
X121698213Y-158210292D01*
X121809707Y-158321786D01*
X121809711Y-158321789D01*
X121940814Y-158409390D01*
X121940827Y-158409397D01*
X122086498Y-158469735D01*
X122086503Y-158469737D01*
X122241153Y-158500499D01*
X122241156Y-158500500D01*
X122241158Y-158500500D01*
X122398844Y-158500500D01*
X122398845Y-158500499D01*
X122553497Y-158469737D01*
X122699179Y-158409394D01*
X122830289Y-158321789D01*
X122941789Y-158210289D01*
X123029394Y-158079179D01*
X123089737Y-157933497D01*
X123120500Y-157778842D01*
X123120500Y-157021158D01*
X123120500Y-157021155D01*
X123120499Y-157021153D01*
X123106036Y-156948443D01*
X123089737Y-156866503D01*
X123082694Y-156849500D01*
X123029397Y-156720827D01*
X123029390Y-156720814D01*
X122941789Y-156589711D01*
X122941786Y-156589707D01*
X122830292Y-156478213D01*
X122830288Y-156478210D01*
X122699185Y-156390609D01*
X122699172Y-156390602D01*
X122553501Y-156330264D01*
X122553489Y-156330261D01*
X122398845Y-156299500D01*
X122398842Y-156299500D01*
X122241158Y-156299500D01*
X122241155Y-156299500D01*
X122086510Y-156330261D01*
X122086498Y-156330264D01*
X121940827Y-156390602D01*
X121940814Y-156390609D01*
X121809711Y-156478210D01*
X121809707Y-156478213D01*
X121698213Y-156589707D01*
X121698210Y-156589711D01*
X121610609Y-156720814D01*
X121610602Y-156720827D01*
X121550264Y-156866498D01*
X121550261Y-156866510D01*
X121519500Y-157021153D01*
X114480499Y-157021153D01*
X114466036Y-156948443D01*
X114449737Y-156866503D01*
X114442694Y-156849500D01*
X114389397Y-156720827D01*
X114389390Y-156720814D01*
X114301789Y-156589711D01*
X114301786Y-156589707D01*
X114190292Y-156478213D01*
X114190288Y-156478210D01*
X114059185Y-156390609D01*
X114059172Y-156390602D01*
X113913501Y-156330264D01*
X113913489Y-156330261D01*
X113758845Y-156299500D01*
X113758842Y-156299500D01*
X113601158Y-156299500D01*
X113601155Y-156299500D01*
X113446510Y-156330261D01*
X113446498Y-156330264D01*
X113300827Y-156390602D01*
X113300814Y-156390609D01*
X113169711Y-156478210D01*
X113169707Y-156478213D01*
X113058213Y-156589707D01*
X113058210Y-156589711D01*
X112970609Y-156720814D01*
X112970602Y-156720827D01*
X112910264Y-156866498D01*
X112910261Y-156866510D01*
X112879500Y-157021153D01*
X102461114Y-157021153D01*
X102318412Y-156948443D01*
X102116243Y-156882754D01*
X102116241Y-156882753D01*
X102116240Y-156882753D01*
X101954957Y-156857208D01*
X101906287Y-156849500D01*
X101693713Y-156849500D01*
X101645042Y-156857208D01*
X101483760Y-156882753D01*
X101281585Y-156948444D01*
X101092179Y-157044951D01*
X100920213Y-157169890D01*
X100769894Y-157320209D01*
X100769890Y-157320214D01*
X100724818Y-157382251D01*
X100669488Y-157424917D01*
X100599875Y-157430896D01*
X100538080Y-157398290D01*
X100503722Y-157337451D01*
X100500500Y-157309366D01*
X100500500Y-152591153D01*
X112879500Y-152591153D01*
X112879500Y-153848846D01*
X112910261Y-154003489D01*
X112910264Y-154003501D01*
X112970602Y-154149172D01*
X112970609Y-154149185D01*
X113058210Y-154280288D01*
X113058213Y-154280292D01*
X113169707Y-154391786D01*
X113169711Y-154391789D01*
X113300814Y-154479390D01*
X113300827Y-154479397D01*
X113446498Y-154539735D01*
X113446503Y-154539737D01*
X113566088Y-154563524D01*
X113601153Y-154570499D01*
X113601156Y-154570500D01*
X113601158Y-154570500D01*
X113758844Y-154570500D01*
X113758845Y-154570499D01*
X113913497Y-154539737D01*
X114059179Y-154479394D01*
X114190289Y-154391789D01*
X114301789Y-154280289D01*
X114389394Y-154149179D01*
X114412869Y-154092504D01*
X114456707Y-154038103D01*
X114523001Y-154016037D01*
X114590701Y-154033315D01*
X114634815Y-154077956D01*
X114649485Y-154103365D01*
X114756635Y-154210515D01*
X114870281Y-154276129D01*
X114877486Y-154280289D01*
X114887865Y-154286281D01*
X115034234Y-154325500D01*
X115034236Y-154325500D01*
X115185764Y-154325500D01*
X115185766Y-154325500D01*
X115332135Y-154286281D01*
X115463365Y-154210515D01*
X115570515Y-154103365D01*
X115646281Y-153972135D01*
X115685500Y-153825766D01*
X115685500Y-153674234D01*
X120314500Y-153674234D01*
X120314500Y-153825765D01*
X120353719Y-153972136D01*
X120371821Y-154003489D01*
X120429485Y-154103365D01*
X120536635Y-154210515D01*
X120650281Y-154276129D01*
X120657486Y-154280289D01*
X120667865Y-154286281D01*
X120814234Y-154325500D01*
X120814236Y-154325500D01*
X120965764Y-154325500D01*
X120965766Y-154325500D01*
X121112135Y-154286281D01*
X121243365Y-154210515D01*
X121350515Y-154103365D01*
X121365183Y-154077958D01*
X121375458Y-154068161D01*
X121381815Y-154055462D01*
X121400240Y-154044529D01*
X121415748Y-154029743D01*
X121429694Y-154027054D01*
X121441905Y-154019810D01*
X121463313Y-154020574D01*
X121484355Y-154016519D01*
X121497539Y-154021797D01*
X121511730Y-154022304D01*
X121529328Y-154034523D01*
X121549220Y-154042486D01*
X121558575Y-154054829D01*
X121569122Y-154062152D01*
X121587131Y-154092506D01*
X121608751Y-154144702D01*
X121613965Y-154160060D01*
X121655423Y-154314785D01*
X121655426Y-154314790D01*
X121734475Y-154451709D01*
X121734479Y-154451714D01*
X121734480Y-154451716D01*
X121846284Y-154563520D01*
X121846286Y-154563521D01*
X121846290Y-154563524D01*
X121983209Y-154642573D01*
X121983216Y-154642577D01*
X122135943Y-154683500D01*
X122135945Y-154683500D01*
X122294055Y-154683500D01*
X122294057Y-154683500D01*
X122446784Y-154642577D01*
X122583716Y-154563520D01*
X122607501Y-154539735D01*
X122628242Y-154518994D01*
X122668468Y-154492114D01*
X122699179Y-154479394D01*
X122830289Y-154391789D01*
X122941789Y-154280289D01*
X123029394Y-154149179D01*
X123031249Y-154144702D01*
X123052868Y-154092507D01*
X123089737Y-154003497D01*
X123120500Y-153848842D01*
X123120500Y-152591158D01*
X123120500Y-152591155D01*
X123120499Y-152591153D01*
X123089738Y-152436510D01*
X123089737Y-152436503D01*
X123089735Y-152436498D01*
X123029397Y-152290827D01*
X123029390Y-152290814D01*
X122941789Y-152159711D01*
X122941786Y-152159707D01*
X122830292Y-152048213D01*
X122830288Y-152048210D01*
X122699185Y-151960609D01*
X122699172Y-151960602D01*
X122553501Y-151900264D01*
X122553489Y-151900261D01*
X122398845Y-151869500D01*
X122398842Y-151869500D01*
X122241158Y-151869500D01*
X122241155Y-151869500D01*
X122086510Y-151900261D01*
X122086498Y-151900264D01*
X121940827Y-151960602D01*
X121940814Y-151960609D01*
X121809711Y-152048210D01*
X121809707Y-152048213D01*
X121698213Y-152159707D01*
X121698210Y-152159711D01*
X121610609Y-152290814D01*
X121610602Y-152290827D01*
X121550264Y-152436498D01*
X121550261Y-152436510D01*
X121519500Y-152591153D01*
X121519500Y-153266258D01*
X121499815Y-153333297D01*
X121447011Y-153379052D01*
X121377853Y-153388996D01*
X121314297Y-153359971D01*
X121307819Y-153353939D01*
X121243367Y-153289487D01*
X121243365Y-153289485D01*
X121177750Y-153251602D01*
X121112136Y-153213719D01*
X121038950Y-153194109D01*
X120965766Y-153174500D01*
X120814234Y-153174500D01*
X120667863Y-153213719D01*
X120536635Y-153289485D01*
X120536632Y-153289487D01*
X120429487Y-153396632D01*
X120429485Y-153396635D01*
X120353719Y-153527863D01*
X120314500Y-153674234D01*
X115685500Y-153674234D01*
X115646281Y-153527865D01*
X115570515Y-153396635D01*
X115463365Y-153289485D01*
X115397750Y-153251602D01*
X115332136Y-153213719D01*
X115258950Y-153194109D01*
X115185766Y-153174500D01*
X115034234Y-153174500D01*
X114887863Y-153213719D01*
X114756635Y-153289485D01*
X114756632Y-153289487D01*
X114692181Y-153353939D01*
X114630858Y-153387424D01*
X114561166Y-153382440D01*
X114505233Y-153340568D01*
X114480816Y-153275104D01*
X114480500Y-153266258D01*
X114480500Y-152591155D01*
X114480499Y-152591153D01*
X114449738Y-152436510D01*
X114449737Y-152436503D01*
X114449735Y-152436498D01*
X114389397Y-152290827D01*
X114389390Y-152290814D01*
X114301789Y-152159711D01*
X114301786Y-152159707D01*
X114190292Y-152048213D01*
X114190288Y-152048210D01*
X114059185Y-151960609D01*
X114059172Y-151960602D01*
X113913501Y-151900264D01*
X113913489Y-151900261D01*
X113758845Y-151869500D01*
X113758842Y-151869500D01*
X113601158Y-151869500D01*
X113601155Y-151869500D01*
X113446510Y-151900261D01*
X113446498Y-151900264D01*
X113300827Y-151960602D01*
X113300814Y-151960609D01*
X113169711Y-152048210D01*
X113169707Y-152048213D01*
X113058213Y-152159707D01*
X113058210Y-152159711D01*
X112970609Y-152290814D01*
X112970602Y-152290827D01*
X112910264Y-152436498D01*
X112910261Y-152436510D01*
X112879500Y-152591153D01*
X100500500Y-152591153D01*
X100500500Y-151280943D01*
X105903500Y-151280943D01*
X105903500Y-151439056D01*
X105944423Y-151591783D01*
X105944426Y-151591790D01*
X106023475Y-151728709D01*
X106023479Y-151728714D01*
X106023480Y-151728716D01*
X106135284Y-151840520D01*
X106135286Y-151840521D01*
X106135290Y-151840524D01*
X106272209Y-151919573D01*
X106272216Y-151919577D01*
X106424943Y-151960500D01*
X106424945Y-151960500D01*
X106583055Y-151960500D01*
X106583057Y-151960500D01*
X106735784Y-151919577D01*
X106872716Y-151840520D01*
X106984520Y-151728716D01*
X107063577Y-151591784D01*
X107104500Y-151439057D01*
X107104500Y-151280943D01*
X107063577Y-151128216D01*
X107063573Y-151128209D01*
X106984524Y-150991290D01*
X106984518Y-150991282D01*
X106872717Y-150879481D01*
X106872709Y-150879475D01*
X106735790Y-150800426D01*
X106735786Y-150800424D01*
X106735784Y-150800423D01*
X106583057Y-150759500D01*
X106424943Y-150759500D01*
X106272216Y-150800423D01*
X106272209Y-150800426D01*
X106135290Y-150879475D01*
X106135282Y-150879481D01*
X106023481Y-150991282D01*
X106023475Y-150991290D01*
X105944426Y-151128209D01*
X105944423Y-151128216D01*
X105903500Y-151280943D01*
X100500500Y-151280943D01*
X100500500Y-147060281D01*
X100520185Y-146993242D01*
X100572989Y-146947487D01*
X100642147Y-146937543D01*
X100705703Y-146966568D01*
X100734984Y-147003985D01*
X100774707Y-147081945D01*
X100816006Y-147162997D01*
X100922441Y-147309494D01*
X100922445Y-147309499D01*
X101050500Y-147437554D01*
X101050505Y-147437558D01*
X101177342Y-147529709D01*
X101197006Y-147543996D01*
X101268696Y-147580524D01*
X101358360Y-147626211D01*
X101358363Y-147626212D01*
X101405478Y-147641520D01*
X101530591Y-147682171D01*
X101613429Y-147695291D01*
X101709449Y-147710500D01*
X101709454Y-147710500D01*
X101890551Y-147710500D01*
X101977259Y-147696765D01*
X102069409Y-147682171D01*
X102241639Y-147626211D01*
X102402994Y-147543996D01*
X102531483Y-147450643D01*
X102597285Y-147427165D01*
X102665339Y-147442990D01*
X102692046Y-147463282D01*
X102697480Y-147468716D01*
X102809284Y-147580520D01*
X102809286Y-147580521D01*
X102809290Y-147580524D01*
X102914940Y-147641520D01*
X102946216Y-147659577D01*
X103098943Y-147700500D01*
X103098945Y-147700500D01*
X103257055Y-147700500D01*
X103257057Y-147700500D01*
X103409784Y-147659577D01*
X103546716Y-147580520D01*
X103658520Y-147468716D01*
X103737577Y-147331784D01*
X103756827Y-147259943D01*
X104194500Y-147259943D01*
X104194500Y-147418057D01*
X104228245Y-147543993D01*
X104235423Y-147570783D01*
X104235426Y-147570790D01*
X104314475Y-147707709D01*
X104314479Y-147707714D01*
X104314480Y-147707716D01*
X104426284Y-147819520D01*
X104426286Y-147819521D01*
X104426290Y-147819524D01*
X104563209Y-147898573D01*
X104563216Y-147898577D01*
X104715943Y-147939500D01*
X104715945Y-147939500D01*
X104874055Y-147939500D01*
X104874057Y-147939500D01*
X105026784Y-147898577D01*
X105163716Y-147819520D01*
X105275520Y-147707716D01*
X105354577Y-147570784D01*
X105395500Y-147418057D01*
X105395500Y-147259943D01*
X105354577Y-147107216D01*
X105339986Y-147081943D01*
X109459500Y-147081943D01*
X109459500Y-147240057D01*
X109493975Y-147368717D01*
X109500423Y-147392783D01*
X109500426Y-147392790D01*
X109579475Y-147529709D01*
X109579479Y-147529714D01*
X109579480Y-147529716D01*
X109691284Y-147641520D01*
X109691286Y-147641521D01*
X109691290Y-147641524D01*
X109810762Y-147710500D01*
X109828216Y-147720577D01*
X109980943Y-147761500D01*
X109980945Y-147761500D01*
X110139055Y-147761500D01*
X110139057Y-147761500D01*
X110291784Y-147720577D01*
X110428716Y-147641520D01*
X110540520Y-147529716D01*
X110619577Y-147392784D01*
X110660500Y-147240057D01*
X110660500Y-147081943D01*
X110623782Y-146944909D01*
X110623782Y-146944907D01*
X110619578Y-146929220D01*
X110619577Y-146929216D01*
X110614801Y-146920943D01*
X122399500Y-146920943D01*
X122399500Y-147079057D01*
X122437192Y-147219723D01*
X122440423Y-147231783D01*
X122440426Y-147231790D01*
X122519475Y-147368709D01*
X122519479Y-147368714D01*
X122519480Y-147368716D01*
X122631284Y-147480520D01*
X122631286Y-147480521D01*
X122631290Y-147480524D01*
X122768209Y-147559573D01*
X122768216Y-147559577D01*
X122920943Y-147600500D01*
X122920945Y-147600500D01*
X123079055Y-147600500D01*
X123079057Y-147600500D01*
X123231784Y-147559577D01*
X123368716Y-147480520D01*
X123480520Y-147368716D01*
X123559577Y-147231784D01*
X123600500Y-147079057D01*
X123600500Y-146920943D01*
X123559577Y-146768216D01*
X123538258Y-146731290D01*
X123480524Y-146631290D01*
X123480518Y-146631282D01*
X123368717Y-146519481D01*
X123368709Y-146519475D01*
X123231790Y-146440426D01*
X123231786Y-146440424D01*
X123231784Y-146440423D01*
X123079057Y-146399500D01*
X122920943Y-146399500D01*
X122768216Y-146440423D01*
X122768209Y-146440426D01*
X122631290Y-146519475D01*
X122631282Y-146519481D01*
X122519481Y-146631282D01*
X122519475Y-146631290D01*
X122440426Y-146768209D01*
X122440423Y-146768216D01*
X122399500Y-146920943D01*
X110614801Y-146920943D01*
X110561954Y-146829409D01*
X110540524Y-146792290D01*
X110540518Y-146792282D01*
X110428717Y-146680481D01*
X110428709Y-146680475D01*
X110291790Y-146601426D01*
X110291786Y-146601424D01*
X110291784Y-146601423D01*
X110139057Y-146560500D01*
X109980943Y-146560500D01*
X109828216Y-146601423D01*
X109828209Y-146601426D01*
X109691290Y-146680475D01*
X109691282Y-146680481D01*
X109579481Y-146792282D01*
X109579475Y-146792290D01*
X109500426Y-146929209D01*
X109500423Y-146929216D01*
X109459500Y-147081943D01*
X105339986Y-147081943D01*
X105338319Y-147079056D01*
X105275524Y-146970290D01*
X105275518Y-146970282D01*
X105163717Y-146858481D01*
X105163709Y-146858475D01*
X105026790Y-146779426D01*
X105026786Y-146779424D01*
X105026784Y-146779423D01*
X104874057Y-146738500D01*
X104715943Y-146738500D01*
X104563216Y-146779423D01*
X104563209Y-146779426D01*
X104426290Y-146858475D01*
X104426282Y-146858481D01*
X104314481Y-146970282D01*
X104314475Y-146970290D01*
X104235426Y-147107209D01*
X104235423Y-147107216D01*
X104194500Y-147259943D01*
X103756827Y-147259943D01*
X103778500Y-147179057D01*
X103778500Y-147020943D01*
X103737577Y-146868216D01*
X103679843Y-146768216D01*
X103658524Y-146731290D01*
X103658518Y-146731282D01*
X103546717Y-146619481D01*
X103546709Y-146619475D01*
X103409790Y-146540426D01*
X103409786Y-146540424D01*
X103409784Y-146540423D01*
X103257057Y-146499500D01*
X103098943Y-146499500D01*
X103094125Y-146500791D01*
X103024275Y-146499124D01*
X102966415Y-146459958D01*
X102939565Y-146400412D01*
X102936718Y-146382438D01*
X102922171Y-146290591D01*
X102883806Y-146172514D01*
X102866212Y-146118363D01*
X102866211Y-146118360D01*
X102828888Y-146045111D01*
X102804345Y-145996943D01*
X107713500Y-145996943D01*
X107713500Y-146155056D01*
X107754423Y-146307783D01*
X107754426Y-146307790D01*
X107833475Y-146444709D01*
X107833479Y-146444714D01*
X107833480Y-146444716D01*
X107945284Y-146556520D01*
X107945286Y-146556521D01*
X107945290Y-146556524D01*
X108074777Y-146631282D01*
X108082216Y-146635577D01*
X108234943Y-146676500D01*
X108234945Y-146676500D01*
X108393055Y-146676500D01*
X108393057Y-146676500D01*
X108545784Y-146635577D01*
X108682716Y-146556520D01*
X108794520Y-146444716D01*
X108873577Y-146307784D01*
X108914500Y-146155057D01*
X108914500Y-145996943D01*
X108873577Y-145844216D01*
X108865901Y-145830920D01*
X108794524Y-145707290D01*
X108794518Y-145707282D01*
X108682717Y-145595481D01*
X108682709Y-145595475D01*
X108545790Y-145516426D01*
X108545786Y-145516424D01*
X108545784Y-145516423D01*
X108393057Y-145475500D01*
X108234943Y-145475500D01*
X108082216Y-145516423D01*
X108082209Y-145516426D01*
X107945290Y-145595475D01*
X107945282Y-145595481D01*
X107833481Y-145707282D01*
X107833475Y-145707290D01*
X107754426Y-145844209D01*
X107754423Y-145844216D01*
X107713500Y-145996943D01*
X102804345Y-145996943D01*
X102783996Y-145957006D01*
X102692390Y-145830920D01*
X102677558Y-145810505D01*
X102677554Y-145810500D01*
X102549499Y-145682445D01*
X102549494Y-145682441D01*
X102402997Y-145576006D01*
X102402996Y-145576005D01*
X102402994Y-145576004D01*
X102351300Y-145549664D01*
X102241639Y-145493788D01*
X102241636Y-145493787D01*
X102069410Y-145437829D01*
X101909321Y-145412473D01*
X101846186Y-145382544D01*
X101809255Y-145323232D01*
X101810253Y-145253370D01*
X101848863Y-145195137D01*
X101909321Y-145167527D01*
X101983188Y-145155827D01*
X102069409Y-145142171D01*
X102134743Y-145120943D01*
X105599500Y-145120943D01*
X105599500Y-145279057D01*
X105639800Y-145429457D01*
X105640423Y-145431783D01*
X105640426Y-145431790D01*
X105719475Y-145568709D01*
X105719479Y-145568714D01*
X105719480Y-145568716D01*
X105831284Y-145680520D01*
X105831286Y-145680521D01*
X105831290Y-145680524D01*
X105968209Y-145759573D01*
X105968216Y-145759577D01*
X106120943Y-145800500D01*
X106120945Y-145800500D01*
X106279055Y-145800500D01*
X106279057Y-145800500D01*
X106431784Y-145759577D01*
X106568716Y-145680520D01*
X106680520Y-145568716D01*
X106759577Y-145431784D01*
X106800500Y-145279057D01*
X106800500Y-145271343D01*
X113909418Y-145271343D01*
X113909418Y-145429457D01*
X113946733Y-145568716D01*
X113950341Y-145582183D01*
X113950344Y-145582190D01*
X114029393Y-145719109D01*
X114029397Y-145719114D01*
X114029398Y-145719116D01*
X114141202Y-145830920D01*
X114141204Y-145830921D01*
X114141208Y-145830924D01*
X114278127Y-145909973D01*
X114278134Y-145909977D01*
X114430861Y-145950900D01*
X114430863Y-145950900D01*
X114588973Y-145950900D01*
X114588975Y-145950900D01*
X114741702Y-145909977D01*
X114878634Y-145830920D01*
X114990438Y-145719116D01*
X115069495Y-145582184D01*
X115110418Y-145429457D01*
X115110418Y-145271343D01*
X115069495Y-145118616D01*
X115050786Y-145086211D01*
X114990442Y-144981690D01*
X114990436Y-144981682D01*
X114878635Y-144869881D01*
X114878627Y-144869875D01*
X114825655Y-144839292D01*
X114741708Y-144790826D01*
X114741704Y-144790824D01*
X114741702Y-144790823D01*
X114588975Y-144749900D01*
X114430861Y-144749900D01*
X114278134Y-144790823D01*
X114278127Y-144790826D01*
X114141208Y-144869875D01*
X114141200Y-144869881D01*
X114029399Y-144981682D01*
X114029393Y-144981690D01*
X113950344Y-145118609D01*
X113950341Y-145118616D01*
X113909418Y-145271343D01*
X106800500Y-145271343D01*
X106800500Y-145120943D01*
X106759577Y-144968216D01*
X106727044Y-144911866D01*
X106680524Y-144831290D01*
X106680518Y-144831282D01*
X106568717Y-144719481D01*
X106568709Y-144719475D01*
X106431790Y-144640426D01*
X106431786Y-144640424D01*
X106431784Y-144640423D01*
X106279057Y-144599500D01*
X106120943Y-144599500D01*
X105968216Y-144640423D01*
X105968209Y-144640426D01*
X105831290Y-144719475D01*
X105831282Y-144719481D01*
X105719481Y-144831282D01*
X105719475Y-144831290D01*
X105640426Y-144968209D01*
X105640423Y-144968216D01*
X105599500Y-145120943D01*
X102134743Y-145120943D01*
X102241639Y-145086211D01*
X102402994Y-145003996D01*
X102549501Y-144897553D01*
X102677553Y-144769501D01*
X102783996Y-144622994D01*
X102866211Y-144461639D01*
X102922171Y-144289409D01*
X102942322Y-144162183D01*
X102950500Y-144110551D01*
X102950500Y-143929448D01*
X102923094Y-143756419D01*
X102922171Y-143750591D01*
X102920402Y-143745148D01*
X107203927Y-143745148D01*
X107203927Y-143903262D01*
X107219017Y-143959576D01*
X107244850Y-144055988D01*
X107244853Y-144055995D01*
X107323902Y-144192914D01*
X107323906Y-144192919D01*
X107323907Y-144192921D01*
X107435711Y-144304725D01*
X107435713Y-144304726D01*
X107435717Y-144304729D01*
X107572636Y-144383778D01*
X107572643Y-144383782D01*
X107725370Y-144424705D01*
X107725372Y-144424705D01*
X107883482Y-144424705D01*
X107883484Y-144424705D01*
X108036211Y-144383782D01*
X108173143Y-144304725D01*
X108245558Y-144232310D01*
X109488181Y-144232310D01*
X109488181Y-144390424D01*
X109524469Y-144525851D01*
X109529104Y-144543150D01*
X109529107Y-144543157D01*
X109608156Y-144680076D01*
X109608160Y-144680081D01*
X109608161Y-144680083D01*
X109719965Y-144791887D01*
X109719967Y-144791888D01*
X109719971Y-144791891D01*
X109855045Y-144869875D01*
X109856897Y-144870944D01*
X110009624Y-144911867D01*
X110009626Y-144911867D01*
X110167736Y-144911867D01*
X110167738Y-144911867D01*
X110320465Y-144870944D01*
X110457397Y-144791887D01*
X110569201Y-144680083D01*
X110648258Y-144543151D01*
X110652894Y-144525851D01*
X112565012Y-144525851D01*
X112565012Y-144683965D01*
X112604486Y-144831282D01*
X112605935Y-144836691D01*
X112605938Y-144836698D01*
X112684987Y-144973617D01*
X112684991Y-144973622D01*
X112684992Y-144973624D01*
X112796796Y-145085428D01*
X112796798Y-145085429D01*
X112796802Y-145085432D01*
X112918732Y-145155827D01*
X112933728Y-145164485D01*
X113086455Y-145205408D01*
X113086457Y-145205408D01*
X113244567Y-145205408D01*
X113244569Y-145205408D01*
X113397296Y-145164485D01*
X113412291Y-145155827D01*
X113412293Y-145155827D01*
X113534221Y-145085432D01*
X113534220Y-145085432D01*
X113534228Y-145085428D01*
X113646032Y-144973624D01*
X113725089Y-144836692D01*
X113750989Y-144740032D01*
X118805387Y-144740032D01*
X118805387Y-144898146D01*
X118833750Y-145003996D01*
X118846310Y-145050872D01*
X118846313Y-145050879D01*
X118925362Y-145187798D01*
X118925366Y-145187803D01*
X118925367Y-145187805D01*
X119037171Y-145299609D01*
X119037173Y-145299610D01*
X119037177Y-145299613D01*
X119150687Y-145365147D01*
X119174103Y-145378666D01*
X119326830Y-145419589D01*
X119326832Y-145419589D01*
X119484942Y-145419589D01*
X119484944Y-145419589D01*
X119637671Y-145378666D01*
X119661088Y-145365146D01*
X119728985Y-145348674D01*
X119795012Y-145371526D01*
X119837648Y-145425084D01*
X119840424Y-145431788D01*
X119919475Y-145568709D01*
X119919479Y-145568714D01*
X119919480Y-145568716D01*
X120031284Y-145680520D01*
X120031286Y-145680521D01*
X120031290Y-145680524D01*
X120168209Y-145759573D01*
X120168216Y-145759577D01*
X120320943Y-145800500D01*
X120320945Y-145800500D01*
X120479055Y-145800500D01*
X120479057Y-145800500D01*
X120631784Y-145759577D01*
X120768716Y-145680520D01*
X120880520Y-145568716D01*
X120959577Y-145431784D01*
X121000500Y-145279057D01*
X121000500Y-145120943D01*
X120959577Y-144968216D01*
X120927044Y-144911866D01*
X120880524Y-144831290D01*
X120880518Y-144831282D01*
X120768717Y-144719481D01*
X120768709Y-144719475D01*
X120631790Y-144640426D01*
X120631786Y-144640424D01*
X120631784Y-144640423D01*
X120479057Y-144599500D01*
X120320943Y-144599500D01*
X120168216Y-144640423D01*
X120168213Y-144640424D01*
X120144797Y-144653943D01*
X120076896Y-144670413D01*
X120010870Y-144647559D01*
X119968236Y-144594000D01*
X119965466Y-144587313D01*
X119965464Y-144587305D01*
X119965459Y-144587296D01*
X119886411Y-144450379D01*
X119886405Y-144450371D01*
X119774604Y-144338570D01*
X119774596Y-144338564D01*
X119637677Y-144259515D01*
X119637673Y-144259513D01*
X119637671Y-144259512D01*
X119484944Y-144218589D01*
X119326830Y-144218589D01*
X119174103Y-144259512D01*
X119174096Y-144259515D01*
X119037177Y-144338564D01*
X119037169Y-144338570D01*
X118925368Y-144450371D01*
X118925362Y-144450379D01*
X118846313Y-144587298D01*
X118846310Y-144587305D01*
X118805387Y-144740032D01*
X113750989Y-144740032D01*
X113766012Y-144683965D01*
X113766012Y-144525851D01*
X113725089Y-144373124D01*
X113725085Y-144373117D01*
X113646036Y-144236198D01*
X113646030Y-144236190D01*
X113534229Y-144124389D01*
X113534221Y-144124383D01*
X113397302Y-144045334D01*
X113397298Y-144045332D01*
X113397296Y-144045331D01*
X113244569Y-144004408D01*
X113086455Y-144004408D01*
X112933728Y-144045331D01*
X112933721Y-144045334D01*
X112796802Y-144124383D01*
X112796794Y-144124389D01*
X112684993Y-144236190D01*
X112684987Y-144236198D01*
X112605938Y-144373117D01*
X112605935Y-144373124D01*
X112565012Y-144525851D01*
X110652894Y-144525851D01*
X110689181Y-144390424D01*
X110689181Y-144232310D01*
X110648258Y-144079583D01*
X110602600Y-144000500D01*
X110569205Y-143942657D01*
X110569199Y-143942649D01*
X110457398Y-143830848D01*
X110457390Y-143830842D01*
X110320471Y-143751793D01*
X110320467Y-143751791D01*
X110320465Y-143751790D01*
X110167738Y-143710867D01*
X110009624Y-143710867D01*
X109856897Y-143751790D01*
X109856890Y-143751793D01*
X109719971Y-143830842D01*
X109719963Y-143830848D01*
X109608162Y-143942649D01*
X109608156Y-143942657D01*
X109529107Y-144079576D01*
X109529104Y-144079583D01*
X109488181Y-144232310D01*
X108245558Y-144232310D01*
X108284947Y-144192921D01*
X108291187Y-144182112D01*
X108302694Y-144162183D01*
X108332506Y-144110546D01*
X108364004Y-144055989D01*
X108404927Y-143903262D01*
X108404927Y-143745148D01*
X108364004Y-143592421D01*
X108342239Y-143554723D01*
X108284951Y-143455495D01*
X108284945Y-143455487D01*
X108173144Y-143343686D01*
X108173136Y-143343680D01*
X108036217Y-143264631D01*
X108036213Y-143264629D01*
X108036211Y-143264628D01*
X107883484Y-143223705D01*
X107725370Y-143223705D01*
X107572643Y-143264628D01*
X107572636Y-143264631D01*
X107435717Y-143343680D01*
X107435709Y-143343686D01*
X107323908Y-143455487D01*
X107323902Y-143455495D01*
X107244853Y-143592414D01*
X107244850Y-143592421D01*
X107203927Y-143745148D01*
X102920402Y-143745148D01*
X102909264Y-143710867D01*
X102866212Y-143578363D01*
X102866211Y-143578360D01*
X102823768Y-143495062D01*
X102783996Y-143417006D01*
X102730726Y-143343686D01*
X102677558Y-143270505D01*
X102677554Y-143270500D01*
X102549499Y-143142445D01*
X102549494Y-143142441D01*
X102402997Y-143036006D01*
X102402996Y-143036005D01*
X102402994Y-143036004D01*
X102345645Y-143006783D01*
X102241639Y-142953788D01*
X102241636Y-142953787D01*
X102069410Y-142897829D01*
X101909321Y-142872473D01*
X101846186Y-142842544D01*
X101809255Y-142783232D01*
X101810253Y-142713370D01*
X101821808Y-142695943D01*
X111093500Y-142695943D01*
X111093500Y-142854057D01*
X111111031Y-142919481D01*
X111134423Y-143006783D01*
X111134426Y-143006790D01*
X111213475Y-143143709D01*
X111213479Y-143143714D01*
X111213480Y-143143716D01*
X111325284Y-143255520D01*
X111325286Y-143255521D01*
X111325290Y-143255524D01*
X111438601Y-143320943D01*
X111462216Y-143334577D01*
X111614943Y-143375500D01*
X111614945Y-143375500D01*
X111773055Y-143375500D01*
X111773057Y-143375500D01*
X111925784Y-143334577D01*
X111949399Y-143320943D01*
X119199500Y-143320943D01*
X119199500Y-143479057D01*
X119226109Y-143578361D01*
X119240423Y-143631783D01*
X119240426Y-143631790D01*
X119319475Y-143768709D01*
X119319479Y-143768714D01*
X119319480Y-143768716D01*
X119431284Y-143880520D01*
X119431286Y-143880521D01*
X119431290Y-143880524D01*
X119538899Y-143942651D01*
X119568216Y-143959577D01*
X119720943Y-144000500D01*
X119720945Y-144000500D01*
X119879055Y-144000500D01*
X119879057Y-144000500D01*
X120031784Y-143959577D01*
X120168716Y-143880520D01*
X120280520Y-143768716D01*
X120359577Y-143631784D01*
X120380225Y-143554721D01*
X120416590Y-143495062D01*
X120479437Y-143464533D01*
X120548812Y-143472828D01*
X120602690Y-143517313D01*
X120619774Y-143554720D01*
X120626109Y-143578363D01*
X120640423Y-143631783D01*
X120640426Y-143631790D01*
X120719475Y-143768709D01*
X120719479Y-143768714D01*
X120719480Y-143768716D01*
X120831284Y-143880520D01*
X120831286Y-143880521D01*
X120831290Y-143880524D01*
X120938899Y-143942651D01*
X120968216Y-143959577D01*
X121120943Y-144000500D01*
X121120945Y-144000500D01*
X121279055Y-144000500D01*
X121279057Y-144000500D01*
X121431784Y-143959577D01*
X121568716Y-143880520D01*
X121680520Y-143768716D01*
X121759577Y-143631784D01*
X121800500Y-143479057D01*
X121800500Y-143320943D01*
X121759577Y-143168216D01*
X121745428Y-143143709D01*
X121680524Y-143031290D01*
X121680518Y-143031282D01*
X121568717Y-142919481D01*
X121568709Y-142919475D01*
X121431790Y-142840426D01*
X121431786Y-142840424D01*
X121431784Y-142840423D01*
X121279057Y-142799500D01*
X121120943Y-142799500D01*
X120968216Y-142840423D01*
X120968209Y-142840426D01*
X120831290Y-142919475D01*
X120831282Y-142919481D01*
X120719481Y-143031282D01*
X120719475Y-143031290D01*
X120640426Y-143168209D01*
X120640423Y-143168214D01*
X120619775Y-143245277D01*
X120583410Y-143304937D01*
X120520563Y-143335466D01*
X120451187Y-143327171D01*
X120397309Y-143282686D01*
X120380225Y-143245277D01*
X120374445Y-143223705D01*
X120359577Y-143168216D01*
X120345428Y-143143709D01*
X120280524Y-143031290D01*
X120280518Y-143031282D01*
X120168717Y-142919481D01*
X120168709Y-142919475D01*
X120031790Y-142840426D01*
X120031786Y-142840424D01*
X120031784Y-142840423D01*
X119879057Y-142799500D01*
X119720943Y-142799500D01*
X119568216Y-142840423D01*
X119568209Y-142840426D01*
X119431290Y-142919475D01*
X119431282Y-142919481D01*
X119319481Y-143031282D01*
X119319475Y-143031290D01*
X119240426Y-143168209D01*
X119240424Y-143168214D01*
X119240423Y-143168216D01*
X119199500Y-143320943D01*
X111949399Y-143320943D01*
X112062716Y-143255520D01*
X112174520Y-143143716D01*
X112253577Y-143006784D01*
X112294500Y-142854057D01*
X112294500Y-142695943D01*
X112267705Y-142595943D01*
X114299500Y-142595943D01*
X114299500Y-142754057D01*
X114331230Y-142872473D01*
X114340423Y-142906783D01*
X114340426Y-142906790D01*
X114419475Y-143043709D01*
X114419479Y-143043714D01*
X114419480Y-143043716D01*
X114531284Y-143155520D01*
X114531286Y-143155521D01*
X114531290Y-143155524D01*
X114553274Y-143168216D01*
X114668216Y-143234577D01*
X114820943Y-143275500D01*
X114820945Y-143275500D01*
X114979055Y-143275500D01*
X114979057Y-143275500D01*
X115131784Y-143234577D01*
X115268716Y-143155520D01*
X115380520Y-143043716D01*
X115459577Y-142906784D01*
X115500500Y-142754057D01*
X115500500Y-142595943D01*
X115459577Y-142443216D01*
X115438258Y-142406290D01*
X115380524Y-142306290D01*
X115380518Y-142306282D01*
X115268717Y-142194481D01*
X115268709Y-142194475D01*
X115131790Y-142115426D01*
X115131786Y-142115424D01*
X115131784Y-142115423D01*
X114979057Y-142074500D01*
X114820943Y-142074500D01*
X114668216Y-142115423D01*
X114668209Y-142115426D01*
X114531290Y-142194475D01*
X114531282Y-142194481D01*
X114419481Y-142306282D01*
X114419475Y-142306290D01*
X114340426Y-142443209D01*
X114340423Y-142443216D01*
X114299500Y-142595943D01*
X112267705Y-142595943D01*
X112253577Y-142543216D01*
X112195843Y-142443216D01*
X112174524Y-142406290D01*
X112174518Y-142406282D01*
X112062717Y-142294481D01*
X112062709Y-142294475D01*
X111925790Y-142215426D01*
X111925786Y-142215424D01*
X111925784Y-142215423D01*
X111773057Y-142174500D01*
X111614943Y-142174500D01*
X111462216Y-142215423D01*
X111462209Y-142215426D01*
X111325290Y-142294475D01*
X111325282Y-142294481D01*
X111213481Y-142406282D01*
X111213475Y-142406290D01*
X111134426Y-142543209D01*
X111134423Y-142543216D01*
X111093500Y-142695943D01*
X101821808Y-142695943D01*
X101848863Y-142655137D01*
X101909321Y-142627527D01*
X101998237Y-142613443D01*
X102069409Y-142602171D01*
X102168777Y-142569885D01*
X102168778Y-142569885D01*
X102241636Y-142546212D01*
X102241639Y-142546211D01*
X102247531Y-142543209D01*
X102402994Y-142463996D01*
X102549501Y-142357553D01*
X102677553Y-142229501D01*
X102783996Y-142082994D01*
X102866211Y-141921639D01*
X102866437Y-141920945D01*
X102883806Y-141867487D01*
X102922171Y-141749409D01*
X102940880Y-141631284D01*
X102950500Y-141570551D01*
X102950500Y-141520943D01*
X107399500Y-141520943D01*
X107399500Y-141679057D01*
X107438642Y-141825135D01*
X107440423Y-141831783D01*
X107440426Y-141831790D01*
X107519475Y-141968709D01*
X107519479Y-141968714D01*
X107519480Y-141968716D01*
X107631284Y-142080520D01*
X107631286Y-142080521D01*
X107631290Y-142080524D01*
X107768209Y-142159573D01*
X107768216Y-142159577D01*
X107920943Y-142200500D01*
X107920945Y-142200500D01*
X108079055Y-142200500D01*
X108079057Y-142200500D01*
X108231784Y-142159577D01*
X108368716Y-142080520D01*
X108480520Y-141968716D01*
X108559577Y-141831784D01*
X108600500Y-141679057D01*
X108600500Y-141520943D01*
X108559577Y-141368216D01*
X108532285Y-141320945D01*
X108532284Y-141320943D01*
X109599500Y-141320943D01*
X109599500Y-141479057D01*
X109640289Y-141631282D01*
X109640423Y-141631783D01*
X109640426Y-141631790D01*
X109719475Y-141768709D01*
X109719479Y-141768714D01*
X109719480Y-141768716D01*
X109831284Y-141880520D01*
X109831286Y-141880521D01*
X109831290Y-141880524D01*
X109968209Y-141959573D01*
X109968216Y-141959577D01*
X110120943Y-142000500D01*
X110120945Y-142000500D01*
X110279055Y-142000500D01*
X110279057Y-142000500D01*
X110431784Y-141959577D01*
X110498701Y-141920943D01*
X120999500Y-141920943D01*
X120999500Y-142079057D01*
X121039812Y-142229501D01*
X121040423Y-142231783D01*
X121040426Y-142231790D01*
X121119475Y-142368709D01*
X121119479Y-142368714D01*
X121119480Y-142368716D01*
X121231284Y-142480520D01*
X121231286Y-142480521D01*
X121231290Y-142480524D01*
X121345065Y-142546211D01*
X121368216Y-142559577D01*
X121520943Y-142600500D01*
X121520945Y-142600500D01*
X121679055Y-142600500D01*
X121679057Y-142600500D01*
X121831784Y-142559577D01*
X121968716Y-142480520D01*
X122080520Y-142368716D01*
X122159577Y-142231784D01*
X122200500Y-142079057D01*
X122200500Y-141920943D01*
X122159577Y-141768216D01*
X122159573Y-141768209D01*
X122080524Y-141631290D01*
X122080518Y-141631282D01*
X121968717Y-141519481D01*
X121968709Y-141519475D01*
X121831790Y-141440426D01*
X121831786Y-141440424D01*
X121831784Y-141440423D01*
X121679057Y-141399500D01*
X121520943Y-141399500D01*
X121368216Y-141440423D01*
X121368209Y-141440426D01*
X121231290Y-141519475D01*
X121231282Y-141519481D01*
X121119481Y-141631282D01*
X121119475Y-141631290D01*
X121040426Y-141768209D01*
X121040423Y-141768216D01*
X120999500Y-141920943D01*
X110498701Y-141920943D01*
X110568716Y-141880520D01*
X110680520Y-141768716D01*
X110759577Y-141631784D01*
X110800500Y-141479057D01*
X110800500Y-141320943D01*
X110759577Y-141168216D01*
X110712577Y-141086809D01*
X110680524Y-141031290D01*
X110680518Y-141031282D01*
X110568717Y-140919481D01*
X110568709Y-140919475D01*
X110431790Y-140840426D01*
X110431786Y-140840424D01*
X110431784Y-140840423D01*
X110279057Y-140799500D01*
X110120943Y-140799500D01*
X109968216Y-140840423D01*
X109968209Y-140840426D01*
X109831290Y-140919475D01*
X109831282Y-140919481D01*
X109719481Y-141031282D01*
X109719475Y-141031290D01*
X109640426Y-141168209D01*
X109640423Y-141168216D01*
X109599500Y-141320943D01*
X108532284Y-141320943D01*
X108480522Y-141231287D01*
X108480518Y-141231282D01*
X108368717Y-141119481D01*
X108368709Y-141119475D01*
X108231790Y-141040426D01*
X108231786Y-141040424D01*
X108231784Y-141040423D01*
X108079057Y-140999500D01*
X107920943Y-140999500D01*
X107768216Y-141040423D01*
X107768209Y-141040426D01*
X107631290Y-141119475D01*
X107631282Y-141119481D01*
X107519481Y-141231282D01*
X107519475Y-141231290D01*
X107440426Y-141368209D01*
X107440426Y-141368210D01*
X107440423Y-141368216D01*
X107399500Y-141520943D01*
X102950500Y-141520943D01*
X102950500Y-141389448D01*
X102925449Y-141231290D01*
X102922171Y-141210591D01*
X102883806Y-141092514D01*
X102866212Y-141038363D01*
X102866211Y-141038360D01*
X102805638Y-140919481D01*
X102783996Y-140877006D01*
X102705320Y-140768717D01*
X102677558Y-140730505D01*
X102677554Y-140730500D01*
X102549499Y-140602445D01*
X102549494Y-140602441D01*
X102402997Y-140496006D01*
X102402996Y-140496005D01*
X102402994Y-140496004D01*
X102260306Y-140423300D01*
X102260305Y-140423299D01*
X102241643Y-140413790D01*
X102241636Y-140413787D01*
X102069410Y-140357829D01*
X101909321Y-140332473D01*
X101884999Y-140320943D01*
X105199500Y-140320943D01*
X105199500Y-140479057D01*
X105235721Y-140614233D01*
X105240423Y-140631783D01*
X105240426Y-140631790D01*
X105319475Y-140768709D01*
X105319479Y-140768714D01*
X105319480Y-140768716D01*
X105431284Y-140880520D01*
X105431286Y-140880521D01*
X105431290Y-140880524D01*
X105498765Y-140919480D01*
X105568216Y-140959577D01*
X105720943Y-141000500D01*
X105720945Y-141000500D01*
X105879055Y-141000500D01*
X105879057Y-141000500D01*
X106031784Y-140959577D01*
X106168716Y-140880520D01*
X106280520Y-140768716D01*
X106359577Y-140631784D01*
X106400500Y-140479057D01*
X106400500Y-140320943D01*
X106359577Y-140168216D01*
X106307852Y-140078625D01*
X106280524Y-140031290D01*
X106280518Y-140031282D01*
X106168717Y-139919481D01*
X106168709Y-139919475D01*
X106031790Y-139840426D01*
X106031786Y-139840424D01*
X106031784Y-139840423D01*
X105879057Y-139799500D01*
X105720943Y-139799500D01*
X105568216Y-139840423D01*
X105568209Y-139840426D01*
X105431290Y-139919475D01*
X105431282Y-139919481D01*
X105319481Y-140031282D01*
X105319475Y-140031290D01*
X105240426Y-140168209D01*
X105240423Y-140168216D01*
X105199500Y-140320943D01*
X101884999Y-140320943D01*
X101846186Y-140302544D01*
X101809255Y-140243232D01*
X101810253Y-140173370D01*
X101848863Y-140115137D01*
X101909321Y-140087527D01*
X101979425Y-140076422D01*
X102069409Y-140062171D01*
X102241639Y-140006211D01*
X102402994Y-139923996D01*
X102549501Y-139817553D01*
X102646111Y-139720943D01*
X107799500Y-139720943D01*
X107799500Y-139879057D01*
X107840289Y-140031282D01*
X107840423Y-140031783D01*
X107840426Y-140031790D01*
X107919475Y-140168709D01*
X107919479Y-140168714D01*
X107919480Y-140168716D01*
X108031284Y-140280520D01*
X108031286Y-140280521D01*
X108031290Y-140280524D01*
X108158653Y-140354056D01*
X108168216Y-140359577D01*
X108320943Y-140400500D01*
X108320945Y-140400500D01*
X108479055Y-140400500D01*
X108479057Y-140400500D01*
X108631784Y-140359577D01*
X108768716Y-140280520D01*
X108853293Y-140195943D01*
X112465500Y-140195943D01*
X112465500Y-140354057D01*
X112505256Y-140502426D01*
X112506423Y-140506783D01*
X112506426Y-140506790D01*
X112585475Y-140643709D01*
X112585479Y-140643714D01*
X112585480Y-140643716D01*
X112697284Y-140755520D01*
X112697286Y-140755521D01*
X112697290Y-140755524D01*
X112773460Y-140799500D01*
X112834216Y-140834577D01*
X112986943Y-140875500D01*
X112986945Y-140875500D01*
X113145055Y-140875500D01*
X113145057Y-140875500D01*
X113297784Y-140834577D01*
X113434716Y-140755520D01*
X113546520Y-140643716D01*
X113625577Y-140506784D01*
X113666500Y-140354057D01*
X113666500Y-140195943D01*
X113628641Y-140054652D01*
X120670367Y-140054652D01*
X120670367Y-140212766D01*
X120709237Y-140357829D01*
X120711290Y-140365492D01*
X120711293Y-140365499D01*
X120790342Y-140502418D01*
X120790346Y-140502423D01*
X120790347Y-140502425D01*
X120902151Y-140614229D01*
X120902153Y-140614230D01*
X120902157Y-140614233D01*
X120953212Y-140643709D01*
X121039083Y-140693286D01*
X121191810Y-140734209D01*
X121191812Y-140734209D01*
X121349922Y-140734209D01*
X121349924Y-140734209D01*
X121502651Y-140693286D01*
X121639583Y-140614229D01*
X121751387Y-140502425D01*
X121830444Y-140365493D01*
X121871367Y-140212766D01*
X121871367Y-140054652D01*
X121830444Y-139901925D01*
X121794936Y-139840423D01*
X121751391Y-139764999D01*
X121751385Y-139764991D01*
X121639584Y-139653190D01*
X121639576Y-139653184D01*
X121502657Y-139574135D01*
X121502653Y-139574133D01*
X121502651Y-139574132D01*
X121349924Y-139533209D01*
X121191810Y-139533209D01*
X121039083Y-139574132D01*
X121039076Y-139574135D01*
X120902157Y-139653184D01*
X120902149Y-139653190D01*
X120790348Y-139764991D01*
X120790342Y-139764999D01*
X120711293Y-139901918D01*
X120711290Y-139901925D01*
X120670367Y-140054652D01*
X113628641Y-140054652D01*
X113625577Y-140043216D01*
X113604213Y-140006212D01*
X113546524Y-139906290D01*
X113546518Y-139906282D01*
X113434717Y-139794481D01*
X113434709Y-139794475D01*
X113297790Y-139715426D01*
X113297786Y-139715424D01*
X113297784Y-139715423D01*
X113145057Y-139674500D01*
X112986943Y-139674500D01*
X112834216Y-139715423D01*
X112834209Y-139715426D01*
X112697290Y-139794475D01*
X112697282Y-139794481D01*
X112585481Y-139906282D01*
X112585475Y-139906290D01*
X112506426Y-140043209D01*
X112506423Y-140043216D01*
X112465500Y-140195943D01*
X108853293Y-140195943D01*
X108880520Y-140168716D01*
X108959577Y-140031784D01*
X109000500Y-139879057D01*
X109000500Y-139720943D01*
X108959577Y-139568216D01*
X108939366Y-139533209D01*
X108880524Y-139431290D01*
X108880518Y-139431282D01*
X108768717Y-139319481D01*
X108768709Y-139319475D01*
X108631790Y-139240426D01*
X108631786Y-139240424D01*
X108631784Y-139240423D01*
X108479057Y-139199500D01*
X108320943Y-139199500D01*
X108168216Y-139240423D01*
X108168209Y-139240426D01*
X108031290Y-139319475D01*
X108031282Y-139319481D01*
X107919481Y-139431282D01*
X107919475Y-139431290D01*
X107840426Y-139568209D01*
X107840423Y-139568216D01*
X107799500Y-139720943D01*
X102646111Y-139720943D01*
X102677553Y-139689501D01*
X102783996Y-139542994D01*
X102866211Y-139381639D01*
X102922171Y-139209409D01*
X102937439Y-139113011D01*
X102950500Y-139030551D01*
X102950500Y-138849449D01*
X102931931Y-138732215D01*
X102931931Y-138732213D01*
X102930146Y-138720943D01*
X106599500Y-138720943D01*
X106599500Y-138879057D01*
X106640092Y-139030546D01*
X106640423Y-139031783D01*
X106640426Y-139031790D01*
X106719475Y-139168709D01*
X106719479Y-139168714D01*
X106719480Y-139168716D01*
X106831284Y-139280520D01*
X106831286Y-139280521D01*
X106831290Y-139280524D01*
X106968209Y-139359573D01*
X106968216Y-139359577D01*
X107120943Y-139400500D01*
X107120945Y-139400500D01*
X107279055Y-139400500D01*
X107279057Y-139400500D01*
X107431784Y-139359577D01*
X107568716Y-139280520D01*
X107680520Y-139168716D01*
X107759577Y-139031784D01*
X107800500Y-138879057D01*
X107800500Y-138720943D01*
X107795565Y-138702525D01*
X117749500Y-138702525D01*
X117749500Y-138847475D01*
X117787016Y-138987485D01*
X117787017Y-138987488D01*
X117859488Y-139113011D01*
X117859490Y-139113013D01*
X117859491Y-139113015D01*
X117961985Y-139215509D01*
X117961986Y-139215510D01*
X117961988Y-139215511D01*
X118087511Y-139287982D01*
X118087512Y-139287982D01*
X118087515Y-139287984D01*
X118227525Y-139325500D01*
X118227528Y-139325500D01*
X118372472Y-139325500D01*
X118372475Y-139325500D01*
X118512485Y-139287984D01*
X118638015Y-139215509D01*
X118740509Y-139113015D01*
X118812984Y-138987485D01*
X118850500Y-138847475D01*
X118850500Y-138702525D01*
X118812984Y-138562515D01*
X118800600Y-138541066D01*
X118740511Y-138436988D01*
X118740506Y-138436982D01*
X118638017Y-138334493D01*
X118638011Y-138334488D01*
X118512488Y-138262017D01*
X118512489Y-138262017D01*
X118501006Y-138258940D01*
X118372475Y-138224500D01*
X118227525Y-138224500D01*
X118098993Y-138258940D01*
X118087511Y-138262017D01*
X117961988Y-138334488D01*
X117961982Y-138334493D01*
X117859493Y-138436982D01*
X117859488Y-138436988D01*
X117787017Y-138562511D01*
X117787016Y-138562515D01*
X117749500Y-138702525D01*
X107795565Y-138702525D01*
X107759577Y-138568216D01*
X107712313Y-138486351D01*
X107680524Y-138431290D01*
X107680518Y-138431282D01*
X107568717Y-138319481D01*
X107568709Y-138319475D01*
X107431790Y-138240426D01*
X107431786Y-138240424D01*
X107431784Y-138240423D01*
X107279057Y-138199500D01*
X107120943Y-138199500D01*
X106968216Y-138240423D01*
X106968209Y-138240426D01*
X106831290Y-138319475D01*
X106831282Y-138319481D01*
X106719481Y-138431282D01*
X106719475Y-138431290D01*
X106640426Y-138568209D01*
X106640423Y-138568216D01*
X106599500Y-138720943D01*
X102930146Y-138720943D01*
X102922171Y-138670590D01*
X102866212Y-138498363D01*
X102866211Y-138498360D01*
X102832032Y-138431282D01*
X102783996Y-138337006D01*
X102713825Y-138240423D01*
X102677558Y-138190505D01*
X102677554Y-138190500D01*
X102549499Y-138062445D01*
X102549494Y-138062441D01*
X102402997Y-137956006D01*
X102402996Y-137956005D01*
X102402994Y-137956004D01*
X102349945Y-137928974D01*
X102241639Y-137873788D01*
X102241636Y-137873787D01*
X102069410Y-137817829D01*
X101909321Y-137792473D01*
X101846186Y-137762544D01*
X101809255Y-137703232D01*
X101810253Y-137633370D01*
X101848863Y-137575137D01*
X101909321Y-137547527D01*
X101979425Y-137536422D01*
X102069409Y-137522171D01*
X102241639Y-137466211D01*
X102402994Y-137383996D01*
X102549501Y-137277553D01*
X102677553Y-137149501D01*
X102698300Y-137120945D01*
X102698301Y-137120943D01*
X107999500Y-137120943D01*
X107999500Y-137279057D01*
X108027619Y-137383996D01*
X108040423Y-137431783D01*
X108040426Y-137431790D01*
X108119475Y-137568709D01*
X108119479Y-137568714D01*
X108119480Y-137568716D01*
X108231284Y-137680520D01*
X108231286Y-137680521D01*
X108231290Y-137680524D01*
X108339013Y-137742717D01*
X108368216Y-137759577D01*
X108520943Y-137800500D01*
X108520945Y-137800500D01*
X108679055Y-137800500D01*
X108679057Y-137800500D01*
X108831784Y-137759577D01*
X108968716Y-137680520D01*
X109080520Y-137568716D01*
X109159577Y-137431784D01*
X109200500Y-137279057D01*
X109200500Y-137120943D01*
X109159577Y-136968216D01*
X109136926Y-136928983D01*
X109080524Y-136831290D01*
X109080518Y-136831282D01*
X108968717Y-136719481D01*
X108968709Y-136719475D01*
X108841346Y-136645943D01*
X112061500Y-136645943D01*
X112061500Y-136804057D01*
X112095113Y-136929500D01*
X112102423Y-136956783D01*
X112102426Y-136956790D01*
X112181475Y-137093709D01*
X112181479Y-137093714D01*
X112181480Y-137093716D01*
X112293284Y-137205520D01*
X112293286Y-137205521D01*
X112293290Y-137205524D01*
X112420653Y-137279056D01*
X112430216Y-137284577D01*
X112582943Y-137325500D01*
X112582945Y-137325500D01*
X112741055Y-137325500D01*
X112741057Y-137325500D01*
X112855097Y-137294943D01*
X117719367Y-137294943D01*
X117719367Y-137453057D01*
X117726334Y-137479056D01*
X117760290Y-137605783D01*
X117760293Y-137605790D01*
X117839342Y-137742709D01*
X117839346Y-137742714D01*
X117839347Y-137742716D01*
X117951151Y-137854520D01*
X117951153Y-137854521D01*
X117951157Y-137854524D01*
X118080110Y-137928974D01*
X118088083Y-137933577D01*
X118240810Y-137974500D01*
X118240812Y-137974500D01*
X118398922Y-137974500D01*
X118398924Y-137974500D01*
X118551651Y-137933577D01*
X118688583Y-137854520D01*
X118800387Y-137742716D01*
X118879444Y-137605784D01*
X118920367Y-137453057D01*
X118920367Y-137294943D01*
X118879444Y-137142216D01*
X118867162Y-137120943D01*
X118800391Y-137005290D01*
X118800385Y-137005282D01*
X118688584Y-136893481D01*
X118688576Y-136893475D01*
X118551657Y-136814426D01*
X118551653Y-136814424D01*
X118551651Y-136814423D01*
X118398924Y-136773500D01*
X118240810Y-136773500D01*
X118088083Y-136814423D01*
X118088076Y-136814426D01*
X117951157Y-136893475D01*
X117951149Y-136893481D01*
X117839348Y-137005282D01*
X117839342Y-137005290D01*
X117760293Y-137142209D01*
X117760290Y-137142216D01*
X117719367Y-137294943D01*
X112855097Y-137294943D01*
X112893784Y-137284577D01*
X113030716Y-137205520D01*
X113142520Y-137093716D01*
X113202444Y-136989922D01*
X113253011Y-136941707D01*
X113321618Y-136928483D01*
X113326020Y-136928983D01*
X113329940Y-136929499D01*
X113329943Y-136929500D01*
X113329946Y-136929500D01*
X113488055Y-136929500D01*
X113488057Y-136929500D01*
X113640784Y-136888577D01*
X113777716Y-136809520D01*
X113889520Y-136697716D01*
X113968577Y-136560784D01*
X114009500Y-136408057D01*
X114009500Y-136249943D01*
X113968577Y-136097216D01*
X113961403Y-136084790D01*
X113889523Y-135960288D01*
X113889520Y-135960284D01*
X113827578Y-135898342D01*
X118872322Y-135898342D01*
X118872322Y-136056456D01*
X118910651Y-136199500D01*
X118913245Y-136209182D01*
X118913248Y-136209189D01*
X118992297Y-136346108D01*
X118992301Y-136346113D01*
X118992302Y-136346115D01*
X119104106Y-136457919D01*
X119104108Y-136457920D01*
X119104112Y-136457923D01*
X119241031Y-136536972D01*
X119241038Y-136536976D01*
X119393765Y-136577899D01*
X119393767Y-136577899D01*
X119551876Y-136577899D01*
X119551879Y-136577899D01*
X119652494Y-136550939D01*
X119722340Y-136552602D01*
X119780202Y-136591764D01*
X119807707Y-136655992D01*
X119808576Y-136672108D01*
X119808400Y-136687726D01*
X119799500Y-136720943D01*
X119799500Y-136879057D01*
X119805977Y-136903232D01*
X119805786Y-136920264D01*
X119800348Y-136938040D01*
X119799906Y-136956628D01*
X119790340Y-136970761D01*
X119785349Y-136987078D01*
X119771163Y-136999093D01*
X119760742Y-137014490D01*
X119743794Y-137026257D01*
X119651154Y-137079742D01*
X119651149Y-137079746D01*
X119539348Y-137191547D01*
X119539342Y-137191555D01*
X119460293Y-137328474D01*
X119460290Y-137328481D01*
X119419367Y-137481208D01*
X119419367Y-137639322D01*
X119447072Y-137742716D01*
X119460290Y-137792048D01*
X119460293Y-137792055D01*
X119539342Y-137928974D01*
X119539346Y-137928979D01*
X119539347Y-137928981D01*
X119651151Y-138040785D01*
X119651153Y-138040786D01*
X119651157Y-138040789D01*
X119788076Y-138119838D01*
X119788083Y-138119842D01*
X119940810Y-138160765D01*
X119940812Y-138160765D01*
X120098922Y-138160765D01*
X120098924Y-138160765D01*
X120251651Y-138119842D01*
X120388583Y-138040785D01*
X120500387Y-137928981D01*
X120579444Y-137792049D01*
X120620367Y-137639322D01*
X120620367Y-137481208D01*
X120618299Y-137473490D01*
X120618798Y-137452460D01*
X120614438Y-137431879D01*
X120619611Y-137418233D01*
X120619958Y-137403643D01*
X120631749Y-137386219D01*
X120639208Y-137366548D01*
X120653749Y-137353711D01*
X120659118Y-137345779D01*
X120664299Y-137341727D01*
X120669962Y-137337534D01*
X120698699Y-137320943D01*
X123599500Y-137320943D01*
X123599500Y-137479057D01*
X123633457Y-137605784D01*
X123640423Y-137631783D01*
X123640426Y-137631790D01*
X123719475Y-137768709D01*
X123719479Y-137768714D01*
X123719480Y-137768716D01*
X123831284Y-137880520D01*
X123831286Y-137880521D01*
X123831290Y-137880524D01*
X123923182Y-137933577D01*
X123968216Y-137959577D01*
X124120943Y-138000500D01*
X124120945Y-138000500D01*
X124279055Y-138000500D01*
X124279057Y-138000500D01*
X124431784Y-137959577D01*
X124568716Y-137880520D01*
X124680520Y-137768716D01*
X124759577Y-137631784D01*
X124800500Y-137479057D01*
X124800500Y-137320943D01*
X124759577Y-137168216D01*
X124744562Y-137142209D01*
X124680524Y-137031290D01*
X124680518Y-137031282D01*
X124568717Y-136919481D01*
X124568709Y-136919475D01*
X124431790Y-136840426D01*
X124431786Y-136840424D01*
X124431784Y-136840423D01*
X124279057Y-136799500D01*
X124120943Y-136799500D01*
X123968216Y-136840423D01*
X123968209Y-136840426D01*
X123831290Y-136919475D01*
X123831282Y-136919481D01*
X123719481Y-137031282D01*
X123719475Y-137031290D01*
X123640426Y-137168209D01*
X123640423Y-137168216D01*
X123599500Y-137320943D01*
X120698699Y-137320943D01*
X120768716Y-137280520D01*
X120880520Y-137168716D01*
X120959577Y-137031784D01*
X121000500Y-136879057D01*
X121000500Y-136720943D01*
X120959577Y-136568216D01*
X120941540Y-136536975D01*
X120880524Y-136431290D01*
X120880518Y-136431282D01*
X120768717Y-136319481D01*
X120768709Y-136319475D01*
X120631790Y-136240426D01*
X120631786Y-136240424D01*
X120631784Y-136240423D01*
X120479057Y-136199500D01*
X120320943Y-136199500D01*
X120220330Y-136226459D01*
X120150480Y-136224796D01*
X120092618Y-136185633D01*
X120065114Y-136121405D01*
X120068463Y-136074589D01*
X120073322Y-136056456D01*
X120073322Y-135898342D01*
X120032399Y-135745615D01*
X120009816Y-135706499D01*
X119953346Y-135608689D01*
X119953340Y-135608681D01*
X119841539Y-135496880D01*
X119841531Y-135496874D01*
X119704612Y-135417825D01*
X119704608Y-135417823D01*
X119704606Y-135417822D01*
X119551879Y-135376899D01*
X119393765Y-135376899D01*
X119241038Y-135417822D01*
X119241031Y-135417825D01*
X119104112Y-135496874D01*
X119104104Y-135496880D01*
X118992303Y-135608681D01*
X118992297Y-135608689D01*
X118913248Y-135745608D01*
X118913245Y-135745615D01*
X118872322Y-135898342D01*
X113827578Y-135898342D01*
X113777717Y-135848481D01*
X113777709Y-135848475D01*
X113640790Y-135769426D01*
X113640786Y-135769424D01*
X113640784Y-135769423D01*
X113488057Y-135728500D01*
X113329943Y-135728500D01*
X113177216Y-135769423D01*
X113177209Y-135769426D01*
X113040290Y-135848475D01*
X113040282Y-135848481D01*
X112928479Y-135960284D01*
X112868554Y-136064078D01*
X112817987Y-136112293D01*
X112749379Y-136125515D01*
X112744988Y-136125017D01*
X112741060Y-136124500D01*
X112741057Y-136124500D01*
X112582943Y-136124500D01*
X112430216Y-136165423D01*
X112430209Y-136165426D01*
X112293290Y-136244475D01*
X112293282Y-136244481D01*
X112181481Y-136356282D01*
X112181475Y-136356290D01*
X112102426Y-136493209D01*
X112102423Y-136493216D01*
X112061500Y-136645943D01*
X108841346Y-136645943D01*
X108831790Y-136640426D01*
X108831786Y-136640424D01*
X108831784Y-136640423D01*
X108679057Y-136599500D01*
X108520943Y-136599500D01*
X108368216Y-136640423D01*
X108368209Y-136640426D01*
X108231290Y-136719475D01*
X108231282Y-136719481D01*
X108119481Y-136831282D01*
X108119475Y-136831290D01*
X108040426Y-136968209D01*
X108040423Y-136968216D01*
X107999500Y-137120943D01*
X102698301Y-137120943D01*
X102757161Y-137039931D01*
X102775644Y-137014490D01*
X102783996Y-137002994D01*
X102866211Y-136841639D01*
X102922171Y-136669409D01*
X102938198Y-136568216D01*
X102950500Y-136490551D01*
X102950500Y-136309448D01*
X102930889Y-136185633D01*
X102922171Y-136130591D01*
X102883806Y-136012514D01*
X102866212Y-135958363D01*
X102866211Y-135958360D01*
X102796788Y-135822111D01*
X102796787Y-135822109D01*
X102783995Y-135797004D01*
X102767240Y-135773943D01*
X103455500Y-135773943D01*
X103455500Y-135932057D01*
X103493692Y-136074589D01*
X103496423Y-136084783D01*
X103496426Y-136084790D01*
X103575475Y-136221709D01*
X103575479Y-136221714D01*
X103575480Y-136221716D01*
X103687284Y-136333520D01*
X103687286Y-136333521D01*
X103687290Y-136333524D01*
X103816385Y-136408056D01*
X103824216Y-136412577D01*
X103976943Y-136453500D01*
X103976945Y-136453500D01*
X104135055Y-136453500D01*
X104135057Y-136453500D01*
X104287784Y-136412577D01*
X104424716Y-136333520D01*
X104475140Y-136283095D01*
X104536461Y-136249611D01*
X104606153Y-136254595D01*
X104610611Y-136256694D01*
X104610706Y-136256466D01*
X104618209Y-136259573D01*
X104618216Y-136259577D01*
X104770943Y-136300500D01*
X104770945Y-136300500D01*
X104929055Y-136300500D01*
X104929057Y-136300500D01*
X105081784Y-136259577D01*
X105218716Y-136180520D01*
X105330520Y-136068716D01*
X105409577Y-135931784D01*
X105450500Y-135779057D01*
X105450500Y-135620943D01*
X105409577Y-135468216D01*
X105380484Y-135417825D01*
X105330524Y-135331290D01*
X105330518Y-135331282D01*
X105218717Y-135219481D01*
X105218709Y-135219475D01*
X105081790Y-135140426D01*
X105081786Y-135140424D01*
X105081784Y-135140423D01*
X104929057Y-135099500D01*
X104770943Y-135099500D01*
X104618216Y-135140423D01*
X104618209Y-135140426D01*
X104481290Y-135219475D01*
X104481286Y-135219478D01*
X104430858Y-135269905D01*
X104369534Y-135303389D01*
X104299842Y-135298403D01*
X104295388Y-135296304D01*
X104295294Y-135296534D01*
X104287786Y-135293424D01*
X104287784Y-135293423D01*
X104135057Y-135252500D01*
X103976943Y-135252500D01*
X103824216Y-135293423D01*
X103824209Y-135293426D01*
X103687290Y-135372475D01*
X103687282Y-135372481D01*
X103575481Y-135484282D01*
X103575475Y-135484290D01*
X103496426Y-135621209D01*
X103496423Y-135621216D01*
X103455500Y-135773943D01*
X102767240Y-135773943D01*
X102677558Y-135650505D01*
X102677554Y-135650500D01*
X102549499Y-135522445D01*
X102549494Y-135522441D01*
X102402997Y-135416006D01*
X102402996Y-135416005D01*
X102402994Y-135416004D01*
X102317574Y-135372480D01*
X102241639Y-135333788D01*
X102241636Y-135333787D01*
X102069410Y-135277829D01*
X101909321Y-135252473D01*
X101846186Y-135222544D01*
X101809255Y-135163232D01*
X101810253Y-135093370D01*
X101848863Y-135035137D01*
X101866806Y-135026943D01*
X114873500Y-135026943D01*
X114873500Y-135185057D01*
X114913353Y-135333788D01*
X114914423Y-135337783D01*
X114914426Y-135337790D01*
X114993475Y-135474709D01*
X114993479Y-135474714D01*
X114993480Y-135474716D01*
X115105284Y-135586520D01*
X115105286Y-135586521D01*
X115105290Y-135586524D01*
X115216110Y-135650505D01*
X115242216Y-135665577D01*
X115394943Y-135706500D01*
X115394945Y-135706500D01*
X115553055Y-135706500D01*
X115553057Y-135706500D01*
X115705784Y-135665577D01*
X115842716Y-135586520D01*
X115954520Y-135474716D01*
X116033577Y-135337784D01*
X116074500Y-135185057D01*
X116074500Y-135026943D01*
X116052796Y-134945943D01*
X121416500Y-134945943D01*
X121416500Y-135104057D01*
X121455472Y-135249500D01*
X121457423Y-135256783D01*
X121457426Y-135256790D01*
X121536475Y-135393709D01*
X121536479Y-135393714D01*
X121536480Y-135393716D01*
X121648284Y-135505520D01*
X121648286Y-135505521D01*
X121648290Y-135505524D01*
X121785209Y-135584573D01*
X121785216Y-135584577D01*
X121937943Y-135625500D01*
X121937945Y-135625500D01*
X122096055Y-135625500D01*
X122096057Y-135625500D01*
X122248784Y-135584577D01*
X122385716Y-135505520D01*
X122497520Y-135393716D01*
X122539535Y-135320943D01*
X123399500Y-135320943D01*
X123399500Y-135479057D01*
X123437592Y-135621216D01*
X123440423Y-135631783D01*
X123440426Y-135631790D01*
X123519475Y-135768709D01*
X123519479Y-135768714D01*
X123519480Y-135768716D01*
X123631284Y-135880520D01*
X123631286Y-135880521D01*
X123631290Y-135880524D01*
X123762043Y-135956013D01*
X123768216Y-135959577D01*
X123920943Y-136000500D01*
X123920945Y-136000500D01*
X124079055Y-136000500D01*
X124079057Y-136000500D01*
X124231784Y-135959577D01*
X124368716Y-135880520D01*
X124480520Y-135768716D01*
X124559577Y-135631784D01*
X124600500Y-135479057D01*
X124600500Y-135320943D01*
X124559577Y-135168216D01*
X124516365Y-135093370D01*
X124480524Y-135031290D01*
X124480518Y-135031282D01*
X124368717Y-134919481D01*
X124368709Y-134919475D01*
X124231790Y-134840426D01*
X124231786Y-134840424D01*
X124231784Y-134840423D01*
X124079057Y-134799500D01*
X123920943Y-134799500D01*
X123768216Y-134840423D01*
X123768209Y-134840426D01*
X123631290Y-134919475D01*
X123631282Y-134919481D01*
X123519481Y-135031282D01*
X123519475Y-135031290D01*
X123440426Y-135168209D01*
X123440423Y-135168216D01*
X123399500Y-135320943D01*
X122539535Y-135320943D01*
X122576577Y-135256784D01*
X122617500Y-135104057D01*
X122617500Y-134945943D01*
X122576577Y-134793216D01*
X122544440Y-134737553D01*
X122497524Y-134656290D01*
X122497518Y-134656282D01*
X122385717Y-134544481D01*
X122385709Y-134544475D01*
X122248790Y-134465426D01*
X122248786Y-134465424D01*
X122248784Y-134465423D01*
X122096057Y-134424500D01*
X121937943Y-134424500D01*
X121785216Y-134465423D01*
X121785209Y-134465426D01*
X121648290Y-134544475D01*
X121648282Y-134544481D01*
X121536481Y-134656282D01*
X121536475Y-134656290D01*
X121457426Y-134793209D01*
X121457423Y-134793216D01*
X121416500Y-134945943D01*
X116052796Y-134945943D01*
X116033577Y-134874216D01*
X116001999Y-134819520D01*
X115954524Y-134737290D01*
X115954518Y-134737282D01*
X115842717Y-134625481D01*
X115842709Y-134625475D01*
X115705790Y-134546426D01*
X115705786Y-134546424D01*
X115705784Y-134546423D01*
X115553057Y-134505500D01*
X115394943Y-134505500D01*
X115242216Y-134546423D01*
X115242209Y-134546426D01*
X115105290Y-134625475D01*
X115105282Y-134625481D01*
X114993481Y-134737282D01*
X114993475Y-134737290D01*
X114914426Y-134874209D01*
X114914423Y-134874216D01*
X114873500Y-135026943D01*
X101866806Y-135026943D01*
X101909321Y-135007527D01*
X101979425Y-134996422D01*
X102069409Y-134982171D01*
X102241639Y-134926211D01*
X102402994Y-134843996D01*
X102549501Y-134737553D01*
X102677553Y-134609501D01*
X102783996Y-134462994D01*
X102866211Y-134301639D01*
X102879759Y-134259943D01*
X112694500Y-134259943D01*
X112694500Y-134418057D01*
X112728897Y-134546426D01*
X112735423Y-134570783D01*
X112735426Y-134570790D01*
X112814475Y-134707709D01*
X112814479Y-134707714D01*
X112814480Y-134707716D01*
X112926284Y-134819520D01*
X112926286Y-134819521D01*
X112926290Y-134819524D01*
X113021009Y-134874209D01*
X113063216Y-134898577D01*
X113215943Y-134939500D01*
X113215945Y-134939500D01*
X113374055Y-134939500D01*
X113374057Y-134939500D01*
X113526784Y-134898577D01*
X113663716Y-134819520D01*
X113775520Y-134707716D01*
X113854577Y-134570784D01*
X113895500Y-134418057D01*
X113895500Y-134259943D01*
X113854577Y-134107216D01*
X113778135Y-133974813D01*
X113775522Y-133970287D01*
X113775518Y-133970282D01*
X113726179Y-133920943D01*
X117999500Y-133920943D01*
X117999500Y-134079057D01*
X118035524Y-134213498D01*
X118040423Y-134231783D01*
X118040426Y-134231790D01*
X118119475Y-134368709D01*
X118119479Y-134368714D01*
X118119480Y-134368716D01*
X118231284Y-134480520D01*
X118231286Y-134480521D01*
X118231290Y-134480524D01*
X118368209Y-134559573D01*
X118368216Y-134559577D01*
X118520943Y-134600500D01*
X118520945Y-134600500D01*
X118679055Y-134600500D01*
X118679057Y-134600500D01*
X118831784Y-134559577D01*
X118968716Y-134480520D01*
X119080520Y-134368716D01*
X119159577Y-134231784D01*
X119200500Y-134079057D01*
X119200500Y-133920943D01*
X119159577Y-133768216D01*
X119142421Y-133738500D01*
X119080524Y-133631290D01*
X119080518Y-133631282D01*
X119071282Y-133622046D01*
X119055130Y-133592467D01*
X119038360Y-133563192D01*
X119038427Y-133561876D01*
X119037797Y-133560723D01*
X119040202Y-133527083D01*
X119041921Y-133493413D01*
X119042687Y-133492344D01*
X119042781Y-133491031D01*
X119042847Y-133490943D01*
X122463500Y-133490943D01*
X122463500Y-133649057D01*
X122498432Y-133779423D01*
X122504423Y-133801783D01*
X122504426Y-133801790D01*
X122583475Y-133938709D01*
X122583479Y-133938714D01*
X122583480Y-133938716D01*
X122695284Y-134050520D01*
X122695286Y-134050521D01*
X122695290Y-134050524D01*
X122793485Y-134107216D01*
X122832216Y-134129577D01*
X122984943Y-134170500D01*
X122984945Y-134170500D01*
X123143055Y-134170500D01*
X123143057Y-134170500D01*
X123295784Y-134129577D01*
X123432716Y-134050520D01*
X123544520Y-133938716D01*
X123623577Y-133801784D01*
X123664500Y-133649057D01*
X123664500Y-133490943D01*
X123623577Y-133338216D01*
X123576689Y-133257002D01*
X123544524Y-133201290D01*
X123544518Y-133201282D01*
X123432717Y-133089481D01*
X123432709Y-133089475D01*
X123295790Y-133010426D01*
X123295786Y-133010424D01*
X123295784Y-133010423D01*
X123143057Y-132969500D01*
X122984943Y-132969500D01*
X122832216Y-133010423D01*
X122832209Y-133010426D01*
X122695290Y-133089475D01*
X122695282Y-133089481D01*
X122583481Y-133201282D01*
X122583475Y-133201290D01*
X122504426Y-133338209D01*
X122504423Y-133338216D01*
X122463500Y-133490943D01*
X119042847Y-133490943D01*
X119062994Y-133464029D01*
X119082641Y-133436636D01*
X119084013Y-133435951D01*
X119084653Y-133435098D01*
X119113266Y-133419092D01*
X119119931Y-133416449D01*
X119187137Y-133398442D01*
X119324069Y-133319385D01*
X119435873Y-133207581D01*
X119514930Y-133070649D01*
X119555853Y-132917922D01*
X119555853Y-132759808D01*
X119514930Y-132607081D01*
X119483920Y-132553370D01*
X119435877Y-132470155D01*
X119435871Y-132470147D01*
X119324070Y-132358346D01*
X119324062Y-132358340D01*
X119187143Y-132279291D01*
X119187139Y-132279289D01*
X119187137Y-132279288D01*
X119034410Y-132238365D01*
X118876296Y-132238365D01*
X118723569Y-132279288D01*
X118723562Y-132279291D01*
X118586643Y-132358340D01*
X118586635Y-132358346D01*
X118474834Y-132470147D01*
X118474828Y-132470155D01*
X118395779Y-132607074D01*
X118395776Y-132607081D01*
X118354853Y-132759808D01*
X118354853Y-132917922D01*
X118388314Y-133042798D01*
X118395776Y-133070648D01*
X118395779Y-133070655D01*
X118474828Y-133207574D01*
X118474834Y-133207582D01*
X118484070Y-133216818D01*
X118517555Y-133278141D01*
X118512571Y-133347833D01*
X118470699Y-133403766D01*
X118428484Y-133424273D01*
X118368220Y-133440421D01*
X118368209Y-133440426D01*
X118231290Y-133519475D01*
X118231282Y-133519481D01*
X118119481Y-133631282D01*
X118119475Y-133631290D01*
X118040426Y-133768209D01*
X118040423Y-133768216D01*
X117999500Y-133920943D01*
X113726179Y-133920943D01*
X113663717Y-133858481D01*
X113663709Y-133858475D01*
X113526790Y-133779426D01*
X113526786Y-133779424D01*
X113526784Y-133779423D01*
X113374057Y-133738500D01*
X113215943Y-133738500D01*
X113063216Y-133779423D01*
X113063209Y-133779426D01*
X112926290Y-133858475D01*
X112926282Y-133858481D01*
X112814481Y-133970282D01*
X112814475Y-133970290D01*
X112735426Y-134107209D01*
X112735423Y-134107216D01*
X112694500Y-134259943D01*
X102879759Y-134259943D01*
X102894850Y-134213498D01*
X102894850Y-134213497D01*
X102922170Y-134129412D01*
X102922169Y-134129412D01*
X102922171Y-134129409D01*
X102934666Y-134050518D01*
X102950500Y-133950551D01*
X102950500Y-133769448D01*
X102928616Y-133631284D01*
X102922171Y-133590591D01*
X102894191Y-133504476D01*
X102866212Y-133418363D01*
X102866211Y-133418360D01*
X102825371Y-133338209D01*
X102783996Y-133257006D01*
X102743512Y-133201284D01*
X102677558Y-133110505D01*
X102677554Y-133110500D01*
X102549499Y-132982445D01*
X102549494Y-132982441D01*
X102402997Y-132876006D01*
X102402996Y-132876005D01*
X102402994Y-132876004D01*
X102351300Y-132849664D01*
X102241639Y-132793788D01*
X102241636Y-132793787D01*
X102069410Y-132737829D01*
X101909321Y-132712473D01*
X101846186Y-132682544D01*
X101809255Y-132623232D01*
X101810253Y-132553370D01*
X101848863Y-132495137D01*
X101909321Y-132467527D01*
X101979425Y-132456422D01*
X102069409Y-132442171D01*
X102241639Y-132386211D01*
X102402994Y-132303996D01*
X102549501Y-132197553D01*
X102626111Y-132120943D01*
X109799500Y-132120943D01*
X109799500Y-132279057D01*
X109832845Y-132403500D01*
X109840423Y-132431783D01*
X109840426Y-132431790D01*
X109919475Y-132568709D01*
X109919479Y-132568714D01*
X109919480Y-132568716D01*
X110031284Y-132680520D01*
X110031286Y-132680521D01*
X110031290Y-132680524D01*
X110091026Y-132715012D01*
X110168216Y-132759577D01*
X110320943Y-132800500D01*
X110320945Y-132800500D01*
X110479055Y-132800500D01*
X110479057Y-132800500D01*
X110631784Y-132759577D01*
X110768716Y-132680520D01*
X110880520Y-132568716D01*
X110959577Y-132431784D01*
X110966977Y-132404165D01*
X112064752Y-132404165D01*
X112064752Y-132562279D01*
X112104997Y-132712473D01*
X112105675Y-132715005D01*
X112105678Y-132715012D01*
X112184727Y-132851931D01*
X112184731Y-132851936D01*
X112184732Y-132851938D01*
X112296536Y-132963742D01*
X112296538Y-132963743D01*
X112296542Y-132963746D01*
X112433461Y-133042795D01*
X112433468Y-133042799D01*
X112586195Y-133083722D01*
X112586197Y-133083722D01*
X112744307Y-133083722D01*
X112744309Y-133083722D01*
X112897036Y-133042799D01*
X113033968Y-132963742D01*
X113145772Y-132851938D01*
X113176950Y-132797934D01*
X113227516Y-132749720D01*
X113296122Y-132736496D01*
X113360987Y-132762463D01*
X113372018Y-132772254D01*
X113480284Y-132880520D01*
X113480286Y-132880521D01*
X113480290Y-132880524D01*
X113617209Y-132959573D01*
X113617216Y-132959577D01*
X113769943Y-133000500D01*
X113769945Y-133000500D01*
X113928055Y-133000500D01*
X113928057Y-133000500D01*
X114080784Y-132959577D01*
X114217716Y-132880520D01*
X114329520Y-132768716D01*
X114408577Y-132631784D01*
X114449500Y-132479057D01*
X114449500Y-132320943D01*
X114408577Y-132168216D01*
X114388535Y-132133502D01*
X114329524Y-132031290D01*
X114329518Y-132031282D01*
X114217715Y-131919479D01*
X114195493Y-131906649D01*
X114172270Y-131893242D01*
X114124055Y-131842676D01*
X114110831Y-131774069D01*
X114136799Y-131709204D01*
X114163034Y-131686472D01*
X114162265Y-131685470D01*
X114168709Y-131680523D01*
X114168716Y-131680520D01*
X114280520Y-131568716D01*
X114359577Y-131431784D01*
X114386764Y-131330322D01*
X117491053Y-131330322D01*
X117491053Y-131488436D01*
X117521081Y-131600500D01*
X117531976Y-131641162D01*
X117531979Y-131641169D01*
X117611028Y-131778088D01*
X117611032Y-131778093D01*
X117611033Y-131778095D01*
X117722837Y-131889899D01*
X117722839Y-131889900D01*
X117722843Y-131889903D01*
X117858475Y-131968209D01*
X117859769Y-131968956D01*
X118012496Y-132009879D01*
X118012498Y-132009879D01*
X118170608Y-132009879D01*
X118170610Y-132009879D01*
X118323337Y-131968956D01*
X118460269Y-131889899D01*
X118572073Y-131778095D01*
X118603337Y-131723943D01*
X127042500Y-131723943D01*
X127042500Y-131882057D01*
X127076750Y-132009878D01*
X127083423Y-132034783D01*
X127083426Y-132034790D01*
X127162475Y-132171709D01*
X127162479Y-132171714D01*
X127162480Y-132171716D01*
X127274284Y-132283520D01*
X127274286Y-132283521D01*
X127274290Y-132283524D01*
X127371728Y-132339779D01*
X127411216Y-132362577D01*
X127563943Y-132403500D01*
X127563945Y-132403500D01*
X127722055Y-132403500D01*
X127722057Y-132403500D01*
X127874784Y-132362577D01*
X128011716Y-132283520D01*
X128123520Y-132171716D01*
X128202577Y-132034784D01*
X128243500Y-131882057D01*
X128243500Y-131723943D01*
X128202577Y-131571216D01*
X128195855Y-131559573D01*
X128123524Y-131434290D01*
X128123518Y-131434282D01*
X128011717Y-131322481D01*
X128011709Y-131322475D01*
X127874790Y-131243426D01*
X127874786Y-131243424D01*
X127874784Y-131243423D01*
X127722057Y-131202500D01*
X127563943Y-131202500D01*
X127411216Y-131243423D01*
X127411209Y-131243426D01*
X127274290Y-131322475D01*
X127274282Y-131322481D01*
X127162481Y-131434282D01*
X127162475Y-131434290D01*
X127083426Y-131571209D01*
X127083423Y-131571216D01*
X127042500Y-131723943D01*
X118603337Y-131723943D01*
X118651130Y-131641163D01*
X118692053Y-131488436D01*
X118692053Y-131330322D01*
X118651130Y-131177595D01*
X118651126Y-131177588D01*
X118572077Y-131040669D01*
X118572071Y-131040661D01*
X118460270Y-130928860D01*
X118460262Y-130928854D01*
X118446560Y-130920943D01*
X121199500Y-130920943D01*
X121199500Y-131079057D01*
X121232577Y-131202500D01*
X121240423Y-131231783D01*
X121240426Y-131231790D01*
X121319475Y-131368709D01*
X121319479Y-131368714D01*
X121319480Y-131368716D01*
X121431284Y-131480520D01*
X121431286Y-131480521D01*
X121431290Y-131480524D01*
X121568209Y-131559573D01*
X121568216Y-131559577D01*
X121720943Y-131600500D01*
X121720945Y-131600500D01*
X121879055Y-131600500D01*
X121879057Y-131600500D01*
X122031784Y-131559577D01*
X122168716Y-131480520D01*
X122280520Y-131368716D01*
X122359577Y-131231784D01*
X122400500Y-131079057D01*
X122400500Y-130920943D01*
X122359577Y-130768216D01*
X122330009Y-130717002D01*
X122280524Y-130631290D01*
X122280518Y-130631282D01*
X122168717Y-130519481D01*
X122168709Y-130519475D01*
X122031790Y-130440426D01*
X122031786Y-130440424D01*
X122031784Y-130440423D01*
X121879057Y-130399500D01*
X121720943Y-130399500D01*
X121568216Y-130440423D01*
X121568209Y-130440426D01*
X121431290Y-130519475D01*
X121431282Y-130519481D01*
X121319481Y-130631282D01*
X121319475Y-130631290D01*
X121240426Y-130768209D01*
X121240423Y-130768216D01*
X121199500Y-130920943D01*
X118446560Y-130920943D01*
X118323343Y-130849805D01*
X118323339Y-130849803D01*
X118323337Y-130849802D01*
X118170610Y-130808879D01*
X118012496Y-130808879D01*
X117859769Y-130849802D01*
X117859762Y-130849805D01*
X117722843Y-130928854D01*
X117722835Y-130928860D01*
X117611034Y-131040661D01*
X117611028Y-131040669D01*
X117531979Y-131177588D01*
X117531976Y-131177595D01*
X117491053Y-131330322D01*
X114386764Y-131330322D01*
X114400500Y-131279057D01*
X114400500Y-131120943D01*
X114359577Y-130968216D01*
X114359573Y-130968209D01*
X114280524Y-130831290D01*
X114280518Y-130831282D01*
X114168717Y-130719481D01*
X114168709Y-130719475D01*
X114031790Y-130640426D01*
X114031786Y-130640424D01*
X114031784Y-130640423D01*
X113879057Y-130599500D01*
X113720943Y-130599500D01*
X113568216Y-130640423D01*
X113568209Y-130640426D01*
X113431290Y-130719475D01*
X113431282Y-130719481D01*
X113319481Y-130831282D01*
X113319475Y-130831290D01*
X113240426Y-130968209D01*
X113240423Y-130968216D01*
X113199500Y-131120943D01*
X113199500Y-131279057D01*
X113234733Y-131410546D01*
X113240423Y-131431783D01*
X113240426Y-131431790D01*
X113319475Y-131568709D01*
X113319479Y-131568714D01*
X113319480Y-131568716D01*
X113431284Y-131680520D01*
X113431285Y-131680521D01*
X113431287Y-131680522D01*
X113476727Y-131706756D01*
X113524944Y-131757322D01*
X113538168Y-131825929D01*
X113512201Y-131890794D01*
X113485968Y-131913530D01*
X113486735Y-131914530D01*
X113480282Y-131919481D01*
X113368479Y-132031284D01*
X113337301Y-132085287D01*
X113286733Y-132133502D01*
X113218126Y-132146724D01*
X113153262Y-132120756D01*
X113142233Y-132110967D01*
X113033969Y-132002703D01*
X113033961Y-132002697D01*
X112897042Y-131923648D01*
X112897038Y-131923646D01*
X112897036Y-131923645D01*
X112744309Y-131882722D01*
X112586195Y-131882722D01*
X112433468Y-131923645D01*
X112433461Y-131923648D01*
X112296542Y-132002697D01*
X112296534Y-132002703D01*
X112184733Y-132114504D01*
X112184727Y-132114512D01*
X112105678Y-132251431D01*
X112105675Y-132251438D01*
X112064752Y-132404165D01*
X110966977Y-132404165D01*
X111000500Y-132279057D01*
X111000500Y-132120943D01*
X110959577Y-131968216D01*
X110933470Y-131922997D01*
X110880524Y-131831290D01*
X110880518Y-131831282D01*
X110768717Y-131719481D01*
X110768709Y-131719475D01*
X110631790Y-131640426D01*
X110631786Y-131640424D01*
X110631784Y-131640423D01*
X110479057Y-131599500D01*
X110320943Y-131599500D01*
X110168216Y-131640423D01*
X110168209Y-131640426D01*
X110031290Y-131719475D01*
X110031282Y-131719481D01*
X109919481Y-131831282D01*
X109919475Y-131831290D01*
X109840426Y-131968209D01*
X109840423Y-131968216D01*
X109799500Y-132120943D01*
X102626111Y-132120943D01*
X102677553Y-132069501D01*
X102687504Y-132055804D01*
X102699038Y-132039930D01*
X102750603Y-131968956D01*
X102783996Y-131922994D01*
X102866211Y-131761639D01*
X102922171Y-131589409D01*
X102936765Y-131497259D01*
X102950500Y-131410551D01*
X102950500Y-131229448D01*
X102933314Y-131120943D01*
X102922171Y-131050591D01*
X102882617Y-130928854D01*
X102866212Y-130878363D01*
X102866211Y-130878360D01*
X102830808Y-130808879D01*
X102783996Y-130717006D01*
X102728358Y-130640426D01*
X102677558Y-130570505D01*
X102677554Y-130570500D01*
X102549499Y-130442445D01*
X102549494Y-130442441D01*
X102402997Y-130336006D01*
X102402996Y-130336005D01*
X102402994Y-130336004D01*
X102351300Y-130309664D01*
X102241639Y-130253788D01*
X102241636Y-130253787D01*
X102069410Y-130197829D01*
X101909321Y-130172473D01*
X101846186Y-130142544D01*
X101809255Y-130083232D01*
X101810253Y-130013370D01*
X101848863Y-129955137D01*
X101909321Y-129927527D01*
X101979425Y-129916422D01*
X102069409Y-129902171D01*
X102241639Y-129846211D01*
X102402994Y-129763996D01*
X102549501Y-129657553D01*
X102677553Y-129529501D01*
X102683771Y-129520943D01*
X111199500Y-129520943D01*
X111199500Y-129679057D01*
X111222260Y-129763996D01*
X111240423Y-129831783D01*
X111240426Y-129831790D01*
X111319475Y-129968709D01*
X111319479Y-129968714D01*
X111319480Y-129968716D01*
X111431284Y-130080520D01*
X111431286Y-130080521D01*
X111431290Y-130080524D01*
X111542730Y-130144863D01*
X111568216Y-130159577D01*
X111720943Y-130200500D01*
X111720945Y-130200500D01*
X111879055Y-130200500D01*
X111879057Y-130200500D01*
X112031784Y-130159577D01*
X112168716Y-130080520D01*
X112280520Y-129968716D01*
X112359577Y-129831784D01*
X112400500Y-129679057D01*
X112400500Y-129520943D01*
X112359577Y-129368216D01*
X112359573Y-129368209D01*
X112359572Y-129368206D01*
X112335299Y-129326163D01*
X119661678Y-129326163D01*
X119661678Y-129484276D01*
X119702601Y-129637003D01*
X119702604Y-129637010D01*
X119781653Y-129773929D01*
X119781657Y-129773934D01*
X119781658Y-129773936D01*
X119893462Y-129885740D01*
X119893464Y-129885741D01*
X119893468Y-129885744D01*
X119970989Y-129930500D01*
X120030394Y-129964797D01*
X120183121Y-130005720D01*
X120183123Y-130005720D01*
X120341233Y-130005720D01*
X120341235Y-130005720D01*
X120493962Y-129964797D01*
X120630894Y-129885740D01*
X120742698Y-129773936D01*
X120821755Y-129637004D01*
X120862678Y-129484277D01*
X120862678Y-129326163D01*
X120821755Y-129173436D01*
X120811915Y-129156393D01*
X120742702Y-129036510D01*
X120742696Y-129036502D01*
X120630895Y-128924701D01*
X120630887Y-128924695D01*
X120493968Y-128845646D01*
X120493964Y-128845644D01*
X120493962Y-128845643D01*
X120341235Y-128804720D01*
X120183121Y-128804720D01*
X120030394Y-128845643D01*
X120030387Y-128845646D01*
X119893468Y-128924695D01*
X119893460Y-128924701D01*
X119781659Y-129036502D01*
X119781653Y-129036510D01*
X119702604Y-129173429D01*
X119702601Y-129173436D01*
X119661678Y-129326163D01*
X112335299Y-129326163D01*
X112280524Y-129231290D01*
X112280518Y-129231282D01*
X112168717Y-129119481D01*
X112168709Y-129119475D01*
X112031790Y-129040426D01*
X112031786Y-129040424D01*
X112031784Y-129040423D01*
X111879057Y-128999500D01*
X111720943Y-128999500D01*
X111568216Y-129040423D01*
X111568209Y-129040426D01*
X111431290Y-129119475D01*
X111431282Y-129119481D01*
X111319481Y-129231282D01*
X111319475Y-129231290D01*
X111240426Y-129368209D01*
X111240423Y-129368216D01*
X111199500Y-129520943D01*
X102683771Y-129520943D01*
X102710411Y-129484276D01*
X102742630Y-129439931D01*
X102764627Y-129409652D01*
X102783996Y-129382994D01*
X102866211Y-129221639D01*
X102922171Y-129049409D01*
X102941924Y-128924695D01*
X102950500Y-128870551D01*
X102950500Y-128689448D01*
X102934019Y-128585397D01*
X102922171Y-128510591D01*
X102883806Y-128392514D01*
X102866212Y-128338363D01*
X102866211Y-128338360D01*
X102836331Y-128279718D01*
X102783996Y-128177006D01*
X102770396Y-128158287D01*
X102677558Y-128030505D01*
X102677554Y-128030500D01*
X102549499Y-127902445D01*
X102549494Y-127902441D01*
X102402997Y-127796006D01*
X102402996Y-127796005D01*
X102402994Y-127796004D01*
X102351300Y-127769664D01*
X102241639Y-127713788D01*
X102241636Y-127713787D01*
X102069410Y-127657829D01*
X101909321Y-127632473D01*
X101846186Y-127602544D01*
X101809255Y-127543232D01*
X101810253Y-127473370D01*
X101848863Y-127415137D01*
X101909321Y-127387527D01*
X101979425Y-127376422D01*
X102069409Y-127362171D01*
X102241639Y-127306211D01*
X102402994Y-127223996D01*
X102521686Y-127137762D01*
X110481318Y-127137762D01*
X110481318Y-127295876D01*
X110506673Y-127390500D01*
X110522241Y-127448602D01*
X110522244Y-127448609D01*
X110601293Y-127585528D01*
X110601297Y-127585533D01*
X110601298Y-127585535D01*
X110713102Y-127697339D01*
X110713104Y-127697340D01*
X110713108Y-127697343D01*
X110741594Y-127713789D01*
X110850034Y-127776396D01*
X111002761Y-127817319D01*
X111002763Y-127817319D01*
X111160873Y-127817319D01*
X111160875Y-127817319D01*
X111313602Y-127776396D01*
X111450534Y-127697339D01*
X111562338Y-127585535D01*
X111641395Y-127448603D01*
X111682318Y-127295876D01*
X111682318Y-127137762D01*
X111641395Y-126985035D01*
X111641391Y-126985028D01*
X111562342Y-126848109D01*
X111562336Y-126848101D01*
X111450535Y-126736300D01*
X111450527Y-126736294D01*
X111313608Y-126657245D01*
X111313604Y-126657243D01*
X111313602Y-126657242D01*
X111160875Y-126616319D01*
X111002761Y-126616319D01*
X110895475Y-126645066D01*
X110895471Y-126645067D01*
X110850034Y-126657242D01*
X110850027Y-126657245D01*
X110713108Y-126736294D01*
X110713100Y-126736300D01*
X110601299Y-126848101D01*
X110601293Y-126848109D01*
X110522244Y-126985028D01*
X110522241Y-126985035D01*
X110481318Y-127137762D01*
X102521686Y-127137762D01*
X102549501Y-127117553D01*
X102677553Y-126989501D01*
X102783996Y-126842994D01*
X102866211Y-126681639D01*
X102922171Y-126509409D01*
X102936765Y-126417259D01*
X102950500Y-126330551D01*
X102950500Y-126149448D01*
X102931863Y-126031783D01*
X102922171Y-125970591D01*
X102883806Y-125852514D01*
X102866212Y-125798363D01*
X102866206Y-125798350D01*
X102800355Y-125669111D01*
X102800354Y-125669110D01*
X102783995Y-125637004D01*
X102772326Y-125620943D01*
X108522500Y-125620943D01*
X108522500Y-125779057D01*
X108555041Y-125900500D01*
X108563423Y-125931783D01*
X108563426Y-125931790D01*
X108642475Y-126068709D01*
X108642479Y-126068714D01*
X108642480Y-126068716D01*
X108754284Y-126180520D01*
X108754286Y-126180521D01*
X108754290Y-126180524D01*
X108843087Y-126231790D01*
X108891216Y-126259577D01*
X109043943Y-126300500D01*
X109043945Y-126300500D01*
X109202055Y-126300500D01*
X109202057Y-126300500D01*
X109354784Y-126259577D01*
X109491716Y-126180520D01*
X109603520Y-126068716D01*
X109682577Y-125931784D01*
X109723500Y-125779057D01*
X109723500Y-125720943D01*
X110199500Y-125720943D01*
X110199500Y-125879057D01*
X110224027Y-125970591D01*
X110240423Y-126031783D01*
X110240426Y-126031790D01*
X110319475Y-126168709D01*
X110319479Y-126168714D01*
X110319480Y-126168716D01*
X110431284Y-126280520D01*
X110431286Y-126280521D01*
X110431290Y-126280524D01*
X110517932Y-126330546D01*
X110568216Y-126359577D01*
X110720943Y-126400500D01*
X110720945Y-126400500D01*
X110853109Y-126400500D01*
X110879057Y-126400500D01*
X111031784Y-126359577D01*
X111168716Y-126280520D01*
X111280520Y-126168716D01*
X111359577Y-126031784D01*
X111400500Y-125879057D01*
X111400500Y-125720943D01*
X111359577Y-125568216D01*
X111327671Y-125512952D01*
X111280524Y-125431290D01*
X111280518Y-125431282D01*
X111168717Y-125319481D01*
X111168709Y-125319475D01*
X111031790Y-125240426D01*
X111031786Y-125240424D01*
X111031784Y-125240423D01*
X110879057Y-125199500D01*
X110720943Y-125199500D01*
X110568216Y-125240423D01*
X110568209Y-125240426D01*
X110431290Y-125319475D01*
X110431282Y-125319481D01*
X110319481Y-125431282D01*
X110319475Y-125431290D01*
X110240426Y-125568209D01*
X110240423Y-125568216D01*
X110199500Y-125720943D01*
X109723500Y-125720943D01*
X109723500Y-125620943D01*
X109682577Y-125468216D01*
X109661258Y-125431290D01*
X109603524Y-125331290D01*
X109603518Y-125331282D01*
X109491717Y-125219481D01*
X109491709Y-125219475D01*
X109354790Y-125140426D01*
X109354786Y-125140424D01*
X109354784Y-125140423D01*
X109202057Y-125099500D01*
X109043943Y-125099500D01*
X108891216Y-125140423D01*
X108891209Y-125140426D01*
X108754290Y-125219475D01*
X108754282Y-125219481D01*
X108642481Y-125331282D01*
X108642475Y-125331290D01*
X108563426Y-125468209D01*
X108563423Y-125468216D01*
X108522500Y-125620943D01*
X102772326Y-125620943D01*
X102677558Y-125490505D01*
X102677554Y-125490500D01*
X102549499Y-125362445D01*
X102549494Y-125362441D01*
X102402997Y-125256006D01*
X102402996Y-125256005D01*
X102402994Y-125256004D01*
X102351300Y-125229664D01*
X102241639Y-125173788D01*
X102241636Y-125173787D01*
X102069410Y-125117829D01*
X101909321Y-125092473D01*
X101846186Y-125062544D01*
X101809255Y-125003232D01*
X101810253Y-124933370D01*
X101848863Y-124875137D01*
X101909321Y-124847527D01*
X101979425Y-124836422D01*
X102069409Y-124822171D01*
X102241639Y-124766211D01*
X102402994Y-124683996D01*
X102549501Y-124577553D01*
X102677553Y-124449501D01*
X102783996Y-124302994D01*
X102866211Y-124141639D01*
X102922171Y-123969409D01*
X102948960Y-123800271D01*
X102950500Y-123790551D01*
X102950500Y-123609448D01*
X102923728Y-123440423D01*
X102922171Y-123430591D01*
X102883806Y-123312514D01*
X102866212Y-123258363D01*
X102866211Y-123258360D01*
X102826548Y-123180518D01*
X102783996Y-123097006D01*
X102712481Y-122998573D01*
X102677558Y-122950505D01*
X102677554Y-122950500D01*
X102549499Y-122822445D01*
X102549494Y-122822441D01*
X102402997Y-122716006D01*
X102402996Y-122716005D01*
X102402994Y-122716004D01*
X102333353Y-122680520D01*
X102241639Y-122633788D01*
X102241636Y-122633787D01*
X102069410Y-122577829D01*
X101909321Y-122552473D01*
X101846186Y-122522544D01*
X101809255Y-122463232D01*
X101810253Y-122393370D01*
X101832416Y-122359943D01*
X106271500Y-122359943D01*
X106271500Y-122518057D01*
X106312073Y-122669475D01*
X106312423Y-122670783D01*
X106312426Y-122670790D01*
X106391475Y-122807709D01*
X106391479Y-122807714D01*
X106391480Y-122807716D01*
X106503284Y-122919520D01*
X106503286Y-122919521D01*
X106503290Y-122919524D01*
X106640209Y-122998573D01*
X106640216Y-122998577D01*
X106792943Y-123039500D01*
X106792945Y-123039500D01*
X106951055Y-123039500D01*
X106951057Y-123039500D01*
X107103784Y-122998577D01*
X107208808Y-122937942D01*
X114737816Y-122937942D01*
X114737816Y-123096056D01*
X114778088Y-123246351D01*
X114778739Y-123248782D01*
X114778742Y-123248789D01*
X114857791Y-123385708D01*
X114857795Y-123385713D01*
X114857796Y-123385715D01*
X114969600Y-123497519D01*
X114969602Y-123497520D01*
X114969606Y-123497523D01*
X115081985Y-123562404D01*
X115106532Y-123576576D01*
X115259259Y-123617499D01*
X115259261Y-123617499D01*
X115417371Y-123617499D01*
X115417373Y-123617499D01*
X115570100Y-123576576D01*
X115707032Y-123497519D01*
X115818836Y-123385715D01*
X115897893Y-123248783D01*
X115938816Y-123096056D01*
X115938816Y-123045365D01*
X115958501Y-122978326D01*
X116011305Y-122932571D01*
X116080463Y-122922627D01*
X116144019Y-122951652D01*
X116170202Y-122983364D01*
X116219480Y-123068716D01*
X116331284Y-123180520D01*
X116331285Y-123180521D01*
X116331287Y-123180522D01*
X116438832Y-123242613D01*
X116487047Y-123293180D01*
X116500271Y-123361787D01*
X116474303Y-123426652D01*
X116438832Y-123457387D01*
X116331287Y-123519477D01*
X116331282Y-123519481D01*
X116219481Y-123631282D01*
X116219475Y-123631290D01*
X116140426Y-123768209D01*
X116140423Y-123768216D01*
X116099500Y-123920943D01*
X116099500Y-124079057D01*
X116140308Y-124231352D01*
X116140423Y-124231783D01*
X116140426Y-124231790D01*
X116219475Y-124368709D01*
X116219479Y-124368714D01*
X116219480Y-124368716D01*
X116331284Y-124480520D01*
X116331285Y-124480521D01*
X116331287Y-124480522D01*
X116438832Y-124542613D01*
X116487047Y-124593180D01*
X116500271Y-124661787D01*
X116474303Y-124726652D01*
X116438832Y-124757387D01*
X116331287Y-124819477D01*
X116331282Y-124819481D01*
X116219481Y-124931282D01*
X116219475Y-124931290D01*
X116140426Y-125068209D01*
X116140423Y-125068216D01*
X116099500Y-125220943D01*
X116099500Y-125379057D01*
X116137127Y-125519481D01*
X116140423Y-125531783D01*
X116140426Y-125531790D01*
X116219475Y-125668709D01*
X116219479Y-125668714D01*
X116219480Y-125668716D01*
X116331284Y-125780520D01*
X116331286Y-125780521D01*
X116331290Y-125780524D01*
X116446101Y-125846809D01*
X116468216Y-125859577D01*
X116620943Y-125900500D01*
X116620945Y-125900500D01*
X116779055Y-125900500D01*
X116779057Y-125900500D01*
X116931784Y-125859577D01*
X117068716Y-125780520D01*
X117180520Y-125668716D01*
X117202131Y-125631284D01*
X117242613Y-125561168D01*
X117293179Y-125512952D01*
X117361786Y-125499728D01*
X117426651Y-125525696D01*
X117457387Y-125561168D01*
X117519475Y-125668709D01*
X117519479Y-125668714D01*
X117519480Y-125668716D01*
X117631284Y-125780520D01*
X117631286Y-125780521D01*
X117631290Y-125780524D01*
X117746101Y-125846809D01*
X117768216Y-125859577D01*
X117920943Y-125900500D01*
X117920945Y-125900500D01*
X118079055Y-125900500D01*
X118079057Y-125900500D01*
X118231784Y-125859577D01*
X118368716Y-125780520D01*
X118480520Y-125668716D01*
X118502131Y-125631284D01*
X118542613Y-125561168D01*
X118593179Y-125512952D01*
X118661786Y-125499728D01*
X118726651Y-125525696D01*
X118757387Y-125561168D01*
X118819475Y-125668709D01*
X118819479Y-125668714D01*
X118819480Y-125668716D01*
X118931284Y-125780520D01*
X118931286Y-125780521D01*
X118931290Y-125780524D01*
X119046101Y-125846809D01*
X119068216Y-125859577D01*
X119220943Y-125900500D01*
X119220945Y-125900500D01*
X119379055Y-125900500D01*
X119379057Y-125900500D01*
X119531784Y-125859577D01*
X119668716Y-125780520D01*
X119780520Y-125668716D01*
X119859577Y-125531784D01*
X119900500Y-125379057D01*
X119900500Y-125220943D01*
X119859577Y-125068216D01*
X119822059Y-125003232D01*
X119780524Y-124931290D01*
X119780518Y-124931282D01*
X119668717Y-124819481D01*
X119668716Y-124819480D01*
X119561167Y-124757387D01*
X119526417Y-124720943D01*
X122199500Y-124720943D01*
X122199500Y-124879057D01*
X122233684Y-125006631D01*
X122240423Y-125031783D01*
X122240426Y-125031790D01*
X122319475Y-125168709D01*
X122319479Y-125168714D01*
X122319480Y-125168716D01*
X122431284Y-125280520D01*
X122431285Y-125280521D01*
X122431287Y-125280522D01*
X122452229Y-125292613D01*
X122500445Y-125343180D01*
X122513668Y-125411787D01*
X122487700Y-125476652D01*
X122452229Y-125507387D01*
X122431287Y-125519477D01*
X122431282Y-125519481D01*
X122319481Y-125631282D01*
X122319475Y-125631290D01*
X122240426Y-125768209D01*
X122240423Y-125768216D01*
X122199500Y-125920943D01*
X122199500Y-126079057D01*
X122226687Y-126180518D01*
X122240423Y-126231783D01*
X122240426Y-126231790D01*
X122319475Y-126368709D01*
X122319479Y-126368714D01*
X122319480Y-126368716D01*
X122431284Y-126480520D01*
X122431286Y-126480521D01*
X122431290Y-126480524D01*
X122481323Y-126509410D01*
X122568216Y-126559577D01*
X122720943Y-126600500D01*
X122720945Y-126600500D01*
X122879055Y-126600500D01*
X122879057Y-126600500D01*
X123031784Y-126559577D01*
X123168716Y-126480520D01*
X123280520Y-126368716D01*
X123359577Y-126231784D01*
X123400500Y-126079057D01*
X123400500Y-125920943D01*
X123359577Y-125768216D01*
X123343124Y-125739718D01*
X123280524Y-125631290D01*
X123280518Y-125631282D01*
X123168717Y-125519481D01*
X123168712Y-125519477D01*
X123147772Y-125507388D01*
X123099555Y-125456822D01*
X123086331Y-125388215D01*
X123112298Y-125323350D01*
X123147772Y-125292612D01*
X123152374Y-125289954D01*
X123168716Y-125280520D01*
X123280520Y-125168716D01*
X123359577Y-125031784D01*
X123400500Y-124879057D01*
X123400500Y-124720943D01*
X123359577Y-124568216D01*
X123339655Y-124533709D01*
X123280524Y-124431290D01*
X123280518Y-124431282D01*
X123168717Y-124319481D01*
X123168709Y-124319475D01*
X123031790Y-124240426D01*
X123031786Y-124240424D01*
X123031784Y-124240423D01*
X122879057Y-124199500D01*
X122720943Y-124199500D01*
X122568216Y-124240423D01*
X122568209Y-124240426D01*
X122431290Y-124319475D01*
X122431282Y-124319481D01*
X122319481Y-124431282D01*
X122319475Y-124431290D01*
X122240426Y-124568209D01*
X122240423Y-124568216D01*
X122199500Y-124720943D01*
X119526417Y-124720943D01*
X119512952Y-124706821D01*
X119499728Y-124638214D01*
X119525696Y-124573349D01*
X119561168Y-124542613D01*
X119668709Y-124480524D01*
X119668708Y-124480524D01*
X119668716Y-124480520D01*
X119780520Y-124368716D01*
X119859577Y-124231784D01*
X119900500Y-124079057D01*
X119900500Y-123920943D01*
X119859577Y-123768216D01*
X119849348Y-123750499D01*
X119780524Y-123631290D01*
X119780518Y-123631282D01*
X119668717Y-123519481D01*
X119668709Y-123519475D01*
X119561168Y-123457387D01*
X119512952Y-123406821D01*
X119499728Y-123338214D01*
X119525696Y-123273349D01*
X119561168Y-123242613D01*
X119668709Y-123180524D01*
X119668708Y-123180524D01*
X119668716Y-123180520D01*
X119778293Y-123070943D01*
X123030355Y-123070943D01*
X123030355Y-123229057D01*
X123059604Y-123338214D01*
X123071278Y-123381783D01*
X123071281Y-123381790D01*
X123150330Y-123518709D01*
X123150334Y-123518714D01*
X123150335Y-123518716D01*
X123262139Y-123630520D01*
X123262141Y-123630521D01*
X123262145Y-123630524D01*
X123355596Y-123684477D01*
X123399071Y-123709577D01*
X123551798Y-123750500D01*
X123551800Y-123750500D01*
X123709908Y-123750500D01*
X123709912Y-123750500D01*
X123723850Y-123746765D01*
X123793697Y-123748428D01*
X123851560Y-123787590D01*
X123879065Y-123851818D01*
X123867479Y-123920720D01*
X123863330Y-123928538D01*
X123840425Y-123968211D01*
X123840423Y-123968216D01*
X123799500Y-124120943D01*
X123799500Y-124279057D01*
X123840289Y-124431282D01*
X123840423Y-124431783D01*
X123840426Y-124431790D01*
X123919475Y-124568709D01*
X123919479Y-124568714D01*
X123919480Y-124568716D01*
X124031284Y-124680520D01*
X124031286Y-124680521D01*
X124031290Y-124680524D01*
X124168209Y-124759573D01*
X124168216Y-124759577D01*
X124320943Y-124800500D01*
X124320945Y-124800500D01*
X124479055Y-124800500D01*
X124479057Y-124800500D01*
X124631784Y-124759577D01*
X124768716Y-124680520D01*
X124880520Y-124568716D01*
X124959577Y-124431784D01*
X125000500Y-124279057D01*
X125000500Y-124120943D01*
X124959577Y-123968216D01*
X124936669Y-123928538D01*
X124880524Y-123831290D01*
X124880518Y-123831282D01*
X124768717Y-123719481D01*
X124768709Y-123719475D01*
X124631790Y-123640426D01*
X124631786Y-123640424D01*
X124631784Y-123640423D01*
X124479057Y-123599500D01*
X124320943Y-123599500D01*
X124320938Y-123599500D01*
X124307000Y-123603235D01*
X124237150Y-123601569D01*
X124179290Y-123562404D01*
X124151788Y-123498174D01*
X124159244Y-123438773D01*
X124162711Y-123429798D01*
X124190432Y-123381784D01*
X124198696Y-123350943D01*
X125963500Y-123350943D01*
X125963500Y-123509057D01*
X125998700Y-123640423D01*
X126004423Y-123661783D01*
X126004426Y-123661790D01*
X126083475Y-123798709D01*
X126083479Y-123798714D01*
X126083480Y-123798716D01*
X126195284Y-123910520D01*
X126301500Y-123971843D01*
X126349715Y-124022409D01*
X126363500Y-124079230D01*
X126363500Y-124085943D01*
X126363500Y-124244057D01*
X126396903Y-124368717D01*
X126404423Y-124396783D01*
X126404426Y-124396790D01*
X126483475Y-124533709D01*
X126483479Y-124533714D01*
X126483480Y-124533716D01*
X126595284Y-124645520D01*
X126595286Y-124645521D01*
X126595290Y-124645524D01*
X126688781Y-124699500D01*
X126732216Y-124724577D01*
X126884943Y-124765500D01*
X126884945Y-124765500D01*
X127043055Y-124765500D01*
X127043057Y-124765500D01*
X127195784Y-124724577D01*
X127332716Y-124645520D01*
X127444520Y-124533716D01*
X127523577Y-124396784D01*
X127564500Y-124244057D01*
X127564500Y-124085943D01*
X127523577Y-123933216D01*
X127516491Y-123920943D01*
X127444524Y-123796290D01*
X127444518Y-123796282D01*
X127332717Y-123684481D01*
X127332712Y-123684477D01*
X127226500Y-123623156D01*
X127178284Y-123572589D01*
X127164500Y-123515769D01*
X127164500Y-123350945D01*
X127164500Y-123350943D01*
X127123577Y-123198216D01*
X127113363Y-123180524D01*
X127044524Y-123061290D01*
X127044518Y-123061282D01*
X126932717Y-122949481D01*
X126932709Y-122949475D01*
X126795790Y-122870426D01*
X126795786Y-122870424D01*
X126795784Y-122870423D01*
X126643057Y-122829500D01*
X126484943Y-122829500D01*
X126332216Y-122870423D01*
X126332209Y-122870426D01*
X126195290Y-122949475D01*
X126195282Y-122949481D01*
X126083481Y-123061282D01*
X126083475Y-123061290D01*
X126004426Y-123198209D01*
X126004423Y-123198216D01*
X125963500Y-123350943D01*
X124198696Y-123350943D01*
X124231355Y-123229057D01*
X124231355Y-123070943D01*
X124190432Y-122918216D01*
X124162839Y-122870423D01*
X124111379Y-122781290D01*
X124111373Y-122781282D01*
X123999572Y-122669481D01*
X123999564Y-122669475D01*
X123862645Y-122590426D01*
X123862641Y-122590424D01*
X123862639Y-122590423D01*
X123709912Y-122549500D01*
X123551798Y-122549500D01*
X123399071Y-122590423D01*
X123399064Y-122590426D01*
X123262145Y-122669475D01*
X123262137Y-122669481D01*
X123150336Y-122781282D01*
X123150330Y-122781290D01*
X123071281Y-122918209D01*
X123071278Y-122918216D01*
X123030355Y-123070943D01*
X119778293Y-123070943D01*
X119780520Y-123068716D01*
X119859577Y-122931784D01*
X119900500Y-122779057D01*
X119900500Y-122620943D01*
X119859577Y-122468216D01*
X119838543Y-122431783D01*
X119780524Y-122331290D01*
X119780518Y-122331282D01*
X119668717Y-122219481D01*
X119668709Y-122219475D01*
X119531790Y-122140426D01*
X119531786Y-122140424D01*
X119531784Y-122140423D01*
X119379057Y-122099500D01*
X119220943Y-122099500D01*
X119068216Y-122140423D01*
X119068209Y-122140426D01*
X118931290Y-122219475D01*
X118931282Y-122219481D01*
X118819481Y-122331282D01*
X118819477Y-122331287D01*
X118757387Y-122438832D01*
X118706820Y-122487047D01*
X118638213Y-122500271D01*
X118573348Y-122474303D01*
X118542613Y-122438832D01*
X118480522Y-122331287D01*
X118480518Y-122331282D01*
X118368717Y-122219481D01*
X118368709Y-122219475D01*
X118231790Y-122140426D01*
X118231786Y-122140424D01*
X118231784Y-122140423D01*
X118079057Y-122099500D01*
X117920943Y-122099500D01*
X117768216Y-122140423D01*
X117768209Y-122140426D01*
X117631290Y-122219475D01*
X117631282Y-122219481D01*
X117519481Y-122331282D01*
X117519477Y-122331287D01*
X117457387Y-122438832D01*
X117406820Y-122487047D01*
X117338213Y-122500271D01*
X117273348Y-122474303D01*
X117242613Y-122438832D01*
X117180522Y-122331287D01*
X117180518Y-122331282D01*
X117068717Y-122219481D01*
X117068709Y-122219475D01*
X116931790Y-122140426D01*
X116931786Y-122140424D01*
X116931784Y-122140423D01*
X116779057Y-122099500D01*
X116620943Y-122099500D01*
X116468212Y-122140424D01*
X116464973Y-122141766D01*
X116462021Y-122142083D01*
X116460365Y-122142527D01*
X116460295Y-122142268D01*
X116395503Y-122149232D01*
X116333025Y-122117954D01*
X116297375Y-122057864D01*
X116297749Y-121995112D01*
X116316896Y-121923658D01*
X116316896Y-121765544D01*
X116275973Y-121612817D01*
X116275087Y-121611282D01*
X116196920Y-121475891D01*
X116196914Y-121475883D01*
X116085113Y-121364082D01*
X116085105Y-121364076D01*
X115948186Y-121285027D01*
X115948182Y-121285025D01*
X115948180Y-121285024D01*
X115795453Y-121244101D01*
X115637339Y-121244101D01*
X115484612Y-121285024D01*
X115484605Y-121285027D01*
X115347686Y-121364076D01*
X115347678Y-121364082D01*
X115235877Y-121475883D01*
X115235871Y-121475891D01*
X115156822Y-121612810D01*
X115156819Y-121612817D01*
X115115896Y-121765544D01*
X115115896Y-121923658D01*
X115155185Y-122070284D01*
X115156819Y-122076384D01*
X115156822Y-122076391D01*
X115235871Y-122213310D01*
X115235877Y-122213318D01*
X115249194Y-122226635D01*
X115282679Y-122287958D01*
X115277695Y-122357650D01*
X115235823Y-122413583D01*
X115193607Y-122434090D01*
X115152515Y-122445101D01*
X115106532Y-122457422D01*
X115106525Y-122457425D01*
X114969606Y-122536474D01*
X114969598Y-122536480D01*
X114857797Y-122648281D01*
X114857791Y-122648289D01*
X114778742Y-122785208D01*
X114778739Y-122785215D01*
X114737816Y-122937942D01*
X107208808Y-122937942D01*
X107240716Y-122919520D01*
X107352520Y-122807716D01*
X107431577Y-122670784D01*
X107472500Y-122518057D01*
X107472500Y-122359943D01*
X107431577Y-122207216D01*
X107409767Y-122169441D01*
X107393295Y-122101542D01*
X107416147Y-122035515D01*
X107429469Y-122019766D01*
X107480520Y-121968716D01*
X107519648Y-121900943D01*
X109549500Y-121900943D01*
X109549500Y-122059057D01*
X109573663Y-122149232D01*
X109590423Y-122211783D01*
X109590426Y-122211790D01*
X109669475Y-122348709D01*
X109669479Y-122348714D01*
X109669480Y-122348716D01*
X109781284Y-122460520D01*
X109781286Y-122460521D01*
X109781290Y-122460524D01*
X109892730Y-122524863D01*
X109918216Y-122539577D01*
X110070943Y-122580500D01*
X110070945Y-122580500D01*
X110229055Y-122580500D01*
X110229057Y-122580500D01*
X110381784Y-122539577D01*
X110518716Y-122460520D01*
X110630520Y-122348716D01*
X110709577Y-122211784D01*
X110733918Y-122120943D01*
X112882344Y-122120943D01*
X112882344Y-122279057D01*
X112919172Y-122416499D01*
X112923267Y-122431783D01*
X112923270Y-122431790D01*
X113002319Y-122568709D01*
X113002323Y-122568714D01*
X113002324Y-122568716D01*
X113114128Y-122680520D01*
X113114130Y-122680521D01*
X113114134Y-122680524D01*
X113175592Y-122716006D01*
X113251060Y-122759577D01*
X113403787Y-122800500D01*
X113403789Y-122800500D01*
X113561899Y-122800500D01*
X113561901Y-122800500D01*
X113714628Y-122759577D01*
X113851560Y-122680520D01*
X113963364Y-122568716D01*
X114042421Y-122431784D01*
X114083344Y-122279057D01*
X114083344Y-122120943D01*
X114042421Y-121968216D01*
X114008518Y-121909494D01*
X113963368Y-121831290D01*
X113963362Y-121831282D01*
X113851561Y-121719481D01*
X113851553Y-121719475D01*
X113714634Y-121640426D01*
X113714630Y-121640424D01*
X113714628Y-121640423D01*
X113561901Y-121599500D01*
X113403787Y-121599500D01*
X113251060Y-121640423D01*
X113251053Y-121640426D01*
X113114134Y-121719475D01*
X113114126Y-121719481D01*
X113002325Y-121831282D01*
X113002319Y-121831290D01*
X112923270Y-121968209D01*
X112923267Y-121968216D01*
X112882344Y-122120943D01*
X110733918Y-122120943D01*
X110750500Y-122059057D01*
X110750500Y-121900943D01*
X110709577Y-121748216D01*
X110692987Y-121719481D01*
X110630524Y-121611290D01*
X110630518Y-121611282D01*
X110518717Y-121499481D01*
X110518709Y-121499475D01*
X110381790Y-121420426D01*
X110381786Y-121420424D01*
X110381784Y-121420423D01*
X110229057Y-121379500D01*
X110070943Y-121379500D01*
X109918216Y-121420423D01*
X109918209Y-121420426D01*
X109781290Y-121499475D01*
X109781282Y-121499481D01*
X109669481Y-121611282D01*
X109669475Y-121611290D01*
X109590426Y-121748209D01*
X109590423Y-121748216D01*
X109549500Y-121900943D01*
X107519648Y-121900943D01*
X107559577Y-121831784D01*
X107600500Y-121679057D01*
X107600500Y-121520943D01*
X107559577Y-121368216D01*
X107557187Y-121364076D01*
X107480524Y-121231290D01*
X107480518Y-121231282D01*
X107368717Y-121119481D01*
X107368709Y-121119475D01*
X107231790Y-121040426D01*
X107231786Y-121040424D01*
X107231784Y-121040423D01*
X107079057Y-120999500D01*
X106920943Y-120999500D01*
X106768216Y-121040423D01*
X106768209Y-121040426D01*
X106631290Y-121119475D01*
X106631282Y-121119481D01*
X106519481Y-121231282D01*
X106519475Y-121231290D01*
X106440426Y-121368209D01*
X106440423Y-121368216D01*
X106399500Y-121520943D01*
X106399500Y-121679057D01*
X106440289Y-121831282D01*
X106440423Y-121831783D01*
X106440424Y-121831786D01*
X106462231Y-121869557D01*
X106478704Y-121937458D01*
X106455851Y-122003484D01*
X106442526Y-122019237D01*
X106391481Y-122070282D01*
X106391475Y-122070290D01*
X106312426Y-122207209D01*
X106312423Y-122207216D01*
X106271500Y-122359943D01*
X101832416Y-122359943D01*
X101848863Y-122335137D01*
X101909321Y-122307527D01*
X101979425Y-122296422D01*
X102069409Y-122282171D01*
X102187751Y-122243719D01*
X102218021Y-122233885D01*
X102218021Y-122233884D01*
X102241639Y-122226211D01*
X102402994Y-122143996D01*
X102549501Y-122037553D01*
X102677553Y-121909501D01*
X102783996Y-121762994D01*
X102866211Y-121601639D01*
X102922171Y-121429409D01*
X102945039Y-121285027D01*
X102950500Y-121250551D01*
X102950500Y-121069448D01*
X102934019Y-120965397D01*
X102922171Y-120890591D01*
X102883806Y-120772514D01*
X102866212Y-120718363D01*
X102866211Y-120718360D01*
X102836331Y-120659718D01*
X102783996Y-120557006D01*
X102770396Y-120538287D01*
X102677558Y-120410505D01*
X102677554Y-120410500D01*
X102549499Y-120282445D01*
X102549494Y-120282441D01*
X102402997Y-120176006D01*
X102402996Y-120176005D01*
X102402994Y-120176004D01*
X102351300Y-120149664D01*
X102241639Y-120093788D01*
X102241636Y-120093787D01*
X102069410Y-120037829D01*
X101909321Y-120012473D01*
X101846186Y-119982544D01*
X101809255Y-119923232D01*
X101810253Y-119853370D01*
X101848863Y-119795137D01*
X101909321Y-119767527D01*
X101979425Y-119756422D01*
X102069409Y-119742171D01*
X102134743Y-119720943D01*
X107199500Y-119720943D01*
X107199500Y-119879057D01*
X107212248Y-119926631D01*
X107240423Y-120031783D01*
X107240426Y-120031790D01*
X107319475Y-120168709D01*
X107319479Y-120168714D01*
X107319480Y-120168716D01*
X107431284Y-120280520D01*
X107431286Y-120280521D01*
X107431290Y-120280524D01*
X107568209Y-120359573D01*
X107568216Y-120359577D01*
X107720943Y-120400500D01*
X107720945Y-120400500D01*
X107879055Y-120400500D01*
X107879057Y-120400500D01*
X108031784Y-120359577D01*
X108168716Y-120280520D01*
X108280520Y-120168716D01*
X108359577Y-120031784D01*
X108400500Y-119879057D01*
X108400500Y-119720943D01*
X108359577Y-119568216D01*
X108318780Y-119497553D01*
X108280524Y-119431290D01*
X108280518Y-119431282D01*
X108168717Y-119319481D01*
X108168709Y-119319475D01*
X108031790Y-119240426D01*
X108031786Y-119240424D01*
X108031784Y-119240423D01*
X107879057Y-119199500D01*
X107720943Y-119199500D01*
X107568216Y-119240423D01*
X107568209Y-119240426D01*
X107431290Y-119319475D01*
X107431282Y-119319481D01*
X107319481Y-119431282D01*
X107319475Y-119431290D01*
X107240426Y-119568209D01*
X107240423Y-119568216D01*
X107199500Y-119720943D01*
X102134743Y-119720943D01*
X102241639Y-119686211D01*
X102402994Y-119603996D01*
X102549501Y-119497553D01*
X102677553Y-119369501D01*
X102783996Y-119222994D01*
X102866211Y-119061639D01*
X102922171Y-118889409D01*
X102941379Y-118768137D01*
X102950500Y-118710551D01*
X102950500Y-118695943D01*
X109399500Y-118695943D01*
X109399500Y-118854056D01*
X109440423Y-119006783D01*
X109440426Y-119006790D01*
X109519475Y-119143709D01*
X109519479Y-119143714D01*
X109519480Y-119143716D01*
X109631284Y-119255520D01*
X109631286Y-119255521D01*
X109631290Y-119255524D01*
X109768209Y-119334573D01*
X109768216Y-119334577D01*
X109920943Y-119375500D01*
X109920945Y-119375500D01*
X110079055Y-119375500D01*
X110079057Y-119375500D01*
X110231784Y-119334577D01*
X110368716Y-119255520D01*
X110480520Y-119143716D01*
X110559577Y-119006784D01*
X110600500Y-118854057D01*
X110600500Y-118695943D01*
X110559577Y-118543216D01*
X110544507Y-118517114D01*
X110480524Y-118406290D01*
X110480518Y-118406282D01*
X110368717Y-118294481D01*
X110368709Y-118294475D01*
X110231790Y-118215426D01*
X110231786Y-118215424D01*
X110231784Y-118215423D01*
X110079057Y-118174500D01*
X109920943Y-118174500D01*
X109768216Y-118215423D01*
X109768209Y-118215426D01*
X109631290Y-118294475D01*
X109631282Y-118294481D01*
X109519481Y-118406282D01*
X109519475Y-118406290D01*
X109440426Y-118543209D01*
X109440423Y-118543216D01*
X109399500Y-118695943D01*
X102950500Y-118695943D01*
X102950500Y-118529448D01*
X102930992Y-118406284D01*
X102922171Y-118350591D01*
X102883806Y-118232514D01*
X102866212Y-118178363D01*
X102866211Y-118178360D01*
X102793977Y-118036595D01*
X102783996Y-118017006D01*
X102775782Y-118005700D01*
X102728734Y-117940943D01*
X114599500Y-117940943D01*
X114599500Y-118099057D01*
X114626682Y-118200499D01*
X114640423Y-118251783D01*
X114640426Y-118251790D01*
X114719475Y-118388709D01*
X114719479Y-118388714D01*
X114719480Y-118388716D01*
X114831284Y-118500520D01*
X114956946Y-118573070D01*
X115005160Y-118623635D01*
X115018384Y-118692242D01*
X114992416Y-118757107D01*
X114982627Y-118768137D01*
X114919478Y-118831286D01*
X114919475Y-118831290D01*
X114840426Y-118968209D01*
X114840423Y-118968216D01*
X114799500Y-119120943D01*
X114799500Y-119279057D01*
X114840289Y-119431282D01*
X114840423Y-119431783D01*
X114840426Y-119431790D01*
X114919475Y-119568709D01*
X114919479Y-119568714D01*
X114919480Y-119568716D01*
X115031284Y-119680520D01*
X115031286Y-119680521D01*
X115031290Y-119680524D01*
X115168209Y-119759573D01*
X115168216Y-119759577D01*
X115320943Y-119800500D01*
X115320945Y-119800500D01*
X115479055Y-119800500D01*
X115479057Y-119800500D01*
X115631784Y-119759577D01*
X115768716Y-119680520D01*
X115880520Y-119568716D01*
X115959577Y-119431784D01*
X116000500Y-119279057D01*
X116000500Y-119120943D01*
X115959577Y-118968216D01*
X115914079Y-118889410D01*
X115880524Y-118831290D01*
X115880518Y-118831282D01*
X115768717Y-118719481D01*
X115768716Y-118719480D01*
X115643053Y-118646929D01*
X115594839Y-118596364D01*
X115581615Y-118527757D01*
X115607583Y-118462892D01*
X115617357Y-118451878D01*
X115680520Y-118388716D01*
X115759577Y-118251784D01*
X115800500Y-118099057D01*
X115800500Y-117940943D01*
X115783763Y-117878481D01*
X116157038Y-117878481D01*
X116157038Y-118036595D01*
X116197275Y-118186759D01*
X116197961Y-118189321D01*
X116197964Y-118189328D01*
X116277013Y-118326247D01*
X116277017Y-118326252D01*
X116277018Y-118326254D01*
X116388822Y-118438058D01*
X116388824Y-118438059D01*
X116388828Y-118438062D01*
X116497010Y-118500520D01*
X116525754Y-118517115D01*
X116678481Y-118558038D01*
X116678483Y-118558038D01*
X116836593Y-118558038D01*
X116836595Y-118558038D01*
X116989322Y-118517115D01*
X117126254Y-118438058D01*
X117238058Y-118326254D01*
X117317115Y-118189322D01*
X117358038Y-118036595D01*
X117358038Y-117878481D01*
X117317115Y-117725754D01*
X117274119Y-117651282D01*
X117238062Y-117588828D01*
X117238056Y-117588820D01*
X117126255Y-117477019D01*
X117126247Y-117477013D01*
X116989328Y-117397964D01*
X116989324Y-117397962D01*
X116989322Y-117397961D01*
X116836595Y-117357038D01*
X116678481Y-117357038D01*
X116525754Y-117397961D01*
X116525747Y-117397964D01*
X116388828Y-117477013D01*
X116388820Y-117477019D01*
X116277019Y-117588820D01*
X116277013Y-117588828D01*
X116197964Y-117725747D01*
X116197961Y-117725754D01*
X116157038Y-117878481D01*
X115783763Y-117878481D01*
X115759577Y-117788216D01*
X115759573Y-117788209D01*
X115680524Y-117651290D01*
X115680518Y-117651282D01*
X115568717Y-117539481D01*
X115568709Y-117539475D01*
X115431790Y-117460426D01*
X115431786Y-117460424D01*
X115431784Y-117460423D01*
X115279057Y-117419500D01*
X115120943Y-117419500D01*
X114968216Y-117460423D01*
X114968209Y-117460426D01*
X114831290Y-117539475D01*
X114831282Y-117539481D01*
X114719481Y-117651282D01*
X114719475Y-117651290D01*
X114640426Y-117788209D01*
X114640424Y-117788214D01*
X114640423Y-117788216D01*
X114599500Y-117940943D01*
X102728734Y-117940943D01*
X102677558Y-117870504D01*
X102549499Y-117742445D01*
X102549494Y-117742441D01*
X102402997Y-117636006D01*
X102402996Y-117636005D01*
X102402994Y-117636004D01*
X102333312Y-117600499D01*
X102241639Y-117553788D01*
X102241636Y-117553787D01*
X102069410Y-117497829D01*
X101909321Y-117472473D01*
X101846186Y-117442544D01*
X101809255Y-117383232D01*
X101810253Y-117313370D01*
X101848863Y-117255137D01*
X101909321Y-117227527D01*
X101979425Y-117216422D01*
X102069409Y-117202171D01*
X102241639Y-117146211D01*
X102402994Y-117063996D01*
X102549501Y-116957553D01*
X102586111Y-116920943D01*
X118799500Y-116920943D01*
X118799500Y-117079057D01*
X118840289Y-117231282D01*
X118840423Y-117231783D01*
X118840426Y-117231790D01*
X118919475Y-117368709D01*
X118919479Y-117368714D01*
X118919480Y-117368716D01*
X119031284Y-117480520D01*
X119031286Y-117480521D01*
X119031290Y-117480524D01*
X119133408Y-117539481D01*
X119168216Y-117559577D01*
X119320943Y-117600500D01*
X119320945Y-117600500D01*
X119479055Y-117600500D01*
X119479057Y-117600500D01*
X119631784Y-117559577D01*
X119698701Y-117520943D01*
X120199500Y-117520943D01*
X120199500Y-117679057D01*
X120228749Y-117788214D01*
X120240423Y-117831783D01*
X120240426Y-117831790D01*
X120319475Y-117968709D01*
X120319479Y-117968714D01*
X120319480Y-117968716D01*
X120431284Y-118080520D01*
X120431286Y-118080521D01*
X120431290Y-118080524D01*
X120499181Y-118119720D01*
X120568216Y-118159577D01*
X120720943Y-118200500D01*
X120720945Y-118200500D01*
X120879055Y-118200500D01*
X120879057Y-118200500D01*
X121031784Y-118159577D01*
X121168716Y-118080520D01*
X121280520Y-117968716D01*
X121359577Y-117831784D01*
X121400500Y-117679057D01*
X121400500Y-117520943D01*
X121359577Y-117368216D01*
X121359573Y-117368209D01*
X121280524Y-117231290D01*
X121280518Y-117231282D01*
X121168717Y-117119481D01*
X121168709Y-117119475D01*
X121031790Y-117040426D01*
X121031786Y-117040424D01*
X121031784Y-117040423D01*
X120879057Y-116999500D01*
X120720943Y-116999500D01*
X120568216Y-117040423D01*
X120568209Y-117040426D01*
X120431290Y-117119475D01*
X120431282Y-117119481D01*
X120319481Y-117231282D01*
X120319475Y-117231290D01*
X120240426Y-117368209D01*
X120240423Y-117368216D01*
X120199500Y-117520943D01*
X119698701Y-117520943D01*
X119768716Y-117480520D01*
X119880520Y-117368716D01*
X119959577Y-117231784D01*
X120000500Y-117079057D01*
X120000500Y-116920943D01*
X124599500Y-116920943D01*
X124599500Y-117079057D01*
X124640289Y-117231282D01*
X124640423Y-117231783D01*
X124640426Y-117231790D01*
X124719475Y-117368709D01*
X124719479Y-117368714D01*
X124719480Y-117368716D01*
X124831284Y-117480520D01*
X124831286Y-117480521D01*
X124831290Y-117480524D01*
X124933408Y-117539481D01*
X124968216Y-117559577D01*
X125120943Y-117600500D01*
X125120945Y-117600500D01*
X125279055Y-117600500D01*
X125279057Y-117600500D01*
X125431784Y-117559577D01*
X125568716Y-117480520D01*
X125680520Y-117368716D01*
X125759577Y-117231784D01*
X125800500Y-117079057D01*
X125800500Y-116920943D01*
X125759577Y-116768216D01*
X125759573Y-116768209D01*
X125680524Y-116631290D01*
X125680518Y-116631282D01*
X125568717Y-116519481D01*
X125568709Y-116519475D01*
X125431790Y-116440426D01*
X125431786Y-116440424D01*
X125431784Y-116440423D01*
X125279057Y-116399500D01*
X125120943Y-116399500D01*
X124968216Y-116440423D01*
X124968209Y-116440426D01*
X124831290Y-116519475D01*
X124831282Y-116519481D01*
X124719481Y-116631282D01*
X124719475Y-116631290D01*
X124640426Y-116768209D01*
X124640423Y-116768216D01*
X124599500Y-116920943D01*
X120000500Y-116920943D01*
X119959577Y-116768216D01*
X119959573Y-116768209D01*
X119880524Y-116631290D01*
X119880518Y-116631282D01*
X119768717Y-116519481D01*
X119768709Y-116519475D01*
X119631790Y-116440426D01*
X119631786Y-116440424D01*
X119631784Y-116440423D01*
X119479057Y-116399500D01*
X119320943Y-116399500D01*
X119168216Y-116440423D01*
X119168209Y-116440426D01*
X119031290Y-116519475D01*
X119031282Y-116519481D01*
X118919481Y-116631282D01*
X118919475Y-116631290D01*
X118840426Y-116768209D01*
X118840423Y-116768216D01*
X118799500Y-116920943D01*
X102586111Y-116920943D01*
X102677553Y-116829501D01*
X102783996Y-116682994D01*
X102866211Y-116521639D01*
X102866913Y-116519480D01*
X102883806Y-116467487D01*
X102922171Y-116349409D01*
X102945756Y-116200499D01*
X102950500Y-116170551D01*
X102950500Y-115989448D01*
X102934019Y-115885397D01*
X102922171Y-115810591D01*
X102883806Y-115692514D01*
X102866212Y-115638363D01*
X102866211Y-115638360D01*
X102806383Y-115520943D01*
X119799500Y-115520943D01*
X119799500Y-115679057D01*
X119834745Y-115810591D01*
X119840423Y-115831783D01*
X119840426Y-115831790D01*
X119919475Y-115968709D01*
X119919479Y-115968714D01*
X119919480Y-115968716D01*
X120031284Y-116080520D01*
X120031286Y-116080521D01*
X120031290Y-116080524D01*
X120168209Y-116159573D01*
X120168216Y-116159577D01*
X120320943Y-116200500D01*
X120320945Y-116200500D01*
X120479055Y-116200500D01*
X120479057Y-116200500D01*
X120631784Y-116159577D01*
X120768716Y-116080520D01*
X120880520Y-115968716D01*
X120959577Y-115831784D01*
X120974116Y-115777525D01*
X121549500Y-115777525D01*
X121549500Y-115922475D01*
X121587016Y-116062485D01*
X121587017Y-116062488D01*
X121659488Y-116188011D01*
X121659490Y-116188013D01*
X121659491Y-116188015D01*
X121761985Y-116290509D01*
X121761986Y-116290510D01*
X121761988Y-116290511D01*
X121887511Y-116362982D01*
X121887512Y-116362982D01*
X121887515Y-116362984D01*
X122027525Y-116400500D01*
X122027528Y-116400500D01*
X122172472Y-116400500D01*
X122172475Y-116400500D01*
X122312485Y-116362984D01*
X122438015Y-116290509D01*
X122540509Y-116188015D01*
X122612984Y-116062485D01*
X122650500Y-115922475D01*
X122650500Y-115777525D01*
X122612984Y-115637515D01*
X122606538Y-115626351D01*
X122540511Y-115511988D01*
X122540506Y-115511982D01*
X122438017Y-115409493D01*
X122438011Y-115409488D01*
X122312488Y-115337017D01*
X122312489Y-115337017D01*
X122288167Y-115330500D01*
X122172475Y-115299500D01*
X122027525Y-115299500D01*
X121911833Y-115330500D01*
X121887511Y-115337017D01*
X121761988Y-115409488D01*
X121761982Y-115409493D01*
X121659493Y-115511982D01*
X121659488Y-115511988D01*
X121587017Y-115637511D01*
X121587016Y-115637515D01*
X121549500Y-115777525D01*
X120974116Y-115777525D01*
X121000500Y-115679057D01*
X121000500Y-115520943D01*
X120959577Y-115368216D01*
X120948814Y-115349573D01*
X120880524Y-115231290D01*
X120880518Y-115231282D01*
X120768717Y-115119481D01*
X120768709Y-115119475D01*
X120631790Y-115040426D01*
X120631786Y-115040424D01*
X120631784Y-115040423D01*
X120479057Y-114999500D01*
X120320943Y-114999500D01*
X120168216Y-115040423D01*
X120168209Y-115040426D01*
X120031290Y-115119475D01*
X120031282Y-115119481D01*
X119919481Y-115231282D01*
X119919475Y-115231290D01*
X119840426Y-115368209D01*
X119840423Y-115368216D01*
X119799500Y-115520943D01*
X102806383Y-115520943D01*
X102801820Y-115511988D01*
X102783996Y-115477006D01*
X102721146Y-115390500D01*
X102677558Y-115330505D01*
X102677554Y-115330500D01*
X102549499Y-115202445D01*
X102549494Y-115202441D01*
X102402997Y-115096006D01*
X102402996Y-115096005D01*
X102402994Y-115096004D01*
X102351300Y-115069664D01*
X102241639Y-115013788D01*
X102241636Y-115013787D01*
X102069410Y-114957829D01*
X101909321Y-114932473D01*
X101846186Y-114902544D01*
X101809255Y-114843232D01*
X101810253Y-114773370D01*
X101848863Y-114715137D01*
X101858047Y-114710943D01*
X113729500Y-114710943D01*
X113729500Y-114869057D01*
X113768281Y-115013788D01*
X113770423Y-115021783D01*
X113770426Y-115021790D01*
X113849475Y-115158709D01*
X113849479Y-115158714D01*
X113849480Y-115158716D01*
X113961284Y-115270520D01*
X113961286Y-115270521D01*
X113961290Y-115270524D01*
X114076461Y-115337017D01*
X114098216Y-115349577D01*
X114250943Y-115390500D01*
X114250945Y-115390500D01*
X114409055Y-115390500D01*
X114409057Y-115390500D01*
X114561784Y-115349577D01*
X114698716Y-115270520D01*
X114810520Y-115158716D01*
X114889577Y-115021784D01*
X114930500Y-114869057D01*
X114930500Y-114710943D01*
X114889577Y-114558216D01*
X114816586Y-114431790D01*
X114810524Y-114421290D01*
X114810518Y-114421282D01*
X114698717Y-114309481D01*
X114698709Y-114309475D01*
X114561787Y-114230424D01*
X114561784Y-114230423D01*
X114409057Y-114189500D01*
X114250943Y-114189500D01*
X114098216Y-114230423D01*
X114098209Y-114230426D01*
X113961290Y-114309475D01*
X113961282Y-114309481D01*
X113849481Y-114421282D01*
X113849475Y-114421290D01*
X113770426Y-114558209D01*
X113770423Y-114558216D01*
X113729500Y-114710943D01*
X101858047Y-114710943D01*
X101909321Y-114687527D01*
X101979425Y-114676422D01*
X102069409Y-114662171D01*
X102241639Y-114606211D01*
X102402994Y-114523996D01*
X102549501Y-114417553D01*
X102677553Y-114289501D01*
X102783996Y-114142994D01*
X102795232Y-114120943D01*
X120999500Y-114120943D01*
X120999500Y-114279057D01*
X121007651Y-114309475D01*
X121040423Y-114431783D01*
X121040426Y-114431790D01*
X121119475Y-114568709D01*
X121119479Y-114568714D01*
X121119480Y-114568716D01*
X121231284Y-114680520D01*
X121231286Y-114680521D01*
X121231290Y-114680524D01*
X121368209Y-114759573D01*
X121368216Y-114759577D01*
X121520943Y-114800500D01*
X121520945Y-114800500D01*
X121679055Y-114800500D01*
X121679057Y-114800500D01*
X121831784Y-114759577D01*
X121968716Y-114680520D01*
X122080520Y-114568716D01*
X122159577Y-114431784D01*
X122200500Y-114279057D01*
X122200500Y-114120943D01*
X122159577Y-113968216D01*
X122147079Y-113946568D01*
X122080524Y-113831290D01*
X122080518Y-113831282D01*
X121968717Y-113719481D01*
X121968709Y-113719475D01*
X121831790Y-113640426D01*
X121831786Y-113640424D01*
X121831784Y-113640423D01*
X121679057Y-113599500D01*
X121520943Y-113599500D01*
X121368216Y-113640423D01*
X121368209Y-113640426D01*
X121231290Y-113719475D01*
X121231282Y-113719481D01*
X121119481Y-113831282D01*
X121119475Y-113831290D01*
X121040426Y-113968209D01*
X121040423Y-113968216D01*
X120999500Y-114120943D01*
X102795232Y-114120943D01*
X102866211Y-113981639D01*
X102922171Y-113809409D01*
X102942817Y-113679055D01*
X102950500Y-113630551D01*
X102950500Y-113449448D01*
X102933285Y-113340764D01*
X102922171Y-113270591D01*
X102886944Y-113162171D01*
X102866212Y-113098363D01*
X102866211Y-113098360D01*
X102828318Y-113023993D01*
X102783996Y-112937006D01*
X102748147Y-112887664D01*
X102677558Y-112790505D01*
X102677554Y-112790500D01*
X102549499Y-112662445D01*
X102549494Y-112662441D01*
X102402997Y-112556006D01*
X102402996Y-112556005D01*
X102402994Y-112556004D01*
X102335832Y-112521783D01*
X102241639Y-112473788D01*
X102241636Y-112473787D01*
X102069410Y-112417829D01*
X101937728Y-112396972D01*
X101874594Y-112367042D01*
X101837663Y-112307731D01*
X101838661Y-112237868D01*
X101856513Y-112210943D01*
X111509500Y-112210943D01*
X111509500Y-112369057D01*
X111539666Y-112481636D01*
X111550423Y-112521783D01*
X111550426Y-112521790D01*
X111629475Y-112658709D01*
X111629479Y-112658714D01*
X111629480Y-112658716D01*
X111741284Y-112770520D01*
X111741286Y-112770521D01*
X111741290Y-112770524D01*
X111775899Y-112790505D01*
X111878216Y-112849577D01*
X112030943Y-112890500D01*
X112030945Y-112890500D01*
X112189055Y-112890500D01*
X112189057Y-112890500D01*
X112341784Y-112849577D01*
X112478716Y-112770520D01*
X112590520Y-112658716D01*
X112669577Y-112521784D01*
X112710500Y-112369057D01*
X112710500Y-112210943D01*
X112669577Y-112058216D01*
X112642917Y-112012039D01*
X112590524Y-111921290D01*
X112590518Y-111921282D01*
X112478717Y-111809481D01*
X112478709Y-111809475D01*
X112341790Y-111730426D01*
X112341786Y-111730424D01*
X112341784Y-111730423D01*
X112189057Y-111689500D01*
X112030943Y-111689500D01*
X111878216Y-111730423D01*
X111878209Y-111730426D01*
X111741290Y-111809475D01*
X111741282Y-111809481D01*
X111629481Y-111921282D01*
X111629475Y-111921290D01*
X111550426Y-112058209D01*
X111550423Y-112058216D01*
X111509500Y-112210943D01*
X101856513Y-112210943D01*
X101877271Y-112179636D01*
X101941235Y-112151522D01*
X101957120Y-112150499D01*
X102694864Y-112150499D01*
X102694879Y-112150497D01*
X102694882Y-112150497D01*
X102719987Y-112147586D01*
X102719988Y-112147585D01*
X102719991Y-112147585D01*
X102822765Y-112102206D01*
X102902206Y-112022765D01*
X102947585Y-111919991D01*
X102950500Y-111894865D01*
X102950499Y-110105136D01*
X102950251Y-110102994D01*
X102947586Y-110080012D01*
X102947585Y-110080010D01*
X102947585Y-110080009D01*
X102902206Y-109977235D01*
X102825914Y-109900943D01*
X110549500Y-109900943D01*
X110549500Y-110059057D01*
X110561846Y-110105131D01*
X110590423Y-110211783D01*
X110590426Y-110211790D01*
X110669475Y-110348709D01*
X110669479Y-110348714D01*
X110669480Y-110348716D01*
X110781284Y-110460520D01*
X110781286Y-110460521D01*
X110781290Y-110460524D01*
X110889095Y-110522764D01*
X110918216Y-110539577D01*
X111070943Y-110580500D01*
X111070945Y-110580500D01*
X111229055Y-110580500D01*
X111229057Y-110580500D01*
X111381784Y-110539577D01*
X111518716Y-110460520D01*
X111630520Y-110348716D01*
X111709577Y-110211784D01*
X111750500Y-110059057D01*
X111750500Y-109900943D01*
X111709577Y-109748216D01*
X111656988Y-109657128D01*
X111630524Y-109611290D01*
X111630518Y-109611282D01*
X111518717Y-109499481D01*
X111518709Y-109499475D01*
X111381790Y-109420426D01*
X111381786Y-109420424D01*
X111381784Y-109420423D01*
X111229057Y-109379500D01*
X111070943Y-109379500D01*
X110918216Y-109420423D01*
X110918209Y-109420426D01*
X110781290Y-109499475D01*
X110781282Y-109499481D01*
X110669481Y-109611282D01*
X110669475Y-109611290D01*
X110590426Y-109748209D01*
X110590423Y-109748216D01*
X110549500Y-109900943D01*
X102825914Y-109900943D01*
X102822765Y-109897794D01*
X102771520Y-109875167D01*
X102719992Y-109852415D01*
X102694865Y-109849500D01*
X100905143Y-109849500D01*
X100905117Y-109849502D01*
X100880012Y-109852413D01*
X100880008Y-109852415D01*
X100777235Y-109897793D01*
X100777234Y-109897794D01*
X100712181Y-109962848D01*
X100650858Y-109996333D01*
X100581166Y-109991349D01*
X100525233Y-109949477D01*
X100500816Y-109884013D01*
X100500500Y-109875167D01*
X100500500Y-107927943D01*
X110258500Y-107927943D01*
X110258500Y-108086057D01*
X110292189Y-108211784D01*
X110299423Y-108238783D01*
X110299426Y-108238790D01*
X110378475Y-108375709D01*
X110378479Y-108375714D01*
X110378480Y-108375716D01*
X110490284Y-108487520D01*
X110490286Y-108487521D01*
X110490290Y-108487524D01*
X110580443Y-108539573D01*
X110627216Y-108566577D01*
X110779943Y-108607500D01*
X110779945Y-108607500D01*
X110938055Y-108607500D01*
X110938057Y-108607500D01*
X111090784Y-108566577D01*
X111227716Y-108487520D01*
X111339520Y-108375716D01*
X111418577Y-108238784D01*
X111459500Y-108086057D01*
X111459500Y-107927943D01*
X111452265Y-107900943D01*
X112249500Y-107900943D01*
X112249500Y-108059057D01*
X112270750Y-108138361D01*
X112290423Y-108211783D01*
X112290426Y-108211790D01*
X112369475Y-108348709D01*
X112369479Y-108348714D01*
X112369480Y-108348716D01*
X112481284Y-108460520D01*
X112481286Y-108460521D01*
X112481290Y-108460524D01*
X112608232Y-108533813D01*
X112618216Y-108539577D01*
X112770943Y-108580500D01*
X112770945Y-108580500D01*
X112929055Y-108580500D01*
X112929057Y-108580500D01*
X113081784Y-108539577D01*
X113218716Y-108460520D01*
X113330520Y-108348716D01*
X113409577Y-108211784D01*
X113450500Y-108059057D01*
X113450500Y-107900943D01*
X113409577Y-107748216D01*
X113386772Y-107708716D01*
X113330524Y-107611290D01*
X113330518Y-107611282D01*
X113218717Y-107499481D01*
X113218709Y-107499475D01*
X113081790Y-107420426D01*
X113081786Y-107420424D01*
X113081784Y-107420423D01*
X112929057Y-107379500D01*
X112770943Y-107379500D01*
X112618216Y-107420423D01*
X112618209Y-107420426D01*
X112481290Y-107499475D01*
X112481282Y-107499481D01*
X112369481Y-107611282D01*
X112369475Y-107611290D01*
X112290426Y-107748209D01*
X112290423Y-107748216D01*
X112249500Y-107900943D01*
X111452265Y-107900943D01*
X111418577Y-107775216D01*
X111376561Y-107702441D01*
X111339524Y-107638290D01*
X111339518Y-107638282D01*
X111227717Y-107526481D01*
X111227709Y-107526475D01*
X111090790Y-107447426D01*
X111090786Y-107447424D01*
X111090784Y-107447423D01*
X110938057Y-107406500D01*
X110779943Y-107406500D01*
X110627216Y-107447423D01*
X110627209Y-107447426D01*
X110490290Y-107526475D01*
X110490282Y-107526481D01*
X110378481Y-107638282D01*
X110378475Y-107638290D01*
X110299426Y-107775209D01*
X110299424Y-107775214D01*
X110299423Y-107775216D01*
X110258500Y-107927943D01*
X100500500Y-107927943D01*
X100500500Y-102690633D01*
X100520185Y-102623594D01*
X100572989Y-102577839D01*
X100642147Y-102567895D01*
X100705703Y-102596920D01*
X100724817Y-102617746D01*
X100728233Y-102622447D01*
X100769896Y-102679792D01*
X100920213Y-102830109D01*
X101092179Y-102955048D01*
X101092181Y-102955049D01*
X101092184Y-102955051D01*
X101281588Y-103051557D01*
X101483757Y-103117246D01*
X101693713Y-103150500D01*
X101693714Y-103150500D01*
X101906286Y-103150500D01*
X101906287Y-103150500D01*
X102116243Y-103117246D01*
X102318412Y-103051557D01*
X102507816Y-102955051D01*
X102592186Y-102893753D01*
X102679786Y-102830109D01*
X102679788Y-102830106D01*
X102679792Y-102830104D01*
X102830104Y-102679792D01*
X102884348Y-102605131D01*
X118849500Y-102605131D01*
X118849500Y-104394856D01*
X118849502Y-104394882D01*
X118852413Y-104419987D01*
X118852415Y-104419991D01*
X118897793Y-104522764D01*
X118897794Y-104522765D01*
X118977235Y-104602206D01*
X119080009Y-104647585D01*
X119105135Y-104650500D01*
X119842873Y-104650499D01*
X119909910Y-104670183D01*
X119955665Y-104722987D01*
X119965609Y-104792146D01*
X119936584Y-104855702D01*
X119877806Y-104893476D01*
X119862270Y-104896972D01*
X119730589Y-104917829D01*
X119558363Y-104973787D01*
X119558360Y-104973788D01*
X119397002Y-105056006D01*
X119250505Y-105162441D01*
X119250500Y-105162445D01*
X119122445Y-105290500D01*
X119122441Y-105290505D01*
X119016006Y-105437002D01*
X118933788Y-105598360D01*
X118933787Y-105598363D01*
X118877829Y-105770589D01*
X118849500Y-105949448D01*
X118849500Y-106130551D01*
X118877829Y-106309410D01*
X118933787Y-106481636D01*
X118933788Y-106481639D01*
X118976227Y-106564928D01*
X119016003Y-106642993D01*
X119016006Y-106642997D01*
X119122441Y-106789494D01*
X119122445Y-106789499D01*
X119250500Y-106917554D01*
X119250505Y-106917558D01*
X119378287Y-107010396D01*
X119397006Y-107023996D01*
X119497988Y-107075449D01*
X119558360Y-107106211D01*
X119558363Y-107106212D01*
X119613043Y-107123978D01*
X119730591Y-107162171D01*
X119803639Y-107173740D01*
X119890678Y-107187527D01*
X119953813Y-107217456D01*
X119990744Y-107276768D01*
X119989746Y-107346631D01*
X119951136Y-107404863D01*
X119890678Y-107432473D01*
X119730589Y-107457829D01*
X119558363Y-107513787D01*
X119558360Y-107513788D01*
X119397002Y-107596006D01*
X119250505Y-107702441D01*
X119250500Y-107702445D01*
X119122445Y-107830500D01*
X119122441Y-107830505D01*
X119016006Y-107977002D01*
X118933788Y-108138360D01*
X118933787Y-108138363D01*
X118877829Y-108310589D01*
X118849500Y-108489448D01*
X118849500Y-108670551D01*
X118877829Y-108849410D01*
X118933787Y-109021636D01*
X118933788Y-109021639D01*
X119016006Y-109182997D01*
X119122441Y-109329494D01*
X119122445Y-109329499D01*
X119250500Y-109457554D01*
X119250505Y-109457558D01*
X119369943Y-109544334D01*
X119397006Y-109563996D01*
X119489825Y-109611290D01*
X119558360Y-109646211D01*
X119558363Y-109646212D01*
X119644476Y-109674191D01*
X119730591Y-109702171D01*
X119813429Y-109715291D01*
X119909449Y-109730500D01*
X119909454Y-109730500D01*
X120090551Y-109730500D01*
X120177259Y-109716765D01*
X120269409Y-109702171D01*
X120441639Y-109646211D01*
X120602994Y-109563996D01*
X120742918Y-109462336D01*
X120749493Y-109457559D01*
X120749493Y-109457558D01*
X120749501Y-109457553D01*
X120862045Y-109345008D01*
X120923364Y-109311526D01*
X120993056Y-109316510D01*
X121048990Y-109358381D01*
X121069498Y-109400598D01*
X121071423Y-109407785D01*
X121071426Y-109407790D01*
X121150475Y-109544709D01*
X121150479Y-109544714D01*
X121150480Y-109544716D01*
X121262284Y-109656520D01*
X121262286Y-109656521D01*
X121262290Y-109656524D01*
X121390422Y-109730500D01*
X121399216Y-109735577D01*
X121551943Y-109776500D01*
X121551945Y-109776500D01*
X121710055Y-109776500D01*
X121710057Y-109776500D01*
X121862784Y-109735577D01*
X121998854Y-109657017D01*
X122066752Y-109640545D01*
X122099170Y-109646474D01*
X122149190Y-109662726D01*
X122270591Y-109702171D01*
X122353429Y-109715291D01*
X122449449Y-109730500D01*
X122449454Y-109730500D01*
X122630551Y-109730500D01*
X122717259Y-109716765D01*
X122809409Y-109702171D01*
X122981639Y-109646211D01*
X123142994Y-109563996D01*
X123289501Y-109457553D01*
X123417553Y-109329501D01*
X123523996Y-109182994D01*
X123606211Y-109021639D01*
X123662171Y-108849409D01*
X123686551Y-108695480D01*
X123690500Y-108670551D01*
X123690500Y-108605131D01*
X125349500Y-108605131D01*
X125349500Y-110394856D01*
X125349502Y-110394882D01*
X125352413Y-110419987D01*
X125352415Y-110419991D01*
X125397793Y-110522764D01*
X125397794Y-110522765D01*
X125477235Y-110602206D01*
X125580009Y-110647585D01*
X125605135Y-110650500D01*
X126342873Y-110650499D01*
X126409910Y-110670183D01*
X126455665Y-110722987D01*
X126465609Y-110792146D01*
X126436584Y-110855702D01*
X126377806Y-110893476D01*
X126362270Y-110896972D01*
X126230589Y-110917829D01*
X126058363Y-110973787D01*
X126058360Y-110973788D01*
X125897002Y-111056006D01*
X125750505Y-111162441D01*
X125750500Y-111162445D01*
X125622445Y-111290500D01*
X125622441Y-111290505D01*
X125516006Y-111437002D01*
X125433788Y-111598360D01*
X125433787Y-111598363D01*
X125377829Y-111770589D01*
X125349500Y-111949448D01*
X125349500Y-112130551D01*
X125377829Y-112309410D01*
X125433787Y-112481636D01*
X125433788Y-112481639D01*
X125516006Y-112642997D01*
X125622441Y-112789494D01*
X125622445Y-112789499D01*
X125750500Y-112917554D01*
X125750505Y-112917558D01*
X125813821Y-112963559D01*
X125897006Y-113023996D01*
X126002484Y-113077740D01*
X126058360Y-113106211D01*
X126058363Y-113106212D01*
X126142143Y-113133433D01*
X126230591Y-113162171D01*
X126292877Y-113172036D01*
X126353636Y-113181660D01*
X126416771Y-113211589D01*
X126453702Y-113270901D01*
X126452704Y-113340764D01*
X126441628Y-113366128D01*
X126440425Y-113368211D01*
X126440423Y-113368216D01*
X126399500Y-113520943D01*
X126399500Y-113679057D01*
X126440289Y-113831282D01*
X126440423Y-113831783D01*
X126440426Y-113831790D01*
X126519475Y-113968709D01*
X126519479Y-113968714D01*
X126519480Y-113968716D01*
X126631284Y-114080520D01*
X126631286Y-114080521D01*
X126631290Y-114080524D01*
X126739493Y-114142994D01*
X126768216Y-114159577D01*
X126920943Y-114200500D01*
X126920945Y-114200500D01*
X127079055Y-114200500D01*
X127079057Y-114200500D01*
X127231784Y-114159577D01*
X127368716Y-114080520D01*
X127480520Y-113968716D01*
X127559577Y-113831784D01*
X127600500Y-113679057D01*
X127600500Y-113520943D01*
X127559577Y-113368216D01*
X127503213Y-113270589D01*
X127480524Y-113231290D01*
X127480518Y-113231282D01*
X127368717Y-113119481D01*
X127368712Y-113119477D01*
X127305069Y-113082733D01*
X127256853Y-113032166D01*
X127243630Y-112963559D01*
X127269598Y-112898694D01*
X127279372Y-112887681D01*
X127377553Y-112789501D01*
X127483996Y-112642994D01*
X127566211Y-112481639D01*
X127622171Y-112309409D01*
X127642725Y-112179636D01*
X127647527Y-112149321D01*
X127677456Y-112086186D01*
X127736768Y-112049255D01*
X127806630Y-112050253D01*
X127864863Y-112088863D01*
X127892473Y-112149321D01*
X127917829Y-112309410D01*
X127973787Y-112481636D01*
X127973788Y-112481639D01*
X128056006Y-112642997D01*
X128162441Y-112789494D01*
X128162445Y-112789499D01*
X128290500Y-112917554D01*
X128290505Y-112917558D01*
X128353821Y-112963559D01*
X128437006Y-113023996D01*
X128542484Y-113077740D01*
X128598360Y-113106211D01*
X128598363Y-113106212D01*
X128682143Y-113133433D01*
X128770591Y-113162171D01*
X128853429Y-113175291D01*
X128949449Y-113190500D01*
X128949454Y-113190500D01*
X129130551Y-113190500D01*
X129217259Y-113176765D01*
X129309409Y-113162171D01*
X129481639Y-113106211D01*
X129642994Y-113023996D01*
X129789501Y-112917553D01*
X129917553Y-112789501D01*
X130023996Y-112642994D01*
X130106211Y-112481639D01*
X130162171Y-112309409D01*
X130182725Y-112179636D01*
X130190500Y-112130551D01*
X130190500Y-111949448D01*
X130174019Y-111845397D01*
X130162171Y-111770591D01*
X130106211Y-111598361D01*
X130106211Y-111598360D01*
X130077740Y-111542484D01*
X130023996Y-111437006D01*
X130010396Y-111418287D01*
X129917558Y-111290505D01*
X129917554Y-111290500D01*
X129789499Y-111162445D01*
X129789494Y-111162441D01*
X129642997Y-111056006D01*
X129642996Y-111056005D01*
X129642994Y-111056004D01*
X129591300Y-111029664D01*
X129481639Y-110973788D01*
X129481636Y-110973787D01*
X129309410Y-110917829D01*
X129149321Y-110892473D01*
X129086186Y-110862544D01*
X129049255Y-110803232D01*
X129050253Y-110733370D01*
X129088863Y-110675137D01*
X129149321Y-110647527D01*
X129219425Y-110636422D01*
X129309409Y-110622171D01*
X129481639Y-110566211D01*
X129642994Y-110483996D01*
X129789501Y-110377553D01*
X129917553Y-110249501D01*
X130023996Y-110102994D01*
X130106211Y-109941639D01*
X130162171Y-109769409D01*
X130176765Y-109677259D01*
X130190500Y-109590551D01*
X130190500Y-109409448D01*
X130166046Y-109255057D01*
X130162171Y-109230591D01*
X130106211Y-109058361D01*
X130106211Y-109058360D01*
X130077740Y-109002484D01*
X130023996Y-108897006D01*
X129989415Y-108849409D01*
X129917558Y-108750505D01*
X129917554Y-108750500D01*
X129789499Y-108622445D01*
X129789494Y-108622441D01*
X129642997Y-108516006D01*
X129642996Y-108516005D01*
X129642994Y-108516004D01*
X129587091Y-108487520D01*
X129481639Y-108433788D01*
X129481636Y-108433787D01*
X129309410Y-108377829D01*
X129130551Y-108349500D01*
X129130546Y-108349500D01*
X128949454Y-108349500D01*
X128949449Y-108349500D01*
X128770589Y-108377829D01*
X128598363Y-108433787D01*
X128598360Y-108433788D01*
X128437002Y-108516006D01*
X128290505Y-108622441D01*
X128290500Y-108622445D01*
X128162445Y-108750500D01*
X128162441Y-108750505D01*
X128056006Y-108897002D01*
X127973788Y-109058360D01*
X127973787Y-109058363D01*
X127917829Y-109230589D01*
X127896972Y-109362271D01*
X127867042Y-109425405D01*
X127807731Y-109462336D01*
X127737868Y-109461338D01*
X127679636Y-109422728D01*
X127651522Y-109358764D01*
X127650499Y-109342872D01*
X127650499Y-108605143D01*
X127650499Y-108605136D01*
X127650497Y-108605117D01*
X127647586Y-108580012D01*
X127647585Y-108580010D01*
X127647585Y-108580009D01*
X127602206Y-108477235D01*
X127522765Y-108397794D01*
X127522763Y-108397793D01*
X127419992Y-108352415D01*
X127394865Y-108349500D01*
X125605143Y-108349500D01*
X125605117Y-108349502D01*
X125580012Y-108352413D01*
X125580008Y-108352415D01*
X125477235Y-108397793D01*
X125397794Y-108477234D01*
X125352415Y-108580006D01*
X125352415Y-108580008D01*
X125349500Y-108605131D01*
X123690500Y-108605131D01*
X123690500Y-108489448D01*
X123668334Y-108349502D01*
X123662171Y-108310591D01*
X123606211Y-108138361D01*
X123606211Y-108138360D01*
X123565802Y-108059055D01*
X123523996Y-107977006D01*
X123488350Y-107927943D01*
X123417558Y-107830505D01*
X123417554Y-107830500D01*
X123289499Y-107702445D01*
X123289494Y-107702441D01*
X123142997Y-107596006D01*
X123142996Y-107596005D01*
X123142994Y-107596004D01*
X123091300Y-107569664D01*
X122981639Y-107513788D01*
X122981636Y-107513787D01*
X122809410Y-107457829D01*
X122649321Y-107432473D01*
X122586186Y-107402544D01*
X122549255Y-107343232D01*
X122550253Y-107273370D01*
X122588863Y-107215137D01*
X122649321Y-107187527D01*
X122719425Y-107176422D01*
X122809409Y-107162171D01*
X122981639Y-107106211D01*
X123142994Y-107023996D01*
X123289501Y-106917553D01*
X123417553Y-106789501D01*
X123523996Y-106642994D01*
X123528784Y-106633597D01*
X123570503Y-106551721D01*
X123570505Y-106551716D01*
X123606211Y-106481639D01*
X123606212Y-106481636D01*
X123608230Y-106475424D01*
X123662171Y-106309409D01*
X123684194Y-106170361D01*
X123690500Y-106130551D01*
X123690500Y-105949448D01*
X123674019Y-105845397D01*
X123662171Y-105770591D01*
X123621770Y-105646246D01*
X123606212Y-105598363D01*
X123606211Y-105598360D01*
X123548540Y-105485176D01*
X123540563Y-105469520D01*
X123523996Y-105437006D01*
X123466389Y-105357716D01*
X123417558Y-105290505D01*
X123417554Y-105290500D01*
X123289499Y-105162445D01*
X123289494Y-105162441D01*
X123142997Y-105056006D01*
X123142996Y-105056005D01*
X123142994Y-105056004D01*
X123067499Y-105017537D01*
X122981639Y-104973788D01*
X122981636Y-104973787D01*
X122809410Y-104917829D01*
X122649321Y-104892473D01*
X122586186Y-104862544D01*
X122549255Y-104803232D01*
X122550253Y-104733370D01*
X122588863Y-104675137D01*
X122649321Y-104647527D01*
X122719425Y-104636422D01*
X122809409Y-104622171D01*
X122981639Y-104566211D01*
X123142994Y-104483996D01*
X123289501Y-104377553D01*
X123417553Y-104249501D01*
X123523996Y-104102994D01*
X123606211Y-103941639D01*
X123662171Y-103769409D01*
X123676765Y-103677259D01*
X123690500Y-103590551D01*
X123690500Y-103409448D01*
X123662172Y-103230599D01*
X123662171Y-103230591D01*
X123621770Y-103106246D01*
X123606212Y-103058363D01*
X123606211Y-103058360D01*
X123576474Y-102999999D01*
X123523996Y-102897006D01*
X123475389Y-102830104D01*
X123417558Y-102750505D01*
X123417554Y-102750500D01*
X123289499Y-102622445D01*
X123289494Y-102622441D01*
X123142997Y-102516006D01*
X123142996Y-102516005D01*
X123142994Y-102516004D01*
X123066906Y-102477235D01*
X122981639Y-102433788D01*
X122981636Y-102433787D01*
X122809410Y-102377829D01*
X122630551Y-102349500D01*
X122630546Y-102349500D01*
X122449454Y-102349500D01*
X122449449Y-102349500D01*
X122270589Y-102377829D01*
X122098363Y-102433787D01*
X122098360Y-102433788D01*
X121937002Y-102516006D01*
X121790505Y-102622441D01*
X121790500Y-102622445D01*
X121662445Y-102750500D01*
X121662441Y-102750505D01*
X121556006Y-102897002D01*
X121473788Y-103058360D01*
X121473787Y-103058363D01*
X121417829Y-103230589D01*
X121396972Y-103362271D01*
X121367042Y-103425405D01*
X121307731Y-103462336D01*
X121237868Y-103461338D01*
X121179636Y-103422728D01*
X121151522Y-103358764D01*
X121150499Y-103342872D01*
X121150499Y-102605143D01*
X121150499Y-102605136D01*
X121150497Y-102605117D01*
X121147586Y-102580012D01*
X121147585Y-102580010D01*
X121147585Y-102580009D01*
X121102206Y-102477235D01*
X121022765Y-102397794D01*
X121022763Y-102397793D01*
X120919992Y-102352415D01*
X120894865Y-102349500D01*
X119105143Y-102349500D01*
X119105117Y-102349502D01*
X119080012Y-102352413D01*
X119080008Y-102352415D01*
X118977235Y-102397793D01*
X118897794Y-102477234D01*
X118852415Y-102580006D01*
X118852415Y-102580008D01*
X118849500Y-102605131D01*
X102884348Y-102605131D01*
X102955051Y-102507816D01*
X103051557Y-102318412D01*
X103117246Y-102116243D01*
X103119477Y-102102155D01*
X126150000Y-102102155D01*
X126150000Y-102750000D01*
X127066988Y-102750000D01*
X127034075Y-102807007D01*
X127000000Y-102934174D01*
X127000000Y-103065826D01*
X127034075Y-103192993D01*
X127066988Y-103250000D01*
X126150000Y-103250000D01*
X126150000Y-103897844D01*
X126156401Y-103957372D01*
X126156403Y-103957379D01*
X126206645Y-104092086D01*
X126206649Y-104092093D01*
X126292809Y-104207187D01*
X126292812Y-104207190D01*
X126407906Y-104293350D01*
X126407913Y-104293354D01*
X126542620Y-104343596D01*
X126542619Y-104343596D01*
X126625444Y-104352501D01*
X126625116Y-104355550D01*
X126642014Y-104354642D01*
X126701196Y-104387642D01*
X127370591Y-105057037D01*
X127307007Y-105074075D01*
X127192993Y-105139901D01*
X127099901Y-105232993D01*
X127034075Y-105347007D01*
X127017037Y-105410591D01*
X126384728Y-104778282D01*
X126384727Y-104778282D01*
X126345380Y-104832439D01*
X126248904Y-105021782D01*
X126183242Y-105223869D01*
X126183242Y-105223872D01*
X126150000Y-105433753D01*
X126150000Y-105646246D01*
X126183242Y-105856127D01*
X126183242Y-105856130D01*
X126248904Y-106058217D01*
X126345375Y-106247550D01*
X126384728Y-106301716D01*
X127017037Y-105669408D01*
X127034075Y-105732993D01*
X127099901Y-105847007D01*
X127192993Y-105940099D01*
X127307007Y-106005925D01*
X127370590Y-106022962D01*
X126738282Y-106655269D01*
X126738282Y-106655270D01*
X126792449Y-106694624D01*
X126981782Y-106791095D01*
X127183870Y-106856757D01*
X127393754Y-106890000D01*
X127606246Y-106890000D01*
X127816127Y-106856757D01*
X127816130Y-106856757D01*
X128018217Y-106791095D01*
X128207554Y-106694622D01*
X128261716Y-106655270D01*
X128261717Y-106655270D01*
X127629408Y-106022962D01*
X127692993Y-106005925D01*
X127807007Y-105940099D01*
X127900099Y-105847007D01*
X127965925Y-105732993D01*
X127982962Y-105669409D01*
X128615270Y-106301717D01*
X128615270Y-106301716D01*
X128654622Y-106247554D01*
X128659514Y-106237954D01*
X128707488Y-106187157D01*
X128775308Y-106170361D01*
X128841444Y-106192897D01*
X128880486Y-106237954D01*
X128885375Y-106247550D01*
X128924728Y-106301716D01*
X129557037Y-105669408D01*
X129574075Y-105732993D01*
X129639901Y-105847007D01*
X129732993Y-105940099D01*
X129847007Y-106005925D01*
X129910590Y-106022962D01*
X129278282Y-106655269D01*
X129278282Y-106655270D01*
X129332449Y-106694624D01*
X129521782Y-106791095D01*
X129723870Y-106856757D01*
X129933754Y-106890000D01*
X130146246Y-106890000D01*
X130356127Y-106856757D01*
X130356130Y-106856757D01*
X130558217Y-106791095D01*
X130747554Y-106694622D01*
X130801716Y-106655270D01*
X130801717Y-106655270D01*
X130169408Y-106022962D01*
X130232993Y-106005925D01*
X130347007Y-105940099D01*
X130440099Y-105847007D01*
X130505925Y-105732993D01*
X130522962Y-105669409D01*
X131155270Y-106301717D01*
X131155270Y-106301716D01*
X131194622Y-106247554D01*
X131291095Y-106058217D01*
X131356757Y-105856130D01*
X131356757Y-105856127D01*
X131390000Y-105646246D01*
X131390000Y-105433753D01*
X131356757Y-105223872D01*
X131356757Y-105223869D01*
X131291095Y-105021782D01*
X131194624Y-104832449D01*
X131155270Y-104778282D01*
X131155269Y-104778282D01*
X130522962Y-105410590D01*
X130505925Y-105347007D01*
X130440099Y-105232993D01*
X130347007Y-105139901D01*
X130232993Y-105074075D01*
X130169409Y-105057037D01*
X130801716Y-104424728D01*
X130747550Y-104385375D01*
X130737954Y-104380486D01*
X130687157Y-104332512D01*
X130670361Y-104264692D01*
X130692897Y-104198556D01*
X130737954Y-104159514D01*
X130747554Y-104154622D01*
X130801716Y-104115270D01*
X130801717Y-104115270D01*
X130169408Y-103482962D01*
X130232993Y-103465925D01*
X130347007Y-103400099D01*
X130440099Y-103307007D01*
X130505925Y-103192993D01*
X130522962Y-103129409D01*
X131155270Y-103761717D01*
X131155270Y-103761716D01*
X131194622Y-103707554D01*
X131291095Y-103518217D01*
X131356757Y-103316130D01*
X131356757Y-103316127D01*
X131390000Y-103106246D01*
X131390000Y-102893753D01*
X131356757Y-102683872D01*
X131356757Y-102683869D01*
X131291095Y-102481782D01*
X131194624Y-102292449D01*
X131155270Y-102238282D01*
X131155269Y-102238282D01*
X130522962Y-102870590D01*
X130505925Y-102807007D01*
X130440099Y-102692993D01*
X130347007Y-102599901D01*
X130232993Y-102534075D01*
X130169409Y-102517037D01*
X130801716Y-101884728D01*
X130747550Y-101845375D01*
X130558217Y-101748904D01*
X130356129Y-101683242D01*
X130146246Y-101650000D01*
X129933754Y-101650000D01*
X129723872Y-101683242D01*
X129723869Y-101683242D01*
X129521782Y-101748904D01*
X129332439Y-101845380D01*
X129278282Y-101884727D01*
X129278282Y-101884728D01*
X129910591Y-102517037D01*
X129847007Y-102534075D01*
X129732993Y-102599901D01*
X129639901Y-102692993D01*
X129574075Y-102807007D01*
X129557037Y-102870591D01*
X128887642Y-102201196D01*
X128854319Y-102140609D01*
X128815527Y-101967364D01*
X128793354Y-101907913D01*
X128793350Y-101907906D01*
X128707190Y-101792812D01*
X128707187Y-101792809D01*
X128592093Y-101706649D01*
X128592086Y-101706645D01*
X128457379Y-101656403D01*
X128457372Y-101656401D01*
X128397844Y-101650000D01*
X127750000Y-101650000D01*
X127750000Y-102566988D01*
X127692993Y-102534075D01*
X127565826Y-102500000D01*
X127434174Y-102500000D01*
X127307007Y-102534075D01*
X127250000Y-102566988D01*
X127250000Y-101650000D01*
X126602155Y-101650000D01*
X126542627Y-101656401D01*
X126542620Y-101656403D01*
X126407913Y-101706645D01*
X126407906Y-101706649D01*
X126292812Y-101792809D01*
X126292809Y-101792812D01*
X126206649Y-101907906D01*
X126206645Y-101907913D01*
X126156403Y-102042620D01*
X126156401Y-102042627D01*
X126150000Y-102102155D01*
X103119477Y-102102155D01*
X103150500Y-101906287D01*
X103150500Y-101693713D01*
X103117246Y-101483757D01*
X103051557Y-101281588D01*
X102955051Y-101092184D01*
X102955049Y-101092181D01*
X102955048Y-101092179D01*
X102830109Y-100920213D01*
X102679792Y-100769896D01*
X102617748Y-100724819D01*
X102575082Y-100669489D01*
X102569103Y-100599876D01*
X102601708Y-100538080D01*
X102662547Y-100503723D01*
X102690633Y-100500500D01*
X133309367Y-100500500D01*
X133376406Y-100520185D01*
G37*
%TD.AperFunction*%
%TD*%
M02*
